<svg width="100" height="100" viewBox="0 0 100 100" fill="none" xmlns="http://www.w3.org/2000/svg">
<path d="M79.0277 59.7656C79.0277 75.9458 66.0315 89.0625 49.9999 89.0625C33.9683 89.0625 20.9722 75.9458 20.9722 59.7656C20.9722 43.5854 33.9683 10.9375 49.9999 10.9375C66.0315 10.9375 79.0277 43.5854 79.0277 59.7656Z" fill="#F2EB76"/>
<path fill-rule="evenodd" clip-rule="evenodd" d="M81.6668 59.7657C81.6668 77.3286 67.5448 91.6667 50.0002 91.6667C32.4556 91.6667 18.3335 77.3286 18.3335 59.7657C18.3335 51.165 21.7329 38.5523 27.1227 28.1027C29.8285 22.8566 33.1137 18.0005 36.867 14.4194C40.6055 10.8523 45.047 8.33337 50.0002 8.33337C54.9533 8.33337 59.3948 10.8523 63.1334 14.4194C66.8866 18.0005 70.1718 22.8566 72.8777 28.1027C78.2674 38.5523 81.6668 51.165 81.6668 59.7657ZM50.0002 89.0625C66.0318 89.0625 79.0279 75.9459 79.0279 59.7657C79.0279 43.5854 66.0318 10.9375 50.0002 10.9375C33.9686 10.9375 20.9724 43.5854 20.9724 59.7657C20.9724 75.9459 33.9686 89.0625 50.0002 89.0625Z" fill="#538642"/>
<path fill-rule="evenodd" clip-rule="evenodd" d="M49.9999 89.0625C66.0315 89.0625 79.0277 75.9458 79.0277 59.7656C79.0277 43.5854 66.0315 10.9375 49.9999 10.9375C33.9683 10.9375 20.9722 43.5854 20.9722 59.7656C20.9722 75.9458 33.9683 89.0625 49.9999 89.0625ZM49.9999 86.4583C64.5741 86.4583 76.3888 74.4347 76.3888 59.6029C76.3888 44.771 64.5741 14.8438 49.9999 14.8438C35.4258 14.8438 23.6111 44.771 23.6111 59.6029C23.6111 74.4347 35.4258 86.4583 49.9999 86.4583Z" fill="#D9DE2E"/>
<path d="M70.4022 75.1705C69.3822 76.2717 67.6507 76.3484 66.5347 75.3418C65.4188 74.3352 65.3411 72.6265 66.3611 71.5252C67.3811 70.424 69.1126 70.3473 70.2286 71.3539C71.3445 72.3605 71.4222 74.0692 70.4022 75.1705Z" fill="#C4CB29"/>
<path d="M59.8465 84.2851C58.8265 85.3863 57.095 85.463 55.9791 84.4564C54.8631 83.4498 54.7854 81.7411 55.8054 80.6398C56.8254 79.5386 58.557 79.4619 59.6729 80.4685C60.7888 81.4751 60.8666 83.1838 59.8465 84.2851Z" fill="#C4CB29"/>
<path d="M29.4994 69.9621C28.4793 71.0633 26.7478 71.14 25.6319 70.1334C24.516 69.1268 24.4382 67.4181 25.4583 66.3168C26.4783 65.2156 28.2098 65.1389 29.3257 66.1455C30.4417 67.1521 30.5194 68.8608 29.4994 69.9621Z" fill="#C4CB29"/>
<path d="M66.0042 81.2987C65.2888 82.071 64.0744 82.1248 63.2918 81.4189C62.5092 80.7129 62.4547 79.5145 63.17 78.7422C63.8854 77.9698 65.0998 77.916 65.8824 78.622C66.665 79.328 66.7196 80.5264 66.0042 81.2987Z" fill="#C4CB29"/>
<path d="M52.8099 86.5071C52.0945 87.2794 50.8801 87.3332 50.0975 86.6272C49.3148 85.9213 49.2603 84.7229 49.9757 83.9506C50.6911 83.1782 51.9054 83.1244 52.6881 83.8304C53.4707 84.5363 53.5252 85.7347 52.8099 86.5071Z" fill="#C4CB29"/>
<path d="M31.6985 74.7883C30.9831 75.5606 29.7688 75.6145 28.9861 74.9085C28.2035 74.2025 28.149 73.0041 28.8644 72.2318C29.5797 71.4595 30.7941 71.4057 31.5767 72.1116C32.3594 72.8176 32.4139 74.016 31.6985 74.7883Z" fill="#C4CB29"/>
<path d="M29.0599 61.7674C28.3445 62.5398 27.1301 62.5936 26.3475 61.8876C25.5648 61.1817 25.5103 59.9833 26.2257 59.2109C26.9411 58.4386 28.1554 58.3848 28.9381 59.0908C29.7207 59.7967 29.7752 60.9951 29.0599 61.7674Z" fill="#C4CB29"/>
<path d="M75.24 69.5799C74.5247 70.3523 73.3103 70.4061 72.5277 69.7001C71.745 68.9942 71.6905 67.7958 72.4059 67.0234C73.1212 66.2511 74.3356 66.1973 75.1182 66.9033C75.9009 67.6092 75.9554 68.8076 75.24 69.5799Z" fill="#C4CB29"/>
<path d="M68.4723 60.4167C68.4723 70.4844 60.202 78.6458 50.0001 78.6458C39.7981 78.6458 31.5278 70.4844 31.5278 60.4167C31.5278 50.349 39.7981 42.1875 50.0001 42.1875C60.202 42.1875 68.4723 50.349 68.4723 60.4167Z" fill="#BAC73A"/>
<path d="M61.875 60.4167C61.875 66.8888 56.5584 72.1355 50 72.1355C43.4416 72.1355 38.125 66.8888 38.125 60.4167C38.125 53.9447 43.4416 48.698 50 48.698C56.5584 48.698 61.875 53.9447 61.875 60.4167Z" fill="#B6472C"/>
<path fill-rule="evenodd" clip-rule="evenodd" d="M64.5141 60.4167C64.5141 68.327 58.016 74.7396 50.0002 74.7396C41.9844 74.7396 35.4863 68.327 35.4863 60.4167C35.4863 52.5063 41.9844 46.0938 50.0002 46.0938C58.016 46.0938 64.5141 52.5063 64.5141 60.4167ZM50.0002 72.1354C56.5586 72.1354 61.8752 66.8888 61.8752 60.4167C61.8752 53.9446 56.5586 48.6979 50.0002 48.6979C43.4418 48.6979 38.1252 53.9446 38.1252 60.4167C38.1252 66.8888 43.4418 72.1354 50.0002 72.1354Z" fill="#662513"/>
<path fill-rule="evenodd" clip-rule="evenodd" d="M48.6809 68.2291C55.2393 68.2291 60.5559 62.9824 60.5559 56.5104C60.5559 55.9339 60.5137 55.3671 60.4322 54.8129C61.3524 56.4776 61.8753 58.3868 61.8753 60.4166C61.8753 66.8887 56.5587 72.1353 50.0004 72.1353C44.0262 72.1353 39.0824 67.7818 38.249 62.1141C40.2629 65.7573 44.1794 68.2291 48.6809 68.2291Z" fill="#A43E25"/>
<path d="M47.3613 56.5104C47.3613 57.9487 46.1798 59.1146 44.7224 59.1146C43.265 59.1146 42.0835 57.9487 42.0835 56.5104C42.0835 55.0722 43.265 53.9062 44.7224 53.9062C46.1798 53.9062 47.3613 55.0722 47.3613 56.5104Z" fill="#F5A05F"/>
<path d="M48.7691 19.0378C50.8462 21.2471 49.8076 25.5306 46.4494 28.6052C43.0912 31.6798 38.6851 32.3812 36.608 30.1719C34.531 27.9625 35.5695 23.6791 38.9277 20.6045C42.2859 17.5299 46.6921 16.8285 48.7691 19.0378Z" fill="#FFFAA3"/>
<path fill-rule="evenodd" clip-rule="evenodd" d="M42.6724 26.9036C43.9134 26.2469 44.418 24.7343 43.7977 23.4727C43.1615 22.1787 41.5828 21.6387 40.2716 22.2666C39.8825 22.4528 39.447 22.6819 39.0655 22.9884C38.5766 23.3812 38.2681 23.8228 38.0649 24.2808C38.003 24.42 37.9422 24.5869 37.9398 24.5936L37.9397 24.5938C37.9382 24.5976 37.9369 24.601 37.9358 24.6039C37.9223 24.6243 37.8927 24.6661 37.8379 24.7321C36.914 25.8444 37.0787 27.4853 38.2059 28.397C39.333 29.3088 40.9957 29.1462 41.9196 28.0339C42.2525 27.6332 42.4922 27.265 42.6724 26.9036ZM37.9451 24.5889C37.9452 24.5889 37.9441 24.5908 37.9417 24.5948C37.9438 24.5909 37.945 24.589 37.9451 24.5889Z" fill="white"/>
</svg>
