<svg width="100" height="100" viewBox="0 0 100 100" fill="none" xmlns="http://www.w3.org/2000/svg">
<path d="M39.4333 81.9982L32.0891 74.6111C30.838 73.3527 32.0345 70.7776 33.7494 70.3714C40.7817 68.7057 44.6903 61.2264 48.2887 56.4413L48.3125 56.4095C52.7786 50.4704 53.1683 49.9522 64.2923 47.736C70.0418 46.5906 73.0761 43.5796 74.5273 40.8054C75.2615 39.4021 77.4979 38.6539 78.6009 39.7811L84.905 46.2237C85.3125 46.6401 85.5024 47.2347 85.3672 47.8054C83.435 55.9591 75.4199 59.0826 71.521 59.6259C66.2446 60.4605 62.008 61.9081 56.4365 71.3868C51.2133 80.273 44.0517 82.459 40.5467 82.4857C40.1262 82.4889 39.7321 82.2987 39.4333 81.9982Z" fill="#D2492A"/>
<path fill-rule="evenodd" clip-rule="evenodd" d="M48.3126 56.4096L48.2888 56.4413C47.6452 57.2971 46.9918 58.2391 46.3123 59.2186C43.1924 63.7158 39.5242 69.0036 33.7496 70.3714C32.0346 70.7776 30.8381 73.3527 32.0892 74.6112L39.4334 81.9982L38.1808 83.2823L30.8365 75.8952C29.4946 74.5455 29.6543 72.6923 30.1693 71.4638C30.6882 70.2259 31.7998 68.9772 33.3452 68.6112C36.3409 67.9017 38.7726 65.933 40.9673 63.386C42.0605 62.1173 43.065 60.7408 44.0382 59.3537C44.3041 58.9746 44.5705 58.5906 44.8364 58.2073C45.5239 57.2163 46.2083 56.2297 46.874 55.3444C46.874 55.3444 46.874 55.3444 46.874 55.3444L46.8979 55.3127L46.8979 55.3127C46.951 55.2421 47.0036 55.1721 47.0558 55.1026C49.144 52.3246 50.569 50.4288 52.9444 49.095C55.286 47.7802 58.4731 47.0535 63.9497 45.9624C69.1793 44.9206 71.7588 42.2451 72.9555 39.9576C73.5933 38.7383 74.7838 37.9303 75.9513 37.6023C77.1121 37.2763 78.7028 37.3208 79.8638 38.5072L86.1678 44.9498C86.967 45.7664 87.3916 46.9891 87.098 48.2283L85.3673 47.8055C85.5026 47.2347 85.3126 46.6401 84.9051 46.2237L78.601 39.7811C77.498 38.6539 75.2616 39.4021 74.5275 40.8054C73.0762 43.5796 70.0419 46.5906 64.2924 47.736C53.1684 49.9522 52.7788 50.4704 48.3126 56.4096ZM71.7798 61.4142C69.2373 61.8171 67.1708 62.3373 65.0837 63.7641C62.9672 65.2111 60.6777 67.6983 57.9651 72.3132C52.4178 81.7508 44.6766 84.2618 40.5601 84.2931C39.5911 84.3004 38.759 83.8639 38.1808 83.2823L39.4334 81.9982C39.7322 82.2987 40.1263 82.4889 40.5468 82.4857C44.0519 82.4591 51.2135 80.273 56.4367 71.3869C62.0082 61.9081 66.2447 60.4605 71.5211 59.6259C75.4201 59.0826 83.4351 55.9592 85.3673 47.8055L87.0979 48.2283C86.0035 52.8466 83.1826 56.0135 80.1758 58.0689C77.2015 60.102 73.9686 61.1064 71.7798 61.4142Z" fill="#9B0D0D"/>
<path d="M64.2923 47.736C70.0418 46.5906 73.0761 43.5796 74.5273 40.8054C75.2615 39.4021 77.4979 38.6539 78.6009 39.7811L80.0969 41.3099C80.4282 41.6486 80.621 42.1083 80.5901 42.5846C80.032 51.1896 69.9059 55.8173 65.3629 56.4413C60.6904 57.083 54.5716 53.9921 48.2887 64.1589C43.7826 71.4503 37.9659 74.9707 34.8644 76.1286C34.2766 76.348 33.6323 76.1634 33.1874 75.7159L32.0891 74.6111C30.838 73.3527 32.0345 70.7776 33.7494 70.3714C40.7817 68.7057 44.6903 61.2264 48.2887 56.4413L48.3125 56.4096C52.7786 50.4704 53.1683 49.9522 64.2923 47.736Z" fill="#B0351A"/>
<path d="M75.2606 53.2312C74.8316 53.5601 74.2662 53.5342 73.9977 53.1732C73.7293 52.8122 73.8595 52.2529 74.2886 51.924C74.7176 51.595 75.283 51.621 75.5515 51.982C75.8199 52.3429 75.6897 52.9022 75.2606 53.2312Z" fill="#A42F15"/>
<path d="M74.7958 50.2052C74.3667 50.5341 73.8013 50.5082 73.5329 50.1472C73.2645 49.7862 73.3947 49.2269 73.8237 48.898C74.2528 48.569 74.8182 48.595 75.0866 48.956C75.355 49.3169 75.2248 49.8762 74.7958 50.2052Z" fill="#A42F15"/>
<path d="M71.7953 54.3132C71.3663 54.6422 70.8008 54.6162 70.5324 54.2552C70.264 53.8943 70.3942 53.335 70.8232 53.006C71.2523 52.6771 71.8177 52.703 72.0861 53.064C72.3546 53.425 72.2244 53.9843 71.7953 54.3132Z" fill="#A42F15"/>
<path d="M74.3329 56.3608C73.9039 56.6898 73.3384 56.6638 73.07 56.3029C72.8016 55.9419 72.9318 55.3826 73.3608 55.0536C73.7899 54.7247 74.3553 54.7506 74.6237 55.1116C74.8922 55.4726 74.7619 56.0319 74.3329 56.3608Z" fill="#A42F15"/>
<path d="M78.2455 50.9624C77.6437 51.4238 76.8505 51.3874 76.474 50.8811C76.0975 50.3747 76.2801 49.5902 76.8819 49.1287C77.4838 48.6673 78.2769 48.7037 78.6535 49.21C79.03 49.7164 78.8474 50.5009 78.2455 50.9624Z" fill="#A42F15"/>
<path d="M78.1508 54.7558C77.5489 55.2173 76.7558 55.1809 76.3793 54.6745C76.0027 54.1682 76.1854 53.3836 76.7872 52.9222C77.3891 52.4607 78.1822 52.4971 78.5587 53.0035C78.9353 53.5098 78.7526 54.2944 78.1508 54.7558Z" fill="#A42F15"/>
<path d="M82.0043 51.0471C81.4025 51.5085 80.6093 51.4721 80.2328 50.9658C79.8562 50.4594 80.0389 49.6749 80.6407 49.2134C81.2426 48.752 82.0357 48.7884 82.4122 49.2948C82.7888 49.8011 82.6061 50.5857 82.0043 51.0471Z" fill="#A42F15"/>
<path d="M80.2971 47.9926C79.9725 48.2415 79.5447 48.2219 79.3416 47.9488C79.1384 47.6756 79.237 47.2524 79.5616 47.0035C79.8862 46.7546 80.3141 46.7743 80.5172 47.0474C80.7203 47.3205 80.6218 47.7437 80.2971 47.9926Z" fill="#A42F15"/>
<path d="M80.1375 45.7885C79.8128 46.0374 79.385 46.0178 79.1819 45.7447C78.9788 45.4715 79.0773 45.0483 79.4019 44.7994C79.7266 44.5505 80.1544 44.5702 80.3575 44.8433C80.5606 45.1164 80.4621 45.5396 80.1375 45.7885Z" fill="#A42F15"/>
<path d="M77.8547 47.6635C77.5301 47.9124 77.1023 47.8928 76.8992 47.6197C76.6961 47.3465 76.7946 46.9233 77.1192 46.6744C77.4439 46.4255 77.8717 46.4452 78.0748 46.7183C78.2779 46.9914 78.1794 47.4146 77.8547 47.6635Z" fill="#A42F15"/>
<path d="M75.7454 45.3779C75.4207 45.6268 74.9929 45.6071 74.7898 45.334C74.5867 45.0609 74.6852 44.6377 75.0098 44.3888C75.3345 44.1399 75.7623 44.1595 75.9654 44.4327C76.1685 44.7058 76.07 45.129 75.7454 45.3779Z" fill="#A42F15"/>
<path d="M70.301 57.4085C69.9764 57.6574 69.5486 57.6378 69.3455 57.3647C69.1424 57.0915 69.2409 56.6683 69.5655 56.4194C69.8901 56.1705 70.318 56.1902 70.5211 56.4633C70.7242 56.7364 70.6257 57.1596 70.301 57.4085Z" fill="#A42F15"/>
<path d="M71.9431 49.5683C71.6185 49.8172 71.1907 49.7976 70.9875 49.5244C70.7844 49.2513 70.883 48.8281 71.2076 48.5792C71.5322 48.3303 71.9601 48.35 72.1632 48.6231C72.3663 48.8962 72.2678 49.3194 71.9431 49.5683Z" fill="#A42F15"/>
<path fill-rule="evenodd" clip-rule="evenodd" d="M51.6628 54.4714C52.335 53.743 53.4615 53.7059 54.1788 54.3885L60.5401 60.4419C61.2574 61.1245 61.294 62.2683 60.6218 62.9966C59.9495 63.725 58.8231 63.7621 58.1058 63.0795L51.7444 57.0261C51.0271 56.3435 50.9906 55.1997 51.6628 54.4714Z" fill="#E05739"/>
<path fill-rule="evenodd" clip-rule="evenodd" d="M34.7759 71.9923C35.4563 71.2718 36.5831 71.2477 37.2927 71.9386L43.0505 77.5444C43.7601 78.2352 43.7838 79.3794 43.1034 80.0999C42.4231 80.8204 41.2963 80.8445 40.5867 80.1536L34.8288 74.5478C34.1192 73.857 34.0955 72.7128 34.7759 71.9923Z" fill="#E05739"/>
<path fill-rule="evenodd" clip-rule="evenodd" d="M82.0894 46.4228C82.5215 46.6607 82.6818 47.2093 82.4475 47.648C79.6551 52.8765 75.9381 55.4972 70.928 56.6331C69.589 56.9367 68.4492 57.1511 67.4247 57.3439C64.6862 57.8593 62.7707 58.2197 60.0745 59.7125C58.3618 60.6607 57.1378 62.2545 55.7714 64.421C55.449 64.9321 55.1191 65.4747 54.7739 66.0424C53.6827 67.837 52.4387 69.8826 50.7985 71.9796C47.3905 76.3366 43.5892 78.0739 40.8841 79.0338C40.4201 79.1985 39.9125 78.95 39.7503 78.4788C39.5882 78.0077 39.8329 77.4922 40.2969 77.3276C42.8241 76.4308 46.2821 74.8476 49.4046 70.8555C50.9729 68.8505 52.1399 66.9319 53.2216 65.1535C53.5773 64.5686 53.9239 63.9989 54.2724 63.4463C55.6558 61.2529 57.0836 59.3098 59.2224 58.1256C62.1846 56.4856 64.4407 56.0616 67.2851 55.5271C68.2797 55.3402 69.3463 55.1398 70.5401 54.8691C75.056 53.8453 78.3397 51.5481 80.8827 46.7864C81.1171 46.3477 81.6573 46.1849 82.0894 46.4228Z" fill="#FD9E75"/>
<path fill-rule="evenodd" clip-rule="evenodd" d="M78.4146 43.1471C78.8338 43.4078 78.9655 43.9642 78.7087 44.3898C75.8023 49.2084 72.3026 51.6758 67.2745 52.7323C65.9826 53.0038 64.8721 53.1875 63.8759 53.3522C61.0356 53.822 59.1244 54.1381 56.5869 55.8972C54.5212 57.3293 53.1728 58.8835 51.8105 60.7827C51.3301 61.4525 50.8339 62.1874 50.2982 62.9808C49.3444 64.3936 48.2651 65.9921 46.9258 67.7398C43.4518 72.2729 39.9942 74.2488 36.9259 74.6443C36.4383 74.7072 35.9928 74.3568 35.9309 73.8616C35.869 73.3665 36.2141 72.9142 36.7017 72.8513C39.1652 72.5337 42.2378 70.9138 45.521 66.6298C46.8412 64.9071 47.8432 63.4208 48.7679 62.0492C49.3129 61.2408 49.8311 60.4722 50.3717 59.7186C51.8032 57.723 53.2907 55.9939 55.5832 54.4045C58.4719 52.4019 60.8518 52.0104 63.8237 51.5216C64.7802 51.3643 65.798 51.1969 66.9138 50.9624C71.4437 50.0106 74.5321 47.8536 77.1908 43.4458C77.4475 43.0202 77.9955 42.8865 78.4146 43.1471Z" fill="#FD9E75"/>
<path d="M16.8681 53.1692L12.002 43.9082C11.173 42.3305 13.0656 40.2295 14.8222 40.356C22.0252 40.8751 27.9361 34.9029 32.7664 31.4113L32.7985 31.3882C38.7937 27.0545 39.3168 26.6765 50.589 27.8975C56.415 28.5286 60.1901 26.5627 62.384 24.348C63.4938 23.2276 65.8481 23.184 66.5737 24.5919L70.721 32.6384C70.9891 33.1585 70.9975 33.7836 70.7022 34.2882C66.4831 41.4979 57.917 42.0765 54.0341 41.4255C48.7505 40.6395 44.2818 40.751 36.2003 48.1344C28.624 55.0562 21.1461 54.9954 17.7899 53.969C17.3872 53.8459 17.0661 53.5459 16.8681 53.1692Z" fill="#D4482A"/>
<path fill-rule="evenodd" clip-rule="evenodd" d="M32.7986 31.3882L32.7666 31.4113C31.9027 32.0358 31.0042 32.7396 30.07 33.4714C25.7806 36.8315 20.7371 40.7823 14.8224 40.356C13.0658 40.2295 11.1732 42.3305 12.0022 43.9082L16.8683 53.1692L15.2978 54.02L10.4317 44.759C9.54255 43.0668 10.2345 41.3443 11.0841 40.3253C11.9401 39.2984 13.3655 38.4391 14.9484 38.5532C18.0168 38.7743 20.9128 37.6233 23.7508 35.8487C25.1644 34.9647 26.5247 33.9511 27.8582 32.918C28.2226 32.6357 28.5888 32.3488 28.9544 32.0624C29.8996 31.322 30.8406 30.5849 31.7343 29.9389C31.7343 29.9389 31.7343 29.9389 31.7343 29.9389L31.7663 29.9157L31.7663 29.9157C31.8376 29.8642 31.9082 29.8131 31.9783 29.7624C34.7818 27.7351 36.6949 26.3517 39.3525 25.7903C41.9721 25.2369 45.2283 25.4991 50.7779 26.1003C56.0772 26.6743 59.3201 24.8925 61.1291 23.0662C62.0933 22.0928 63.4658 21.6781 64.6767 21.7152C65.8805 21.752 67.3872 22.272 68.151 23.7538L72.2983 31.8003C72.824 32.8203 72.8738 34.1158 72.2326 35.2115L70.7024 34.2882C70.9977 33.7836 70.9893 33.1585 70.7212 32.6384L66.5739 24.5919C65.8482 23.184 63.4939 23.2276 62.3841 24.348C60.1903 26.5627 56.4151 28.5286 50.5891 27.8975C39.3169 26.6765 38.7939 27.0545 32.7986 31.3882ZM53.7609 43.2115C51.2147 42.8335 49.0891 42.7103 46.6799 43.4471C44.2368 44.1942 41.3257 45.8833 37.3911 49.478C29.3446 56.8293 21.2184 56.9051 17.2767 55.6997C16.3488 55.4159 15.6809 54.7491 15.2978 54.02L16.8683 53.1692C17.0662 53.5459 17.3874 53.8459 17.79 53.969C21.1462 54.9954 28.6242 55.0562 36.2005 48.1344C44.2819 40.751 48.7506 40.6395 54.0342 41.4255C57.9172 42.0765 66.4832 41.4979 70.7024 34.2882L72.2326 35.2115C69.8429 39.2951 66.2262 41.474 62.7555 42.5353C59.3223 43.585 55.9414 43.5743 53.7609 43.2115Z" fill="#891616"/>
<path d="M60.04 36.9448C59.5018 37.1799 58.9101 37.0034 58.7183 36.5506C58.5265 36.0978 58.8073 35.5403 59.3454 35.3052C59.8836 35.0702 60.4753 35.2467 60.6671 35.6994C60.8589 36.1522 60.5781 36.7098 60.04 36.9448Z" fill="#AD2F13"/>
<path d="M60.3227 33.6201C59.7845 33.8551 59.1928 33.6786 59.001 33.2259C58.8092 32.7731 59.09 32.2155 59.6281 31.9805C60.1663 31.7455 60.758 31.922 60.9498 32.3747C61.1416 32.8275 60.8608 33.3851 60.3227 33.6201Z" fill="#AD2F13"/>
<path d="M56.0966 37.1766C55.5585 37.4117 54.9667 37.2352 54.7749 36.7824C54.5831 36.3296 54.8639 35.7721 55.4021 35.537C55.9402 35.302 56.5319 35.4785 56.7237 35.9312C56.9155 36.384 56.6348 36.9416 56.0966 37.1766Z" fill="#AD2F13"/>
<path d="M58.2587 40.0126C57.7206 40.2476 57.1288 40.0711 56.937 39.6183C56.7452 39.1656 57.026 38.608 57.5642 38.373C58.1023 38.1379 58.6941 38.3144 58.8858 38.7672C59.0776 39.2199 58.7969 39.7775 58.2587 40.0126Z" fill="#AD2F13"/>
<path d="M63.7793 35.3309C63.0244 35.6606 62.1944 35.413 61.9253 34.7779C61.6563 34.1428 62.0501 33.3606 62.805 33.0309C63.5599 32.7012 64.39 32.9488 64.659 33.5839C64.9281 34.219 64.5342 35.0012 63.7793 35.3309Z" fill="#AD2F13"/>
<path d="M62.709 39.3204C61.9541 39.6501 61.1241 39.4025 60.855 38.7674C60.586 38.1323 60.9798 37.3501 61.7347 37.0204C62.4896 36.6907 63.3197 36.9383 63.5887 37.5734C63.8577 38.2085 63.4639 38.9907 62.709 39.3204Z" fill="#AD2F13"/>
<path d="M67.7349 36.411C66.98 36.7407 66.1499 36.4931 65.8809 35.858C65.6119 35.2229 66.0057 34.4407 66.7606 34.111C67.5155 33.7813 68.3455 34.0289 68.6146 34.664C68.8836 35.2991 68.4898 36.0813 67.7349 36.411Z" fill="#AD2F13"/>
<path d="M66.7101 32.7286C66.3029 32.9065 65.8552 32.7729 65.7101 32.4303C65.5649 32.0878 65.7774 31.6659 66.1846 31.488C66.5918 31.3102 67.0395 31.4437 67.1846 31.7863C67.3298 32.1289 67.1173 32.5508 66.7101 32.7286Z" fill="#AD2F13"/>
<path d="M67.1042 30.354C66.697 30.5318 66.2492 30.3983 66.1041 30.0557C65.959 29.7131 66.1714 29.2912 66.5786 29.1134C66.9858 28.9356 67.4336 29.0691 67.5787 29.4117C67.7238 29.7543 67.5114 30.1762 67.1042 30.354Z" fill="#AD2F13"/>
<path d="M64.2096 31.7367C63.8024 31.9145 63.3547 31.781 63.2096 31.4384C63.0645 31.0958 63.2769 30.6739 63.6841 30.4961C64.0913 30.3182 64.539 30.4518 64.6842 30.7944C64.8293 31.137 64.6168 31.5588 64.2096 31.7367Z" fill="#AD2F13"/>
<path d="M62.5612 28.7617C62.154 28.9396 61.7063 28.806 61.5611 28.4634C61.416 28.1208 61.6285 27.699 62.0357 27.5211C62.4429 27.3433 62.8906 27.4768 63.0357 27.8194C63.1808 28.162 62.9684 28.5839 62.5612 28.7617Z" fill="#AD2F13"/>
<path d="M53.7233 40.0586C53.3161 40.2364 52.8684 40.1029 52.7233 39.7603C52.5781 39.4177 52.7906 38.9958 53.1978 38.818C53.605 38.6401 54.0527 38.7737 54.1978 39.1163C54.3429 39.4589 54.1305 39.8807 53.7233 40.0586Z" fill="#AD2F13"/>
<path d="M57.466 32.1942C57.0588 32.372 56.611 32.2385 56.4659 31.8959C56.3208 31.5533 56.5333 31.1314 56.9404 30.9536C57.3476 30.7758 57.7954 30.9093 57.9405 31.2519C58.0856 31.5945 57.8732 32.0164 57.466 32.1942Z" fill="#AD2F13"/>
<path fill-rule="evenodd" clip-rule="evenodd" d="M36.9604 29.5339C37.8098 29.0315 38.8996 29.3234 39.3944 30.186L44.4286 38.9619C44.9234 39.8245 44.6359 40.931 43.7864 41.4334C42.9369 41.9358 41.8472 41.6439 41.3524 40.7813L36.3181 32.0054C35.8234 31.1429 36.1109 30.0363 36.9604 29.5339Z" fill="#EB5E3F"/>
<path fill-rule="evenodd" clip-rule="evenodd" d="M14.3733 41.4324C15.2394 40.96 16.3185 41.2899 16.7838 42.1693L21.1518 50.4258C21.617 51.3052 21.2921 52.401 20.426 52.8734C19.56 53.3457 18.4808 53.0158 18.0156 52.1364L13.6476 43.8799C13.1824 43.0005 13.5073 41.9047 14.3733 41.4324Z" fill="#EB5E3F"/>
<path fill-rule="evenodd" clip-rule="evenodd" d="M67.9727 31.9836C68.3163 32.3406 68.3098 32.9127 67.9582 33.2616C63.7688 37.4185 59.455 38.8067 54.3381 38.3884C52.9706 38.2765 51.8193 38.1394 50.7844 38.0161C48.0182 37.6866 46.0835 37.4562 43.0732 38.0731C41.161 38.4651 39.5278 39.6203 37.5918 41.28C37.1351 41.6716 36.662 42.0909 36.167 42.5296C34.6022 43.9165 32.8184 45.4975 30.6411 47.0086C26.1172 50.1483 21.98 50.6673 19.1164 50.7725C18.6252 50.7905 18.2126 50.4008 18.1948 49.9021C18.177 49.4033 18.5608 48.9843 19.052 48.9663C21.7273 48.8679 25.4917 48.3932 29.6367 45.5164C31.7185 44.0716 33.3917 42.589 34.9427 41.2146C35.4528 40.7626 35.9497 40.3223 36.4435 39.899C38.4035 38.2187 40.3331 36.7909 42.721 36.3015C46.0283 35.6236 48.3069 35.8956 51.1799 36.2386C52.1845 36.3585 53.2617 36.4871 54.481 36.5868C59.0931 36.9639 62.8988 35.7547 66.7142 31.9689C67.0657 31.62 67.6292 31.6266 67.9727 31.9836Z" fill="#E7B469"/>
<path fill-rule="evenodd" clip-rule="evenodd" d="M65.4162 27.7514C65.7408 28.1262 65.7046 28.6973 65.3355 29.0268C61.1563 32.758 57.0949 34.0649 51.9839 33.5654C50.6706 33.437 49.5563 33.2792 48.5566 33.1377C45.7065 32.7341 43.7886 32.4625 40.8525 33.3816C38.4623 34.1298 36.7217 35.21 34.8675 36.6155C34.2136 37.1112 33.5257 37.6644 32.783 38.2616C31.4605 39.325 29.9643 40.5283 28.176 41.796C23.5378 45.084 19.6596 45.9341 16.6133 45.3912C16.1291 45.3049 15.8055 44.8364 15.8905 44.3449C15.9755 43.8533 16.4368 43.5247 16.921 43.611C19.3668 44.0469 22.7737 43.4214 27.1571 40.314C28.9197 39.0644 30.3096 37.9452 31.5922 36.9124C32.3482 36.3037 33.0669 35.7249 33.8027 35.1672C35.7511 33.6903 37.6754 32.4848 40.3281 31.6544C43.6706 30.6081 46.0582 30.9483 49.0395 31.3732C49.9991 31.5099 51.0202 31.6554 52.1544 31.7663C56.759 32.2163 60.3373 31.0825 64.1601 27.6695C64.5293 27.3399 65.0916 27.3766 65.4162 27.7514Z" fill="#E7B469"/>
<path d="M24.7192 72.6749L18.5824 64.2279C17.537 62.789 19.1096 60.4315 20.8657 60.2982C28.0667 59.7516 33.0625 52.9724 37.3434 48.8067L37.3718 48.7791C42.6851 43.6087 43.1486 43.1577 54.476 42.7066C60.3306 42.4735 63.7852 39.9726 65.6397 37.4584C66.5779 36.1865 68.901 35.7968 69.82 37.083L75.0723 44.4341C75.4118 44.9093 75.5094 45.5265 75.2892 46.0693C72.1439 53.8238 63.7509 55.6572 59.8161 55.5846C54.476 55.5846 50.0705 56.3528 43.1285 64.8477C36.6204 72.8115 29.2127 73.8521 25.7454 73.3306C25.3294 73.268 24.9689 73.0185 24.7192 72.6749Z" fill="#E85434"/>
<path fill-rule="evenodd" clip-rule="evenodd" d="M37.3718 48.779L37.3434 48.8067C36.5778 49.5517 35.7893 50.3803 34.9694 51.2419C31.205 55.1979 26.7788 59.8493 20.8657 60.2982C19.1096 60.4315 17.5369 62.789 18.5824 64.2279L24.7192 72.6748L23.2868 73.7478L17.15 65.3009C16.0286 63.7575 16.4674 61.9514 17.1625 60.818C17.8629 59.6759 19.1505 58.6159 20.733 58.4958C23.8005 58.2629 26.5017 56.6978 29.0563 54.5242C30.3288 53.4415 31.53 52.2384 32.7019 51.0199C33.0222 50.687 33.3436 50.3492 33.6644 50.012C34.494 49.1403 35.3198 48.2724 36.1118 47.5017C36.1118 47.5017 36.1118 47.5017 36.1118 47.5017L36.1402 47.4741L36.1402 47.4741C36.2033 47.4127 36.2659 47.3517 36.3281 47.2912C38.8125 44.8727 40.5079 43.2223 43.0572 42.2756C45.5702 41.3425 48.8295 41.1226 54.4063 40.9006C59.7315 40.6885 62.6858 38.4481 64.215 36.3749C65.03 35.2699 66.3288 34.6575 67.5322 34.516C68.7285 34.3752 70.2936 34.6679 71.2608 36.0216L76.5131 43.3728C77.1788 44.3046 77.4131 45.579 76.9351 46.7576L75.2892 46.0693C75.5093 45.5265 75.4118 44.9093 75.0723 44.4341L69.82 37.083C68.901 35.7968 66.5778 36.1865 65.6397 37.4584C63.7852 39.9726 60.3306 42.4735 54.476 42.7066C43.1486 43.1577 42.685 43.6087 37.3718 48.779ZM59.8006 57.392C57.2273 57.3928 55.1066 57.5837 52.828 58.6673C50.5173 59.7662 47.8781 61.8659 44.4983 66.0018C37.5863 74.4599 29.5567 75.731 25.4846 75.1185C24.5259 74.9743 23.77 74.4129 23.2868 73.7478L24.7192 72.6748C24.9689 73.0185 25.3294 73.268 25.7454 73.3306C29.2127 73.8521 36.6203 72.8115 43.1284 64.8476C50.0705 56.3527 54.476 55.5846 59.816 55.5846C63.7509 55.6572 72.1439 53.8238 75.2892 46.0693L76.9351 46.7576C75.1536 51.1498 71.8862 53.838 68.6036 55.3989C65.3566 56.9429 62.0099 57.43 59.8006 57.392Z" fill="#9B0D0D"/>
<path d="M65.0753 50.1719C64.5702 50.4469 63.9787 50.3253 63.7543 49.9003C63.5299 49.4753 63.7574 48.9078 64.2626 48.6328C64.7677 48.3577 65.3592 48.4793 65.5836 48.9043C65.8081 49.3293 65.5805 49.8968 65.0753 50.1719Z" fill="#C8391A"/>
<path d="M65.0753 46.9067C64.5702 47.1818 63.9787 47.0602 63.7543 46.6352C63.5299 46.2102 63.7574 45.6427 64.2626 45.3676C64.7677 45.0926 65.3592 45.2142 65.5836 45.6392C65.8081 46.0642 65.5805 46.6317 65.0753 46.9067Z" fill="#C8391A"/>
<path d="M61.2497 50.7344C60.7445 51.0094 60.153 50.8878 59.9286 50.4628C59.7042 50.0378 59.9317 49.4703 60.4369 49.1953C60.9421 48.9202 61.5335 49.0418 61.7579 49.4668C61.9824 49.8918 61.7548 50.4593 61.2497 50.7344Z" fill="#C8391A"/>
<path d="M63.5919 53.3143C63.0868 53.5894 62.4953 53.4678 62.2709 53.0428C62.0465 52.6178 62.274 52.0503 62.7792 51.7752C63.2843 51.5002 63.8758 51.6218 64.1002 52.0468C64.3247 52.4718 64.0971 53.0393 63.5919 53.3143Z" fill="#C8391A"/>
<path d="M68.587 48.2793C67.8784 48.6651 67.0488 48.4946 66.7339 47.8984C66.4191 47.3022 66.7383 46.5062 67.4469 46.1203C68.1555 45.7345 68.9852 45.905 69.3 46.5012C69.6149 47.0974 69.2956 47.8935 68.587 48.2793Z" fill="#C8391A"/>
<path d="M67.8737 52.2599C67.165 52.6457 66.3354 52.4752 66.0206 51.879C65.7057 51.2828 66.0249 50.4867 66.7336 50.1009C67.4422 49.7151 68.2718 49.8856 68.5867 50.4818C68.9015 51.078 68.5823 51.8741 67.8737 52.2599Z" fill="#C8391A"/>
<path d="M72.5319 48.9949C71.8232 49.3807 70.9936 49.2101 70.6788 48.614C70.3639 48.0178 70.6831 47.2217 71.3918 46.8359C72.1004 46.4501 72.93 46.6206 73.2449 47.2168C73.5597 47.813 73.2405 48.609 72.5319 48.9949Z" fill="#C8391A"/>
<path d="M71.2281 45.4924C70.8458 45.7005 70.3983 45.6086 70.2285 45.287C70.0587 44.9654 70.2309 44.536 70.6131 44.3279C70.9953 44.1198 71.4428 44.2117 71.6127 44.5333C71.7825 44.8549 71.6103 45.2843 71.2281 45.4924Z" fill="#C8391A"/>
<path d="M71.4161 43.1439C71.0338 43.352 70.5863 43.26 70.4165 42.9385C70.2467 42.6169 70.4189 42.1875 70.8011 41.9794C71.1833 41.7712 71.6308 41.8632 71.8007 42.1848C71.9705 42.5064 71.7983 42.9358 71.4161 43.1439Z" fill="#C8391A"/>
<path d="M68.7085 44.7389C68.3263 44.947 67.8788 44.855 67.709 44.5334C67.5391 44.2118 67.7113 43.7824 68.0936 43.5743C68.4758 43.3662 68.9233 43.4582 69.0931 43.7798C69.263 44.1014 69.0908 44.5308 68.7085 44.7389Z" fill="#C8391A"/>
<path d="M66.8555 41.9795C66.4733 42.1876 66.0258 42.0956 65.8559 41.774C65.6861 41.4524 65.8583 41.023 66.2405 40.8149C66.6228 40.6068 67.0703 40.6988 67.2401 41.0204C67.4099 41.342 67.2377 41.7714 66.8555 41.9795Z" fill="#C8391A"/>
<path d="M59.1753 53.7461C58.7931 53.9542 58.3456 53.8622 58.1758 53.5406C58.0059 53.219 58.1781 52.7896 58.5604 52.5815C58.9426 52.3734 59.3901 52.4654 59.5599 52.787C59.7298 53.1086 59.5576 53.538 59.1753 53.7461Z" fill="#C8391A"/>
<path d="M62.1724 45.7604C61.7902 45.9685 61.3427 45.8765 61.1728 45.5549C61.003 45.2333 61.1752 44.8039 61.5574 44.5958C61.9397 44.3877 62.3872 44.4797 62.557 44.8013C62.7268 45.1228 62.5546 45.5522 62.1724 45.7604Z" fill="#C8391A"/>
<path fill-rule="evenodd" clip-rule="evenodd" d="M41.2729 46.4759C42.0558 45.8722 43.1725 46.0272 43.767 46.8222L49.5366 54.5369C50.1312 55.3318 49.9785 56.4657 49.1956 57.0694C48.4127 57.6731 47.296 57.518 46.7015 56.7231L40.9319 49.0084C40.3373 48.2134 40.49 47.0796 41.2729 46.4759Z" fill="#FF876D"/>
<path fill-rule="evenodd" clip-rule="evenodd" d="M21.0198 61.8361C21.8003 61.2292 22.9176 61.3798 23.5152 62.1724L28.7842 69.16C29.3818 69.9526 29.2335 71.0871 28.453 71.6939C27.6724 72.3007 26.5552 72.1502 25.9575 71.3576L20.6886 64.3699C20.0909 63.5773 20.2392 62.4429 21.0198 61.8361Z" fill="#FF876D"/>
<path fill-rule="evenodd" clip-rule="evenodd" d="M72.2596 44.1909C72.6505 44.4935 72.7258 45.0606 72.4277 45.4575C68.876 50.1871 64.806 52.1957 59.6834 52.5349C58.3144 52.6256 57.1557 52.6593 56.1141 52.6897C53.3301 52.7708 51.3829 52.8276 48.4925 53.8811C46.6564 54.5504 45.2054 55.9338 43.5268 57.861C43.1308 58.3156 42.7226 58.8001 42.2954 59.3071C40.9451 60.9097 39.4059 62.7365 37.4673 64.5522C33.4395 68.3246 29.42 69.447 26.6017 69.9727C26.1183 70.0628 25.6544 69.738 25.5656 69.2471C25.4768 68.7562 25.7967 68.2851 26.2802 68.195C28.9131 67.7039 32.57 66.68 36.2605 63.2236C38.114 61.4876 39.5579 59.7743 40.8964 58.1862C41.3365 57.6639 41.7653 57.1551 42.1935 56.6635C43.8929 54.7125 45.5983 53.0157 47.8911 52.18C51.0666 51.0225 53.36 50.9562 56.2516 50.8727C57.2627 50.8435 58.3469 50.8121 59.5675 50.7313C64.1848 50.4255 67.7776 48.669 71.0123 44.3615C71.3103 43.9646 71.8688 43.8882 72.2596 44.1909Z" fill="#FAF1D1"/>
<path fill-rule="evenodd" clip-rule="evenodd" d="M69.1253 40.3798C69.4999 40.7029 69.5457 41.2732 69.2275 41.6536C65.6252 45.9605 61.7932 47.8515 56.6649 48.1095C55.3472 48.1758 54.2221 48.1837 53.2127 48.1908C50.3351 48.211 48.3987 48.2246 45.6248 49.5662C43.3667 50.6583 41.7987 51.9833 40.1647 53.6469C39.5885 54.2336 38.9868 54.8821 38.3372 55.5824C37.1806 56.8292 35.8719 58.24 34.2835 59.7575C30.1637 63.6936 26.4478 65.1055 23.3562 65.0168C22.8648 65.0026 22.4778 64.5868 22.4917 64.0879C22.5056 63.5889 22.9151 63.1959 23.4065 63.21C25.8887 63.2813 29.1703 62.161 33.0638 58.4412C34.6294 56.9454 35.8448 55.6334 36.9664 54.4227C37.6275 53.7091 38.256 53.0307 38.9044 52.3705C40.6214 50.6224 42.3532 49.1465 44.8594 47.9344C48.0172 46.4072 50.4281 46.3923 53.4387 46.3739C54.4076 46.3679 55.4387 46.3616 56.5768 46.3043C61.197 46.0718 64.5756 44.4233 67.8708 40.4836C68.189 40.1032 68.7506 40.0567 69.1253 40.3798Z" fill="#FAF1D1"/>
</svg>
