<svg width="100" height="100" viewBox="0 0 100 100" fill="none" xmlns="http://www.w3.org/2000/svg">
<path d="M57.6466 87.2912C50.5765 90.9571 43.5718 88.8186 40.9532 87.2912C41.7388 79.1448 30.8062 60.1364 25.2417 51.6505L33.0975 48.0864C33.4464 55.6866 39.6659 66.7576 42.9998 70.5603C43.5132 71.1458 44.3853 70.9279 44.5661 70.1788C46.3609 62.746 43.0046 46.571 41.9352 41.9766H58.051C54.3553 53.3138 52.9819 65.3632 53.0745 71.3311C53.0917 72.4354 54.3365 72.6031 54.8557 71.621C58.8744 64.0193 68.3462 49.3482 71.8853 46.5589L75.3221 53.178C61.1818 60.5098 57.6466 78.975 57.6466 87.2912Z" fill="#C2E684"/>
<path fill-rule="evenodd" clip-rule="evenodd" d="M39.7111 89.3067C38.9136 88.8415 38.4614 87.9724 38.5483 87.0718C38.6977 85.522 38.2878 83.1783 37.3105 80.1919C36.3541 77.2688 34.9358 73.9681 33.2962 70.6053C30.0185 63.8821 25.9468 57.0953 23.2053 52.9144C22.831 52.3437 22.728 51.6437 22.9224 50.9937C23.117 50.3437 23.5902 49.807 24.2207 49.5209L32.0765 45.9567C32.8072 45.6253 33.6599 45.6703 34.3494 46.0769C35.039 46.4835 35.4745 47.198 35.5105 47.9817C35.6636 51.3173 37.1456 55.6495 39.1172 59.7521C40.259 62.1277 41.5088 64.3117 42.6455 66.0548C42.7616 62.9905 42.4494 59.1706 41.9298 55.3192C41.1941 49.866 40.1037 44.7485 39.5793 42.4957C39.4171 41.7989 39.5896 41.0682 40.0479 40.5099C40.5063 39.9518 41.2008 39.6267 41.9351 39.6267H58.0509C58.8212 39.6267 59.5453 39.9841 60.0001 40.5888C60.455 41.1934 60.5862 41.9728 60.3535 42.687C57.7608 50.6401 56.3414 58.9501 55.7773 65.1229C57.5174 62.1958 59.534 58.9899 61.524 56.0062C63.1976 53.4972 64.8703 51.1181 66.3613 49.1764C67.802 47.2999 69.2177 45.637 70.3647 44.7331C70.9322 44.2859 71.6771 44.1124 72.3913 44.2612C73.1054 44.4101 73.7119 44.8653 74.0412 45.4994L77.4781 52.1185C78.0703 53.259 77.6172 54.6509 76.4582 55.2519C70.0749 58.5615 65.9599 64.4534 63.4303 70.724C60.9017 76.9922 60.0621 83.3921 60.0621 87.2913C60.0621 88.1593 59.5701 88.9568 58.7827 89.3651C50.7578 93.526 42.8309 91.1266 39.7111 89.3067ZM55.4867 70.4506C55.4333 70.5479 55.3807 70.6442 55.3287 70.7397C55.2246 70.931 55.1234 71.1187 55.025 71.3025C54.9676 71.41 54.9111 71.5163 54.8557 71.6211C54.3364 72.6032 53.0916 72.4354 53.0745 71.3312C53.0715 71.1364 53.07 70.9352 53.0701 70.7277C53.0703 70.5435 53.0716 70.3543 53.0742 70.1603C53.0757 70.0586 53.0774 69.9556 53.0796 69.8511C53.1971 63.9887 54.4327 54.0685 57.3203 44.3266C57.553 43.5415 57.7965 42.7574 58.0509 41.9766H41.9351C42.075 42.5773 42.2538 43.3757 42.4552 44.3266C43.7164 50.2839 45.8592 62.2254 44.7991 68.9914C44.799 68.992 44.7989 68.9925 44.7988 68.9933C44.7943 69.0218 44.7897 69.0504 44.7851 69.0788C44.7229 69.4632 44.6502 69.8307 44.566 70.1789C44.3852 70.928 43.5131 71.1459 42.9997 70.5604C42.7645 70.2921 42.5148 69.9874 42.2538 69.6504C42.2435 69.637 42.2331 69.6236 42.2227 69.6101C42.2228 69.6102 42.2226 69.6099 42.2227 69.6101C39.1691 65.6499 34.5962 57.3006 33.3852 50.5489C33.2327 49.6988 33.1335 48.8741 33.0974 48.0865L25.2416 51.6506C25.6457 52.2669 26.0782 52.9387 26.5325 53.6578C32.3323 62.8403 41.6817 79.7365 40.9531 87.2913C43.5717 88.8187 50.5764 90.9572 57.6466 87.2913C57.6466 78.9751 61.1817 60.5099 75.3221 53.1781L71.8852 46.559C71.396 46.9446 70.7933 47.5573 70.1075 48.347C66.0756 52.9886 59.1657 63.7459 55.4867 70.4506Z" fill="#78A32D"/>
<path fill-rule="evenodd" clip-rule="evenodd" d="M40.9834 85.9361C44.3598 87.1154 49.8873 87.8283 55.4553 84.9412C55.4553 76.6251 58.9904 58.1599 73.1308 50.8281L71.2216 47.1512C71.4609 46.9172 71.683 46.7186 71.8855 46.5589L75.3223 53.178C61.182 60.5098 57.647 78.975 57.647 87.2912C50.5768 90.9571 43.5721 88.8186 40.9535 87.2912C40.9943 86.8678 41.0035 86.4151 40.9834 85.9361ZM31.3281 48.8892C32.8403 56.1216 37.9127 64.9076 40.8084 68.2104C40.989 68.4164 41.214 68.5228 41.4377 68.5419C38.0247 63.6964 33.3973 54.612 33.0977 48.0864L31.3281 48.8892ZM53.128 68.407C53.424 61.9203 54.8859 51.6872 58.0513 41.9766H55.129C51.9817 52.5945 50.7968 63.4243 50.8832 68.9812C50.9003 70.0854 52.145 70.2532 52.6644 69.2711C52.8117 68.9922 52.9664 68.7039 53.128 68.407Z" fill="#A2CB5B"/>
<path d="M44.0992 77.0154C44.7478 79.257 44.5449 81.3008 43.6459 81.5806C42.7469 81.8603 41.4922 80.27 40.8435 78.0285C40.1948 75.787 40.3978 73.7431 41.2969 73.4633C42.1959 73.1836 43.4505 74.7739 44.0992 77.0154Z" fill="#E1FBB5"/>
<path d="M25.4028 44.2874C25.4028 48.2242 22.1225 51.4155 18.076 51.4155C14.0293 51.4155 10.749 48.2242 10.749 44.2874C10.749 40.3506 14.0293 37.1593 18.076 37.1593C22.1225 37.1593 25.4028 40.3506 25.4028 44.2874Z" fill="#2E9422"/>
<path d="M35.87 33.0862C35.87 38.7101 31.1837 43.2693 25.4029 43.2693C19.6223 43.2693 14.936 38.7101 14.936 33.0862C14.936 27.4622 19.6223 22.9031 25.4029 22.9031C31.1837 22.9031 35.87 27.4622 35.87 33.0862Z" fill="#2E9422"/>
<path d="M54.7103 42.2508C54.7103 47.8748 50.0241 52.4339 44.2433 52.4339C38.4626 52.4339 33.7764 47.8748 33.7764 42.2508C33.7764 36.6269 38.4626 32.0677 44.2433 32.0677C50.0241 32.0677 54.7103 36.6269 54.7103 42.2508Z" fill="#2E9422"/>
<path d="M72.5043 40.2142C72.5043 45.8381 67.818 50.3972 62.0373 50.3972C56.2565 50.3972 51.5703 45.8381 51.5703 40.2142C51.5703 34.5902 56.2565 30.0311 62.0373 30.0311C67.818 30.0311 72.5043 34.5902 72.5043 40.2142Z" fill="#2E9422"/>
<path d="M89.2511 43.7782C89.2511 49.1209 84.7992 53.4521 79.3075 53.4521C73.8157 53.4521 69.3638 49.1209 69.3638 43.7782C69.3638 38.4355 73.8157 34.1044 79.3075 34.1044C84.7992 34.1044 89.2511 38.4355 89.2511 43.7782Z" fill="#2E9422"/>
<path d="M80.8779 32.577C80.8779 39.0445 75.4886 44.2874 68.8408 44.2874C62.193 44.2874 56.8037 39.0445 56.8037 32.577C56.8037 26.1094 62.193 20.8665 68.8408 20.8665C75.4886 20.8665 80.8779 26.1094 80.8779 32.577Z" fill="#2E9422"/>
<path d="M68.3174 23.4122C68.3174 30.4422 62.4596 36.141 55.2336 36.141C48.0076 36.141 42.1499 30.4422 42.1499 23.4122C42.1499 16.3823 48.0076 10.6833 55.2336 10.6833C62.4596 10.6833 68.3174 16.3823 68.3174 23.4122Z" fill="#2E9422"/>
<path d="M52.6172 26.4671C52.6172 33.497 46.7594 39.1958 39.5334 39.1958C32.3076 39.1958 26.4497 33.497 26.4497 26.4671C26.4497 19.4371 32.3076 13.7382 39.5334 13.7382C46.7594 13.7382 52.6172 19.4371 52.6172 26.4671Z" fill="#2E9422"/>
<path d="M39.0101 40.2142C39.0101 45.8381 34.3239 50.3972 28.5431 50.3972C22.7624 50.3972 18.0762 45.8381 18.0762 40.2142C18.0762 34.5902 22.7624 30.0311 28.5431 30.0311C34.3239 30.0311 39.0101 34.5902 39.0101 40.2142Z" fill="#2E9422"/>
<path fill-rule="evenodd" clip-rule="evenodd" d="M13.7852 38.5087C11.9457 39.8037 10.749 41.9096 10.749 44.2874C10.749 48.2242 14.0293 51.4155 18.0759 51.4155C19.2711 51.4155 20.3994 51.1371 21.3962 50.6434C22.1758 50.2571 22.8749 49.7391 23.4625 49.1194C24.1963 49.5166 24.9845 49.8303 25.8133 50.0475C26.6835 50.2756 27.5986 50.3972 28.5428 50.3972C30.3395 50.3972 32.0305 49.9568 33.5079 49.181C34.2218 48.8061 34.8858 48.3528 35.4877 47.833C35.932 48.4913 36.4528 49.0965 37.0375 49.6366C38.9143 51.3702 41.4511 52.4339 44.2433 52.4339C47.5657 52.4339 50.5266 50.9279 52.444 48.5793C52.971 47.9339 53.4191 47.2248 53.7743 46.4659C54.2981 47.1201 54.9021 47.7104 55.5719 48.2229C57.3518 49.5848 59.597 50.3972 62.0372 50.3972C64.2448 50.3972 66.2929 49.7323 67.9812 48.5972C68.6906 48.1201 69.3366 47.56 69.9043 46.9313C70.187 47.7297 70.5742 48.4808 71.05 49.1692C72.8353 51.7525 75.8675 53.4521 79.3078 53.4521C84.7994 53.4521 89.2514 49.121 89.2514 43.7783C89.2514 39.7448 86.7142 36.288 83.1076 34.8358C82.3667 34.5375 81.5806 34.3238 80.7621 34.2071C80.8383 33.6744 80.8778 33.1301 80.8778 32.5769C80.8778 32.332 80.8701 32.0889 80.8549 31.8478C80.5026 26.27 76.137 21.7481 70.5325 20.9812C69.9797 20.9055 69.4149 20.8664 68.8407 20.8664C68.5787 20.8664 68.3186 20.8745 68.0607 20.8906C67.8963 20.0946 67.6555 19.3254 67.3462 18.5907C65.393 13.9514 60.7056 10.6833 55.2336 10.6833C52.2072 10.6833 49.4207 11.6831 47.204 13.3616C46.5325 13.8701 45.9133 14.4409 45.3557 15.065C44.6008 14.6995 43.8045 14.4028 42.9755 14.1834C41.8787 13.8932 40.7246 13.7382 39.5331 13.7382C34.4104 13.7382 29.9753 16.6026 27.8275 20.7748C27.4618 21.485 27.1625 22.2332 26.9372 23.0117C26.4364 22.9401 25.9241 22.903 25.4027 22.903C25.0848 22.903 24.7701 22.9168 24.4593 22.9439C19.1206 23.4077 14.9358 27.7714 14.9358 33.0861C14.9358 33.8244 15.0165 34.5444 15.17 35.2381C15.3422 36.0169 15.606 36.7626 15.9498 37.464C15.1644 37.6953 14.4347 38.0515 13.7852 38.5087ZM12.931 36.2373C10.1706 37.9106 8.3335 40.8903 8.3335 44.2874C8.3335 49.522 12.6953 53.7655 18.0759 53.7655C20.2504 53.7655 22.2585 53.0724 23.8796 51.9008C25.3256 52.4474 26.8982 52.7471 28.5428 52.7471C30.9173 52.7471 33.1417 52.1222 35.0517 51.0322C37.3892 53.3477 40.6439 54.7838 44.2433 54.7838C48.2668 54.7838 51.8595 52.9893 54.2218 50.1782C56.3894 51.7898 59.0983 52.7471 62.0372 52.7471C64.674 52.7471 67.1258 51.9765 69.1674 50.6541C71.4012 53.7662 75.1101 55.8021 79.3078 55.8021C86.1335 55.8021 91.6668 50.4188 91.6668 43.7783C91.6668 38.494 88.1628 34.0057 83.2921 32.3929C83.1953 25.0615 77.3311 19.0828 69.911 18.5544C67.8329 12.61 62.0467 8.33337 55.2336 8.33337C51.2074 8.33337 47.5398 9.82699 44.7841 12.2756C43.1444 11.7013 41.3764 11.3883 39.5331 11.3883C33.1306 11.3883 27.6348 15.1652 25.2712 20.5537C18.2171 20.6224 12.5203 26.207 12.5203 33.0861C12.5203 34.1744 12.6628 35.2304 12.931 36.2373ZM52.5649 35.876C52.5006 35.863 52.4365 35.8496 52.3725 35.8357C52.4177 35.8898 52.4622 35.9443 52.5062 35.9992C52.5255 35.9579 52.5451 35.9169 52.5649 35.876Z" fill="#1A5B22"/>
<path d="M45.5579 19.2305C47.038 22.0901 44.6639 26.1594 40.255 28.3195C35.846 30.4796 31.0719 29.9126 29.5915 27.0531C28.1114 24.1936 30.4855 20.1243 34.8944 17.9641C39.3034 15.8039 44.0775 16.371 45.5579 19.2305Z" fill="#45BD36"/>
<path fill-rule="evenodd" clip-rule="evenodd" d="M37.6109 20.8545C38.2345 22.0018 37.784 23.4237 36.6047 24.0303C35.9171 24.3841 35.3795 24.8293 34.9586 25.3656C34.1492 26.3974 32.6334 26.5953 31.573 25.8078C30.5126 25.0203 30.3092 23.5456 31.1186 22.514C31.9839 21.4112 33.071 20.5317 34.3465 19.8756C35.5258 19.2689 36.9874 19.7071 37.6109 20.8545Z" fill="white"/>
<path d="M22.8261 31.8327C22.8261 32.4816 22.2854 33.0077 21.6184 33.0077C20.9513 33.0077 20.4106 32.4816 20.4106 31.8327C20.4106 31.1837 20.9513 30.6577 21.6184 30.6577C22.2854 30.6577 22.8261 31.1837 22.8261 31.8327Z" fill="#3DB52F"/>
<path d="M27.6572 28.3078C27.6572 28.9567 27.1165 29.4827 26.4494 29.4827C25.7824 29.4827 25.2417 28.9567 25.2417 28.3078C25.2417 27.6588 25.7824 27.1328 26.4494 27.1328C27.1165 27.1328 27.6572 27.6588 27.6572 28.3078Z" fill="#3DB52F"/>
<path d="M30.0727 35.3576C30.0727 36.0065 29.532 36.5326 28.865 36.5326C28.1979 36.5326 27.6572 36.0065 27.6572 35.3576C27.6572 34.7086 28.1979 34.1826 28.865 34.1826C29.532 34.1826 30.0727 34.7086 30.0727 35.3576Z" fill="#3DB52F"/>
<path d="M24.0341 37.7076C24.0341 38.3565 23.4934 38.8825 22.8264 38.8825C22.1594 38.8825 21.6187 38.3565 21.6187 37.7076C21.6187 37.0586 22.1594 36.5326 22.8264 36.5326C23.4934 36.5326 24.0341 37.0586 24.0341 37.7076Z" fill="#3DB52F"/>
<path d="M19.2031 43.5823C19.2031 44.2312 18.6624 44.7573 17.9953 44.7573C17.3283 44.7573 16.7876 44.2312 16.7876 43.5823C16.7876 42.9334 17.3283 42.4073 17.9953 42.4073C18.6624 42.4073 19.2031 42.9334 19.2031 43.5823Z" fill="#3DB52F"/>
<path d="M25.2416 43.5823C25.2416 44.2312 24.7009 44.7573 24.0339 44.7573C23.3669 44.7573 22.8262 44.2312 22.8262 43.5823C22.8262 42.9334 23.3669 42.4073 24.0339 42.4073C24.7009 42.4073 25.2416 42.9334 25.2416 43.5823Z" fill="#3DB52F"/>
<path d="M31.2802 41.2325C31.2802 41.8814 30.7395 42.4074 30.0725 42.4074C29.4054 42.4074 28.8647 41.8814 28.8647 41.2325C28.8647 40.5835 29.4054 40.0575 30.0725 40.0575C30.7395 40.0575 31.2802 40.5835 31.2802 41.2325Z" fill="#3DB52F"/>
<path d="M36.1113 35.3576C36.1113 36.0065 35.5706 36.5326 34.9035 36.5326C34.2365 36.5326 33.6958 36.0065 33.6958 35.3576C33.6958 34.7086 34.2365 34.1826 34.9035 34.1826C35.5706 34.1826 36.1113 34.7086 36.1113 35.3576Z" fill="#3DB52F"/>
<path d="M44.5654 31.8327C44.5654 32.4816 44.0247 33.0077 43.3576 33.0077C42.6906 33.0077 42.1499 32.4816 42.1499 31.8327C42.1499 31.1837 42.6906 30.6577 43.3576 30.6577C44.0247 30.6577 44.5654 31.1837 44.5654 31.8327Z" fill="#3DB52F"/>
<path d="M40.9423 38.8826C40.9423 39.5315 40.4016 40.0576 39.7346 40.0576C39.0676 40.0576 38.5269 39.5315 38.5269 38.8826C38.5269 38.2337 39.0676 37.7076 39.7346 37.7076C40.4016 37.7076 40.9423 38.2337 40.9423 38.8826Z" fill="#3DB52F"/>
<path d="M36.1113 43.5823C36.1113 44.2312 35.5706 44.7573 34.9035 44.7573C34.2365 44.7573 33.6958 44.2312 33.6958 43.5823C33.6958 42.9334 34.2365 42.4073 34.9035 42.4073C35.5706 42.4073 36.1113 42.9334 36.1113 43.5823Z" fill="#3DB52F"/>
<path d="M44.5654 47.1073C44.5654 47.7563 44.0247 48.2823 43.3576 48.2823C42.6906 48.2823 42.1499 47.7563 42.1499 47.1073C42.1499 46.4584 42.6906 45.9324 43.3576 45.9324C44.0247 45.9324 44.5654 46.4584 44.5654 47.1073Z" fill="#3DB52F"/>
<path d="M49.3964 42.4074C49.3964 43.0563 48.8557 43.5824 48.1887 43.5824C47.5217 43.5824 46.981 43.0563 46.981 42.4074C46.981 41.7585 47.5217 41.2324 48.1887 41.2324C48.8557 41.2324 49.3964 41.7585 49.3964 42.4074Z" fill="#3DB52F"/>
<path d="M48.1889 37.7076C48.1889 38.3565 47.6482 38.8825 46.9812 38.8825C46.3141 38.8825 45.7734 38.3565 45.7734 37.7076C45.7734 37.0586 46.3141 36.5326 46.9812 36.5326C47.6482 36.5326 48.1889 37.0586 48.1889 37.7076Z" fill="#3DB52F"/>
<path d="M56.6425 41.2325C56.6425 41.8814 56.1018 42.4074 55.4348 42.4074C54.7678 42.4074 54.2271 41.8814 54.2271 41.2325C54.2271 40.5835 54.7678 40.0575 55.4348 40.0575C56.1018 40.0575 56.6425 40.5835 56.6425 41.2325Z" fill="#3DB52F"/>
<path d="M53.0195 35.3576C53.0195 36.0065 52.4788 36.5326 51.8117 36.5326C51.1447 36.5326 50.604 36.0065 50.604 35.3576C50.604 34.7086 51.1447 34.1826 51.8117 34.1826C52.4788 34.1826 53.0195 34.7086 53.0195 35.3576Z" fill="#3DB52F"/>
<path d="M50.6039 28.3078C50.6039 28.9567 50.0632 29.4827 49.3962 29.4827C48.7292 29.4827 48.1885 28.9567 48.1885 28.3078C48.1885 27.6588 48.7292 27.1328 49.3962 27.1328C50.0632 27.1328 50.6039 27.6588 50.6039 28.3078Z" fill="#3DB52F"/>
<path d="M50.6039 22.433C50.6039 23.082 50.0632 23.608 49.3962 23.608C48.7292 23.608 48.1885 23.082 48.1885 22.433C48.1885 21.7841 48.7292 21.2581 49.3962 21.2581C50.0632 21.2581 50.6039 21.7841 50.6039 22.433Z" fill="#3DB52F"/>
<path d="M53.0195 14.2082C53.0195 14.8571 52.4788 15.3831 51.8117 15.3831C51.1447 15.3831 50.604 14.8571 50.604 14.2082C50.604 13.5592 51.1447 13.0332 51.8117 13.0332C52.4788 13.0332 53.0195 13.5592 53.0195 14.2082Z" fill="#3DB52F"/>
<path d="M60.266 14.2082C60.266 14.8571 59.7253 15.3831 59.0583 15.3831C58.3913 15.3831 57.8506 14.8571 57.8506 14.2082C57.8506 13.5592 58.3913 13.0332 59.0583 13.0332C59.7253 13.0332 60.266 13.5592 60.266 14.2082Z" fill="#3DB52F"/>
<path d="M56.6425 18.9081C56.6425 19.5571 56.1018 20.0831 55.4348 20.0831C54.7678 20.0831 54.2271 19.5571 54.2271 18.9081C54.2271 18.2592 54.7678 17.7332 55.4348 17.7332C56.1018 17.7332 56.6425 18.2592 56.6425 18.9081Z" fill="#3DB52F"/>
<path d="M63.8891 18.9081C63.8891 19.5571 63.3484 20.0831 62.6814 20.0831C62.0143 20.0831 61.4736 19.5571 61.4736 18.9081C61.4736 18.2592 62.0143 17.7332 62.6814 17.7332C63.3484 17.7332 63.8891 18.2592 63.8891 18.9081Z" fill="#3DB52F"/>
<path d="M57.8505 24.7829C57.8505 25.4318 57.3098 25.9578 56.6428 25.9578C55.9758 25.9578 55.4351 25.4318 55.4351 24.7829C55.4351 24.1339 55.9758 23.6079 56.6428 23.6079C57.3098 23.6079 57.8505 24.1339 57.8505 24.7829Z" fill="#3DB52F"/>
<path d="M63.8891 24.7829C63.8891 25.4318 63.3484 25.9578 62.6814 25.9578C62.0143 25.9578 61.4736 25.4318 61.4736 24.7829C61.4736 24.1339 62.0143 23.6079 62.6814 23.6079C63.3484 23.6079 63.8891 24.1339 63.8891 24.7829Z" fill="#3DB52F"/>
<path d="M63.8891 33.0076C63.8891 33.6565 63.3484 34.1826 62.6814 34.1826C62.0143 34.1826 61.4736 33.6565 61.4736 33.0076C61.4736 32.3587 62.0143 31.8326 62.6814 31.8326C63.3484 31.8326 63.8891 32.3587 63.8891 33.0076Z" fill="#3DB52F"/>
<path d="M67.5121 28.3078C67.5121 28.9567 66.9714 29.4827 66.3044 29.4827C65.6374 29.4827 65.0967 28.9567 65.0967 28.3078C65.0967 27.6588 65.6374 27.1328 66.3044 27.1328C66.9714 27.1328 67.5121 27.6588 67.5121 28.3078Z" fill="#3DB52F"/>
<path d="M72.3432 24.7829C72.3432 25.4318 71.8025 25.9578 71.1355 25.9578C70.4684 25.9578 69.9277 25.4318 69.9277 24.7829C69.9277 24.1339 70.4684 23.6079 71.1355 23.6079C71.8025 23.6079 72.3432 24.1339 72.3432 24.7829Z" fill="#3DB52F"/>
<path d="M78.3818 30.6578C78.3818 31.3067 77.8411 31.8327 77.174 31.8327C76.507 31.8327 75.9663 31.3067 75.9663 30.6578C75.9663 30.0088 76.507 29.4828 77.174 29.4828C77.8411 29.4828 78.3818 30.0088 78.3818 30.6578Z" fill="#3DB52F"/>
<path d="M72.3432 31.8327C72.3432 32.4816 71.8025 33.0077 71.1355 33.0077C70.4684 33.0077 69.9277 32.4816 69.9277 31.8327C69.9277 31.1837 70.4684 30.6577 71.1355 30.6577C71.8025 30.6577 72.3432 31.1837 72.3432 31.8327Z" fill="#3DB52F"/>
<path d="M62.6811 38.8826C62.6811 39.5315 62.1404 40.0576 61.4734 40.0576C60.8063 40.0576 60.2656 39.5315 60.2656 38.8826C60.2656 38.2337 60.8063 37.7076 61.4734 37.7076C62.1404 37.7076 62.6811 38.2337 62.6811 38.8826Z" fill="#3DB52F"/>
<path d="M68.7201 44.7574C68.7201 45.4063 68.1794 45.9323 67.5124 45.9323C66.8454 45.9323 66.3047 45.4063 66.3047 44.7574C66.3047 44.1084 66.8454 43.5824 67.5124 43.5824C68.1794 43.5824 68.7201 44.1084 68.7201 44.7574Z" fill="#3DB52F"/>
<path d="M71.1357 37.7076C71.1357 38.3565 70.595 38.8825 69.9279 38.8825C69.2609 38.8825 68.7202 38.3565 68.7202 37.7076C68.7202 37.0586 69.2609 36.5326 69.9279 36.5326C70.595 36.5326 71.1357 37.0586 71.1357 37.7076Z" fill="#3DB52F"/>
<path d="M78.3818 35.3576C78.3818 36.0065 77.8411 36.5326 77.174 36.5326C76.507 36.5326 75.9663 36.0065 75.9663 35.3576C75.9663 34.7086 76.507 34.1826 77.174 34.1826C77.8411 34.1826 78.3818 34.7086 78.3818 35.3576Z" fill="#3DB52F"/>
<path d="M84.4203 37.7076C84.4203 38.3565 83.8796 38.8825 83.2126 38.8825C82.5456 38.8825 82.0049 38.3565 82.0049 37.7076C82.0049 37.0586 82.5456 36.5326 83.2126 36.5326C83.8796 36.5326 84.4203 37.0586 84.4203 37.7076Z" fill="#3DB52F"/>
<path d="M86.8359 44.7574C86.8359 45.4063 86.2952 45.9323 85.6281 45.9323C84.9611 45.9323 84.4204 45.4063 84.4204 44.7574C84.4204 44.1084 84.9611 43.5824 85.6281 43.5824C86.2952 43.5824 86.8359 44.1084 86.8359 44.7574Z" fill="#3DB52F"/>
<path d="M78.3818 49.4573C78.3818 50.1063 77.8411 50.6323 77.174 50.6323C76.507 50.6323 75.9663 50.1063 75.9663 49.4573C75.9663 48.8084 76.507 48.2823 77.174 48.2823C77.8411 48.2823 78.3818 48.8084 78.3818 49.4573Z" fill="#3DB52F"/>
<path d="M80.7973 42.4074C80.7973 43.0563 80.2566 43.5824 79.5896 43.5824C78.9225 43.5824 78.3818 43.0563 78.3818 42.4074C78.3818 41.7585 78.9225 41.2324 79.5896 41.2324C80.2566 41.2324 80.7973 41.7585 80.7973 42.4074Z" fill="#3DB52F"/>
<path d="M74.7587 43.5823C74.7587 44.2312 74.218 44.7573 73.551 44.7573C72.884 44.7573 72.3433 44.2312 72.3433 43.5823C72.3433 42.9334 72.884 42.4073 73.551 42.4073C74.218 42.4073 74.7587 42.9334 74.7587 43.5823Z" fill="#3DB52F"/>
<path d="M61.4736 44.7574C61.4736 45.4063 60.9329 45.9323 60.2658 45.9323C59.5988 45.9323 59.0581 45.4063 59.0581 44.7574C59.0581 44.1084 59.5988 43.5824 60.2658 43.5824C60.9329 43.5824 61.4736 44.1084 61.4736 44.7574Z" fill="#3DB52F"/>
<path d="M57.8505 30.6578C57.8505 31.3067 57.3098 31.8327 56.6428 31.8327C55.9758 31.8327 55.4351 31.3067 55.4351 30.6578C55.4351 30.0088 55.9758 29.4828 56.6428 29.4828C57.3098 29.4828 57.8505 30.0088 57.8505 30.6578Z" fill="#3DB52F"/>
<path d="M71.1019 29.6888C70.3289 30.7096 68.8517 30.9275 67.8025 30.1754C66.7533 29.4234 66.5293 27.9863 67.3024 26.9655C68.0754 25.9448 69.5525 25.7269 70.6018 26.4789C71.651 27.231 71.8749 28.6681 71.1019 29.6888Z" fill="#1E7614"/>
<path d="M74.847 37.2594C74.074 38.2802 72.5968 38.498 71.5476 37.7459C70.4984 36.994 70.2745 35.5568 71.0475 34.536C71.8205 33.5153 73.2976 33.2975 74.3469 34.0495C75.3961 34.8016 75.62 36.2387 74.847 37.2594Z" fill="#1E7614"/>
<path d="M77.6585 28.3189C77.0788 29.0844 75.9709 29.2478 75.184 28.6837C74.3971 28.1197 74.2292 27.0419 74.8089 26.2763C75.3886 25.5107 76.4966 25.3474 77.2834 25.9114C78.0704 26.4755 78.2384 27.5533 77.6585 28.3189Z" fill="#1E7614"/>
<path d="M87.1122 45.8361C86.5324 46.6018 85.4245 46.7651 84.6376 46.2011C83.8507 45.637 83.6828 44.5592 84.2625 43.7936C84.8422 43.0281 85.9502 42.8647 86.737 43.4288C87.524 43.9927 87.6919 45.0705 87.1122 45.8361Z" fill="#1E7614"/>
<path d="M70.2963 43.4541C69.5232 44.4749 68.0461 44.6927 66.9968 43.9406C65.9476 43.1887 65.7237 41.7516 66.4967 40.7307C67.2697 39.71 68.7469 39.4922 69.7962 40.2442C70.8453 40.9963 71.0692 42.4334 70.2963 43.4541Z" fill="#1E7614"/>
<path d="M67.8373 35.75C67.0642 36.7708 65.587 36.9886 64.5379 36.2365C63.4886 35.4846 63.2647 34.0474 64.0378 33.0266C64.8107 32.0059 66.2879 31.7881 67.3372 32.5401C68.3863 33.2922 68.6102 34.7293 67.8373 35.75Z" fill="#1E7614"/>
<path d="M61.8422 46.9791C61.0691 47.9999 59.5919 48.2178 58.5427 47.4657C57.4935 46.7137 57.2696 45.2766 58.0426 44.2558C58.8156 43.2351 60.2928 43.0172 61.3421 43.7692C62.3912 44.5213 62.6151 45.9584 61.8422 46.9791Z" fill="#1E7614"/>
<path d="M60.3881 38.2206C59.6151 39.2413 58.1378 39.4592 57.0887 38.7072C56.0394 37.9551 55.8155 36.518 56.5885 35.4973C57.3615 34.4765 58.8388 34.2587 59.8879 35.0108C60.9371 35.7627 61.161 37.1998 60.3881 38.2206Z" fill="#1E7614"/>
<path d="M82.3729 49.3289C81.6 50.3497 80.1227 50.5676 79.0735 49.8155C78.0242 49.0635 77.8003 47.6263 78.5734 46.6056C79.3463 45.5848 80.8236 45.3669 81.8728 46.119C82.9221 46.871 83.146 48.3082 82.3729 49.3289Z" fill="#1E7614"/>
<path d="M53.2958 44.6611C52.716 45.4267 51.6081 45.59 50.8212 45.026C50.0343 44.4619 49.8664 43.3841 50.4461 42.6185C51.0258 41.853 52.1338 41.6896 52.9206 42.2537C53.7076 42.8177 53.8756 43.8955 53.2958 44.6611Z" fill="#1E7614"/>
</svg>
