<svg width="100" height="100" viewBox="0 0 100 100" fill="none" xmlns="http://www.w3.org/2000/svg">
<path d="M58.6885 50.4997C58.2734 48.347 57.4518 46.3131 56.2763 44.5285C53.0711 39.8883 45.1009 35.1589 39.7025 36.3634L31.7339 24.8722C32.2423 24.0987 32.537 23.1816 32.5829 22.23C32.6288 21.2785 32.424 20.3325 31.9929 19.5046C31.4645 18.7669 30.7045 18.2705 29.8605 18.1116C29.0165 17.9528 28.1488 18.143 27.4256 18.6452C27.054 18.9085 26.7415 19.2602 26.5115 19.6742C26.2815 20.0883 26.14 20.5538 26.0974 21.0361C25.6506 20.9146 25.1858 20.8944 24.7315 20.9767C24.2773 21.059 23.8432 21.2421 23.456 21.5147C23.1117 21.7542 22.817 22.07 22.5908 22.4417C22.3647 22.8135 22.2122 23.2329 22.143 23.673C22.0739 24.1132 22.0897 24.5643 22.1895 24.9973C22.2892 25.4304 22.4707 25.8358 22.7222 26.1874C23.3774 26.8865 24.182 27.3949 25.0627 27.6664C25.9433 27.9379 26.8721 27.9638 27.7642 27.7418L35.7055 39.2109C32.7727 43.9913 34.4901 53.2127 37.6953 57.8529C38.8208 59.4876 40.2725 60.8194 41.9396 61.7467" fill="#FBB040"/>
<path d="M41.6981 63.3834C41.551 63.3794 41.4052 63.352 41.2653 63.302C39.3916 62.2658 37.7598 60.7734 36.4952 58.9392C33.0501 53.968 31.3792 44.9403 33.8896 39.4244L27.0493 29.4576C26.0229 29.5965 24.9811 29.4606 24.0133 29.0617C23.0455 28.6627 22.1806 28.0127 21.4928 27.1673C21.1162 26.6347 20.845 26.0222 20.6962 25.3688C20.5474 24.7153 20.5244 24.0351 20.6287 23.3714C20.7329 22.7076 20.9621 22.0749 21.3017 21.5133C21.6413 20.9517 22.0838 20.4736 22.6012 20.1092C23.3112 19.6018 24.1312 19.3092 24.978 19.2613C25.3368 18.4664 25.8832 17.7911 26.5606 17.3051C27.6074 16.5777 28.8638 16.3023 30.0857 16.5322C31.3076 16.7621 32.4079 17.4811 33.1726 18.5493C33.7281 19.4444 34.0554 20.4855 34.1208 21.5652C34.1863 22.6449 33.9875 23.7241 33.5449 24.6917L40.3981 34.5768C46.2518 33.9963 54.0809 38.5477 57.526 43.519C58.8371 45.4985 59.7545 47.757 60.219 50.1486C60.2602 50.3618 60.2626 50.5817 60.2261 50.796C60.1896 51.0102 60.115 51.2144 60.0064 51.397C59.8978 51.5796 59.7574 51.7371 59.5932 51.8603C59.4291 51.9835 59.2443 52.0702 59.0496 52.1153C58.8548 52.1603 58.6539 52.163 58.4582 52.1231C58.2625 52.0831 58.0759 52.0014 57.9091 51.8825C57.7422 51.7637 57.5984 51.61 57.4858 51.4303C57.3733 51.2506 57.2941 51.0484 57.2529 50.8352C56.8785 48.9208 56.1479 47.1113 55.1066 45.5196C52.1363 41.2432 44.7745 36.847 40.0311 37.9897L39.1116 38.1699L29.9807 24.9798L30.4681 24.0286C31.0209 22.9552 31.454 21.3714 30.8407 20.4822C30.5444 20.0765 30.1225 19.8038 29.6549 19.7158C29.1872 19.6278 28.7064 19.7306 28.3033 20.0048C28.1212 20.1337 27.9683 20.3064 27.8565 20.5099C27.7447 20.7133 27.6768 20.942 27.658 21.1785L27.4849 23.0636L25.7216 22.6476C25.4747 22.5752 25.2169 22.5596 24.9643 22.6018C24.7117 22.644 24.4698 22.7432 24.2539 22.8929C24.0826 23.0075 23.9356 23.1609 23.8229 23.3427C23.7101 23.5246 23.6342 23.7307 23.6001 23.9473C23.5661 24.164 23.5748 24.386 23.6256 24.5987C23.6764 24.8113 23.7682 25.0096 23.8947 25.1802C24.3922 25.6359 24.9817 25.9555 25.6143 26.1126C26.2469 26.2697 26.9046 26.2597 27.5331 26.0836L28.3976 25.9603L37.5408 39.1695L36.9412 40.1501C34.4399 44.2379 35.9495 52.6296 38.9249 56.8733C39.9111 58.3058 41.1842 59.4718 42.6462 60.2817C43.0322 60.4191 43.3526 60.7186 43.5368 61.1145C43.721 61.5103 43.754 61.9701 43.6286 62.3926C43.5031 62.8151 43.2295 63.1658 42.8678 63.3674C42.5062 63.5691 42.0862 63.6052 41.7002 63.4679L41.6981 63.3834Z" fill="#BE1E2D"/>
<path d="M41.6981 62.55C41.551 62.5461 41.4052 62.5186 41.2653 62.4686C39.3916 61.4324 37.7598 59.94 36.4952 58.1059C33.0501 53.1346 31.3792 44.1069 33.8896 38.5911L27.0493 28.6243C26.0229 28.7631 24.9811 28.6272 24.0133 28.2283C23.0455 27.8294 22.1806 27.1793 21.4928 26.3339C21.1162 25.8013 20.845 25.1889 20.6962 24.5354C20.5474 23.8819 20.5244 23.2017 20.6287 22.538C20.7329 21.8743 20.9621 21.2415 21.3017 20.6799C21.6413 20.1184 22.0838 19.6402 22.6012 19.2759C23.3112 18.7684 24.1312 18.4758 24.978 18.4279C25.3368 17.6331 25.8832 16.9577 26.5606 16.4717C27.6074 15.7443 28.8638 15.4689 30.0857 15.6988C31.3076 15.9288 32.4079 16.6477 33.1726 17.7159C33.7281 18.611 34.0554 19.6521 34.1208 20.7318C34.1863 21.8115 33.9875 22.8908 33.5449 23.8583L40.3981 33.7434C46.2518 33.1629 54.0809 37.7144 57.526 42.6856C58.8371 44.6651 59.7545 46.9236 60.219 49.3152C60.2602 49.5284 60.2626 49.7484 60.2261 49.9626C60.1896 50.1768 60.115 50.381 60.0064 50.5636C59.8978 50.7463 59.7574 50.9037 59.5932 51.0269C59.4291 51.1502 59.2443 51.2368 59.0496 51.2819C58.8548 51.327 58.6539 51.3296 58.4582 51.2897C58.2625 51.2498 58.0759 51.168 57.9091 51.0492C57.7422 50.9303 57.5984 50.7766 57.4858 50.5969C57.3733 50.4172 57.2941 50.215 57.2529 50.0018C56.8785 48.0874 56.1479 46.278 55.1066 44.6862C52.1363 40.4098 44.7745 36.0136 40.0311 37.1563L39.1116 37.3365L29.9807 24.1464L30.4681 23.1953C31.0209 22.1218 31.454 20.538 30.8407 19.6489C30.5444 19.2431 30.1225 18.9704 29.6549 18.8824C29.1872 18.7944 28.7064 18.8973 28.3033 19.1714C28.1212 19.3003 27.9683 19.4731 27.8565 19.6765C27.7447 19.8799 27.6768 20.1086 27.658 20.3452L27.4849 22.2302L25.7216 21.8143C25.4747 21.7418 25.2169 21.7262 24.9643 21.7684C24.7117 21.8107 24.4698 21.9098 24.2539 22.0595C24.0826 22.1741 23.9356 22.3275 23.8229 22.5093C23.7101 22.6912 23.6342 22.8974 23.6001 23.114C23.5661 23.3306 23.5748 23.5527 23.6256 23.7653C23.6764 23.9779 23.7682 24.1762 23.8947 24.3469C24.3922 24.8026 24.9817 25.1221 25.6143 25.2792C26.2469 25.4363 26.9046 25.4263 27.5331 25.2502L28.3976 25.1269L37.5408 38.3362L36.9412 39.3167C34.4399 43.4045 35.9495 51.7962 38.9249 56.0399C39.9111 57.4724 41.1842 58.6384 42.6462 59.4484C43.0322 59.5857 43.3526 59.8852 43.5368 60.2811C43.721 60.677 43.754 61.1367 43.6286 61.5592C43.5031 61.9817 43.2295 62.3324 42.8678 62.5341C42.5062 62.7357 42.0862 62.7719 41.7002 62.6345L41.6981 62.55Z" fill="#BE1E2D"/>
<path d="M29.0597 41.9021C40.721 26.4185 58.7127 33.348 58.7127 33.348C80.9298 33.348 90.1528 46.6102 90.1528 62.2762C90.1528 84.7888 77.5828 84.1754 49.9137 84.1754H13.5668C13.0442 84.1952 12.5239 84.0897 12.0425 83.8664C11.561 83.6431 11.1299 83.3073 10.7793 82.8825C10.4288 82.4578 10.1673 81.9543 10.0131 81.4073C9.8589 80.8604 9.81576 80.2831 9.88668 79.716C10.2501 76.7652 14.6724 75.7871 14.6724 75.7871C19.7761 74.2619 18.4434 71.9245 20.9573 60.3532C21.998 55.3409 23.7781 50.5479 26.2277 46.1626" fill="#FBB040"/>
<path d="M54.1386 85.8333H13.5512C12.7999 85.8311 12.0576 85.6541 11.3735 85.3139C10.6894 84.9738 10.0792 84.4784 9.58334 83.8606C9.11444 83.2667 8.76438 82.572 8.55571 81.821C8.34703 81.0701 8.28438 80.2797 8.37177 79.5006C8.90183 75.4722 13.8541 74.2289 14.4296 74.2289C17.095 73.4331 17.2616 72.9026 18.1552 67.4651C18.4732 65.5255 18.8669 63.1052 19.5333 60.0383C20.6215 54.826 22.4784 49.8427 25.0308 45.2841C25.1362 45.099 25.2739 44.9385 25.4359 44.8117C25.598 44.6849 25.7813 44.5943 25.9754 44.545C26.1695 44.4958 26.3705 44.4888 26.567 44.5246C26.7635 44.5604 26.9517 44.6382 27.1207 44.7536C27.2898 44.869 27.4364 45.0197 27.5523 45.1971C27.6681 45.3745 27.7509 45.5752 27.7959 45.7876C27.8409 46 27.8472 46.2201 27.8145 46.4352C27.7818 46.6503 27.7108 46.8563 27.6054 47.0413C25.2447 51.275 23.5263 55.8993 22.5168 60.7346C21.8656 63.7186 21.487 66.0892 21.1689 67.979C20.2602 73.4663 19.8513 75.9695 15.1111 77.3786C13.9601 77.6439 11.5824 78.6054 11.4158 79.915C11.3769 80.2328 11.3985 80.5559 11.4793 80.8641C11.5601 81.1722 11.6983 81.4587 11.8853 81.7054C12.0999 81.9683 12.3641 82.177 12.6595 82.3173C12.955 82.4575 13.2747 82.5259 13.5966 82.5178H52.079C64.9821 82.5178 74.3717 82.5178 80.3538 79.915C86.3359 77.3123 88.6379 72.2395 88.6379 62.2929C88.6379 45.2178 77.4461 35.0224 58.7123 35.0224H58.4548L58.2125 34.923C57.5159 34.6577 41.0537 28.5903 30.2254 42.9632C30.104 43.1465 29.9496 43.3006 29.7717 43.4161C29.5938 43.5315 29.3961 43.6059 29.191 43.6346C28.9858 43.6632 28.7775 43.6456 28.5788 43.5827C28.3801 43.5199 28.1953 43.4131 28.0357 43.2691C27.8761 43.125 27.7452 42.9468 27.651 42.7452C27.5568 42.5437 27.5013 42.3231 27.488 42.0972C27.4746 41.8713 27.5037 41.6448 27.5733 41.4316C27.643 41.2185 27.7518 41.0232 27.8931 40.8578C39.297 25.7223 56.6678 30.9112 58.9546 31.7069C79.4452 31.7898 91.6668 43.2119 91.6668 62.2929C91.6668 73.5326 88.5319 79.915 81.4897 82.9985C75.3107 85.7007 66.3603 85.8333 54.1386 85.8333Z" fill="#BE1E2D"/>
<path d="M76.0076 75.2899H60.9994C60.5394 75.2965 60.0828 75.2033 59.6559 75.0156C59.2291 74.828 58.8404 74.5497 58.5123 74.1967C58.1842 73.8438 57.9233 73.4232 57.7445 72.9592C57.5657 72.4953 57.4727 71.9972 57.4707 71.4936C57.4727 70.9901 57.5657 70.492 57.7445 70.028C57.9233 69.5641 58.1842 69.1435 58.5123 68.7905C58.8404 68.4376 59.2291 68.1592 59.6559 67.9716C60.0828 67.784 60.5394 67.6907 60.9994 67.6973C57.4707 60.1213 63.6497 57.2699 63.6497 57.2699L76.0076 71.477C76.0076 71.477 79.5515 75.2899 76.0076 75.2899Z" fill="#FBB040"/>
<path d="M76.0077 76.9476H60.9994C59.8531 76.9686 58.7354 76.5549 57.8359 75.7767C56.9364 74.9985 56.3106 73.9036 56.0645 72.6778C55.8184 71.4521 55.9673 70.1709 56.4858 69.0515C57.0044 67.9322 57.8607 67.0437 58.9095 66.5367C58.2781 64.6188 58.2781 62.5198 58.9095 60.6019C59.704 58.4491 61.2214 56.711 63.15 55.7446L64.1192 55.297L77.2041 70.333C78.1582 71.3609 79.703 73.3999 79.0215 75.3064C78.6428 76.0358 77.9008 76.9476 76.0077 76.9476ZM60.9843 69.3715C60.7143 69.3454 60.4423 69.3811 60.1856 69.4763C59.9289 69.5715 59.6931 69.7241 59.4932 69.9245C59.2933 70.1248 59.1336 70.3686 59.0244 70.6401C58.9152 70.9116 58.8588 71.2051 58.8588 71.5018C58.8588 71.7985 58.9152 72.0919 59.0244 72.3635C59.1336 72.635 59.2933 72.8787 59.4932 73.079C59.6931 73.2794 59.9289 73.432 60.1856 73.5272C60.4423 73.6224 60.7143 73.6581 60.9843 73.632H75.6745C75.4505 73.2959 75.2024 72.9799 74.9324 72.6871L63.362 59.4249C62.5872 60.0235 61.9917 60.8599 61.6507 61.8286C61.4329 62.6957 61.381 63.6026 61.4983 64.4926C61.6155 65.3826 61.8994 66.2366 62.3322 67.0009L63.4529 69.4047L60.9843 69.3715Z" fill="#BE1E2D"/>
<path d="M53.8054 56.2255C53.0632 54.1809 51.9386 52.3287 50.5039 50.7879C46.6269 46.8093 38.0399 43.6264 32.9059 45.8146L23.274 35.9674C23.6553 35.1108 23.8038 34.1523 23.7018 33.206C23.5998 32.2596 23.2515 31.3653 22.6985 30.6294C22.0636 30.0003 21.2378 29.652 20.3814 29.652C19.525 29.652 18.6992 30.0003 18.0643 30.6294C17.7388 30.9578 17.4852 31.3624 17.3226 31.8131C17.16 32.2638 17.0926 32.7489 17.1253 33.2321C16.6661 33.1952 16.2049 33.2614 15.77 33.4268C15.3351 33.5921 14.9356 33.8531 14.5962 34.1936C14.2939 34.4935 14.0523 34.8594 13.887 35.2677C13.7216 35.676 13.6362 36.1176 13.6362 36.5642C13.6362 37.0108 13.7216 37.4525 13.887 37.8608C14.0523 38.269 14.2939 38.6349 14.5962 38.9348C15.3501 39.5023 16.2217 39.8542 17.1317 39.9584C18.0417 40.0626 18.961 39.9159 19.8059 39.5316L29.4075 49.3623C27.257 54.6174 30.3768 63.3871 34.2538 67.3657C35.6161 68.768 37.2529 69.8113 39.0395 70.416" fill="#FBB040"/>
<path d="M39.0544 72.0737C38.9088 72.097 38.7608 72.097 38.6152 72.0737C36.6083 71.4 34.7691 70.2317 33.2389 68.6586C29.0741 64.3982 26.0301 55.8109 27.6506 49.9092L19.3665 41.3551C18.3765 41.6822 17.3287 41.7415 16.3131 41.5278C15.2975 41.3142 14.3445 40.8339 13.5358 40.1283C13.0823 39.6733 12.7201 39.12 12.4724 38.5035C12.2246 37.8871 12.0967 37.221 12.0967 36.5475C12.0967 35.874 12.2246 35.2079 12.4724 34.5915C12.7201 33.9751 13.0823 33.4217 13.5358 32.9667C14.157 32.3349 14.9199 31.8945 15.7469 31.6902C15.9776 30.8403 16.4115 30.0734 17.0039 29.4688C17.923 28.5578 19.1186 28.0533 20.3585 28.0533C21.5983 28.0533 22.7939 28.5578 23.713 29.4688C24.3989 30.2479 24.8826 31.2133 25.1142 32.2652C25.3458 33.3172 25.317 34.4177 25.0306 35.4534L33.3146 43.9246C38.9938 42.2668 47.4142 45.3006 51.579 49.5611C53.1775 51.2688 54.4312 53.3245 55.2591 55.5954C55.3327 55.7978 55.3691 56.0142 55.3663 56.2321C55.3635 56.4499 55.3215 56.6651 55.2428 56.8652C55.164 57.0653 55.05 57.2465 54.9073 57.3984C54.7646 57.5503 54.596 57.6699 54.411 57.7505C54.226 57.831 54.0284 57.8709 53.8294 57.8678C53.6303 57.8648 53.4338 57.8188 53.2509 57.7326C53.0681 57.6464 52.9026 57.5217 52.7638 57.3654C52.6251 57.2092 52.5158 57.0246 52.4422 56.8221C51.7769 55.0048 50.7767 53.357 49.5042 51.9814C45.9149 48.3177 37.9791 45.3503 33.4812 47.3562L32.6028 47.7043L21.5624 36.3983L21.8956 35.3705C22.2742 34.21 22.456 32.5688 21.7139 31.8063C21.3591 31.4613 20.9011 31.2708 20.4266 31.2708C19.9521 31.2708 19.4941 31.4613 19.1393 31.8063C18.9798 31.9671 18.8559 32.1657 18.7771 32.3869C18.6984 32.6082 18.6669 32.8462 18.685 33.0828L18.8061 34.9726L17.0039 34.8897C16.7495 34.8641 16.4929 34.8966 16.2505 34.985C16.0081 35.0735 15.785 35.216 15.5955 35.4036C15.4444 35.5483 15.3232 35.7268 15.2403 35.9269C15.1573 36.127 15.1143 36.3443 15.1143 36.5641C15.1143 36.7839 15.1573 37.0011 15.2403 37.2013C15.3232 37.4014 15.4444 37.5798 15.5955 37.7245C16.1563 38.0814 16.7867 38.287 17.4345 38.3245C18.0823 38.362 18.729 38.2302 19.3211 37.94L20.154 37.6582L31.2095 48.9808L30.7703 50.0584C28.9378 54.551 31.7244 62.5415 35.3137 66.172C36.5074 67.4009 37.9425 68.3139 39.5087 68.841C39.9104 68.9048 40.2725 69.1406 40.5153 69.4965C40.7581 69.8525 40.8618 70.2995 40.8036 70.7392C40.7454 71.1788 40.53 71.5752 40.2048 71.841C39.8796 72.1068 39.4712 72.2203 39.0696 72.1566L39.0544 72.0737Z" fill="#BE1E2D"/>
<path d="M39.0544 72.0737C38.9088 72.097 38.7608 72.097 38.6152 72.0737C36.6083 71.4 34.7691 70.2317 33.2389 68.6586C29.0741 64.3982 26.0301 55.8109 27.6506 49.9092L19.3665 41.3551C18.3765 41.6822 17.3287 41.7415 16.3131 41.5278C15.2975 41.3142 14.3445 40.8339 13.5358 40.1283C13.0823 39.6733 12.7201 39.12 12.4724 38.5035C12.2246 37.8871 12.0967 37.221 12.0967 36.5475C12.0967 35.874 12.2246 35.2079 12.4724 34.5915C12.7201 33.9751 13.0823 33.4217 13.5358 32.9667C14.157 32.3349 14.9199 31.8945 15.7469 31.6902C15.9776 30.8403 16.4115 30.0734 17.0039 29.4688C17.923 28.5578 19.1186 28.0533 20.3585 28.0533C21.5983 28.0533 22.7939 28.5578 23.713 29.4688C24.3989 30.2479 24.8826 31.2133 25.1142 32.2652C25.3458 33.3172 25.317 34.4177 25.0306 35.4534L33.3146 43.9246C38.9938 42.2668 47.4142 45.3006 51.579 49.5611C53.1775 51.2688 54.4312 53.3245 55.2591 55.5954C55.3327 55.7978 55.3691 56.0142 55.3663 56.2321C55.3635 56.4499 55.3215 56.6651 55.2428 56.8652C55.164 57.0653 55.05 57.2465 54.9073 57.3984C54.7646 57.5503 54.596 57.6699 54.411 57.7505C54.226 57.831 54.0284 57.8709 53.8294 57.8678C53.6303 57.8648 53.4338 57.8188 53.2509 57.7326C53.0681 57.6464 52.9026 57.5217 52.7638 57.3654C52.6251 57.2092 52.5158 57.0246 52.4422 56.8221C51.7769 55.0048 50.7767 53.357 49.5042 51.9814C45.9149 48.3177 37.9791 45.3503 33.4812 47.3562L32.6028 47.7043L21.5624 36.3983L21.8956 35.3705C22.2742 34.21 22.456 32.5688 21.7139 31.8063C21.3591 31.4613 20.9011 31.2708 20.4266 31.2708C19.9521 31.2708 19.4941 31.4613 19.1393 31.8063C18.9798 31.9671 18.8559 32.1657 18.7771 32.3869C18.6984 32.6082 18.6669 32.8462 18.685 33.0828L18.8061 34.9726L17.0039 34.8897C16.7495 34.8641 16.4929 34.8966 16.2505 34.985C16.0081 35.0735 15.785 35.216 15.5955 35.4036C15.4444 35.5483 15.3232 35.7268 15.2403 35.9269C15.1573 36.127 15.1143 36.3443 15.1143 36.5641C15.1143 36.7839 15.1573 37.0011 15.2403 37.2013C15.3232 37.4014 15.4444 37.5798 15.5955 37.7245C16.1563 38.0814 16.7867 38.287 17.4345 38.3245C18.0823 38.362 18.729 38.2302 19.3211 37.94L20.154 37.6582L31.2095 48.9808L30.7703 50.0584C28.9378 54.551 31.7244 62.5415 35.3137 66.172C36.5074 67.4009 37.9425 68.3139 39.5087 68.841C39.9104 68.9048 40.2725 69.1406 40.5153 69.4965C40.7581 69.8525 40.8618 70.2995 40.8036 70.7392C40.7454 71.1788 40.53 71.5752 40.2048 71.841C39.8796 72.1068 39.4712 72.2203 39.0696 72.1566L39.0544 72.0737Z" fill="#BE1E2D"/>
<path d="M36.3138 61.8619C36.0237 61.8611 35.7398 61.769 35.496 61.5966C34.7612 60.9775 34.1603 60.1884 33.7362 59.2858C33.3121 58.3831 33.0753 57.3891 33.0426 56.3746C32.9608 55.4501 33.0801 54.5175 33.3907 53.6531C33.7013 52.7887 34.1944 52.0171 34.8297 51.4013C35.1369 51.1177 35.5345 50.9794 35.935 51.0167C36.1333 51.0351 36.3263 51.0962 36.5031 51.1963C36.6798 51.2964 36.8368 51.4337 36.9651 51.6002C37.0933 51.7668 37.1904 51.9594 37.2507 52.167C37.311 52.3746 37.3333 52.5931 37.3164 52.8102C37.2996 53.0272 37.2438 53.2385 37.1523 53.432C37.0609 53.6254 36.9355 53.7973 36.7833 53.9377C36.5108 54.2331 36.3036 54.5928 36.1776 54.9893C36.0516 55.3858 36.0101 55.8087 36.0564 56.2254C36.0791 57.2274 36.4597 58.1797 37.1165 58.8779C37.3908 59.0719 37.6005 59.3577 37.7143 59.6928C37.8281 60.0279 37.8399 60.3942 37.748 60.7373C37.656 61.0803 37.4652 61.3816 37.204 61.5962C36.9428 61.8108 36.6253 61.9273 36.2987 61.9282L36.3138 61.8619ZM81.3689 54.3356C81.031 54.3503 80.6982 54.2408 80.4238 54.0245C80.1493 53.8081 79.9489 53.4975 79.8544 53.142C78.9761 49.8264 74.675 46.8093 73.0848 45.9141C72.9017 45.819 72.7379 45.6846 72.6032 45.519C72.4684 45.3533 72.3653 45.1598 72.3001 44.9497C72.2349 44.7397 72.2089 44.5175 72.2235 44.2962C72.2382 44.075 72.2933 43.8592 72.3856 43.6617C72.4778 43.4642 72.6053 43.2889 72.7606 43.1464C72.9158 43.0038 73.0956 42.8968 73.2893 42.8316C73.4831 42.7665 73.6868 42.7446 73.8884 42.7672C74.09 42.7898 74.2854 42.8564 74.463 42.9632C74.7356 43.129 81.3235 46.8756 82.7471 52.2136C82.8146 52.4662 82.8262 52.7326 82.7809 52.9911C82.7357 53.2495 82.6349 53.4924 82.487 53.6997C82.339 53.9071 82.148 54.0729 81.9299 54.1835C81.7118 54.294 81.4728 54.3462 81.2326 54.3356H81.3689Z" fill="#F15A29"/>
</svg>
