<svg width="100" height="100" viewBox="0 0 100 100" fill="none" xmlns="http://www.w3.org/2000/svg">
<path d="M65.167 54.6296C65.167 73.8061 59.4041 80.0925 49.417 80.0925C39.4298 80.0925 33.667 73.8061 33.667 54.6296C33.667 35.4531 41.8337 10.6482 49.417 10.6482C57.0003 10.6482 65.167 35.4531 65.167 54.6296Z" fill="#FFD12F"/>
<path fill-rule="evenodd" clip-rule="evenodd" d="M62.9735 75.8436C59.7437 80.6103 54.9731 82.4073 49.4168 82.4073C43.8605 82.4073 39.09 80.6103 35.8602 75.8436C32.775 71.2904 31.3335 64.3503 31.3335 54.6296C31.3335 44.7635 33.4254 33.5134 36.4923 24.6929C38.0234 20.2893 39.8382 16.3717 41.8383 13.5059C42.8382 12.0731 43.9408 10.8211 45.1508 9.90866C46.3637 8.99396 47.8053 8.33337 49.4168 8.33337C51.0284 8.33337 52.47 8.99396 53.6829 9.90866C54.8929 10.8211 55.9955 12.0731 56.9954 13.5059C58.9954 16.3717 60.8103 20.2893 62.3414 24.6929C65.4082 33.5134 67.5002 44.7635 67.5002 54.6296C67.5002 64.3503 66.0586 71.2904 62.9735 75.8436ZM49.4168 80.0925C59.404 80.0925 65.1668 73.8061 65.1668 54.6296C65.1668 35.4531 57.0002 10.6482 49.4168 10.6482C41.8335 10.6482 33.6668 35.4531 33.6668 54.6296C33.6668 73.8061 39.4297 80.0925 49.4168 80.0925Z" fill="#EC9616"/>
<path d="M43.2893 43.1201C46.1719 43.1713 48.5644 40.1175 48.6332 36.2993C48.702 32.4811 50.1 14.3011 47.2175 14.25C44.3349 14.1989 38.2634 32.296 38.1946 36.1142C38.1258 39.9323 40.4068 43.069 43.2893 43.1201Z" fill="#FFE071"/>
<path fill-rule="evenodd" clip-rule="evenodd" d="M41.853 78.3577C48.1952 76.8235 52.6976 70.3585 55.1897 55.9873C58.2173 38.5272 55.1964 15.1602 48.8255 10.6977C49.0229 10.6649 49.22 10.6482 49.4168 10.6482C57.0001 10.6482 65.1668 35.4531 65.1668 54.6296C65.1668 73.8061 59.4039 80.0925 49.4168 80.0925C46.5303 80.0925 43.9966 79.5674 41.853 78.3577Z" fill="#F1B826"/>
<path d="M43.0073 32.796C43.0073 33.8753 42.1253 34.7502 41.0374 34.7502C39.9495 34.7502 39.0676 33.8753 39.0676 32.796C39.0676 31.7167 39.9495 30.8418 41.0374 30.8418C42.1253 30.8418 43.0073 31.7167 43.0073 32.796Z" fill="#FFF730"/>
<path d="M48.9167 32.796C48.9167 33.8753 48.0347 34.7502 46.9468 34.7502C45.8589 34.7502 44.977 33.8753 44.977 32.796C44.977 31.7167 45.8589 30.8418 46.9468 30.8418C48.0347 30.8418 48.9167 31.7167 48.9167 32.796Z" fill="#FFF730"/>
<path d="M54.7324 32.796C54.7324 33.8753 53.8505 34.7502 52.7626 34.7502C51.6747 34.7502 50.7928 33.8753 50.7928 32.796C50.7928 31.7167 51.6747 30.8418 52.7626 30.8418C53.8505 30.8418 54.7324 31.7167 54.7324 32.796Z" fill="#FFF730"/>
<path d="M60.5479 32.796C60.5479 33.8753 59.666 34.7502 58.5781 34.7502C57.4902 34.7502 56.6083 33.8753 56.6083 32.796C56.6083 31.7167 57.4902 30.8418 58.5781 30.8418C59.666 30.8418 60.5479 31.7167 60.5479 32.796Z" fill="#FFF730"/>
<path d="M58.672 26.9335C58.672 28.0128 57.7901 28.8877 56.7022 28.8877C55.6143 28.8877 54.7324 28.0128 54.7324 26.9335C54.7324 25.8542 55.6143 24.9793 56.7022 24.9793C57.7901 24.9793 58.672 25.8542 58.672 26.9335Z" fill="#FFF730"/>
<path d="M51.7776 26.9335C51.7776 28.0128 50.8957 28.8877 49.8078 28.8877C48.7199 28.8877 47.8379 28.0128 47.8379 26.9335C47.8379 25.8542 48.7199 24.9793 49.8078 24.9793C50.8957 24.9793 51.7776 25.8542 51.7776 26.9335Z" fill="#FFF730"/>
<path d="M44.8832 26.9335C44.8832 28.0128 44.0013 28.8877 42.9133 28.8877C41.8254 28.8877 40.9435 28.0128 40.9435 26.9335C40.9435 25.8542 41.8254 24.9793 42.9133 24.9793C44.0013 24.9793 44.8832 25.8542 44.8832 26.9335Z" fill="#FFF730"/>
<path d="M47.838 22.0479C47.838 23.1271 46.9561 24.0021 45.8682 24.0021C44.7803 24.0021 43.8983 23.1271 43.8983 22.0479C43.8983 20.9686 44.7803 20.0937 45.8682 20.0937C46.9561 20.0937 47.838 20.9686 47.838 22.0479Z" fill="#FFF730"/>
<path d="M55.7172 22.0479C55.7172 23.1271 54.8353 24.0021 53.7474 24.0021C52.6595 24.0021 51.7775 23.1271 51.7775 22.0479C51.7775 20.9686 52.6595 20.0937 53.7474 20.0937C54.8353 20.0937 55.7172 20.9686 55.7172 22.0479Z" fill="#FFF730"/>
<path d="M51.7776 17.1625C51.7776 18.2417 50.8957 19.1167 49.8078 19.1167C48.7199 19.1167 47.8379 18.2417 47.8379 17.1625C47.8379 16.0832 48.7199 15.2083 49.8078 15.2083C50.8957 15.2083 51.7776 16.0832 51.7776 17.1625Z" fill="#FFF730"/>
<path d="M45.9618 38.7518C45.9618 39.831 45.0799 40.706 43.992 40.706C42.9041 40.706 42.0222 39.831 42.0222 38.7518C42.0222 37.6725 42.9041 36.7976 43.992 36.7976C45.0799 36.7976 45.9618 37.6725 45.9618 38.7518Z" fill="#FFF730"/>
<path d="M51.7776 38.6586C51.7776 39.7379 50.8957 40.6128 49.8078 40.6128C48.7199 40.6128 47.8379 39.7379 47.8379 38.6586C47.8379 37.5793 48.7199 36.7044 49.8078 36.7044C50.8957 36.7044 51.7776 37.5793 51.7776 38.6586Z" fill="#FFF730"/>
<path d="M59.6571 38.6586C59.6571 39.7379 58.7752 40.6128 57.6872 40.6128C56.5993 40.6128 55.7174 39.7379 55.7174 38.6586C55.7174 37.5793 56.5993 36.7044 57.6872 36.7044C58.7752 36.7044 59.6571 37.5793 59.6571 38.6586Z" fill="#FFF730"/>
<path d="M63.5031 44.5212C63.5031 45.6005 62.6211 46.4754 61.5332 46.4754C60.4453 46.4754 59.5634 45.6005 59.5634 44.5212C59.5634 43.442 60.4453 42.567 61.5332 42.567C62.6211 42.567 63.5031 43.442 63.5031 44.5212Z" fill="#FFF730"/>
<path d="M55.7172 44.5212C55.7172 45.6005 54.8353 46.4754 53.7474 46.4754C52.6595 46.4754 51.7775 45.6005 51.7775 44.5212C51.7775 43.442 52.6595 42.567 53.7474 42.567C54.8353 42.567 55.7172 43.442 55.7172 44.5212Z" fill="#FFF730"/>
<path d="M46.853 44.5212C46.853 45.6005 45.9711 46.4754 44.8831 46.4754C43.7952 46.4754 42.9133 45.6005 42.9133 44.5212C42.9133 43.442 43.7952 42.567 44.8831 42.567C45.9711 42.567 46.853 43.442 46.853 44.5212Z" fill="#FFF730"/>
<path d="M40.9436 41.5899C40.9436 42.6691 40.0617 43.5441 38.9737 43.5441C37.8858 43.5441 37.0039 42.6691 37.0039 41.5899C37.0039 40.5106 37.8858 39.6357 38.9737 39.6357C40.0617 39.6357 40.9436 40.5106 40.9436 41.5899Z" fill="#FFF730"/>
<path d="M41.8347 49.3136C41.8347 50.3929 40.9528 51.2678 39.8649 51.2678C38.777 51.2678 37.8951 50.3929 37.8951 49.3136C37.8951 48.2344 38.777 47.3594 39.8649 47.3594C40.9528 47.3594 41.8347 48.2344 41.8347 49.3136Z" fill="#FFF730"/>
<path d="M48.5414 50.2908C48.5414 51.3701 47.6595 52.245 46.5715 52.245C45.4836 52.245 44.6017 51.3701 44.6017 50.2908C44.6017 49.2116 45.4836 48.3366 46.5715 48.3366C47.6595 48.3366 48.5414 49.2116 48.5414 50.2908Z" fill="#FFF730"/>
<path d="M56.3272 50.3839C56.3272 51.4631 55.4453 52.3381 54.3574 52.3381C53.2695 52.3381 52.3876 51.4631 52.3876 50.3839C52.3876 49.3046 53.2695 48.4297 54.3574 48.4297C55.4453 48.4297 56.3272 49.3046 56.3272 50.3839Z" fill="#FFF730"/>
<path d="M63.1278 52.4776C63.1278 53.5569 62.2458 54.4318 61.1579 54.4318C60.07 54.4318 59.1881 53.5569 59.1881 52.4776C59.1881 51.3983 60.07 50.5234 61.1579 50.5234C62.2458 50.5234 63.1278 51.3983 63.1278 52.4776Z" fill="#FFF730"/>
<path d="M51.2618 57.8285C51.2618 58.9077 50.3798 59.7826 49.2919 59.7826C48.204 59.7826 47.3221 58.9077 47.3221 57.8285C47.3221 56.7492 48.204 55.8742 49.2919 55.8742C50.3798 55.8742 51.2618 56.7492 51.2618 57.8285Z" fill="#FFF730"/>
<path d="M52.3404 64.2494C52.3404 65.3287 51.4585 66.2036 50.3706 66.2036C49.2827 66.2036 48.4007 65.3287 48.4007 64.2494C48.4007 63.1701 49.2827 62.2952 50.3706 62.2952C51.4585 62.2952 52.3404 63.1701 52.3404 64.2494Z" fill="#FFF730"/>
<path d="M57.4998 57.1304C57.4998 58.2097 56.6178 59.0846 55.5299 59.0846C54.442 59.0846 53.5601 58.2097 53.5601 57.1304C53.5601 56.0511 54.442 55.1762 55.5299 55.1762C56.6178 55.1762 57.4998 56.0511 57.4998 57.1304Z" fill="#FFF730"/>
<path d="M45.7743 57.2236C45.7743 58.3028 44.8924 59.1777 43.8045 59.1777C42.7166 59.1777 41.8346 58.3028 41.8346 57.2236C41.8346 56.1443 42.7166 55.2693 43.8045 55.2693C44.8924 55.2693 45.7743 56.1443 45.7743 57.2236Z" fill="#FFF730"/>
<path fill-rule="evenodd" clip-rule="evenodd" d="M47.5649 15.3345C48.6662 15.9983 49.0166 17.4221 48.3476 18.5147C47.8371 19.3484 47.5452 20.1962 47.4443 21.0748C47.2983 22.345 46.142 23.2573 44.8617 23.1125C43.5813 22.9677 42.6617 21.8206 42.8077 20.5504C42.9887 18.9745 43.5152 17.4892 44.3592 16.111C45.0283 15.0184 46.4635 14.6707 47.5649 15.3345Z" fill="white"/>
<path d="M52.3337 69.6759C52.3337 70.9543 51.289 71.9907 50.0003 71.9907C48.7117 71.9907 47.667 70.9543 47.667 69.6759C47.667 68.3975 48.7117 67.3611 50.0003 67.3611C51.289 67.3611 52.3337 68.3975 52.3337 69.6759Z" fill="#F3D157"/>
<path d="M67.9914 75.1489C64.0616 86.1561 53.582 89.2038 48.8335 89.3517C49.3247 84.6174 48.1528 73.1444 54.8335 62.8474C61.5142 52.5503 73.5586 52.6611 76.8335 54.2885C73.3949 56.5077 72.9037 61.3899 67.9914 75.1489Z" fill="#76C611"/>
<path fill-rule="evenodd" clip-rule="evenodd" d="M47.1263 90.9291C46.6675 90.4404 46.4438 89.7789 46.5128 89.1145C46.5894 88.3757 46.6157 87.3712 46.6474 86.1573C46.7933 80.5735 47.055 70.5598 52.8718 61.5944C56.5866 55.8687 61.817 53.0237 66.5448 51.8505C68.8995 51.2662 71.1485 51.0903 73.0629 51.1788C74.9228 51.2648 76.6531 51.6096 77.8789 52.2187C78.6265 52.5902 79.1165 53.3302 79.1635 54.1584C79.2104 54.9866 78.8071 55.7764 78.1062 56.2287C77.0864 56.8869 76.3141 57.9943 75.161 61.1746C74.679 62.5042 74.1635 64.0906 73.5282 66.0453C73.4168 66.3882 73.3017 66.7424 73.1824 67.1086C72.3893 69.5436 71.4299 72.4521 70.1912 75.9216C65.8236 88.1549 54.2118 91.5 48.9071 91.6652C48.2342 91.6862 47.585 91.4179 47.1263 90.9291ZM48.9671 87.0295C48.9784 86.6895 48.9887 86.3337 48.9994 85.9633C49.1636 80.2848 49.427 71.1809 54.8338 62.8472C60.2246 54.5384 69.1076 53.0062 74.0577 53.5793C75.2422 53.7165 76.2015 53.9742 76.8338 54.2884C76.1139 54.753 75.5232 55.3344 74.994 56.0896C73.7218 57.9051 72.8054 60.725 71.3052 65.3419C70.4491 67.9766 69.4028 71.1964 67.9917 75.1488C64.6268 84.5737 56.4598 88.163 51.2004 89.093C50.3174 89.2491 49.5164 89.3303 48.8338 89.3516C48.9016 88.6988 48.9377 87.9178 48.9671 87.0295Z" fill="#548F09"/>
<path fill-rule="evenodd" clip-rule="evenodd" d="M49.1443 82.2744C53.9927 81.4018 59.6404 78.8168 63.5282 72.7178C65.7871 69.174 67.5267 66.2643 68.9501 63.8834C72.4564 58.0185 74.0444 55.3624 76.7513 54.3423C74.361 55.9367 73.4052 58.8783 71.3049 65.342C70.4487 67.9766 69.4025 71.1965 67.9914 75.1488C64.0616 86.156 53.582 89.2037 48.8335 89.3516C48.9272 88.4489 48.9604 87.3012 48.9991 85.9634C49.0311 84.854 49.067 83.6139 49.1443 82.2744ZM76.799 54.3108C76.8105 54.3033 76.822 54.2959 76.8335 54.2884C76.7822 54.263 76.7288 54.2378 76.6733 54.2131C76.7169 54.2458 76.7589 54.2783 76.799 54.3108Z" fill="#67AE0E"/>
<path d="M31.5811 50.8481C26.4383 47.3827 24.8229 42.666 24.6581 40.7408C23.3394 40.7408 21.691 45.3613 25.6471 63.8431C29.6031 82.3249 42.4602 88.5497 48.3942 89.3519C55.3172 64.8057 38.0096 55.1798 31.5811 50.8481Z" fill="#8DEA17"/>
<path fill-rule="evenodd" clip-rule="evenodd" d="M24.6579 38.4259C25.87 38.4259 26.8802 39.3466 26.9828 40.5448C27.0912 41.8102 28.3601 45.8794 32.8919 48.9331C33.2377 49.1661 33.625 49.4201 34.0465 49.6965C37.3781 51.8818 42.8499 55.4708 46.9029 61.1878C51.5777 67.782 54.288 77.0447 50.6411 89.9754C50.3271 91.0886 49.2335 91.8014 48.079 91.6453C41.2324 90.7198 27.5379 83.8216 23.3644 64.3238C21.3718 55.0146 20.753 49.0358 20.8417 45.3066C20.8855 43.462 21.1044 42.0042 21.5202 40.925C21.8654 40.0291 22.7649 38.4259 24.6579 38.4259ZM24.5633 40.7487C24.0011 40.8438 23.4053 41.8024 23.223 44.3209C22.984 47.6232 23.4559 53.6073 25.6469 63.843C29.6029 82.3248 42.46 88.5496 48.394 89.3517C54.9238 66.1997 39.8973 56.3212 32.7751 51.639C32.3462 51.3571 31.946 51.094 31.5809 50.848C28.4047 48.7078 26.574 46.0903 25.5995 43.9479C25.4467 43.612 25.3149 43.2877 25.2023 42.9788C24.8703 42.0679 24.7049 41.2905 24.6579 40.7407C24.6265 40.7407 24.5949 40.7433 24.5633 40.7487ZM25.9525 42.4169C25.9529 42.4186 25.9448 42.436 25.927 42.464C25.9432 42.4292 25.9521 42.4152 25.9525 42.4169Z" fill="#548F09"/>
<path d="M31.4228 55.5349C28.516 53.6372 27.2503 52.8935 26.667 51.7361C27.2503 56.9444 26.7643 55.504 29.0003 65.6249C30.0231 70.2546 35.2385 78.4958 38.5926 78.9351C42.5055 65.4932 35.0563 57.907 31.4228 55.5349Z" fill="#A4FC34"/>
</svg>
