<svg width="100" height="100" viewBox="0 0 100 100" fill="none" xmlns="http://www.w3.org/2000/svg">
<path d="M36.7822 18.2634C45.7549 18.0919 53.3142 33.0988 53.5696 46.6499C53.8251 60.2011 46.7192 69.2452 37.7465 69.4167C28.7738 69.5883 21.3321 60.8224 21.0767 47.2713C20.8213 33.7202 28.3756 18.4242 36.7822 18.2634Z" fill="#EDE6CF"/>
<path fill-rule="evenodd" clip-rule="evenodd" d="M50.0287 26.4093C53.2251 32.1062 55.2553 39.545 55.3886 46.6153C55.6535 60.6684 48.1988 71.0498 37.7809 71.249C27.3629 71.4482 19.5224 61.3593 19.2575 47.3062C19.1237 40.2106 21.0258 32.6931 24.0727 26.8895C25.5978 23.9845 27.4478 21.4362 29.5452 19.5813C31.6404 17.7282 34.0853 16.4824 36.7475 16.4314C42.2857 16.3255 46.9027 20.8377 50.0287 26.4093ZM53.5695 46.6501C53.3141 33.099 45.7548 18.092 36.7821 18.2636C28.3755 18.4243 20.8211 33.7203 21.0765 47.2714C21.332 60.8226 28.7737 69.5885 37.7463 69.4169C46.719 69.2453 53.825 60.2012 53.5695 46.6501Z" fill="#968960"/>
<path fill-rule="evenodd" clip-rule="evenodd" d="M42.2851 20.0721C45.7212 25.4216 47.9736 32.9725 48.108 40.1045C48.3538 53.1406 41.4682 61.8419 32.7753 62.0081C29.1539 62.0774 25.79 60.6544 23.0799 58.028C25.9165 65.2638 31.455 69.5372 37.7461 69.4169C46.7188 69.2453 53.8247 60.2012 53.5693 46.6501C53.3685 35.9959 48.6528 24.4418 42.2851 20.0721Z" fill="#DBD2B2"/>
<path d="M33.3027 26.6491C36.9943 27.4097 32.634 32.493 34.3243 37.8842C37.0534 46.5884 32.2812 50.6149 28.5895 49.8543C24.8979 49.0936 22.9603 43.2824 24.2618 36.8745C25.5633 30.4665 29.6111 25.8885 33.3027 26.6491Z" fill="#FEF8E3"/>
<path fill-rule="evenodd" clip-rule="evenodd" d="M28.762 37.7404C28.6392 39.1578 28.639 40.4394 28.639 40.862C28.639 41.621 28.028 42.2363 27.2744 42.2363C26.5208 42.2363 25.9099 41.621 25.9099 40.862L25.9099 40.8593C25.9099 40.4199 25.9099 39.0412 26.0432 37.5016C26.1714 36.0218 26.4388 34.1528 27.0813 32.8691C27.4206 32.1913 28.2411 31.9189 28.914 32.2606C29.587 32.6022 29.8575 33.4287 29.5183 34.1065C29.1354 34.8714 28.8902 36.26 28.762 37.7404Z" fill="white"/>
<path d="M49.327 38.4041C50.0484 38.9839 50.2294 39.9636 49.7312 40.5924C49.2331 41.2212 48.2444 41.2609 47.523 40.6811C46.8016 40.1014 46.6206 39.1216 47.1188 38.4928C47.6169 37.8641 48.6056 37.8243 49.327 38.4041Z" fill="#CFC59E"/>
<path d="M48.5297 34.6395C48.9402 34.9695 49.0432 35.527 48.7597 35.8848C48.4762 36.2426 47.9136 36.2652 47.5031 35.9353C47.0926 35.6054 46.9896 35.0478 47.2731 34.69C47.5566 34.3322 48.1192 34.3096 48.5297 34.6395Z" fill="#CFC59E"/>
<path d="M45.6649 36.4347C46.0755 36.7646 46.1785 37.3222 45.895 37.68C45.6115 38.0378 45.0489 38.0604 44.6384 37.7305C44.2278 37.4005 44.1248 36.843 44.4083 36.4852C44.6918 36.1273 45.2544 36.1047 45.6649 36.4347Z" fill="#CFC59E"/>
<path d="M44.1817 29.6358C44.385 29.7992 44.436 30.0753 44.2956 30.2525C44.1552 30.4297 43.8766 30.4409 43.6733 30.2775C43.47 30.1141 43.419 29.838 43.5594 29.6608C43.6998 29.4837 43.9784 29.4725 44.1817 29.6358Z" fill="#CFC59E"/>
<path d="M44.8135 25.2082C45.0168 25.3716 45.0678 25.6477 44.9274 25.8249C44.787 26.0021 44.5084 26.0133 44.3051 25.8499C44.1018 25.6865 44.0508 25.4104 44.1912 25.2332C44.3316 25.056 44.6102 25.0448 44.8135 25.2082Z" fill="#CFC59E"/>
<path d="M50.3906 36.8623C50.5939 37.0257 50.6449 37.3018 50.5046 37.479C50.3642 37.6562 50.0856 37.6674 49.8823 37.504C49.679 37.3406 49.628 37.0645 49.7683 36.8873C49.9087 36.7101 50.1873 36.6989 50.3906 36.8623Z" fill="#CFC59E"/>
<path d="M50.9878 40.5639C51.1911 40.7273 51.2421 41.0034 51.1017 41.1806C50.9613 41.3578 50.6827 41.369 50.4794 41.2056C50.2761 41.0422 50.2251 40.7661 50.3655 40.5889C50.5059 40.4118 50.7845 40.4006 50.9878 40.5639Z" fill="#CFC59E"/>
<path d="M45.3833 40.4815C45.6904 40.7284 45.7674 41.1455 45.5554 41.4132C45.3433 41.6809 44.9223 41.6978 44.6152 41.451C44.3081 41.2041 44.231 40.787 44.4431 40.5193C44.6552 40.2516 45.0761 40.2347 45.3833 40.4815Z" fill="#CFC59E"/>
<path d="M51.8256 46.2318C52.1328 46.4786 52.2098 46.8957 51.9977 47.1635C51.7856 47.4312 51.3647 47.4481 51.0576 47.2012C50.7505 46.9544 50.6734 46.5373 50.8855 46.2696C51.0976 46.0018 51.5185 45.9849 51.8256 46.2318Z" fill="#CFC59E"/>
<path d="M48.7495 45.3916C49.0566 45.6384 49.1337 46.0555 48.9216 46.3232C48.7095 46.5909 48.2886 46.6079 47.9814 46.361C47.6743 46.1142 47.5972 45.697 47.8093 45.4293C48.0214 45.1616 48.4423 45.1447 48.7495 45.3916Z" fill="#CFC59E"/>
<path d="M48.1864 42.7129C48.597 43.0428 48.7 43.6004 48.4165 43.9582C48.133 44.316 47.5704 44.3386 47.1598 44.0087C46.7493 43.6787 46.6463 43.1212 46.9298 42.7634C47.2133 42.4055 47.7759 42.3829 48.1864 42.7129Z" fill="#CFC59E"/>
<path d="M47.9491 31.2579C48.3597 31.5879 48.4627 32.1454 48.1792 32.5032C47.8957 32.861 47.3331 32.8836 46.9225 32.5537C46.512 32.2238 46.409 31.6662 46.6925 31.3084C46.976 30.9506 47.5386 30.928 47.9491 31.2579Z" fill="#CFC59E"/>
<path d="M45.3641 32.2224C45.8978 32.6514 46.0317 33.3762 45.6632 33.8414C45.2946 34.3066 44.5631 34.336 44.0294 33.9071C43.4957 33.4781 43.3618 32.7532 43.7303 32.288C44.0989 31.8228 44.8304 31.7935 45.3641 32.2224Z" fill="#CFC59E"/>
<path d="M46.2767 27.587C46.8104 28.016 46.9443 28.7408 46.5758 29.2061C46.2072 29.6713 45.4757 29.7006 44.942 29.2717C44.4083 28.8427 44.2744 28.1179 44.6429 27.6527C45.0115 27.1875 45.7429 27.1581 46.2767 27.587Z" fill="#CFC59E"/>
<path d="M51.0999 42.7682C51.6337 43.1971 51.7676 43.922 51.399 44.3872C51.0304 44.8524 50.299 44.8818 49.7652 44.4528C49.2315 44.0239 49.0976 43.299 49.4662 42.8338C49.8347 42.3686 50.5662 42.3392 51.0999 42.7682Z" fill="#CFC59E"/>
<path d="M51.4432 49.2538C51.9769 49.6827 52.1108 50.4076 51.7423 50.8728C51.3737 51.338 50.6422 51.3674 50.1085 50.9384C49.5748 50.5095 49.4409 49.7846 49.8094 49.3194C50.178 48.8542 50.9095 48.8248 51.4432 49.2538Z" fill="#CFC59E"/>
<path d="M62.7519 78.542C76.2835 74.0754 82.7082 59.1866 81.1702 49.3105L35.1199 65.7148C34.6651 67.4098 35.2156 71.5356 36.5413 73.4455C41.0329 79.9163 51.692 82.1927 62.7519 78.542Z" fill="white"/>
<path fill-rule="evenodd" clip-rule="evenodd" d="M82.1021 47.7366C82.5667 48.0156 82.8839 48.4883 82.9678 49.0265C83.811 54.4415 82.4667 61.0482 79.1949 66.8588C75.9077 72.6968 70.5886 77.8836 63.3186 80.2833C51.8879 84.0565 40.2006 81.9152 35.0504 74.4954C34.1592 73.2115 33.6323 71.3874 33.3687 69.8023C33.1079 68.2343 33.0337 66.4668 33.3637 65.2367C33.5198 64.6552 33.9496 64.188 34.5135 63.9872L80.5637 47.5829C81.0737 47.4012 81.6375 47.4576 82.1021 47.7366ZM81.1704 49.3105L35.1201 65.7148C34.6653 67.4098 35.2158 71.5356 36.5415 73.4455C41.0331 79.9163 51.6921 82.1927 62.752 78.542C75.4518 74.35 81.8916 60.9779 81.3639 51.1852C81.3294 50.5438 81.2649 49.9177 81.1704 49.3105Z" fill="#968960"/>
<path fill-rule="evenodd" clip-rule="evenodd" d="M34.9629 67.2585L36.6631 65.1651L35.12 65.7148C35.0127 66.1145 34.9614 66.6494 34.9629 67.2585ZM81.1702 49.3105C82.6882 59.058 76.4496 73.6884 63.2771 78.3622C69.7305 71.103 71.6322 60.8066 69.859 53.3399L81.1702 49.3105Z" fill="#F4F3DB"/>
<path fill-rule="evenodd" clip-rule="evenodd" d="M68.6862 75.6685C78.1321 69.449 82.4627 57.6099 81.1702 49.3105L75.4802 51.3375C76.9641 58.7517 74.9658 68.6447 68.6862 75.6685ZM35.4078 70.6827L41.2021 63.5482L35.12 65.7148C34.8318 66.7889 34.9472 68.8389 35.4078 70.6827Z" fill="#DEDCB1"/>
<path d="M80.809 48.2949C82.681 52.728 73.9987 60.6911 61.4166 66.0809C48.8345 71.4708 37.1171 72.2464 35.2451 67.8133C33.373 63.3802 42.0553 55.4172 54.6374 50.0273C67.2196 44.6374 78.937 43.8618 80.809 48.2949Z" fill="#FDFCE4"/>
<path fill-rule="evenodd" clip-rule="evenodd" d="M77.7582 58.1839C74.0612 61.5746 68.5567 65.0135 62.1288 67.7671C55.7009 70.5206 49.4233 72.1288 44.4339 72.4591C41.9481 72.6236 39.678 72.4784 37.8365 71.9272C36.0096 71.3803 34.336 70.3421 33.5709 68.5304C32.8059 66.7187 33.2242 64.7843 34.1003 63.0795C34.9834 61.3612 36.4542 59.6134 38.2961 57.9241C41.9931 54.5333 47.4975 51.0944 53.9254 48.3409C60.3534 45.5873 66.6309 43.9791 71.6203 43.6488C74.1061 43.4843 76.3763 43.6295 78.2177 44.1807C80.0446 44.7276 81.7183 45.7659 82.4833 47.5775C83.2484 49.3892 82.83 51.3236 81.9539 53.0284C81.0709 54.7467 79.6001 56.4945 77.7582 58.1839ZM61.4167 66.0808C73.9988 60.6909 82.6811 52.7278 80.8091 48.2947C78.9371 43.8617 67.2197 44.6373 54.6375 50.0271C42.0554 55.417 33.3731 63.3801 35.2452 67.8132C37.1172 72.2463 48.8346 71.4706 61.4167 66.0808Z" fill="#968960"/>
<path d="M65.5336 53.9581C66.9773 57.1607 61.8345 62.6438 54.0469 66.2048C46.2592 69.7659 38.7758 70.0565 37.3322 66.8539C35.8886 63.6513 41.0314 58.1682 48.819 54.6072C56.6066 51.0461 64.09 50.7555 65.5336 53.9581Z" fill="white"/>
<path fill-rule="evenodd" clip-rule="evenodd" d="M68.5271 46.4273C74.3184 45.5335 78.1376 46.7704 79.4603 47.6586C79.8784 47.9393 79.9913 48.5081 79.7126 48.9292C79.434 49.3502 78.8692 49.464 78.4511 49.1833C77.6134 48.6208 74.2914 47.3915 68.8026 48.2386C63.9407 48.9889 61.5447 49.8445 60.0111 50.3922C59.7934 50.4699 59.5931 50.5414 59.4056 50.6056C58.9299 50.7683 58.4133 50.5118 58.2517 50.0327C58.0901 49.5535 58.3448 49.0332 58.8205 48.8705C59.0043 48.8076 59.2024 48.7369 59.4192 48.6595C60.9779 48.1031 63.4983 47.2033 68.5271 46.4273Z" fill="#E6E4BC"/>
<path d="M58.977 64.0805C58.8819 63.5609 58.1413 63.263 57.323 63.4151C56.5047 63.5671 55.9185 64.1116 56.0137 64.6312C56.1089 65.1508 56.8494 65.4488 57.6677 65.2967C58.486 65.1446 59.0722 64.6001 58.977 64.0805Z" fill="#E9E8CB"/>
<path d="M64.459 61.2944C64.3638 60.7748 63.6233 60.4769 62.805 60.6289C61.9867 60.781 61.4004 61.3255 61.4956 61.8451C61.5908 62.3647 62.3313 62.6626 63.1496 62.5106C63.9679 62.3585 64.5541 61.814 64.459 61.2944Z" fill="#E9E8CB"/>
<path d="M51.1392 62.6935C51.044 62.1739 50.3034 61.8759 49.4851 62.028C48.6668 62.18 48.0806 62.7245 48.1758 63.2441C48.271 63.7637 49.0115 64.0617 49.8298 63.9096C50.6481 63.7575 51.2343 63.2131 51.1392 62.6935Z" fill="#E9E8CB"/>
<path d="M45.456 67.3785C45.3609 66.8589 44.6203 66.561 43.802 66.713C42.9837 66.8651 42.3975 67.4096 42.4927 67.9292C42.5879 68.4488 43.3284 68.7467 44.1467 68.5947C44.965 68.4426 45.5512 67.8981 45.456 67.3785Z" fill="#E9E8CB"/>
<path d="M54.5249 65.7387C54.459 65.3793 53.9468 65.1732 53.3807 65.2783C52.8147 65.3835 52.4092 65.7602 52.475 66.1196C52.5409 66.479 53.0531 66.6851 53.6192 66.5799C54.1852 66.4747 54.5907 66.0981 54.5249 65.7387Z" fill="#E9E8CB"/>
<path d="M47.1337 64.467C47.0679 64.1075 46.5557 63.9014 45.9896 64.0066C45.4236 64.1118 45.0181 64.4884 45.0839 64.8479C45.1498 65.2073 45.662 65.4134 46.228 65.3082C46.7941 65.203 47.1996 64.8264 47.1337 64.467Z" fill="#E9E8CB"/>
<path d="M39.4736 67.519C39.4078 67.1595 38.8955 66.9534 38.3295 67.0586C37.7634 67.1638 37.3579 67.5404 37.4238 67.8999C37.4896 68.2593 38.0018 68.4654 38.5679 68.3602C39.1339 68.255 39.5394 67.8784 39.4736 67.519Z" fill="#E9E8CB"/>
<path d="M54.6665 63.0064C54.6006 62.647 54.0884 62.4409 53.5223 62.546C52.9563 62.6512 52.5508 63.0279 52.6166 63.3873C52.6825 63.7467 53.1947 63.9528 53.7608 63.8476C54.3268 63.7424 54.7323 63.3658 54.6665 63.0064Z" fill="#E9E8CB"/>
<path d="M60.2568 61.1686C60.191 60.8092 59.6787 60.6031 59.1127 60.7083C58.5466 60.8135 58.1411 61.1901 58.207 61.5495C58.2728 61.9089 58.785 62.115 59.3511 62.0099C59.9171 61.9047 60.3226 61.528 60.2568 61.1686Z" fill="#E9E8CB"/>
<path d="M51.0688 65.6337C51.003 65.2743 50.4907 65.0682 49.9247 65.1734C49.3586 65.2786 48.9531 65.6552 49.019 66.0146C49.0848 66.374 49.5971 66.5801 50.1631 66.475C50.7291 66.3698 51.1346 65.9931 51.0688 65.6337Z" fill="#E9E8CB"/>
<path d="M48.0092 66.798C47.9631 66.5464 47.6045 66.4022 47.2083 66.4758C46.812 66.5494 46.5282 66.8131 46.5743 67.0647C46.6204 67.3163 46.9789 67.4606 47.3752 67.3869C47.7714 67.3133 48.0553 67.0496 48.0092 66.798Z" fill="#E9E8CB"/>
<path d="M41.9306 66.2637C41.8845 66.0121 41.5259 65.8679 41.1297 65.9415C40.7334 66.0151 40.4496 66.2788 40.4956 66.5304C40.5417 66.782 40.9003 66.9263 41.2966 66.8526C41.6928 66.779 41.9767 66.5153 41.9306 66.2637Z" fill="#E9E8CB"/>
<path d="M56.6327 61.1214C56.5867 60.8698 56.2281 60.7255 55.8318 60.7992C55.4356 60.8728 55.1517 61.1364 55.1978 61.3881C55.2439 61.6397 55.6025 61.7839 55.9987 61.7103C56.395 61.6367 56.6788 61.373 56.6327 61.1214Z" fill="#E9E8CB"/>
<path d="M66.0864 59.1054C66.0403 58.8538 65.6817 58.7095 65.2854 58.7832C64.8892 58.8568 64.6053 59.1205 64.6514 59.3721C64.6975 59.6237 65.0561 59.7679 65.4523 59.6943C65.8486 59.6207 66.1324 59.357 66.0864 59.1054Z" fill="#E9E8CB"/>
<path d="M61.656 59.4201C61.6223 59.2363 61.3604 59.1309 61.071 59.1847C60.7816 59.2385 60.5743 59.431 60.608 59.6148C60.6417 59.7985 60.9035 59.9039 61.1929 59.8501C61.4823 59.7964 61.6896 59.6038 61.656 59.4201Z" fill="#E9E8CB"/>
<path d="M62.1208 55.6426C62.7805 57.2048 59.7906 59.9809 55.4428 61.8434C51.095 63.7059 47.0357 63.9494 46.376 62.3873C45.7164 60.8252 48.7062 58.049 53.054 56.1865C57.4018 54.324 61.4612 54.0805 62.1208 55.6426Z" fill="#FFB72B"/>
<path fill-rule="evenodd" clip-rule="evenodd" d="M61.8929 59.9777C60.4947 61.2761 58.4687 62.5387 56.155 63.5298C53.8413 64.5209 51.5331 65.115 49.6347 65.2289C48.6939 65.2853 47.75 65.2305 46.9246 64.9747C46.11 64.7223 45.1581 64.1848 44.7019 63.1046C44.2458 62.0244 44.5217 60.9609 44.9061 60.1947C45.2957 59.4185 45.9112 58.6957 46.6041 58.0523C48.0024 56.754 50.0284 55.4914 52.342 54.5003C54.6557 53.5092 56.964 52.9151 58.8624 52.8012C59.8032 52.7448 60.747 52.7996 61.5724 53.0553C62.387 53.3078 63.339 53.8453 63.7952 54.9255C64.2513 56.0057 63.9754 57.0692 63.5909 57.8353C63.2014 58.6116 62.5859 59.3343 61.8929 59.9777ZM55.4429 61.8435C59.7907 59.981 62.7806 57.2048 62.1209 55.6427C61.4613 54.0806 57.4019 54.3241 53.0541 56.1866C48.7063 58.0491 45.7165 60.8253 46.3761 62.3874C47.0358 63.9495 51.0951 63.706 55.4429 61.8435Z" fill="#D89A24"/>
<path fill-rule="evenodd" clip-rule="evenodd" d="M61.1216 56.364C61.0801 56.8683 60.6405 57.2432 60.1399 57.2014C58.8107 57.0905 57.124 57.5431 56.448 57.792C55.9761 57.9657 55.4538 57.7213 55.2813 57.246C55.1088 56.7708 55.3515 56.2447 55.8233 56.0709C56.5991 55.7853 58.5768 55.2322 60.2901 55.3752C60.7908 55.417 61.1631 55.8597 61.1216 56.364Z" fill="#FFE58A"/>
</svg>
