<svg width="100" height="100" viewBox="0 0 100 100" fill="none" xmlns="http://www.w3.org/2000/svg">
<path d="M57.6001 24.6122C57.5825 22.4941 57.1966 20.3956 56.4601 18.4118C55.68 16.3153 54.2836 14.5089 52.4576 13.2341C50.6316 11.9593 48.4629 11.2768 46.2417 11.278C44.5484 11.2778 42.8783 11.6752 41.3637 12.4386C36.2627 15.0101 32.0511 19.0748 29.2809 24.1002L27.1997 27.8772C30.4734 30.6271 34.3396 32.5672 38.4896 33.5426L44.742 34.2615H50.6954L57.6001 24.6122Z" fill="#77534A"/>
<path d="M57.3468 21.8454C57.1635 20.6744 56.8665 19.5244 56.4602 18.4119C55.7935 16.6257 54.6766 15.0454 53.2195 13.8269C51.7624 12.6084 50.0154 11.7937 48.1507 11.4633C47.1136 11.6413 46.1075 11.9699 45.1639 12.4388C40.0628 15.0102 35.8513 19.0749 33.081 24.1004C32.474 25.209 32.3247 26.5141 32.6654 27.7329C33.006 28.9518 33.8093 29.9863 34.9012 30.6124C37.2093 31.9483 39.6984 32.9377 42.2898 33.5491L48.1254 34.2208C48.3977 33.0066 48.7606 31.8149 49.2109 30.6558C50.729 26.7932 53.6334 23.648 57.3468 21.8454Z" fill="#8F6659"/>
<path d="M47.0448 30.1755C43.1377 28.6581 38.9868 27.879 34.7998 27.8772H27.1997C30.4735 30.6269 34.3397 32.567 38.4896 33.5426L44.742 34.2615H50.6954L52.1749 32.193L51.4516 31.8789L47.0448 30.1755Z" fill="#6B4740"/>
<path d="M58.8124 75.6153L53.5304 74.018C50.4298 73.0805 47.7509 71.0819 45.9556 68.3666C44.7001 66.4688 43.9335 64.2856 43.725 62.0142L43.9657 42.2228C44.2494 37.9939 44.7362 33.7849 45.4262 29.596C43.6537 29.0106 41.8367 28.5724 39.9934 28.2859C38.7286 31.9143 37.9073 35.6846 37.5474 39.5133L32.2666 70.0137L43.6667 84.0592H60.1336L58.8124 75.6153Z" fill="#F7C966"/>
<path d="M69.9075 42.5051C71.8319 52.513 72.8007 62.6837 72.8006 72.8779C72.8006 76.8593 71.2316 80.6777 68.4387 83.493C65.6459 86.3083 61.8579 87.8899 57.9082 87.8899C56.4828 87.8899 55.1158 87.3191 54.1079 86.3031C53.0999 85.2871 52.5337 83.9091 52.5337 82.4722C52.5336 81.4242 52.8352 80.3987 53.4018 79.52C53.9683 78.6414 54.7756 77.9472 55.7257 77.5218C58.169 76.4271 60.2449 74.6416 61.7017 72.3816C63.1586 70.1216 63.934 67.4842 63.9338 64.7889C63.9336 58.069 63.3828 51.3605 62.2871 44.732L62.0338 43.1997L69.9075 42.5051Z" fill="#FDD790"/>
<path d="M72.8004 72.8779C72.8006 62.6837 71.8318 52.513 69.9073 42.5051L64.7874 42.9559L64.567 43.1997L64.8203 44.732C65.916 51.3605 66.4668 58.069 66.467 64.7889C66.4672 67.4842 65.6918 70.1216 64.2349 72.3816C62.7781 74.6416 60.7022 76.4271 58.2589 77.5218C57.3088 77.9472 56.5015 78.6414 55.935 79.52C55.3684 80.3987 55.0668 81.4242 55.0669 82.4722C55.0681 83.7478 55.5166 84.9818 56.3332 85.9562C57.1499 86.9306 58.282 87.5825 59.5294 87.7967C63.176 87.3944 66.547 85.6494 68.996 82.8963C71.445 80.1432 72.7997 76.5757 72.8004 72.8779Z" fill="#FDDFB0"/>
<path d="M50 61.0757L47.4223 61.5086C44.5068 61.9987 41.56 62.2761 38.6049 62.3385L29.9864 61.9121C27.4262 61.6028 24.8878 61.1315 22.3863 60.5011L19.5996 59.7989L25.933 54.6914H47.4666L50 61.0757Z" fill="#6B4740"/>
<path d="M32.2504 57.2706L30.4162 60.9735C29.1335 63.5618 28.4661 66.4155 28.4668 69.3088C28.4671 73.8749 30.1298 78.282 33.1396 81.6944C34.8561 83.6418 36.9623 85.2008 39.3195 86.2686C41.6768 87.3364 44.2316 87.8889 46.8159 87.8897C47.4003 87.8902 47.979 87.7746 48.519 87.5496C49.059 87.3245 49.5498 86.9944 49.9631 86.578C50.3765 86.1617 50.7044 85.6673 50.9282 85.1231C51.1519 84.579 51.2671 83.9957 51.2671 83.4067C51.266 82.8407 51.1035 82.2871 50.7989 81.8116C50.4944 81.3362 50.0607 80.9591 49.5494 80.7252L43.781 78.0821C41.8574 77.2008 40.2264 75.7796 39.083 73.9884C37.9397 72.1973 37.3323 70.1121 37.3336 67.9822C37.3335 66.7905 37.5238 65.6066 37.8972 64.4759L40.0962 57.8286L37.3336 52.1376L32.2504 57.2706Z" fill="#FDD790"/>
<path d="M51.2672 83.4068C51.2662 82.8409 51.1037 82.2872 50.7991 81.8118C50.4946 81.3363 50.0608 80.9592 49.5496 80.7254L43.7811 78.0823C41.3074 76.9481 39.3375 74.9312 38.2511 72.4201C37.1648 69.9091 37.0388 67.0815 37.8974 64.4824L40.0964 57.8351L38.1685 53.864L34.7877 57.2707L32.9536 60.9736C31.3004 64.3063 30.676 68.0618 31.1607 71.7557C31.6455 75.4496 33.2172 78.9123 35.6731 81.6971C38.7648 85.197 43.0624 87.3793 47.6927 87.8005C48.7002 87.597 49.6068 87.0481 50.2584 86.2472C50.91 85.4462 51.2665 84.4426 51.2672 83.4068Z" fill="#FDDFB0"/>
<path d="M50.0005 39.7827V41.9227L53.3724 42.4896C56.1864 42.9621 59.0343 43.1996 61.887 43.1996C68.2519 43.1993 74.5505 41.8961 80.4008 39.369L77.5027 31.7717C76.4915 29.1223 74.7076 26.844 72.3863 25.237C70.0649 23.6301 67.315 22.7699 64.4989 22.7698C61.7148 22.7703 58.9946 23.6115 56.6893 25.1851C54.3839 26.7586 52.599 28.9923 51.5648 31.598C50.5314 34.201 50.0004 36.979 50.0005 39.7827Z" fill="#8F6659"/>
<path d="M80.0206 38.3806L77.4999 31.7716C76.821 29.9867 75.7873 28.3605 74.4621 26.993C73.1369 25.6256 71.5483 24.5457 69.794 23.8198C68.0396 23.094 66.1566 22.7373 64.2605 22.772C62.3644 22.8066 60.4954 23.2316 58.7682 24.0211C57.2813 25.4238 56.1181 27.1385 55.3608 29.0442C54.3292 31.6477 53.7996 34.4255 53.8003 37.2289C53.8003 37.8269 54.0107 38.4056 54.3941 38.862C54.7774 39.3183 55.309 39.6228 55.8941 39.7214L57.1722 39.9359C59.9862 40.4083 62.8341 40.6458 65.6868 40.6458C70.5523 40.6433 75.3878 39.8791 80.0206 38.3806Z" fill="#A17767"/>
<path d="M50 61.0757V57.2387C50 54.7003 49.6643 52.1733 49.0018 49.7244C48.1969 46.7501 46.4441 44.1252 44.0135 42.2539C41.5829 40.3827 38.6093 39.369 35.5509 39.369C32.4419 39.3692 29.4221 40.4169 26.9716 42.3457C24.5211 44.2745 22.7805 46.9737 22.0266 50.0142L19.5996 59.7988L23.5263 58.6675C26.8037 57.7238 30.1956 57.2451 33.604 57.2451C38.5715 57.2453 43.4871 58.2622 48.0531 60.2342L50 61.0757Z" fill="#8F6659"/>
<path d="M33.6048 57.245C38.5726 57.2454 43.4886 58.2623 48.0551 60.2342L50.0007 61.0756V57.2386C50.0007 54.7003 49.665 52.1733 49.0025 49.7243C48.3118 47.1731 46.9206 44.8702 44.989 43.0808C43.0574 41.2913 40.6638 40.0879 38.0837 39.609C35.4547 40.0979 33.0207 41.3388 31.0721 43.1837C29.1235 45.0287 27.7426 47.3998 27.094 50.0142L25.042 58.2882C27.8456 57.6019 30.7197 57.2518 33.6048 57.245Z" fill="#A17767"/>
<path d="M35.5512 38.0922C32.1587 38.0883 28.8627 39.2297 26.1888 41.3343C23.5149 43.4388 21.6171 46.3854 20.7981 49.704L18.3712 59.4898C18.2899 59.8181 18.3413 60.1655 18.5139 60.4557C18.6866 60.7459 18.9665 60.9551 19.292 61.0374L22.0787 61.7397C24.113 62.2504 26.1866 62.6335 28.2614 62.9386C27.1305 66.2639 26.8982 69.8326 27.5883 73.2783C28.2784 76.724 29.866 79.9224 32.1881 82.5449C34.0254 84.6268 36.2789 86.2932 38.8007 87.4345C41.3225 88.5758 44.0553 89.1661 46.8196 89.1667C47.9457 89.1651 49.0463 88.8287 49.9836 88.1996C50.9209 87.5704 51.6533 86.6765 52.089 85.6298C52.6513 86.6944 53.4893 87.5855 54.514 88.2083C55.5386 88.8311 56.7116 89.1623 57.9081 89.1667C62.1922 89.1616 66.2994 87.4438 69.3287 84.3902C72.358 81.3365 74.0621 77.1963 74.0672 72.8777C74.0614 63.0318 73.1617 53.2071 71.3793 43.5265C74.6466 42.8666 77.8372 41.8666 80.8996 40.5425C81.2007 40.4123 81.44 40.1695 81.5673 39.8653C81.6946 39.561 81.7 39.2188 81.5824 38.9106L78.6842 31.3133C77.9564 29.4108 76.8595 27.6736 75.4578 26.2035C74.0561 24.7333 72.3777 23.5596 70.5207 22.7511C68.6637 21.9425 66.6654 21.5153 64.6426 21.4944C62.6199 21.4735 60.6134 21.8593 58.7403 22.6294C58.5669 21.0344 58.198 19.4672 57.6421 17.9637C57.043 16.3529 56.1146 14.887 54.9171 13.6613C53.7197 12.4355 52.28 11.4773 50.6914 10.8486C49.1028 10.22 47.4009 9.93511 45.696 10.0124C43.9911 10.0897 42.3214 10.5274 40.7952 11.2972C35.4618 13.9765 31.0607 18.2246 28.174 23.4798L26.0916 27.2567C25.9483 27.5166 25.8995 27.8188 25.9536 28.1111C26.0077 28.4034 26.1614 28.6676 26.388 28.8579C29.4997 31.4638 33.122 33.3782 37.018 34.4761C36.7773 35.6874 36.5839 36.9068 36.4378 38.1343C36.144 38.1126 35.8501 38.0922 35.5512 38.0922ZM35.5512 40.6459C38.3307 40.6505 41.0319 41.574 43.2408 43.2747C45.4496 44.9754 47.0441 47.3596 47.7797 50.0615C48.4128 52.4005 48.7336 54.8142 48.7335 57.2387V59.14L48.5524 59.0621C40.531 55.5964 31.5698 55.0232 23.1782 57.4392L21.3605 57.9627L23.2606 50.3245C23.9427 47.5594 25.5235 45.104 27.751 43.3499C29.9785 41.5957 32.7245 40.6438 35.5512 40.6459ZM46.5903 31.3618L49.8697 32.6387C49.8317 32.7574 49.7849 32.8724 49.7431 32.9911H46.1926C46.2711 32.4318 46.3598 31.8764 46.4459 31.3184C46.4928 31.3248 46.5422 31.3427 46.5903 31.3618ZM45.8658 35.5384H49.1249C48.8661 36.9382 48.7351 38.3589 48.7335 39.7827V41.9228C48.7336 42.2248 48.8399 42.5171 49.0336 42.7476C49.2272 42.9781 49.4957 43.1319 49.7912 43.1817L53.1631 43.7487C55.7404 44.1769 58.3453 44.4138 60.957 44.4573L61.0368 44.9413C62.1201 51.5007 62.6654 58.1391 62.667 64.7888C62.6639 66.5624 62.2909 68.3155 61.572 69.9343C60.8532 71.5531 59.8047 73.0014 58.4946 74.1852L53.8952 72.7947C51.0776 71.9411 48.6429 70.1248 47.0096 67.6579C46.1073 66.2844 45.4843 64.7442 45.1767 63.1263C45.9975 63.0216 46.817 62.9042 47.6302 62.7675L50.2079 62.3347C50.5037 62.2851 50.7724 62.1314 50.9664 61.9009C51.1603 61.6703 51.2667 61.3779 51.2669 61.0757V57.2387C51.2666 54.587 50.9161 51.947 50.2244 49.3886C49.4025 46.3646 47.6778 43.6685 45.2843 41.6661C45.4275 39.6244 45.6226 37.5814 45.8658 35.5384ZM40.946 59.2983C42.4223 59.6161 43.8769 60.0289 45.3008 60.5343C43.6693 60.7539 42.0264 60.9059 40.3861 60.9901L40.946 59.2983ZM24.6754 59.6954C26.463 59.2266 28.2841 58.8991 30.1222 58.7161L29.2874 60.3977C29.271 60.4322 29.2596 60.4705 29.2418 60.5062C27.7066 60.2981 26.1866 60.0223 24.6754 59.6954ZM46.8196 86.6129C42.2774 86.6018 37.9255 84.7724 34.7213 81.5271C31.5171 78.2817 29.7229 73.8863 29.7333 69.3076C29.7367 66.6112 30.3597 63.9522 31.5535 61.5392L33.0393 58.5424C33.2281 58.5424 33.4193 58.522 33.6043 58.522C35.2145 58.5249 36.8226 58.638 38.4177 58.8603L36.7 64.0725C35.7417 66.9707 35.8817 70.1239 37.093 72.9242C38.3044 75.7245 40.5013 77.9736 43.2602 79.2378L49.0299 81.8809C49.321 82.0152 49.5676 82.231 49.7403 82.5027C49.9131 82.7744 50.0046 83.0904 50.004 83.4131C50.0017 84.2628 49.6651 85.0769 49.0681 85.6767C48.4711 86.2766 47.6625 86.6133 46.8196 86.6129ZM51.5202 80.6589C51.1234 80.1887 50.6286 79.8125 50.0711 79.557L44.3001 76.9088C42.1135 75.9043 40.373 74.1196 39.414 71.8985C38.4551 69.6774 38.3457 67.1771 39.1067 64.8795L39.5361 63.5796C40.5786 63.5426 41.6224 63.4826 42.6648 63.3919C43.0183 65.4213 43.7819 67.3558 44.9081 69.0752C46.8674 72.0348 49.7873 74.2148 53.1669 75.2412L55.7991 76.0367C55.6002 76.1388 55.4191 76.2627 55.2101 76.3546C54.3193 76.7551 53.5269 77.3483 52.8892 78.0922C52.2515 78.8361 51.7841 79.7124 51.5202 80.6589ZM71.5338 72.8777C71.5298 76.5193 70.0929 80.0105 67.5385 82.5855C64.984 85.1605 61.5206 86.6089 57.9081 86.6129C56.967 86.6126 56.0545 86.2865 55.3234 85.6892C54.5922 85.0919 54.0866 84.2597 53.8913 83.3317C53.6959 82.4037 53.8226 81.4362 54.2501 80.591C54.6776 79.7459 55.38 79.0743 56.2399 78.6887C58.9062 77.4924 61.1714 75.5429 62.7617 73.0761C64.3519 70.6092 65.199 67.7307 65.2004 64.7888C65.1987 57.9983 64.642 51.2195 63.536 44.5212L63.522 44.4356C65.3158 44.3777 67.105 44.2191 68.8814 43.9606C70.6406 53.4977 71.5285 63.1772 71.5338 72.8777ZM76.3193 32.2301L78.7741 38.6642C73.402 40.8238 67.6703 41.9298 61.8867 41.9228C59.1036 41.9217 56.3253 41.6902 53.5798 41.2307L51.2669 40.8413V39.7827C51.2646 37.1411 51.7646 34.5236 52.74 32.0718C53.673 29.6979 55.294 27.6625 57.3914 26.231C59.4889 24.7995 61.9656 24.0383 64.4986 24.0467C67.0562 24.0571 69.5514 24.8433 71.6596 26.3028C73.7678 27.7623 75.3915 29.8276 76.3193 32.2301ZM41.9302 13.5764C43.1386 12.9671 44.4605 12.6206 45.8103 12.5596C47.1601 12.4985 48.5075 12.7241 49.7652 13.2219C51.0229 13.7196 52.1628 14.4783 53.1108 15.4487C54.0589 16.4192 54.7939 17.5797 55.2683 18.855C55.8659 20.4751 56.2124 22.1784 56.2956 23.905C53.9004 25.4517 51.9866 27.6481 50.7741 30.242L47.4985 28.9728C43.447 27.3996 39.1417 26.5953 34.8 26.6004H29.3533L30.3894 24.7209C33.0281 19.9138 37.0525 16.0275 41.9302 13.5764ZM31.1507 29.1541H34.8C35.9767 29.1604 37.1522 29.2303 38.3214 29.3635C38.0503 30.2301 37.8037 31.1035 37.5817 31.9837C35.322 31.3351 33.159 30.3834 31.1507 29.1541ZM40.8649 29.7249C41.9238 29.9254 42.9701 30.1884 44.0075 30.491C43.5173 33.6359 43.1361 36.8191 42.8675 39.9972C41.6344 39.3134 40.3128 38.8059 38.9408 38.4893C39.2976 35.5116 39.942 32.5762 40.8649 29.7249Z" fill="black"/>
</svg>
