<svg width="100" height="100" viewBox="0 0 100 100" fill="none" xmlns="http://www.w3.org/2000/svg">
<path d="M44.7497 27.4785L43.4357 30.0748C41.6038 33.6942 39.1935 36.9972 36.2972 39.8585L15.8509 60.0587L8.35903 63.4287C8.00275 66.3698 11.4458 70.0091 14.2931 70.0034C14.6292 70.0034 14.9321 70.2955 14.9307 70.6275C14.9206 73.2252 16.7813 75.062 19.4108 75.052C19.7815 75.0506 20.0426 75.3085 20.0411 75.6747C20.0311 78.2724 21.8918 80.1106 24.5213 80.1006C24.892 80.0992 25.1531 80.3571 25.1516 80.7233C25.1415 83.321 27.0008 85.1578 29.6303 85.1492C29.9664 85.1478 30.2621 85.447 30.2621 85.7791C30.2578 88.5919 33.9403 91.9933 36.9174 91.6413L40.2869 84.2829L60.7764 64.0414C63.6728 61.1801 67.0163 58.799 70.68 56.9893L73.3081 55.6912L44.7497 27.4785Z" fill="#516572"/>
<path d="M67.0346 12.0227L65.0259 9.97705L47.8264 26.4594L49.8351 28.5051L67.0346 12.0227Z" fill="#EEAF4B"/>
<path d="M90.1512 36.1994L88.0586 34.2378L72.2649 50.6813L74.3576 52.6429L90.1512 36.1994Z" fill="#EEAF4B"/>
<path d="M74.3279 10.3496L72.2881 8.33447L50.8685 29.4948L52.9084 31.5099L74.3279 10.3496Z" fill="#F9EA80"/>
<path d="M80.4471 10.3484L78.4072 8.33325L53.9289 32.5153L55.9687 34.5305L80.4471 10.3484Z" fill="#EEAF4B"/>
<path d="M84.5272 12.364L82.4873 10.3489L56.989 35.5385L59.0289 37.5537L84.5272 12.364Z" fill="#F9EA80"/>
<path d="M87.5872 15.3875L85.5474 13.3723L60.0501 38.5609L62.09 40.5761L87.5872 15.3875Z" fill="#EEAF4B"/>
<path d="M89.6273 19.4185L87.5874 17.4033L63.109 41.5854L65.1489 43.6005L89.6273 19.4185Z" fill="#F9EA80"/>
<path d="M91.6668 23.4473L89.627 21.4321L66.1685 44.6066L68.2084 46.6217L91.6668 23.4473Z" fill="#EEAF4B"/>
<path d="M91.5747 29.0907L89.5098 27.1006L69.2169 47.6502L71.2819 49.6403L91.5747 29.0907Z" fill="#F9EA80"/>
<path d="M44.7008 55.885L41.8953 56.6502C38.6052 57.1347 36.0218 59.6868 35.5314 62.9371L34.7568 65.7086L37.5623 64.9434C40.8525 64.459 43.4358 61.9069 43.9263 58.6565L44.7008 55.885Z" fill="#F1B501"/>
<path d="M32.8903 50.9104L31.4551 53.4112C29.4746 56.0516 29.4746 59.661 31.4551 62.3015L32.8903 64.8023L34.3255 62.3015C36.3059 59.661 36.3059 56.0516 34.3255 53.4112L32.8903 50.9104Z" fill="#F1B501"/>
<path d="M49.7408 68.0329L47.2094 66.6151C44.5366 64.6586 40.8829 64.6586 38.2101 66.6151L35.6787 68.0329L38.2101 69.4507C40.8829 71.4072 44.5366 71.4072 47.2094 69.4507L49.7408 68.0329Z" fill="#F1B501"/>
<path d="M37.6098 52.0775C37.2405 52.0775 36.8713 51.9378 36.59 51.66C36.026 51.1028 36.026 50.2022 36.59 49.6451L41.6514 44.6449C42.2154 44.0878 43.127 44.0878 43.691 44.6449C44.255 45.2021 44.255 46.1026 43.691 46.6598L38.6296 51.66C38.3483 51.9393 37.979 52.0775 37.6098 52.0775Z" fill="#F1B501"/>
<path d="M42.4355 53.3572C42.0662 53.3572 41.6969 53.2175 41.4157 52.9397C40.8517 52.3825 40.8517 51.482 41.4157 50.9248L47.7421 44.6749C48.3061 44.1178 49.2177 44.1178 49.7817 44.6749C50.3457 45.2321 50.3457 46.1327 49.7817 46.6898L43.4552 52.9397C43.174 53.2175 42.8047 53.3572 42.4355 53.3572Z" fill="#F1B501"/>
<path d="M49.0482 58.9143C48.679 58.9143 48.3097 58.7747 48.0285 58.4968C47.4645 57.9397 47.4645 57.0391 48.0285 56.4819L54.3563 50.2321C54.9203 49.6749 55.8319 49.6749 56.3959 50.2321C56.9599 50.7892 56.9599 51.6898 56.3959 52.247L50.068 58.4968C49.7868 58.7747 49.4175 58.9143 49.0482 58.9143Z" fill="#F1B501"/>
<path d="M49.1405 52.7543C48.7713 52.7543 48.402 52.6147 48.1207 52.3368C47.5568 51.7797 47.5568 50.8791 48.1207 50.3219L53.8154 44.6977C54.3794 44.1405 55.291 44.1405 55.855 44.6977C56.419 45.2548 56.419 46.1554 55.855 46.7125L50.1603 52.3368C49.8776 52.6147 49.5098 52.7543 49.1405 52.7543Z" fill="#F1B501"/>
<path d="M49.8495 64.1698C49.4803 64.1698 49.111 64.0301 48.8297 63.7522C48.2657 63.1951 48.2657 62.2945 48.8297 61.7374L53.8912 56.7372C54.4551 56.18 55.3668 56.18 55.9307 56.7372C56.4947 57.2944 56.4947 58.1949 55.9307 58.7521L50.8693 63.7522C50.588 64.0301 50.2188 64.1698 49.8495 64.1698Z" fill="#F1B501"/>
<path d="M19.4202 62.5782L17.3804 60.563L15.3405 62.5782L17.3804 64.5933L19.4202 62.5782Z" fill="#F4C44E"/>
<path d="M22.4788 65.6009L20.439 63.5857L18.3991 65.6009L20.439 67.616L22.4788 65.6009Z" fill="#F4C44E"/>
<path d="M25.5384 68.6245L23.4985 66.6094L21.4587 68.6245L23.4985 70.6397L25.5384 68.6245Z" fill="#F4C44E"/>
<path d="M28.5975 71.6468L26.5576 69.6316L24.5178 71.6468L26.5576 73.6619L28.5975 71.6468Z" fill="#F4C44E"/>
<path d="M31.658 74.67L29.6182 72.6548L27.5783 74.67L29.6182 76.6851L31.658 74.67Z" fill="#F4C44E"/>
<path d="M34.7191 77.6922L32.6792 75.677L30.6393 77.6922L32.6792 79.7073L34.7191 77.6922Z" fill="#F4C44E"/>
<path d="M37.7796 80.7146L35.7397 78.6995L33.6999 80.7146L35.7397 82.7298L37.7796 80.7146Z" fill="#F4C44E"/>
<path d="M40.8382 83.7381L38.7983 81.7229L36.7585 83.7381L38.7983 85.7532L40.8382 83.7381Z" fill="#F4C44E"/>
</svg>
