<svg width="100" height="100" viewBox="0 0 100 100" fill="none" xmlns="http://www.w3.org/2000/svg">
<path d="M59.8607 68.0554H42.3179C41.0554 68.0554 39.8445 68.5551 38.9519 69.4445C38.0593 70.3341 37.5576 71.5403 37.5576 72.7983V76.3887L59.8607 68.0554Z" fill="#FD7422"/>
<path d="M33.376 84.8957V79.8648C33.376 78.8564 33.6985 77.8743 34.2967 77.0611C34.8948 76.2478 35.7377 75.6457 36.7028 75.342L59.8608 68.0554L33.376 84.8957Z" fill="#DC651E"/>
<path d="M33.5211 83.5634L59.8608 68.0554L58.4669 77.7776L31.982 90.2776C31.6233 89.7413 31.3779 89.1378 31.261 88.5038C31.1441 87.87 31.158 87.2189 31.3021 86.5906C31.4461 85.9623 31.7172 85.3698 32.0988 84.8493C32.4802 84.3288 32.9642 83.8913 33.5211 83.5634Z" fill="#FD7422"/>
<path d="M26.6708 40.2776C28.7206 40.2776 30.7423 39.8021 32.5757 38.8888C34.4091 39.8021 36.4308 40.2776 38.4806 40.2776H43.3981C45.4479 40.2776 47.4696 39.8021 49.303 38.8888C51.1363 39.8021 53.1581 40.2776 55.2079 40.2776H55.4274C58.6091 40.2776 61.6606 41.537 63.9104 43.7787C66.1602 46.0203 67.4242 49.0608 67.4242 52.2309C67.4242 54.4059 66.8286 56.5398 65.7014 58.4024L62.292 62.4984C59.327 66.0607 57.8794 70.638 58.259 75.2505L58.4669 77.7776L69.1251 73.647C76.1041 70.9422 81.8241 65.7481 85.1729 59.0745C86.3344 56.7602 86.9392 54.2083 86.9393 51.6208V39.236C86.9393 31.4084 83.8185 23.9015 78.2635 18.3666C72.7084 12.8317 65.1742 9.72217 57.3181 9.72217H55.2079C53.1581 9.72217 51.1363 10.1977 49.303 11.1111C47.4696 10.1977 45.4479 9.72217 43.3981 9.72217H39.5454C37.4956 9.72217 34.4091 10.1977 32.5757 11.1111L32.2814 10.9644C30.6416 10.1475 28.8333 9.72219 26.9999 9.72217H25.606C22.2787 9.72217 19.0877 11.0391 16.735 13.3833C14.3823 15.7275 13.0605 18.9069 13.0605 22.2221V28.1249C13.0605 31.348 14.3456 34.4391 16.633 36.7181C18.9203 38.9973 22.0227 40.2776 25.2575 40.2776H26.6708Z" fill="#FD9226"/>
<path d="M33.9705 10.564V39.4857C33.4946 39.3137 33.0292 39.1143 32.5766 38.8885C32.1239 39.1143 31.6585 39.3137 31.1826 39.4857V10.4858C31.5571 10.6269 31.924 10.7868 32.2821 10.965L32.5766 11.1108C33.0259 10.8921 33.492 10.7092 33.9705 10.564Z" fill="#FD9226"/>
<path d="M50.6971 10.5138V39.486C50.2212 39.3138 49.7558 39.1145 49.3031 38.8888C48.8504 39.1145 48.385 39.3138 47.9092 39.486V10.5138C48.385 10.6859 48.8504 10.8853 49.3031 11.111C49.7558 10.8853 50.2212 10.6859 50.6971 10.5138Z" fill="#FD9226"/>
<path d="M68.9975 12.1058L60.2175 41.2689C59.363 40.8977 58.4675 40.6279 57.5498 40.465L66.3804 11.1301C67.2725 11.4148 68.145 11.7401 68.9975 12.1058Z" fill="#FD9226"/>
<path d="M86.0425 57.0033C85.8006 57.7123 85.5107 58.4044 85.1748 59.0745H85.173C85.0789 59.2637 84.9813 59.4512 84.882 59.637L66.5029 56.8193C66.6939 56.3682 66.8551 55.9056 66.9856 55.4339C67.106 55.0038 67.2013 54.5674 67.2713 54.1266L86.0425 57.0033Z" fill="#FD9226"/>
<path d="M86.3016 33.1127L65.41 45.6022C64.8857 44.8179 64.2697 44.0981 63.5752 43.4582L85.5611 30.3141C85.8526 31.229 86.0995 32.162 86.3016 33.1127Z" fill="#FD9226"/>
<path d="M86.0425 57.0033C85.8006 57.7123 85.5107 58.4044 85.1748 59.0745H85.173C85.0789 59.2637 84.9813 59.4512 84.882 59.637L66.5029 56.8193C66.6939 56.3682 66.8551 55.9056 66.9856 55.4339C67.106 55.0038 67.2013 54.5674 67.2713 54.1266L86.0425 57.0033Z" fill="#DA7E21"/>
<path d="M86.3016 33.1127L65.41 45.6022C64.8857 44.8179 64.2697 44.0981 63.5752 43.4582L85.5611 30.3141C85.8526 31.229 86.0995 32.162 86.3016 33.1127Z" fill="#DA7E21"/>
<path d="M33.9705 10.564V39.4857C33.4946 39.3137 33.0292 39.1143 32.5766 38.8885C32.1239 39.1143 31.6585 39.3137 31.1826 39.4857V10.4858C31.5571 10.6269 31.924 10.7868 32.2821 10.965L32.5766 11.1108C33.0259 10.8921 33.492 10.7092 33.9705 10.564Z" fill="#DA7E21"/>
<path d="M50.6971 10.5138V39.486C50.2212 39.3138 49.7558 39.1145 49.3031 38.8888C48.8504 39.1145 48.385 39.3138 47.9092 39.486V10.5138C48.385 10.6859 48.8504 10.8853 49.3031 11.111C49.7558 10.8853 50.2212 10.6859 50.6971 10.5138Z" fill="#DA7E21"/>
<path d="M68.9975 12.1058L60.2175 41.2689C59.363 40.8977 58.4675 40.6279 57.5498 40.465L66.3804 11.1301C67.2725 11.4148 68.145 11.7401 68.9975 12.1058Z" fill="#DA7E21"/>
<path d="M74.0453 63.8888C73.7865 63.8886 73.5328 63.8166 73.3128 63.681C73.0927 63.5452 72.915 63.3513 72.7993 63.1206C72.6837 62.8899 72.6348 62.6317 72.658 62.3749C72.6813 62.1182 72.7759 61.8728 72.9312 61.6666L73.9766 60.2777C74.0864 60.1319 74.224 60.0088 74.3816 59.9159C74.5391 59.823 74.7135 59.7619 74.8947 59.736C75.0759 59.7104 75.2604 59.7204 75.4376 59.7656C75.615 59.8109 75.7818 59.8906 75.9281 59.9999C76.0745 60.1093 76.198 60.2465 76.2913 60.4034C76.3845 60.5604 76.4458 60.7341 76.4718 60.9147C76.4976 61.0952 76.4875 61.2791 76.4422 61.4557C76.3967 61.6324 76.3167 61.7985 76.2069 61.9444L75.1615 63.3333C75.0317 63.506 74.8632 63.6463 74.6694 63.7426C74.4756 63.8392 74.2619 63.8892 74.0453 63.8888Z" fill="#FDB15E"/>
<path d="M79.9293 54.1665C79.7063 54.1665 79.4864 54.1132 79.2883 54.0111C79.0903 53.9089 78.9196 53.761 78.7908 53.5794C78.6621 53.3979 78.5789 53.1884 78.5483 52.9682C78.5178 52.7481 78.5406 52.5238 78.615 52.3143C79.5131 49.787 79.9713 47.1254 79.9703 44.4443C79.9703 44.0759 80.1172 43.7226 80.3785 43.4622C80.6399 43.2018 80.9945 43.0554 81.3642 43.0554C81.734 43.0554 82.0885 43.2018 82.3499 43.4622C82.6113 43.7226 82.7582 44.0759 82.7582 44.4443C82.7594 47.441 82.2471 50.4158 81.2435 53.2406C81.1475 53.5115 80.9694 53.7458 80.734 53.9116C80.4987 54.0774 80.2175 54.1665 79.9293 54.1665Z" fill="#FDB15E"/>
<path d="M38.1518 19.4445C38.9216 19.4445 39.5457 18.8227 39.5457 18.0556C39.5457 17.2886 38.9216 16.6667 38.1518 16.6667C37.3819 16.6667 36.7578 17.2886 36.7578 18.0556C36.7578 18.8227 37.3819 19.4445 38.1518 19.4445Z" fill="#DA7E21"/>
<path d="M25.6068 22.2222C26.3766 22.2222 27.0008 21.6004 27.0008 20.8333C27.0008 20.0663 26.3766 19.4445 25.6068 19.4445C24.837 19.4445 24.2129 20.0663 24.2129 20.8333C24.2129 21.6004 24.837 22.2222 25.6068 22.2222Z" fill="#DA7E21"/>
<path d="M43.7279 22.2222C44.4977 22.2222 45.1219 21.6004 45.1219 20.8333C45.1219 20.0663 44.4977 19.4445 43.7279 19.4445C42.9581 19.4445 42.334 20.0663 42.334 20.8333C42.334 21.6004 42.9581 22.2222 43.7279 22.2222Z" fill="#DA7E21"/>
<path d="M54.8793 18.0555C55.6491 18.0555 56.2732 17.4337 56.2732 16.6666C56.2732 15.8995 55.6491 15.2777 54.8793 15.2777C54.1095 15.2777 53.4854 15.8995 53.4854 16.6666C53.4854 17.4337 54.1095 18.0555 54.8793 18.0555Z" fill="#DA7E21"/>
<path d="M59.0609 22.2222C59.8307 22.2222 60.4549 21.6004 60.4549 20.8333C60.4549 20.0663 59.8307 19.4445 59.0609 19.4445C58.2911 19.4445 57.667 20.0663 57.667 20.8333C57.667 21.6004 58.2911 22.2222 59.0609 22.2222Z" fill="#DA7E21"/>
<path d="M74.3939 25.0001C75.1637 25.0001 75.7879 24.3782 75.7879 23.6112C75.7879 22.8441 75.1637 22.2223 74.3939 22.2223C73.6241 22.2223 73 22.8441 73 23.6112C73 24.3782 73.6241 25.0001 74.3939 25.0001Z" fill="#DA7E21"/>
<path d="M75.7885 30.5555C76.5583 30.5555 77.1824 29.9336 77.1824 29.1666C77.1824 28.3996 76.5583 27.7777 75.7885 27.7777C75.0187 27.7777 74.3945 28.3996 74.3945 29.1666C74.3945 29.9336 75.0187 30.5555 75.7885 30.5555Z" fill="#DA7E21"/>
<path d="M22.8187 18.0555C23.5885 18.0555 24.2127 17.4337 24.2127 16.6666C24.2127 15.8995 23.5885 15.2777 22.8187 15.2777C22.0489 15.2777 21.4248 15.8995 21.4248 16.6666C21.4248 17.4337 22.0489 18.0555 22.8187 18.0555Z" fill="#DA7E21"/>
<path d="M57.3185 8.33337H55.2083C53.1749 8.33601 51.1641 8.75941 49.3034 9.57677C47.4426 8.75941 45.4319 8.33601 43.3985 8.33337H39.5458C37.585 8.33337 34.7034 8.72487 32.6034 9.57677C30.849 8.76021 28.9367 8.33584 27.0003 8.33337H25.6064C21.9107 8.33756 18.3676 9.80219 15.7544 12.406C13.1412 15.0097 11.6712 18.54 11.667 22.2222V28.125C11.6711 31.7153 13.1042 35.1573 15.6522 37.696C18.2001 40.2345 21.6546 41.6626 25.2579 41.6666H26.6712C28.7046 41.664 30.7153 41.2406 32.5761 40.4232C34.4368 41.2406 36.4476 41.664 38.481 41.6666H43.3985C45.4319 41.664 47.4426 41.2406 49.3034 40.4232C51.1641 41.2406 53.1749 41.664 55.2083 41.6666H55.4278C57.2974 41.6666 59.1338 42.1593 60.7507 43.0944C62.3677 44.0296 63.7076 45.3742 64.6348 46.992C65.5621 48.6095 66.0435 50.4426 66.0303 52.3055C66.0172 54.1681 65.51 55.9944 64.56 57.5989L61.2195 61.6119C59.9529 63.1308 58.9301 64.8358 58.1871 66.6666H42.3183C40.6867 66.6685 39.1224 67.315 37.9687 68.4645C36.8151 69.6141 36.166 71.1726 36.1641 72.7983V74.0577C34.9432 74.4653 33.8822 75.2457 33.1316 76.2881C32.3809 77.3304 31.9788 78.5818 31.9823 79.8648V82.9526C30.8236 83.9238 30.0647 85.2863 29.8508 86.7797C29.6368 88.2731 29.9828 89.7927 30.8225 91.0481C31.0081 91.3257 31.2876 91.5274 31.6103 91.6163C31.9328 91.7054 32.2767 91.6757 32.579 91.5326L59.0179 79.0544L69.6308 74.9415C76.9354 72.1167 82.9215 66.6811 86.4207 59.6957C86.5163 59.5048 86.6074 59.3119 86.6961 59.1178C86.7934 58.976 86.8634 58.8173 86.9023 58.6499C87.8437 56.4251 88.3302 54.0355 88.3337 51.6211V39.2361C88.3337 22.1964 74.4202 8.33337 57.3185 8.33337ZM25.2579 38.8888C22.3937 38.8856 19.6478 37.7505 17.6226 35.7326C15.5973 33.7147 14.4581 30.9788 14.4549 28.125V22.2222C14.4582 19.2764 15.6341 16.4522 17.7247 14.3692C19.8153 12.2861 22.6498 11.1145 25.6064 11.1111H27.0003C28.4399 11.1136 29.8633 11.4117 31.1821 11.9867V37.9948C29.7513 38.5828 28.219 38.8866 26.6712 38.8888H25.2579ZM38.481 38.8888C36.9332 38.8866 35.4009 38.5828 33.97 37.9948V12.0297C35.6225 11.4313 37.9464 11.1111 39.5458 11.1111H43.3985C44.9463 11.1135 46.4785 11.4172 47.9094 12.0052V37.9948C46.4785 38.5828 44.9463 38.8866 43.3985 38.8888H38.481ZM55.2083 38.8888C53.6605 38.8864 52.1282 38.5828 50.6973 37.9948V12.0052C52.1282 11.4172 53.6605 11.1135 55.2083 11.1111H57.3185C60.2585 11.1093 63.1807 11.5669 65.9784 12.4672L57.9514 39.1296C57.1197 38.9701 56.2748 38.8895 55.4278 38.8888H55.2083ZM60.6201 39.9331L68.592 13.4549C72.3312 15.0873 75.6727 17.5048 78.3883 20.5421C81.1036 23.5793 83.129 27.1649 84.3261 31.0538L64.8087 42.7218C63.6013 41.5375 62.1802 40.5913 60.6201 39.9331ZM85.5458 39.2361V51.6211C85.5435 53.3827 85.237 55.131 84.6397 56.7891L68.6484 54.3378C69.1809 51.0439 68.4502 47.6709 66.6011 44.8895L85.0288 33.8732C85.3728 35.6402 85.546 37.4361 85.5458 39.2361ZM42.3183 69.4443H50.8177L38.9518 73.177V72.7974C38.953 71.9084 39.3083 71.056 39.9394 70.4275C40.5705 69.7988 41.426 69.4454 42.3183 69.4443ZM37.1228 76.6665L48.6627 73.0355L34.7701 81.2151V79.865C34.7681 79.1514 34.9953 78.4559 35.4187 77.8804C35.8421 77.3047 36.4392 76.8794 37.1228 76.6665ZM32.6622 86.8998C32.7624 86.4549 32.9533 86.0351 33.2232 85.6669C33.4933 85.2986 33.8364 84.9896 34.2314 84.7592L56.9578 71.3787C56.7902 72.7006 56.7611 74.0362 56.8707 75.3641L56.9998 76.9337L32.6651 88.4189C32.5466 87.9196 32.5454 87.3998 32.6613 86.8998H32.6622ZM68.6211 72.3527L59.7046 75.8075L59.6494 75.1363C59.2895 70.8849 60.6242 66.6634 63.3647 63.3853L66.7741 59.2893C66.8186 59.2358 66.859 59.1791 66.8949 59.1195C67.296 58.456 67.6384 57.7589 67.9182 57.0362L83.42 59.4128C80.1714 65.3292 74.9299 69.912 68.6202 72.3527H68.6211Z" fill="#A66335"/>
<path d="M75.9282 59.9999C75.6325 59.7789 75.2606 59.6839 74.8947 59.736C74.5287 59.7881 74.1985 59.9831 73.9767 60.2777L72.9312 61.6666C72.7094 61.9612 72.6141 62.3317 72.6663 62.6962C72.7186 63.061 72.9143 63.39 73.21 63.611C73.5057 63.832 73.8775 63.927 74.2434 63.8749C74.6095 63.8228 74.9397 63.6278 75.1615 63.3332L76.207 61.9443C76.3167 61.7985 76.3967 61.6323 76.4422 61.4556C76.4875 61.2791 76.4976 61.0952 76.4718 60.9146C76.4459 60.7341 76.3845 60.5603 76.2913 60.4034C76.1981 60.2464 76.0745 60.1093 75.9282 59.9999Z" fill="#A66335"/>
<path d="M79.4648 54.0872C79.6375 54.1481 79.8204 54.1745 80.0032 54.1649C80.186 54.1554 80.3651 54.1099 80.5305 54.0314C80.6956 53.9528 80.8436 53.8424 80.9661 53.7068C81.0884 53.571 81.1828 53.4127 81.2436 53.2406C82.2473 50.4158 82.7594 47.441 82.758 44.4443C82.758 44.0759 82.6111 43.7226 82.3497 43.4622C82.0884 43.2018 81.7338 43.0554 81.364 43.0554C80.9943 43.0554 80.6399 43.2018 80.3784 43.4622C80.117 43.7226 79.9701 44.0759 79.9701 44.4443C79.9713 47.1255 79.5129 49.7872 78.6148 52.3146C78.5539 52.4866 78.5274 52.6689 78.5371 52.8511C78.5467 53.0332 78.5924 53.2116 78.6713 53.3762C78.7502 53.541 78.861 53.6884 78.9971 53.8104C79.1332 53.9323 79.2921 54.0264 79.4648 54.0872Z" fill="#A66335"/>
<path d="M38.1518 19.4445C38.9216 19.4445 39.5457 18.8227 39.5457 18.0556C39.5457 17.2886 38.9216 16.6667 38.1518 16.6667C37.3819 16.6667 36.7578 17.2886 36.7578 18.0556C36.7578 18.8227 37.3819 19.4445 38.1518 19.4445Z" fill="#A66335"/>
<path d="M25.6068 22.2222C26.3766 22.2222 27.0008 21.6004 27.0008 20.8333C27.0008 20.0663 26.3766 19.4445 25.6068 19.4445C24.837 19.4445 24.2129 20.0663 24.2129 20.8333C24.2129 21.6004 24.837 22.2222 25.6068 22.2222Z" fill="#A66335"/>
<path d="M43.7279 22.2222C44.4977 22.2222 45.1219 21.6004 45.1219 20.8333C45.1219 20.0663 44.4977 19.4445 43.7279 19.4445C42.9581 19.4445 42.334 20.0663 42.334 20.8333C42.334 21.6004 42.9581 22.2222 43.7279 22.2222Z" fill="#A66335"/>
<path d="M54.8793 18.0555C55.6491 18.0555 56.2732 17.4337 56.2732 16.6666C56.2732 15.8995 55.6491 15.2777 54.8793 15.2777C54.1095 15.2777 53.4854 15.8995 53.4854 16.6666C53.4854 17.4337 54.1095 18.0555 54.8793 18.0555Z" fill="#A66335"/>
<path d="M59.0609 22.2222C59.8307 22.2222 60.4549 21.6004 60.4549 20.8333C60.4549 20.0663 59.8307 19.4445 59.0609 19.4445C58.2911 19.4445 57.667 20.0663 57.667 20.8333C57.667 21.6004 58.2911 22.2222 59.0609 22.2222Z" fill="#A66335"/>
<path d="M74.3939 25.0001C75.1637 25.0001 75.7879 24.3782 75.7879 23.6112C75.7879 22.8441 75.1637 22.2223 74.3939 22.2223C73.6241 22.2223 73 22.8441 73 23.6112C73 24.3782 73.6241 25.0001 74.3939 25.0001Z" fill="#A66335"/>
<path d="M75.7885 30.5555C76.5583 30.5555 77.1824 29.9336 77.1824 29.1666C77.1824 28.3996 76.5583 27.7777 75.7885 27.7777C75.0187 27.7777 74.3945 28.3996 74.3945 29.1666C74.3945 29.9336 75.0187 30.5555 75.7885 30.5555Z" fill="#A66335"/>
<path d="M22.8187 18.0555C23.5885 18.0555 24.2127 17.4337 24.2127 16.6666C24.2127 15.8995 23.5885 15.2777 22.8187 15.2777C22.0489 15.2777 21.4248 15.8995 21.4248 16.6666C21.4248 17.4337 22.0489 18.0555 22.8187 18.0555Z" fill="#A66335"/>
</svg>
