<svg width="120" height="120" viewBox="0 0 120 120" fill="none" xmlns="http://www.w3.org/2000/svg">
<path d="M87.5 69.375C87.5 84.908 75.1878 97.5 60 97.5C44.8122 97.5 32.5 84.908 32.5 69.375C32.5 53.842 44.8122 22.5 60 22.5C75.1878 22.5 87.5 53.842 87.5 69.375Z" fill="#F2EB76"/>
<path fill-rule="evenodd" clip-rule="evenodd" d="M90 69.375C90 86.2355 76.6212 100 60 100C43.3788 100 30 86.2355 30 69.375C30 61.1184 33.2205 49.0102 38.3266 38.9786C40.89 33.9423 44.0023 29.2805 47.558 25.8426C51.0998 22.4182 55.3075 20 60 20C64.6925 20 68.9002 22.4182 72.442 25.8426C75.9977 29.2805 79.11 33.9423 81.6734 38.9786C86.7795 49.0102 90 61.1184 90 69.375ZM60 97.5C75.1878 97.5 87.5 84.908 87.5 69.375C87.5 53.842 75.1878 22.5 60 22.5C44.8122 22.5 32.5 53.842 32.5 69.375C32.5 84.908 44.8122 97.5 60 97.5Z" fill="#538642"/>
<path fill-rule="evenodd" clip-rule="evenodd" d="M60 97.5C75.1878 97.5 87.5 84.908 87.5 69.375C87.5 53.842 75.1878 22.5 60 22.5C44.8122 22.5 32.5 53.842 32.5 69.375C32.5 84.908 44.8122 97.5 60 97.5ZM60 95C73.8071 95 85 83.4573 85 69.2188C85 54.9802 73.8071 26.25 60 26.25C46.1929 26.25 35 54.9802 35 69.2188C35 83.4573 46.1929 95 60 95Z" fill="#D9DE2E"/>
<path d="M79.3282 84.1636C78.3619 85.2208 76.7215 85.2945 75.6643 84.3281C74.6071 83.3618 74.5335 81.7214 75.4998 80.6642C76.4661 79.607 78.1065 79.5334 79.1637 80.4997C80.2209 81.4661 80.2946 83.1064 79.3282 84.1636Z" fill="#C4CB29"/>
<path d="M69.3282 92.9136C68.3619 93.9708 66.7215 94.0445 65.6643 93.0781C64.6071 92.1118 64.5335 90.4714 65.4998 89.4142C66.4661 88.357 68.1065 88.2834 69.1637 89.2497C70.2209 90.2161 70.2946 91.8564 69.3282 92.9136Z" fill="#C4CB29"/>
<path d="M40.5782 79.1636C39.6119 80.2208 37.9715 80.2945 36.9143 79.3281C35.8571 78.3618 35.7835 76.7214 36.7498 75.6642C37.7161 74.607 39.3565 74.5334 40.4137 75.4997C41.4709 76.4661 41.5446 78.1064 40.5782 79.1636Z" fill="#C4CB29"/>
<path d="M75.162 90.0467C74.4842 90.7882 73.3338 90.8398 72.5923 90.1621C71.8509 89.4844 71.7993 88.3339 72.477 87.5925C73.1547 86.8511 74.3052 86.7994 75.0466 87.4771C75.788 88.1548 75.8397 89.3053 75.162 90.0467Z" fill="#C4CB29"/>
<path d="M62.662 95.0467C61.9842 95.7882 60.8338 95.8398 60.0923 95.1621C59.3509 94.4844 59.2993 93.3339 59.977 92.5925C60.6547 91.8511 61.8052 91.7994 62.5466 92.4771C63.288 93.1548 63.3397 94.3053 62.662 95.0467Z" fill="#C4CB29"/>
<path d="M42.662 83.7967C41.9842 84.5382 40.8338 84.5898 40.0923 83.9121C39.3509 83.2344 39.2993 82.0839 39.977 81.3425C40.6547 80.6011 41.8052 80.5494 42.5466 81.2271C43.288 81.9048 43.3397 83.0553 42.662 83.7967Z" fill="#C4CB29"/>
<path d="M40.162 71.2967C39.4842 72.0382 38.3338 72.0898 37.5923 71.4121C36.8509 70.7344 36.7993 69.5839 37.477 68.8425C38.1547 68.1011 39.3052 68.0494 40.0466 68.7271C40.788 69.4048 40.8397 70.5553 40.162 71.2967Z" fill="#C4CB29"/>
<path d="M83.912 78.7967C83.2342 79.5382 82.0838 79.5898 81.3423 78.9121C80.6009 78.2344 80.5493 77.0839 81.227 76.3425C81.9047 75.6011 83.0552 75.5494 83.7966 76.2271C84.538 76.9048 84.5897 78.0553 83.912 78.7967Z" fill="#C4CB29"/>
<path d="M77.5 70C77.5 79.665 69.665 87.5 60 87.5C50.335 87.5 42.5 79.665 42.5 70C42.5 60.335 50.335 52.5 60 52.5C69.665 52.5 77.5 60.335 77.5 70Z" fill="#BAC73A"/>
<path d="M71.25 70C71.25 76.2132 66.2132 81.25 60 81.25C53.7868 81.25 48.75 76.2132 48.75 70C48.75 63.7868 53.7868 58.75 60 58.75C66.2132 58.75 71.25 63.7868 71.25 70Z" fill="#B6472C"/>
<path fill-rule="evenodd" clip-rule="evenodd" d="M73.75 70C73.75 77.5939 67.5939 83.75 60 83.75C52.4061 83.75 46.25 77.5939 46.25 70C46.25 62.4061 52.4061 56.25 60 56.25C67.5939 56.25 73.75 62.4061 73.75 70ZM60 81.25C66.2132 81.25 71.25 76.2132 71.25 70C71.25 63.7868 66.2132 58.75 60 58.75C53.7868 58.75 48.75 63.7868 48.75 70C48.75 76.2132 53.7868 81.25 60 81.25Z" fill="#662513"/>
<path fill-rule="evenodd" clip-rule="evenodd" d="M58.75 77.4999C64.9632 77.4999 70 72.4632 70 66.2499C70 65.6965 69.9601 65.1524 69.8829 64.6204C70.7546 66.2185 71.25 68.0513 71.25 69.9999C71.25 76.2132 66.2132 81.2499 60 81.2499C54.3403 81.2499 49.6567 77.0705 48.8672 71.6295C50.775 75.127 54.4854 77.4999 58.75 77.4999Z" fill="#A43E25"/>
<path d="M57.5 66.25C57.5 67.6307 56.3807 68.75 55 68.75C53.6193 68.75 52.5 67.6307 52.5 66.25C52.5 64.8693 53.6193 63.75 55 63.75C56.3807 63.75 57.5 64.8693 57.5 66.25Z" fill="#F5A05F"/>
<path d="M58.8339 30.2763C60.8017 32.3972 59.8178 36.5094 56.6363 39.461C53.4549 42.4126 49.2806 43.0859 47.3129 40.965C45.3452 38.844 46.3291 34.7319 49.5105 31.7803C52.692 28.8287 56.8662 28.1553 58.8339 30.2763Z" fill="#FFFAA3"/>
<path fill-rule="evenodd" clip-rule="evenodd" d="M53.0582 37.8274C54.2339 37.1969 54.712 35.7449 54.1243 34.5337C53.5216 33.2915 52.026 32.7731 50.7838 33.3758C50.4152 33.5547 50.0026 33.7746 49.6412 34.0688C49.178 34.4459 48.8857 34.8699 48.6932 35.3095C48.6346 35.4432 48.577 35.6034 48.5747 35.6098L48.5746 35.61C48.5732 35.6137 48.572 35.6169 48.5709 35.6197C48.5582 35.6393 48.5301 35.6794 48.4782 35.7428C47.6029 36.8106 47.7589 38.3858 48.8268 39.2611C49.8946 40.1364 51.4698 39.9803 52.3451 38.9125C52.6604 38.5278 52.8875 38.1743 53.0582 37.8274ZM48.5797 35.6053C48.5798 35.6053 48.5788 35.6071 48.5765 35.6109C48.5785 35.6072 48.5796 35.6054 48.5797 35.6053Z" fill="white"/>
</svg>
