<svg width="120" height="120" viewBox="0 0 120 120" fill="none" xmlns="http://www.w3.org/2000/svg">
<path d="M45.7693 104.363L35.4545 94.1449C33.6973 92.4043 35.3778 88.8423 37.7864 88.2805C47.6632 85.9766 53.1527 75.6314 58.2065 69.0126L58.24 68.9687C64.5126 60.7537 65.0599 60.0371 80.6834 56.9717C88.7584 55.3873 93.0201 51.2225 95.0584 47.3854C96.0894 45.4443 99.2305 44.4094 100.78 45.9686L109.634 54.8798C110.206 55.4558 110.473 56.2782 110.283 57.0677C107.569 68.3458 96.312 72.666 90.836 73.4175C83.4254 74.572 77.4752 76.5743 69.6501 89.6851C62.3142 101.976 52.2558 105 47.3331 105.037C46.7425 105.041 46.1889 104.778 45.7693 104.363Z" fill="#D2492A"/>
<path fill-rule="evenodd" clip-rule="evenodd" d="M58.2403 68.9688L58.2068 69.0126C57.3029 70.1964 56.3851 71.4993 55.4308 72.8542C51.049 79.0746 45.897 86.3887 37.7867 88.2805C35.378 88.8424 33.6975 92.4043 35.4547 94.1449L45.7696 104.363L44.0102 106.139L33.6953 95.921C31.8106 94.054 32.0349 91.4908 32.7582 89.7915C33.4871 88.0793 35.0483 86.3522 37.2187 85.8459C41.4261 84.8645 44.8414 82.1414 47.9238 78.6185C49.4592 76.8636 50.87 74.9596 52.2368 73.041C52.6103 72.5167 52.9845 71.9856 53.3579 71.4554C54.3235 70.0846 55.2847 68.72 56.2197 67.4955C56.2198 67.4955 56.2198 67.4955 56.2198 67.4955L56.2532 67.4516L56.2533 67.4516C56.3278 67.354 56.4017 67.2571 56.4751 67.161C59.4079 63.3185 61.4092 60.6963 64.7455 58.8514C68.0342 57.0327 72.5104 56.0277 80.2023 54.5185C87.5472 53.0774 91.17 49.3768 92.8507 46.2126C93.7465 44.5262 95.4186 43.4085 97.0584 42.9549C98.6886 42.5039 100.923 42.5655 102.553 44.2066L111.407 53.1178C112.53 54.2474 113.126 55.9385 112.714 57.6526L110.283 57.0677C110.473 56.2783 110.206 55.4558 109.634 54.8799L100.78 45.9686C99.2307 44.4094 96.0897 45.4443 95.0586 47.3854C93.0204 51.2226 88.7587 55.3874 80.6837 56.9717C65.0601 60.0371 64.5129 60.7538 58.2403 68.9688ZM91.1996 75.8911C87.6287 76.4484 84.7263 77.1679 81.7949 79.1415C78.8223 81.1428 75.6068 84.5831 71.797 90.9664C64.0059 104.02 53.1335 107.493 47.352 107.537C45.9909 107.547 44.8223 106.943 44.0102 106.139L45.7696 104.363C46.1892 104.778 46.7427 105.041 47.3333 105.037C52.2561 105 62.3144 101.976 69.6503 89.6851C77.4754 76.5743 83.4256 74.572 90.8362 73.4175C96.3123 72.6661 107.569 68.3458 110.283 57.0677L112.714 57.6526C111.177 64.0405 107.215 68.421 102.992 71.2639C98.8143 74.0761 94.2736 75.4653 91.1996 75.8911Z" fill="#9B0D0D"/>
<path d="M80.6834 56.9717C88.7584 55.3873 93.0202 51.2225 95.0584 47.3854C96.0895 45.4443 99.2305 44.4094 100.78 45.9686L102.881 48.0832C103.346 48.5516 103.617 49.1875 103.573 49.8463C102.79 61.7486 88.5676 68.1496 82.1871 69.0126C75.6246 69.9002 67.0308 65.625 58.2065 79.6875C51.8779 89.7729 43.7084 94.6422 39.3523 96.2438C38.5268 96.5473 37.6219 96.2919 36.9971 95.6729L35.4545 94.1449C33.6973 92.4043 35.3778 88.8423 37.7864 88.2805C47.6632 85.9766 53.1527 75.6314 58.2065 69.0126L58.24 68.9687C64.5127 60.7537 65.0599 60.0371 80.6834 56.9717Z" fill="#B0351A"/>
<path d="M96.0881 64.5724C95.4855 65.0274 94.6914 64.9915 94.3144 64.4922C93.9374 63.9929 94.1203 63.2193 94.7229 62.7643C95.3255 62.3093 96.1196 62.3452 96.4966 62.8445C96.8736 63.3438 96.6907 64.1174 96.0881 64.5724Z" fill="#A42F15"/>
<path d="M95.4358 60.3869C94.8332 60.8419 94.0391 60.806 93.6621 60.3068C93.2851 59.8075 93.4679 59.0339 94.0705 58.5789C94.6731 58.1239 95.4672 58.1598 95.8442 58.659C96.2212 59.1583 96.0384 59.9319 95.4358 60.3869Z" fill="#A42F15"/>
<path d="M91.2214 66.0691C90.6188 66.5241 89.8247 66.4882 89.4477 65.9889C89.0707 65.4896 89.2536 64.716 89.8562 64.261C90.4588 63.806 91.2529 63.8419 91.6299 64.3412C92.0069 64.8405 91.824 65.6141 91.2214 66.0691Z" fill="#A42F15"/>
<path d="M94.7859 68.9013C94.1833 69.3564 93.3892 69.3205 93.0122 68.8212C92.6352 68.3219 92.818 67.5483 93.4206 67.0933C94.0232 66.6383 94.8173 66.6742 95.1943 67.1734C95.5713 67.6727 95.3885 68.4463 94.7859 68.9013Z" fill="#A42F15"/>
<path d="M100.281 61.4343C99.4353 62.0725 98.3214 62.0222 97.7925 61.3218C97.2637 60.6214 97.5202 59.5362 98.3655 58.898C99.2108 58.2597 100.325 58.3101 100.854 59.0105C101.382 59.7108 101.126 60.796 100.281 61.4343Z" fill="#A42F15"/>
<path d="M100.148 66.6813C99.3025 67.3196 98.1885 67.2692 97.6597 66.5689C97.1309 65.8685 97.3874 64.7833 98.2327 64.145C99.0779 63.5068 100.192 63.5571 100.721 64.2575C101.25 64.9579 100.993 66.0431 100.148 66.6813Z" fill="#A42F15"/>
<path d="M105.559 61.5513C104.714 62.1896 103.6 62.1392 103.071 61.4388C102.542 60.7385 102.799 59.6533 103.644 59.015C104.49 58.3768 105.604 58.4271 106.132 59.1275C106.661 59.8279 106.405 60.9131 105.559 61.5513Z" fill="#A42F15"/>
<path d="M103.163 57.3264C102.707 57.6707 102.106 57.6435 101.82 57.2658C101.535 56.888 101.674 56.3026 102.13 55.9583C102.585 55.6141 103.186 55.6412 103.472 56.019C103.757 56.3968 103.618 56.9821 103.163 57.3264Z" fill="#A42F15"/>
<path d="M102.938 54.2778C102.482 54.6221 101.881 54.595 101.596 54.2172C101.311 53.8394 101.449 53.254 101.905 52.9098C102.361 52.5655 102.962 52.5926 103.247 52.9704C103.532 53.3482 103.394 53.9336 102.938 54.2778Z" fill="#A42F15"/>
<path d="M99.7324 56.8712C99.2764 57.2155 98.6755 57.1883 98.3903 56.8106C98.105 56.4328 98.2434 55.8474 98.6993 55.5031C99.1553 55.1589 99.7562 55.186 100.041 55.5638C100.327 55.9416 100.188 56.5269 99.7324 56.8712Z" fill="#A42F15"/>
<path d="M96.7695 53.7098C96.3135 54.0541 95.7126 54.027 95.4274 53.6492C95.1421 53.2714 95.2805 52.686 95.7364 52.3418C96.1924 51.9975 96.7933 52.0246 97.0785 52.4024C97.3638 52.7802 97.2254 53.3656 96.7695 53.7098Z" fill="#A42F15"/>
<path d="M89.1225 70.3505C88.6665 70.6948 88.0657 70.6676 87.7804 70.2898C87.4951 69.912 87.6335 69.3267 88.0895 68.9824C88.5454 68.6381 89.1463 68.6653 89.4315 69.0431C89.7168 69.4208 89.5784 70.0062 89.1225 70.3505Z" fill="#A42F15"/>
<path d="M91.4291 59.506C90.9732 59.8503 90.3723 59.8231 90.087 59.4453C89.8018 59.0675 89.9402 58.4822 90.3961 58.1379C90.8521 57.7936 91.4529 57.8208 91.7382 58.1986C92.0234 58.5764 91.8851 59.1617 91.4291 59.506Z" fill="#A42F15"/>
<path fill-rule="evenodd" clip-rule="evenodd" d="M62.9451 66.2878C63.8892 65.2804 65.4713 65.229 66.4787 66.1732L75.4132 74.5461C76.4206 75.4902 76.4719 77.0723 75.5278 78.0798C74.5837 79.0872 73.0016 79.1386 71.9941 78.1944L63.0597 69.8215C62.0523 68.8773 62.0009 67.2953 62.9451 66.2878Z" fill="#E05739"/>
<path fill-rule="evenodd" clip-rule="evenodd" d="M39.2279 90.5226C40.1835 89.526 41.766 89.4927 42.7627 90.4483L50.8495 98.2021C51.8461 99.1577 51.8794 100.74 50.9238 101.737C49.9682 102.734 48.3857 102.767 47.389 101.811L39.3022 94.0574C38.3056 93.1018 38.2723 91.5192 39.2279 90.5226Z" fill="#E05739"/>
<path fill-rule="evenodd" clip-rule="evenodd" d="M105.679 55.1553C106.286 55.4844 106.511 56.2432 106.182 56.85C102.26 64.0819 97.0393 67.7069 90.0027 69.278C88.1221 69.6979 86.5214 69.9946 85.0824 70.2613C81.2362 70.9741 78.546 71.4726 74.7592 73.5374C72.3537 74.849 70.6346 77.0535 68.7155 80.0502C68.2627 80.7571 67.7994 81.5076 67.3145 82.2928C65.7819 84.775 64.0349 87.6045 61.7312 90.505C56.9447 96.5316 51.6058 98.9346 47.8066 100.262C47.1549 100.49 46.4419 100.146 46.2142 99.4947C45.9864 98.843 46.3301 98.13 46.9818 97.9023C50.5312 96.6619 55.388 94.472 59.7735 88.9502C61.9761 86.1769 63.6151 83.5232 65.1344 81.0633C65.634 80.2543 66.1207 79.4663 66.6102 78.7019C68.5531 75.668 70.5585 72.9804 73.5624 71.3425C77.7228 69.074 80.8914 68.4876 84.8864 67.7482C86.2833 67.4897 87.7812 67.2125 89.4579 66.8381C95.8004 65.422 100.412 62.2446 103.984 55.6583C104.313 55.0514 105.072 54.8262 105.679 55.1553Z" fill="#FD9E75"/>
<path fill-rule="evenodd" clip-rule="evenodd" d="M100.518 50.6244C101.106 50.985 101.291 51.7545 100.931 52.3432C96.8486 59.0082 91.9334 62.4211 84.8715 63.8825C83.0571 64.258 81.4974 64.512 80.0982 64.7399C76.109 65.3897 73.4247 65.8269 69.8609 68.2601C66.9597 70.2409 65.0659 72.3907 63.1526 75.0176C62.4778 75.9441 61.7809 76.9605 61.0285 78.058C59.6889 80.0121 58.1731 82.2232 56.292 84.6406C51.4128 90.9106 46.5567 93.6437 42.2474 94.1908C41.5625 94.2777 40.9368 93.793 40.8499 93.1082C40.763 92.4233 41.2477 91.7976 41.9325 91.7107C45.3924 91.2714 49.7079 89.0308 54.319 83.1052C56.1732 80.7224 57.5805 78.6666 58.8793 76.7694C59.6447 75.6513 60.3725 74.5882 61.1318 73.5457C63.1423 70.7854 65.2314 68.3938 68.4513 66.1954C72.5083 63.4254 75.8509 62.884 80.0248 62.2078C81.3682 61.9902 82.7977 61.7587 84.3649 61.4343C90.7271 60.1178 95.0647 57.1343 98.7988 51.0375C99.1594 50.4488 99.9289 50.2638 100.518 50.6244Z" fill="#FD9E75"/>
<path d="M14.0772 64.4867L7.24286 51.677C6.0786 49.4948 8.73668 46.5886 11.2038 46.7637C21.3203 47.4818 29.622 39.221 36.4062 34.3915L36.4512 34.3595C44.8714 28.3653 45.606 27.8424 61.4376 29.5313C69.6202 30.4042 74.9224 27.685 78.0036 24.6216C79.5623 23.0719 82.8688 23.0116 83.888 24.959L89.7129 36.0889C90.0894 36.8083 90.1012 37.6728 89.6864 38.3708C83.7607 48.3431 71.7298 49.1435 66.2763 48.243C58.8555 47.1558 52.5793 47.3101 41.229 57.5226C30.5882 67.0967 20.0856 67.0127 15.3718 65.593C14.8063 65.4226 14.3552 65.0077 14.0772 64.4867Z" fill="#D4482A"/>
<path fill-rule="evenodd" clip-rule="evenodd" d="M36.4512 34.3596L36.4062 34.3916C35.1929 35.2553 33.931 36.2288 32.6189 37.2411C26.5945 41.8887 19.511 47.3534 11.2038 46.7638C8.73671 46.5887 6.07863 49.4948 7.24289 51.677L14.0773 64.4867L11.8716 65.6635L5.03718 52.8538C3.78841 50.5132 4.76025 48.1308 5.95344 46.7212C7.15577 45.3008 9.1577 44.1123 11.3808 44.2701C15.6903 44.5759 19.7578 42.9839 23.7437 40.5293C25.7291 39.3066 27.6396 37.9046 29.5124 36.4756C30.0242 36.0851 30.5386 35.6883 31.0521 35.2921C32.3796 34.268 33.7012 33.2485 34.9563 32.355C34.9564 32.3549 34.9564 32.3549 34.9564 32.3549L35.0013 32.3229L35.0014 32.3229C35.1014 32.2517 35.2007 32.181 35.2991 32.1109C39.2366 29.3067 41.9234 27.3932 45.656 26.6167C49.3352 25.8512 53.9086 26.2139 61.7029 27.0454C69.1456 27.8394 73.7002 25.3748 76.241 22.8488C77.5952 21.5024 79.5229 20.9288 81.2235 20.9801C82.9142 21.031 85.0304 21.7502 86.103 23.7998L91.9279 34.9297C92.6663 36.3405 92.7362 38.1324 91.8357 39.648L89.6865 38.3709C90.1012 37.6728 90.0894 36.8083 89.7129 36.0889L83.888 24.959C82.8689 23.0116 79.5623 23.072 78.0036 24.6217C74.9224 27.685 69.6202 30.4043 61.4377 29.5313C45.6061 27.8424 44.8715 28.3653 36.4512 34.3596ZM65.8924 50.7135C62.3163 50.1906 59.3309 50.0201 55.9472 51.0392C52.5159 52.0727 48.4273 54.4089 42.9012 59.3811C31.6001 69.5493 20.1869 69.6541 14.6509 67.9868C13.3476 67.5943 12.4096 66.672 11.8716 65.6635L14.0773 64.4867C14.3553 65.0078 14.8063 65.4227 15.3718 65.593C20.0856 67.0127 30.5883 67.0968 41.229 57.5226C52.5794 47.3101 58.8555 47.1558 66.2763 48.243C71.7298 49.1435 83.7607 48.3431 89.6865 38.3709L91.8356 39.648C88.4793 45.2963 83.3998 48.3101 78.5252 49.778C73.7033 51.2301 68.955 51.2153 65.8924 50.7135Z" fill="#891616"/>
<path d="M74.7119 42.0455C73.9561 42.3706 73.125 42.1265 72.8556 41.5002C72.5863 40.8739 72.9806 40.1027 73.7364 39.7776C74.4923 39.4525 75.3233 39.6966 75.5927 40.3229C75.8621 40.9491 75.4677 41.7204 74.7119 42.0455Z" fill="#AD2F13"/>
<path d="M75.1084 37.4467C74.3526 37.7718 73.5215 37.5277 73.2521 36.9014C72.9828 36.2752 73.3771 35.504 74.1329 35.1789C74.8888 34.8538 75.7198 35.0979 75.9892 35.7241C76.2586 36.3504 75.8642 37.1216 75.1084 37.4467Z" fill="#AD2F13"/>
<path d="M69.1729 42.366C68.417 42.6911 67.586 42.447 67.3166 41.8208C67.0472 41.1945 67.4416 40.4233 68.1974 40.0982C68.9532 39.7731 69.7843 40.0172 70.0537 40.6435C70.323 41.2697 69.9287 42.0409 69.1729 42.366Z" fill="#AD2F13"/>
<path d="M72.21 46.2886C71.4542 46.6137 70.6231 46.3696 70.3537 45.7434C70.0843 45.1171 70.4787 44.3459 71.2345 44.0208C71.9903 43.6957 72.8214 43.9398 73.0908 44.5661C73.3601 45.1923 72.9658 45.9635 72.21 46.2886Z" fill="#AD2F13"/>
<path d="M79.9638 39.813C78.9036 40.269 77.7377 39.9266 77.3599 39.0481C76.982 38.1696 77.5352 37.0878 78.5954 36.6318C79.6557 36.1757 80.8215 36.5182 81.1993 37.3966C81.5772 38.2751 81.024 39.357 79.9638 39.813Z" fill="#AD2F13"/>
<path d="M78.4604 45.3312C77.4001 45.7872 76.2343 45.4448 75.8565 44.5663C75.4786 43.6878 76.0318 42.606 77.092 42.15C78.1522 41.6939 79.318 42.0364 79.6959 42.9148C80.0738 43.7933 79.5206 44.8752 78.4604 45.3312Z" fill="#AD2F13"/>
<path d="M85.519 41.307C84.4587 41.7631 83.2929 41.4206 82.9151 40.5421C82.5372 39.6637 83.0904 38.5818 84.1506 38.1258C85.2108 37.6697 86.3766 38.0122 86.7545 38.8907C87.1324 39.7691 86.5792 40.851 85.519 41.307Z" fill="#AD2F13"/>
<path d="M84.0795 36.2136C83.5077 36.4596 82.8788 36.2749 82.675 35.801C82.4712 35.3272 82.7696 34.7436 83.3414 34.4977C83.9133 34.2517 84.5422 34.4364 84.746 34.9102C84.9498 35.3841 84.6514 35.9676 84.0795 36.2136Z" fill="#AD2F13"/>
<path d="M84.6333 32.9291C84.0614 33.1751 83.4325 32.9904 83.2287 32.5165C83.0249 32.0426 83.3233 31.4591 83.8952 31.2131C84.4671 30.9671 85.0959 31.1518 85.2997 31.6257C85.5035 32.0995 85.2052 32.6831 84.6333 32.9291Z" fill="#AD2F13"/>
<path d="M80.5678 34.8414C79.9959 35.0874 79.3671 34.9027 79.1633 34.4289C78.9595 33.955 79.2578 33.3714 79.8297 33.1255C80.4016 32.8795 81.0305 33.0642 81.2343 33.538C81.4381 34.0119 81.1397 34.5954 80.5678 34.8414Z" fill="#AD2F13"/>
<path d="M78.2524 30.7267C77.6805 30.9727 77.0517 30.788 76.8478 30.3141C76.644 29.8403 76.9424 29.2567 77.5143 29.0107C78.0862 28.7647 78.715 28.9494 78.9189 29.4233C79.1227 29.8972 78.8243 30.4807 78.2524 30.7267Z" fill="#AD2F13"/>
<path d="M65.8403 46.3523C65.2684 46.5983 64.6396 46.4136 64.4357 45.9397C64.2319 45.4659 64.5303 44.8823 65.1022 44.6363C65.6741 44.3903 66.3029 44.5751 66.5067 45.0489C66.7106 45.5228 66.4122 46.1063 65.8403 46.3523Z" fill="#AD2F13"/>
<path d="M71.0966 35.4745C70.5247 35.7205 69.8959 35.5358 69.6921 35.0619C69.4883 34.5881 69.7866 34.0045 70.3585 33.7585C70.9304 33.5125 71.5593 33.6972 71.7631 34.1711C71.9669 34.645 71.6685 35.2285 71.0966 35.4745Z" fill="#AD2F13"/>
<path fill-rule="evenodd" clip-rule="evenodd" d="M42.2963 31.7949C43.4894 31.0999 45.0199 31.5038 45.7149 32.6968L52.7853 44.8355C53.4803 46.0286 53.0765 47.5591 51.8834 48.2541C50.6903 48.949 49.1598 48.5452 48.4648 47.3521L41.3944 35.2134C40.6994 34.0203 41.1033 32.4898 42.2963 31.7949Z" fill="#EB5E3F"/>
<path fill-rule="evenodd" clip-rule="evenodd" d="M10.5728 48.2525C11.7891 47.5991 13.3048 48.0554 13.9582 49.2718L20.093 60.692C20.7464 61.9084 20.29 63.4241 19.0737 64.0775C17.8574 64.7309 16.3417 64.2745 15.6883 63.0582L9.5535 51.6379C8.90011 50.4216 9.35646 48.9059 10.5728 48.2525Z" fill="#EB5E3F"/>
<path fill-rule="evenodd" clip-rule="evenodd" d="M85.8528 35.1832C86.3353 35.6769 86.3262 36.4683 85.8324 36.9508C79.9485 42.7006 73.8897 44.6208 66.7031 44.0421C64.7825 43.8874 63.1656 43.6978 61.7121 43.5272C57.827 43.0715 55.1096 42.7527 50.8817 43.6061C48.1961 44.1482 45.9023 45.7461 43.1832 48.0418C42.5418 48.5834 41.8773 49.1634 41.1821 49.7702C38.9843 51.6886 36.4791 53.8754 33.4211 55.9655C27.0673 60.3083 21.2567 61.0261 17.2348 61.1716C16.5449 61.1966 15.9654 60.6576 15.9404 59.9677C15.9155 59.2778 16.4545 58.6982 17.1444 58.6733C20.9018 58.5373 26.1888 57.8806 32.0104 53.9015C34.9342 51.9031 37.2843 49.8523 39.4626 47.9513C40.179 47.3261 40.8769 46.7172 41.5705 46.1316C44.3232 43.8074 47.0334 41.8325 50.3871 41.1555C55.0321 40.2179 58.2325 40.5942 62.2675 41.0685C63.6784 41.2344 65.1914 41.4123 66.9038 41.5502C73.3815 42.0718 78.7265 40.3993 84.0851 35.1628C84.5789 34.6803 85.3703 34.6894 85.8528 35.1832Z" fill="#E7B469"/>
<path fill-rule="evenodd" clip-rule="evenodd" d="M82.2618 29.3293C82.7177 29.8478 82.6669 30.6376 82.1485 31.0934C76.2789 36.2543 70.5747 38.0621 63.3964 37.3711C61.552 37.1936 59.9868 36.9753 58.5828 36.7795C54.5798 36.2213 51.8862 35.8457 47.7625 37.1169C44.4055 38.1518 41.9609 39.6459 39.3567 41.59C38.4382 42.2756 37.4721 43.0407 36.429 43.8669C34.5717 45.3378 32.4702 47.002 29.9586 48.7555C23.4443 53.3035 17.9974 54.4793 13.7189 53.7283C13.0389 53.609 12.5844 52.961 12.7038 52.2811C12.8231 51.6011 13.4711 51.1466 14.151 51.266C17.5862 51.8689 22.3711 51.0038 28.5275 46.7056C31.0031 44.9773 32.9551 43.4292 34.7566 42.0006C35.8183 41.1586 36.8277 40.3581 37.8611 39.5866C40.5976 37.5438 43.3003 35.8764 47.026 34.7279C51.7205 33.2807 55.0738 33.7512 59.2611 34.3389C60.6088 34.528 62.0429 34.7293 63.6359 34.8826C70.103 35.5051 75.1286 33.9368 80.4977 29.216C81.0162 28.7601 81.806 28.8109 82.2618 29.3293Z" fill="#E7B469"/>
<path d="M25.1034 91.4667L16.4843 79.783C15.016 77.7927 17.2248 74.5319 19.6912 74.3475C29.8049 73.5914 36.8215 64.2145 42.8339 58.4526L42.8738 58.4144C50.3362 51.2629 50.9872 50.639 66.8964 50.0151C75.1191 49.6926 79.9711 46.2335 82.5757 42.7559C83.8932 40.9966 87.1561 40.4576 88.4468 42.2366L95.8236 52.4046C96.3004 53.0618 96.4374 53.9155 96.1282 54.6663C91.7107 65.3922 79.9229 67.9282 74.3964 67.8277C66.8964 67.8277 60.7089 68.8902 50.9589 80.6402C41.8184 91.6557 31.4145 93.095 26.5447 92.3736C25.9605 92.2871 25.4541 91.942 25.1034 91.4667Z" fill="#E85434"/>
<path fill-rule="evenodd" clip-rule="evenodd" d="M42.8737 58.4144L42.8339 58.4526C41.7586 59.4831 40.6511 60.6292 39.4996 61.821C34.2126 67.2928 27.9961 73.7266 19.6912 74.3475C17.2247 74.5319 15.016 77.7926 16.4843 79.783L25.1034 91.4667L23.0916 92.9508L14.4725 81.2671C12.8976 79.1323 13.5138 76.6341 14.4901 75.0664C15.4738 73.4868 17.2823 72.0206 19.5048 71.8544C23.8131 71.5324 27.6069 69.3675 31.1948 66.361C32.982 64.8635 34.6691 63.1993 36.315 61.5139C36.7648 61.0534 37.2162 60.5862 37.6668 60.1198C38.8319 58.914 39.9917 57.7137 41.1041 56.6476C41.1041 56.6476 41.1041 56.6476 41.1041 56.6476L41.1439 56.6094L41.144 56.6094C41.2326 56.5244 41.3206 56.4401 41.4078 56.3565C44.8972 53.0112 47.2783 50.7284 50.8589 49.4189C54.3883 48.1282 58.9659 47.8242 66.7984 47.517C74.2776 47.2237 78.4269 44.1249 80.5746 41.2572C81.7193 39.7287 83.5435 38.8818 85.2336 38.686C86.9138 38.4913 89.1119 38.8961 90.4704 40.7685L97.8471 50.9365C98.7822 52.2254 99.1112 53.9882 98.4398 55.6183L96.1282 54.6663C96.4374 53.9155 96.3004 53.0618 95.8235 52.4046L88.4468 42.2366C87.1561 40.4575 83.8932 40.9966 82.5756 42.7558C79.971 46.2335 75.119 49.6926 66.8964 50.0151C50.9871 50.639 50.3361 51.2629 42.8737 58.4144ZM74.3746 70.3277C70.7605 70.3287 67.782 70.5928 64.5817 72.0917C61.3365 73.6116 57.6298 76.5159 52.8828 82.2366C43.175 93.9357 31.8976 95.6938 26.1784 94.8466C24.8319 94.6472 23.7702 93.8706 23.0916 92.9508L25.1034 91.4667C25.454 91.9419 25.9604 92.2871 26.5447 92.3736C31.4145 93.095 41.8184 91.6557 50.9589 80.6402C60.7089 68.8902 66.8964 67.8277 74.3964 67.8277C79.9228 67.9281 91.7106 65.3922 96.1282 54.6663L98.4398 55.6183C95.9377 61.6935 91.3487 65.4119 86.7384 67.5709C82.178 69.7066 77.4776 70.3802 74.3746 70.3277Z" fill="#9B0D0D"/>
<path d="M81.7831 60.3409C81.0737 60.7213 80.243 60.5531 79.9278 59.9653C79.6125 59.3774 79.9322 58.5925 80.6416 58.212C81.3511 57.8316 82.1818 57.9997 82.497 58.5876C82.8122 59.1755 82.4926 59.9604 81.7831 60.3409Z" fill="#C8391A"/>
<path d="M81.7831 55.8246C81.0737 56.2051 80.243 56.0369 79.9278 55.4491C79.6125 54.8612 79.9322 54.0762 80.6416 53.6958C81.3511 53.3154 82.1818 53.4835 82.497 54.0714C82.8122 54.6592 82.4926 55.4442 81.7831 55.8246Z" fill="#C8391A"/>
<path d="M76.4106 61.1188C75.7011 61.4993 74.8704 61.3311 74.5552 60.7432C74.24 60.1554 74.5596 59.3704 75.2691 58.99C75.9786 58.6096 76.8092 58.7777 77.1245 59.3656C77.4397 59.9534 77.1201 60.7384 76.4106 61.1188Z" fill="#C8391A"/>
<path d="M79.7006 64.6875C78.9911 65.068 78.1605 64.8998 77.8452 64.312C77.53 63.7241 77.8496 62.9392 78.5591 62.5587C79.2686 62.1783 80.0993 62.3464 80.4145 62.9343C80.7297 63.5221 80.4101 64.3071 79.7006 64.6875Z" fill="#C8391A"/>
<path d="M86.7152 57.7231C85.72 58.2568 84.5548 58.0209 84.1126 57.1963C83.6704 56.3717 84.1188 55.2706 85.114 54.7369C86.1092 54.2032 87.2745 54.4391 87.7166 55.2637C88.1588 56.0884 87.7105 57.1895 86.7152 57.7231Z" fill="#C8391A"/>
<path d="M85.7138 63.2291C84.7185 63.7628 83.5533 63.5269 83.1111 62.7023C82.669 61.8776 83.1173 60.7765 84.1125 60.2429C85.1078 59.7092 86.273 59.9451 86.7152 60.7697C87.1574 61.5943 86.709 62.6954 85.7138 63.2291Z" fill="#C8391A"/>
<path d="M92.2563 58.7129C91.261 59.2465 90.0958 59.0106 89.6536 58.186C89.2114 57.3614 89.6598 56.2603 90.655 55.7266C91.6502 55.193 92.8155 55.4289 93.2577 56.2535C93.6998 57.0781 93.2515 58.1792 92.2563 58.7129Z" fill="#C8391A"/>
<path d="M90.4249 53.8684C89.8881 54.1563 89.2595 54.0291 89.021 53.5843C88.7825 53.1395 89.0243 52.5455 89.5612 52.2577C90.098 51.9698 90.7266 52.097 90.9651 52.5418C91.2036 52.9866 90.9617 53.5806 90.4249 53.8684Z" fill="#C8391A"/>
<path d="M90.6891 50.6199C90.1522 50.9078 89.5237 50.7805 89.2852 50.3357C89.0467 49.8909 89.2885 49.297 89.8253 49.0091C90.3622 48.7213 90.9907 48.8485 91.2292 49.2933C91.4677 49.7381 91.2259 50.3321 90.6891 50.6199Z" fill="#C8391A"/>
<path d="M86.8863 52.826C86.3495 53.1138 85.721 52.9866 85.4824 52.5418C85.2439 52.097 85.4858 51.503 86.0226 51.2152C86.5594 50.9273 87.188 51.0546 87.4265 51.4994C87.665 51.9442 87.4232 52.5381 86.8863 52.826Z" fill="#C8391A"/>
<path d="M84.2838 49.0093C83.747 49.2972 83.1184 49.1699 82.8799 48.7251C82.6414 48.2803 82.8832 47.6864 83.4201 47.3985C83.9569 47.1107 84.5854 47.2379 84.824 47.6827C85.0625 48.1275 84.8206 48.7215 84.2838 49.0093Z" fill="#C8391A"/>
<path d="M73.4967 65.2847C72.9598 65.5726 72.3313 65.4453 72.0928 65.0005C71.8543 64.5557 72.0961 63.9618 72.633 63.6739C73.1698 63.3861 73.7983 63.5133 74.0368 63.9581C74.2754 64.4029 74.0335 64.9968 73.4967 65.2847Z" fill="#C8391A"/>
<path d="M77.7066 54.2391C77.1698 54.5269 76.5413 54.3997 76.3028 53.9549C76.0642 53.5101 76.3061 52.9161 76.8429 52.6283C77.3798 52.3404 78.0083 52.4676 78.2468 52.9124C78.4853 53.3573 78.2435 53.9512 77.7066 54.2391Z" fill="#C8391A"/>
<path fill-rule="evenodd" clip-rule="evenodd" d="M48.3529 55.2286C49.4525 54.3936 51.0208 54.6081 51.8559 55.7077L59.9592 66.3784C60.7942 67.478 60.5797 69.0464 59.4802 69.8814C58.3806 70.7164 56.8123 70.5019 55.9772 69.4023L47.8739 58.7316C47.0389 57.632 47.2533 56.0637 48.3529 55.2286Z" fill="#FF876D"/>
<path fill-rule="evenodd" clip-rule="evenodd" d="M19.9081 76.4746C21.0043 75.6352 22.5735 75.8435 23.4128 76.9398L30.8131 86.605C31.6524 87.7013 31.4442 89.2704 30.3479 90.1098C29.2516 90.9492 27.6825 90.7409 26.8431 89.6446L19.4429 79.9794C18.6035 78.8831 18.8118 77.314 19.9081 76.4746Z" fill="#FF876D"/>
<path fill-rule="evenodd" clip-rule="evenodd" d="M91.8729 52.068C92.4219 52.4865 92.5276 53.2709 92.109 53.8199C87.1207 60.3619 81.4043 63.1401 74.2097 63.6093C72.287 63.7347 70.6596 63.7814 69.1967 63.8234C65.2866 63.9356 62.5518 64.0141 58.4922 65.4714C55.9135 66.3971 53.8756 68.3106 51.5181 70.9762C50.9619 71.6051 50.3885 72.2752 49.7886 72.9765C47.8921 75.1932 45.7303 77.72 43.0076 80.2314C37.3505 85.4493 31.7053 87.0019 27.747 87.7289C27.068 87.8536 26.4165 87.4043 26.2918 86.7253C26.1671 86.0463 26.6164 85.3947 27.2954 85.27C30.9934 84.5908 36.1294 83.1746 41.3126 78.3937C43.9159 75.9925 45.9438 73.6227 47.8236 71.426C48.4418 70.7036 49.044 69.9999 49.6454 69.32C52.0322 66.6213 54.4274 64.2744 57.6476 63.1184C62.1076 61.5174 65.3287 61.4257 69.3899 61.3101C70.8099 61.2697 72.3327 61.2264 74.047 61.1146C80.5319 60.6917 85.578 58.262 90.121 52.304C90.5396 51.7551 91.3239 51.6494 91.8729 52.068Z" fill="#FAF1D1"/>
<path fill-rule="evenodd" clip-rule="evenodd" d="M87.4713 46.7966C87.9975 47.2435 88.0618 48.0323 87.6149 48.5585C82.5555 54.5157 77.1735 57.1313 69.9709 57.4882C68.1202 57.5799 66.54 57.5908 65.1224 57.6006C61.0808 57.6286 58.3612 57.6474 54.4653 59.503C51.2938 61.0136 49.0916 62.8463 46.7967 65.1474C45.9873 65.9589 45.1423 66.856 44.2299 67.8246C42.6055 69.5492 40.7674 71.5005 38.5366 73.5995C32.7504 79.0438 27.5315 80.9968 23.1893 80.874C22.4992 80.8545 21.9556 80.2792 21.9751 79.5892C21.9946 78.8991 22.5699 78.3555 23.2599 78.375C26.7462 78.4736 31.3551 76.924 36.8234 71.7788C39.0223 69.7098 40.7294 67.8952 42.3047 66.2205C43.2331 65.2335 44.1158 64.2951 45.0265 63.382C47.438 60.964 49.8704 58.9225 53.3903 57.246C57.8254 55.1335 61.2115 55.113 65.4397 55.0875C66.8006 55.0792 68.2487 55.0705 69.8471 54.9913C76.3361 54.6697 81.0813 52.3895 85.7094 46.9402C86.1563 46.414 86.9451 46.3497 87.4713 46.7966Z" fill="#FAF1D1"/>
</svg>
