<svg width="100" height="100" viewBox="0 0 100 100" fill="none" xmlns="http://www.w3.org/2000/svg">
<path fill-rule="evenodd" clip-rule="evenodd" d="M33.6535 77.0916C31.5642 77.0916 29.3469 75.5707 28.0251 73.2894C24.7845 67.7129 29.219 63.3615 30.4982 65.516L36.0413 75.0215C36.7662 76.3312 35.018 77.0916 33.6535 77.0916ZM65.292 79.9221C56.7215 79.9221 41.5844 73.8809 43.2048 63.5304C44.4413 55.5458 51.2636 54.7009 54.888 55.7148C54.9732 55.7148 55.0159 55.7571 55.1012 55.7571C64.7377 60.3619 65.889 60.3197 75.4828 55.7571C75.696 55.6726 76.8047 55.3768 78.3823 55.3768C81.1965 55.3768 86.1427 56.433 87.3793 63.5304C88.9996 73.8809 73.9905 79.9221 65.292 79.9221ZM52.2017 57.6582C48.4494 57.6582 46.1895 59.7282 45.4646 63.9107C44.1428 72.36 57.7448 77.6831 65.292 77.6831C72.7539 77.6831 86.4838 72.4022 85.1194 63.8684C84.4371 59.7282 82.1346 57.6582 78.3823 57.6582C77.4016 57.6582 76.6341 57.7849 76.3783 57.8694C71.1336 60.3197 68.2768 61.4604 65.292 61.4604C62.3072 61.4604 59.4504 60.3197 54.2057 57.8694C53.9499 57.7849 53.1824 57.6582 52.2017 57.6582ZM65.292 68.938C58.6829 68.938 57.2758 62.939 59.7489 62.939H70.8351C73.3082 62.939 71.9011 68.938 65.292 68.938ZM61.3265 65.1781C62.9895 67.1637 67.5945 67.1637 69.2575 65.1781H61.3265ZM37.4484 91.6667C29.6028 91.6667 21.4586 83.9778 18.4312 78.7815C14.1246 71.4306 11.8647 55.4191 21.6718 51.6169C23.1642 51.0677 24.5713 50.8142 25.8931 50.8142C31.1804 50.8142 33.7388 55.3346 34.3784 57.7427C34.3784 57.8271 34.421 57.8694 34.421 57.9539C35.2312 68.5155 35.7855 69.4872 44.6119 75.444C44.9103 75.6552 47.8951 78.6547 47.7245 82.6259C47.5113 87.2308 42.9489 91.6667 37.4484 91.6667ZM25.8931 53.0533C22.1835 53.0533 19.1134 55.2079 17.7916 58.9678C15.8728 64.5866 17.6211 72.867 20.3926 77.6408C24.0596 83.9778 35.5296 93.2298 42.3946 87.78C44.3134 86.1746 45.3794 84.4003 45.422 82.5414C45.5499 79.7954 43.6311 77.6408 43.2474 77.2606C33.9946 70.9659 33.0139 69.3182 32.1611 58.2074C31.9479 57.5314 30.4555 53.0533 25.8931 53.0533ZM29.3043 68.0086C28.4088 70.3744 30.6687 74.3456 33.2698 74.8103L29.3043 68.0086Z" fill="black"/>
<path fill-rule="evenodd" clip-rule="evenodd" d="M66.347 22.9084C68.4363 22.9084 70.6536 24.4293 71.9754 26.7106C75.216 32.2871 70.7815 36.6385 69.5023 34.484L63.9592 24.9785C63.2343 23.6688 64.9825 22.9084 66.347 22.9084ZM34.7085 20.0779C43.279 20.0779 58.416 26.1191 56.7957 36.4696C55.5592 44.4542 48.7369 45.2991 45.1125 44.2852C45.0272 44.2852 44.9846 44.2429 44.8993 44.2429C35.2628 39.638 34.1115 39.6803 24.5176 44.2429C24.3044 44.3274 23.1958 44.6231 21.6182 44.6231C18.804 44.6231 13.8578 43.567 12.6212 36.4695C11.0009 26.1191 26.01 20.0779 34.7085 20.0779ZM47.7988 42.3418C51.5511 42.3418 53.811 40.2717 54.5358 36.0893C55.8577 27.64 42.2557 22.3169 34.7085 22.3169C27.2466 22.3169 13.5167 27.5978 14.8811 36.1316C15.5634 40.2717 17.8659 42.3418 21.6182 42.3418C22.5989 42.3418 23.3664 42.2151 23.6222 42.1306C28.8669 39.6803 31.7237 38.5396 34.7085 38.5396C37.6932 38.5396 40.5501 39.6803 45.7948 42.1306C46.0506 42.2151 46.8181 42.3418 47.7988 42.3418ZM34.7085 31.062C41.3176 31.062 42.7247 37.061 40.2516 37.061L29.1653 37.061C26.6923 37.061 28.0994 31.062 34.7085 31.062ZM38.674 34.8219C37.011 32.8363 32.406 32.8363 30.743 34.8219L38.674 34.8219ZM62.5521 8.3333C70.3977 8.3333 78.5419 16.0222 81.5693 21.2185C85.8759 28.5694 88.1358 44.5809 78.3287 48.3831C76.8363 48.9323 75.4292 49.1858 74.1074 49.1858C68.8201 49.1858 66.2617 44.6654 65.6221 42.2573C65.6221 42.1728 65.5795 42.1306 65.5795 42.0461C64.7693 31.4845 64.215 30.5128 55.3886 24.556C55.0902 24.3448 52.1054 21.3453 52.276 17.3741C52.4892 12.7692 57.0516 8.3333 62.5521 8.3333ZM74.1074 46.9467C77.817 46.9467 80.887 44.7921 82.2089 41.0322C84.1276 35.4134 82.3794 27.133 79.6079 22.3592C75.9409 16.0222 64.4708 6.77017 57.6059 12.22C55.6871 13.8254 54.6211 15.5997 54.5785 17.4586C54.4506 20.2046 56.3693 22.3592 56.7531 22.7394C66.0059 29.0341 66.9866 30.6818 67.8394 41.7926C68.0526 42.4686 69.5449 46.9467 74.1074 46.9467ZM70.6962 31.9914C71.5916 29.6256 69.3317 25.6544 66.7307 25.1897L70.6962 31.9914Z" fill="black"/>
<path fill-rule="evenodd" clip-rule="evenodd" d="M45.4642 63.9105C44.1424 72.3598 57.7444 77.6829 65.2916 77.6829C72.7535 77.6829 86.4834 72.402 85.1189 63.8682C84.4367 59.728 82.1342 57.658 78.3819 57.658C77.4012 57.658 76.6337 57.7847 76.3779 57.8692C71.1332 60.3195 68.2764 61.4602 65.2916 61.4602C62.3068 61.4602 59.45 60.3195 54.2053 57.8692C53.9495 57.7847 53.182 57.658 52.2013 57.658C48.449 57.658 46.1891 59.728 45.4642 63.9105ZM65.2916 68.9378C58.6825 68.9378 57.2754 62.9388 59.7485 62.9388H70.8347C73.3078 62.9388 71.9007 68.9378 65.2916 68.9378Z" fill="#D13D0F"/>
<path fill-rule="evenodd" clip-rule="evenodd" d="M54.5358 36.0893C55.8576 27.64 42.2556 22.3169 34.7084 22.3169C27.2465 22.3169 13.5166 27.5977 14.8811 36.1315C15.5633 40.2717 17.8658 42.3418 21.6181 42.3418C22.5988 42.3418 23.3663 42.2151 23.6221 42.1306C28.8668 39.6803 31.7236 38.5396 34.7084 38.5396C37.6932 38.5396 40.55 39.6803 45.7947 42.1306C46.0505 42.2151 46.818 42.3418 47.7987 42.3418C51.551 42.3418 53.8109 40.2717 54.5358 36.0893ZM34.7084 31.0619C41.3175 31.0619 42.7246 37.061 40.2515 37.061L29.1653 37.061C26.6922 37.061 28.0993 31.0619 34.7084 31.0619Z" fill="#D13D0F"/>
<path fill-rule="evenodd" clip-rule="evenodd" d="M61.3262 65.178C62.9891 67.1636 67.5942 67.1636 69.2571 65.178H61.3262Z" fill="#E6E6E6"/>
<path fill-rule="evenodd" clip-rule="evenodd" d="M38.6743 34.822C37.0114 32.8364 32.4063 32.8364 30.7434 34.822L38.6743 34.822Z" fill="#E6E6E6"/>
<path fill-rule="evenodd" clip-rule="evenodd" d="M43.2474 77.2605C33.9946 70.9658 33.0139 69.3182 32.1611 58.2073C31.9479 57.5314 30.4555 53.0532 25.8931 53.0532C22.1835 53.0532 19.1134 55.2078 17.7916 58.9678C15.8728 64.5866 17.621 72.8669 20.3926 77.6408C24.0596 83.9778 35.5296 93.2298 42.3946 87.78C44.3133 86.1746 45.3793 84.4002 45.422 82.5414C45.5499 79.7953 43.6311 77.6408 43.2474 77.2605ZM33.6535 77.0916C31.5641 77.0916 29.3469 75.5707 28.0251 73.2894C24.7845 67.7128 29.219 63.3614 30.4982 65.516L36.0413 75.0215C36.7662 76.3311 35.0179 77.0916 33.6535 77.0916Z" fill="#D13D0F"/>
<path fill-rule="evenodd" clip-rule="evenodd" d="M56.7531 22.7395C66.0059 29.0342 66.9866 30.6818 67.8394 41.7927C68.0526 42.4686 69.545 46.9468 74.1074 46.9468C77.817 46.9468 80.8871 44.7922 82.2089 41.0322C84.1277 35.4134 82.3795 27.1331 79.6079 22.3592C75.9409 16.0222 64.4709 6.77023 57.6059 12.22C55.6871 13.8254 54.6212 15.5998 54.5785 17.4586C54.4506 20.2047 56.3694 22.3592 56.7531 22.7395ZM66.347 22.9084C68.4363 22.9084 70.6536 24.4293 71.9754 26.7106C75.216 32.2872 70.7815 36.6386 69.5023 34.484L63.9592 24.9785C63.2343 23.6689 64.9825 22.9084 66.347 22.9084Z" fill="#D13D0F"/>
<path fill-rule="evenodd" clip-rule="evenodd" d="M33.2695 74.8103L29.304 68.0085C28.4086 70.3744 30.6685 74.3455 33.2695 74.8103Z" fill="#E6E6E6"/>
<path fill-rule="evenodd" clip-rule="evenodd" d="M66.731 25.1895L70.6965 31.9912C71.5919 29.6254 69.332 25.6542 66.731 25.1895Z" fill="#E6E6E6"/>
</svg>
