<svg width="100" height="100" viewBox="0 0 100 100" fill="none" xmlns="http://www.w3.org/2000/svg">
<path d="M19.6094 21.8203L17.5817 24.7091C13.6062 30.381 11.4717 37.1529 11.4712 44.0951C11.4712 50.4598 13.2656 56.6938 16.6457 62.0721C20.0259 67.4504 24.8529 71.752 30.5655 74.4767L53.7883 85.553C60.4369 88.7246 67.7022 90.3698 75.0592 90.3696C78.6809 90.3696 82.1543 88.921 84.7152 86.3424C87.2761 83.7638 88.7148 80.2665 88.7148 76.6198C88.7145 72.9732 87.2756 69.476 84.7147 66.8976L81.1022 63.2602C74.4951 56.6072 70.7833 47.5841 70.7832 38.1757C70.7834 34.4513 70.055 30.7634 68.6397 27.3225C67.2244 23.8817 65.1498 20.7552 62.5344 18.1216C59.919 15.488 56.8141 13.399 53.3969 11.9737C49.9797 10.5484 46.3171 9.81482 42.6183 9.81482C38.1088 9.81547 33.6653 10.9062 29.6614 12.9953C25.6575 15.0844 22.2102 18.1109 19.6094 21.8203Z" fill="#F5846F"/>
<path d="M75.059 84.8142C68.5197 84.805 62.0631 83.343 56.1495 80.5323L32.9268 69.456C29.2541 67.7036 26.0064 65.1636 23.4114 62.0141C20.8165 58.8646 18.937 55.1817 17.9047 51.2236C16.8724 47.2656 16.7124 43.128 17.4357 39.1011C18.159 35.0742 19.7482 31.2552 22.092 27.912L24.1169 25.0245C26.8908 21.0699 30.8427 18.1068 35.4004 16.5642C39.9581 15.0217 44.8851 14.9796 49.4682 16.4442C54.0512 17.9088 58.0524 20.804 60.8925 24.7107C63.7326 28.6174 65.2642 33.3329 65.2656 38.1744C65.2509 43.5651 66.2982 48.9053 68.3469 53.8857C70.3957 58.8661 73.4051 63.388 77.2011 67.1894L80.8137 70.8269C81.9514 71.9729 82.7261 73.4329 83.0398 75.0223C83.3536 76.6116 83.1923 78.2589 82.5764 79.756C81.9605 81.2531 80.9176 82.5326 79.5795 83.433C78.2415 84.3333 76.6683 84.814 75.059 84.8142Z" fill="#D55B55"/>
<path d="M36.2995 45.9257C41.6321 45.9257 45.9549 41.573 45.9549 36.2036C45.9549 30.8342 41.6321 26.4814 36.2995 26.4814C30.9669 26.4814 26.644 30.8342 26.644 36.2036C26.644 41.573 30.9669 45.9257 36.2995 45.9257Z" fill="#F58E71"/>
<path d="M36.2992 40.3701C38.5846 40.3701 40.4372 38.5047 40.4372 36.2035C40.4372 33.9023 38.5846 32.0369 36.2992 32.0369C34.0138 32.0369 32.1611 33.9023 32.1611 36.2035C32.1611 38.5047 34.0138 40.3701 36.2992 40.3701Z" fill="#E6E6E6"/>
<path d="M37.6789 63.981C37.4061 63.981 37.1395 63.8995 36.9127 63.7469C36.6859 63.5943 36.5092 63.3774 36.4048 63.1236C36.3004 62.8699 36.2731 62.5907 36.3263 62.3213C36.3795 62.0519 36.5108 61.8045 36.7037 61.6102L57.3939 40.7771C57.6541 40.5241 58.0025 40.3841 58.3641 40.3873C58.7258 40.3904 59.0718 40.5365 59.3275 40.794C59.5833 41.0515 59.7283 41.3999 59.7315 41.764C59.7346 42.1282 59.5956 42.479 59.3443 42.741L38.6541 63.5741C38.3954 63.8346 38.0447 63.981 37.6789 63.981Z" fill="#CE3045"/>
<path d="M51.4723 69.5365C51.1996 69.5364 50.9329 69.4549 50.7061 69.3023C50.4794 69.1497 50.3026 68.9328 50.1982 68.6791C50.0939 68.4253 50.0666 68.1461 50.1198 67.8767C50.1729 67.6074 50.3043 67.3599 50.4971 67.1657L61.5319 56.0547C61.7921 55.8017 62.1405 55.6617 62.5022 55.6648C62.8638 55.668 63.2098 55.8141 63.4655 56.0716C63.7213 56.3291 63.8663 56.6774 63.8695 57.0416C63.8726 57.4058 63.7336 57.7566 63.4823 58.0185L52.4475 69.1296C52.1889 69.39 51.8381 69.5364 51.4723 69.5365Z" fill="#CE3045"/>
<path d="M62.5075 76.4809C62.2347 76.4809 61.9681 76.3994 61.7413 76.2468C61.5145 76.0942 61.3378 75.8773 61.2334 75.6235C61.129 75.3698 61.1017 75.0906 61.1549 74.8212C61.2081 74.5518 61.3394 74.3044 61.5323 74.1101L68.429 67.1658C68.6892 66.9128 69.0376 66.7728 69.3993 66.7759C69.7609 66.7791 70.1069 66.9252 70.3626 67.1827C70.6184 67.4402 70.7634 67.7885 70.7666 68.1527C70.7697 68.5168 70.6307 68.8677 70.3794 69.1296L63.4827 76.074C63.2241 76.3345 62.8733 76.4809 62.5075 76.4809Z" fill="#CE3045"/>
<path d="M29.8837 75.6405L53.1064 86.7168C59.9432 89.9658 67.4077 91.656 74.9677 91.6667C77.9409 91.6662 80.8471 90.7781 83.3191 89.1146C85.791 87.4512 87.7177 85.0872 88.8555 82.3214C89.9933 79.5556 90.2911 76.5122 89.7114 73.576C89.1316 70.6398 87.7003 67.9425 85.5984 65.8253L81.9845 62.1864C78.8314 59.0282 76.3318 55.2716 74.6302 51.1342C72.9285 46.9968 72.0587 42.5606 72.0711 38.0825C72.0713 31.7654 70.0743 25.6123 66.3694 20.5143C62.6646 15.4163 57.4442 11.6382 51.4644 9.72724C45.4846 7.81623 39.0559 7.87154 33.1094 9.88514C27.1629 11.8988 22.0074 15.7661 18.3896 20.9271L16.3633 23.8159C13.4396 27.9866 11.4571 32.7507 10.5549 37.7742C9.65271 42.7977 9.85255 47.9592 11.1404 52.8968C12.4283 57.8343 14.7731 62.4285 18.0104 66.3574C21.2477 70.2862 25.2992 73.4546 29.8809 75.6405H29.8837ZM18.6172 25.4173L20.642 22.5298C23.9223 17.8512 28.5964 14.3453 33.9876 12.5199C39.3787 10.6945 45.2069 10.6443 50.6282 12.3767C56.0496 14.1091 60.7825 17.5341 64.1417 22.1556C67.5008 26.7772 69.3118 32.3554 69.3124 38.0825C69.2991 42.9256 70.24 47.7234 72.0806 52.1979C73.9212 56.6725 76.625 60.735 80.0355 64.1503L83.6494 67.7891C85.3657 69.518 86.5344 71.7205 87.0077 74.1181C87.481 76.5157 87.2377 79.0008 86.3085 81.2591C85.3792 83.5175 83.8059 85.4477 81.7873 86.8058C79.7687 88.1639 77.3955 88.8888 74.9677 88.889C67.8155 88.8786 60.7537 87.2795 54.2858 84.2057L31.0644 73.1294C26.8459 71.1173 23.1156 68.2006 20.1348 64.5836C17.154 60.9667 14.995 56.737 13.8091 52.1912C12.6232 47.6454 12.439 42.8934 13.2696 38.2683C14.1002 33.6433 15.9253 29.2571 18.6172 25.4173Z" fill="#9B0D0D"/>
<path d="M32.2438 70.6197L55.4679 81.6959C61.5663 84.5939 68.2245 86.1015 74.9678 86.1112C76.8498 86.1106 78.6893 85.5483 80.254 84.4952C81.8186 83.4421 83.038 81.9456 83.7582 80.1949C84.4783 78.4441 84.6668 76.5177 84.2998 74.6591C83.9328 72.8005 83.0268 71.0932 81.6963 69.753L78.0851 66.1114C74.4184 62.4389 71.5113 58.0707 69.5319 53.2596C67.5526 48.4485 66.5404 43.29 66.5538 38.0824C66.5533 32.9452 64.9288 27.9415 61.9157 23.7959C58.9025 19.6503 54.657 16.578 49.794 15.024C44.9311 13.47 39.7031 13.5149 34.8672 15.1523C30.0312 16.7896 25.8385 19.9344 22.896 24.1312L20.8711 27.02C18.4115 30.5289 16.7438 34.5369 15.9848 38.7631C15.2259 42.9894 15.3941 47.3317 16.4776 51.4856C17.5611 55.6395 19.5338 59.5045 22.2573 62.8098C24.9808 66.1151 28.3893 68.7807 32.2438 70.6197ZM23.1249 28.6214L25.1498 25.7326C27.7545 22.0177 31.466 19.234 35.7467 17.7847C40.0274 16.3354 44.6551 16.2957 48.9597 17.6713C53.2643 19.0469 57.0224 21.7665 59.6896 25.4361C62.3568 29.1058 63.7947 33.535 63.7951 38.0824C63.7795 43.6561 64.8622 49.1775 66.9803 54.327C69.0984 59.4765 72.2099 64.1518 76.1347 68.0822L79.7473 71.7196C80.6912 72.6716 81.3337 73.8839 81.5937 75.2034C81.8538 76.5229 81.7196 77.8904 81.2081 79.1332C80.6967 80.3759 79.831 81.4381 78.7203 82.1857C77.6096 82.9333 76.3038 83.3327 74.9678 83.3334C68.6333 83.324 62.3789 81.908 56.6501 79.1862L33.4259 68.11C29.9347 66.4445 26.8475 64.0304 24.3807 61.0368C21.9138 58.0432 20.1271 54.5426 19.1456 50.7803C18.1642 47.018 18.0119 43.0852 18.6993 39.2573C19.3867 35.4295 20.8972 31.7994 23.1249 28.6214Z" fill="#9B0D0D"/>
<path d="M36.2081 47.2226C38.3906 47.2226 40.5241 46.571 42.3387 45.3501C44.1534 44.1292 45.5678 42.3939 46.403 40.3636C47.2382 38.3334 47.4567 36.0993 47.0309 33.944C46.6051 31.7887 45.5542 29.8089 44.0109 28.255C42.4677 26.7011 40.5015 25.6428 38.3609 25.2141C36.2204 24.7854 34.0017 25.0054 31.9853 25.8464C29.969 26.6874 28.2456 28.1115 27.033 29.9387C25.8205 31.7659 25.1733 33.9141 25.1733 36.1116C25.1766 39.0574 26.3403 41.8816 28.409 43.9646C30.4777 46.0476 33.2825 47.2193 36.2081 47.2226ZM36.2081 27.7784C37.845 27.7784 39.4451 28.2671 40.8061 29.1828C42.1671 30.0984 43.2279 31.3999 43.8543 32.9226C44.4807 34.4453 44.6446 36.1209 44.3252 37.7374C44.0059 39.3539 43.2177 40.8387 42.0602 42.0041C40.9028 43.1696 39.4281 43.9632 37.8227 44.2848C36.2173 44.6063 34.5533 44.4413 33.041 43.8106C31.5288 43.1798 30.2362 42.1117 29.3268 40.7413C28.4174 39.3709 27.932 37.7598 27.932 36.1116C27.9342 33.9022 28.8069 31.7839 30.3585 30.2216C31.9101 28.6592 34.0139 27.7806 36.2081 27.7784Z" fill="#9B0D0D"/>
<path d="M36.2078 41.667C37.2991 41.667 38.3658 41.3412 39.2731 40.7308C40.1805 40.1203 40.8876 39.2527 41.3052 38.2375C41.7228 37.2224 41.8321 36.1054 41.6192 35.0277C41.4063 33.9501 40.8808 32.9602 40.1092 32.1832C39.3376 31.4063 38.3545 30.8771 37.2842 30.6628C36.2139 30.4484 35.1046 30.5584 34.0964 30.9789C33.0882 31.3994 32.2265 32.1115 31.6203 33.0251C31.014 33.9387 30.6904 35.0128 30.6904 36.1115C30.6904 37.585 31.2717 38.998 32.3064 40.0399C33.3412 41.0817 34.7445 41.667 36.2078 41.667ZM36.2078 33.3338C36.7534 33.3338 37.2868 33.4967 37.7405 33.8019C38.1941 34.1071 38.5477 34.541 38.7565 35.0485C38.9653 35.5561 39.02 36.1146 38.9135 36.6535C38.8071 37.1923 38.5443 37.6872 38.1585 38.0757C37.7727 38.4642 37.2812 38.7287 36.746 38.8359C36.2109 38.9431 35.6562 38.8881 35.1521 38.6778C34.648 38.4676 34.2172 38.1116 33.9141 37.6548C33.6109 37.198 33.4491 36.6609 33.4491 36.1115C33.4491 35.3748 33.7398 34.6683 34.2571 34.1474C34.7745 33.6264 35.4762 33.3338 36.2078 33.3338Z" fill="#9B0D0D"/>
<path d="M36.6123 63.4823C36.871 63.7427 37.2218 63.8889 37.5876 63.8889C37.9533 63.8889 38.3041 63.7427 38.5628 63.4823L59.253 42.6492C59.5043 42.3872 59.6433 42.0364 59.6401 41.6722C59.637 41.3081 59.4919 40.9597 59.2362 40.7022C58.9805 40.4447 58.6345 40.2986 58.2728 40.2955C57.9112 40.2923 57.5627 40.4323 57.3026 40.6853L36.6123 61.5184C36.3538 61.7789 36.2085 62.1321 36.2085 62.5004C36.2085 62.8686 36.3538 63.2218 36.6123 63.4823Z" fill="#9B0D0D"/>
<path d="M50.4058 69.0378C50.6645 69.2981 51.0153 69.4444 51.381 69.4444C51.7468 69.4444 52.0975 69.2981 52.3562 69.0378L63.391 57.9267C63.6423 57.6648 63.7813 57.314 63.7782 56.9498C63.775 56.5856 63.6299 56.2373 63.3742 55.9798C63.1185 55.7223 62.7725 55.5762 62.4108 55.5731C62.0492 55.5699 61.7008 55.7099 61.4406 55.9629L50.4058 67.0739C50.1472 67.3343 50.002 67.6875 50.002 68.0558C50.002 68.4241 50.1472 68.7773 50.4058 69.0378Z" fill="#9B0D0D"/>
<path d="M61.4405 75.9821C61.6991 76.2425 62.0499 76.3887 62.4157 76.3887C62.7814 76.3887 63.1322 76.2425 63.3909 75.9821L70.2876 69.0377C70.5389 68.7758 70.6779 68.4249 70.6748 68.0608C70.6716 67.6966 70.5266 67.3483 70.2708 67.0908C70.0151 66.8332 69.6691 66.6872 69.3075 66.684C68.9458 66.6808 68.5974 66.8208 68.3372 67.0738L61.4405 74.0182C61.1819 74.2787 61.0366 74.6319 61.0366 75.0002C61.0366 75.3684 61.1819 75.7216 61.4405 75.9821Z" fill="#9B0D0D"/>
</svg>
