<svg width="100" height="100" viewBox="0 0 100 100" fill="none" xmlns="http://www.w3.org/2000/svg">
<path fill-rule="evenodd" clip-rule="evenodd" d="M61.2306 28.0529C63.3465 26.1774 68.5548 22.4264 70.508 21.0624C72.7866 19.3574 70.3452 16.2884 68.7176 16.4589C67.9038 16.6294 67.4155 17.6524 67.4155 17.6524L59.9285 26.6889L61.2306 28.0529ZM86.784 85H13.2163C10.6121 85 8.3335 82.613 8.3335 79.7145V75.793C8.3335 75.111 8.82178 74.5995 9.47282 74.5995H17.6108V47.6604C17.6108 42.5454 21.5171 38.4534 26.3999 38.4534H45.7684L57.6499 26.0069L65.4624 16.4589C65.7879 15.9474 66.6017 14.4129 68.3921 14.2424C69.6942 13.9014 71.4845 14.7539 72.6239 15.9474C73.7632 17.4819 74.577 20.7214 71.8101 22.9379C67.741 25.8364 62.2072 30.0989 61.8817 30.6104C61.5561 30.9514 60.2541 32.6564 62.2072 35.8959C62.8582 36.9189 61.7189 37.7714 61.0679 38.4534H73.6004C78.4832 38.4534 82.3895 42.5454 82.3895 47.6604V74.5995H90.5275C91.1785 74.5995 91.6668 75.111 91.6668 75.793V79.7145C91.6668 82.613 89.3882 85 86.784 85ZM19.8895 74.5995H80.1108V47.6604C80.1108 43.9094 77.1811 40.8404 73.6004 40.8404H58.7892L51.6278 48.1719C49.8374 50.2179 46.5822 49.3654 44.7918 47.4899C43.0015 45.4439 42.5132 42.7159 43.6525 40.8404H39.5835V50.0474C39.5835 55.3329 32.2593 56.3559 30.9572 51.2409C28.0275 52.9459 24.284 50.8999 24.284 47.1489C22.9819 48.0014 21.1916 48.0014 19.8895 47.1489C19.8895 47.3194 19.8895 47.4899 19.8895 47.6604V74.5995ZM10.6121 76.9865V79.7145C10.6121 81.249 11.7515 82.613 13.2163 82.613H86.784C88.2489 82.613 89.3882 81.249 89.3882 79.7145V76.9865H10.6121ZM56.9989 39.1354C57.1616 38.7944 57.4871 38.6239 57.6499 38.4534L59.7658 36.4074C58.4637 33.5089 58.7892 31.2924 59.603 29.7579L58.4637 28.5644L45.7684 41.8634C43.978 43.7389 47.7215 48.5129 50.0002 46.4669L56.9989 39.1354ZM37.3048 40.8404H33.0731V50.0474C33.0731 52.9459 37.3048 52.9459 37.3048 50.0474V40.8404ZM30.7944 40.8404H26.5627V47.3194C26.5627 50.2179 30.7944 50.2179 30.7944 47.3194V40.8404ZM24.284 41.1814C22.6564 41.6929 21.1916 43.0569 20.5405 44.5914C21.8426 46.1259 24.284 45.2734 24.284 43.2274V41.1814ZM75.7163 52.4344C75.0653 52.4344 74.577 51.9229 74.577 51.2409C74.577 48.5129 72.6239 46.4669 70.1825 46.4669C68.7176 46.4669 68.7176 44.0799 70.1825 44.0799C73.9259 44.0799 76.8556 47.3194 76.8556 51.2409C76.8556 51.9229 76.3673 52.4344 75.7163 52.4344Z" fill="#4D4D4D"/>
<path fill-rule="evenodd" clip-rule="evenodd" d="M73.6006 40.8405H58.7894L51.6279 48.172C49.8376 50.218 46.5824 49.3655 44.792 47.49C43.0016 45.444 42.5133 42.716 43.6527 40.8405H39.5837V50.0475C39.5837 55.333 32.2594 56.356 30.9574 51.241C28.0277 52.946 24.2842 50.9 24.2842 47.149C22.9821 48.0015 21.1917 48.0015 19.8896 47.149C19.8896 47.3195 19.8896 47.49 19.8896 47.6605V74.5995H80.111V47.6605C80.111 43.9095 77.1813 40.8405 73.6006 40.8405ZM75.7165 52.4345C75.0654 52.4345 74.5772 51.923 74.5772 51.241C74.5772 48.513 72.624 46.467 70.1826 46.467C68.7178 46.467 68.7178 44.08 70.1826 44.08C73.9261 44.08 76.8558 47.3195 76.8558 51.241C76.8558 51.923 76.3675 52.4345 75.7165 52.4345Z" fill="#FFE600"/>
<path fill-rule="evenodd" clip-rule="evenodd" d="M61.2308 28.0529C63.3467 26.1774 68.555 22.4263 70.5081 21.0623C72.7868 19.3573 70.3454 16.2883 68.7178 16.4588C67.904 16.6293 67.4157 17.6523 67.4157 17.6523L59.9287 26.6889L61.2308 28.0529Z" fill="#99A4AC"/>
<path fill-rule="evenodd" clip-rule="evenodd" d="M59.7656 36.4075C58.4635 33.509 58.789 31.2925 59.6028 29.758L58.4635 28.5645L45.7682 41.8635C43.9778 43.739 47.7213 48.513 49.9999 46.467L56.9986 39.1355C57.1614 38.7945 57.4869 38.624 57.6497 38.4535L59.7656 36.4075Z" fill="#D9F2F2"/>
<path fill-rule="evenodd" clip-rule="evenodd" d="M37.305 50.0475V40.8405H33.0732V50.0475C33.0732 52.946 37.305 52.946 37.305 50.0475Z" fill="#FF700D"/>
<path fill-rule="evenodd" clip-rule="evenodd" d="M30.7943 47.3195V40.8405H26.5625V47.3195C26.5625 50.218 30.7943 50.218 30.7943 47.3195Z" fill="#FF700D"/>
<path fill-rule="evenodd" clip-rule="evenodd" d="M20.5405 44.5914C21.8426 46.1259 24.284 45.2734 24.284 43.2274V41.1814C22.6564 41.6929 21.1916 43.0569 20.5405 44.5914Z" fill="#FF700D"/>
<path fill-rule="evenodd" clip-rule="evenodd" d="M89.3883 76.9865H10.6123V79.7145C10.6123 81.249 11.7516 82.613 13.2165 82.613H86.7842C88.249 82.613 89.3883 81.249 89.3883 79.7145V76.9865Z" fill="#99A4AC"/>
</svg>
