<svg width="100" height="100" viewBox="0 0 100 100" fill="none" xmlns="http://www.w3.org/2000/svg">
<path fill-rule="evenodd" clip-rule="evenodd" d="M85.6927 33.2305C85.7767 34.5501 84.7751 35.5517 83.4555 35.4677C80.684 35.2912 76.642 35.6865 72.5834 36.3006C68.5724 36.9076 64.7275 37.6989 62.4293 38.2386C61.187 38.5303 59.8128 37.7214 59.3599 36.4317C58.9069 35.1421 59.5468 33.8601 60.789 33.5684C63.188 33.005 67.1492 32.1901 71.2905 31.5635C75.3842 30.944 79.8407 30.4783 83.1512 30.6891C84.4708 30.7731 85.6086 31.911 85.6927 33.2305Z" fill="#77A90D"/>
<path fill-rule="evenodd" clip-rule="evenodd" d="M65.0332 16.4135C66.1215 15.8066 67.6125 16.267 68.3635 17.4417C70.8365 21.3103 73.012 31.0797 67.1643 43.6541C66.6363 44.7895 65.2256 45.1608 64.0133 44.4832C62.8011 43.8057 62.2465 42.336 62.7745 41.2005C68.1747 29.5883 65.687 21.6175 64.4224 19.6393C63.6715 18.4646 63.9449 17.0203 65.0332 16.4135Z" fill="#C1EA1D"/>
<path fill-rule="evenodd" clip-rule="evenodd" d="M80.4655 21.5401C81.458 22.5326 81.5543 24.0454 80.6807 24.9191L67.2346 38.3652C66.3609 39.2388 64.8481 39.1425 63.8556 38.15C62.8631 37.1575 62.7668 35.6447 63.6405 34.771L77.0866 21.3249C77.9602 20.4513 79.473 20.5476 80.4655 21.5401Z" fill="#9AD51C"/>
<path d="M61.768 58.2085C48.8815 71.0949 25.8177 81.5793 23.1221 78.8837C20.4266 76.1881 30.9109 53.1243 43.7974 40.2379C56.6838 27.3515 62.5998 25.0296 69.788 32.2178C76.9763 39.4061 74.6544 45.3221 61.768 58.2085Z" fill="#FF8718"/>
<path fill-rule="evenodd" clip-rule="evenodd" d="M23.6519 81.577C23.0572 81.4505 22.2379 81.1635 21.5401 80.4657C20.8422 79.7678 20.5553 78.9486 20.4287 78.3539C20.298 77.7396 20.2838 77.1138 20.3178 76.537C20.386 75.3797 20.6751 74.0268 21.0981 72.586C21.9516 69.6789 23.4699 66.0182 25.4502 62.0963C29.4087 54.2567 35.365 45.0761 42.0001 38.4409C48.4038 32.0372 53.4161 27.8782 57.9385 26.4124C60.302 25.6463 62.6392 25.5744 64.9981 26.3645C67.3108 27.1392 69.3929 28.6591 71.3698 30.636C73.3466 32.6129 74.8666 34.6949 75.6412 37.0077C76.4314 39.3665 76.3595 41.7037 75.5934 44.0673C74.1275 48.5896 69.9685 53.6019 63.5649 60.0056C56.9297 66.6408 47.749 72.5971 39.9095 76.5556C35.9875 78.5359 32.3269 80.0541 29.4197 80.9076C27.9789 81.3306 26.6261 81.6197 25.4687 81.6879C24.8919 81.722 24.2661 81.7078 23.6519 81.577ZM23.122 78.8838C25.8176 81.5794 48.8814 71.095 61.7678 58.2085C74.6542 45.3221 76.9761 39.4061 69.7879 32.2179C62.5996 25.0297 56.6836 27.3515 43.7972 40.238C30.9108 53.1244 20.4264 76.1882 23.122 78.8838Z" fill="#A44703"/>
<path d="M66.6749 32.7295C68.4324 35.6152 66.5928 39.6602 62.5661 41.7643C58.5394 43.8684 39.9991 54.9687 38.2416 52.0831C36.4842 49.1974 52.1752 33.4184 56.2018 31.3143C60.2285 29.2102 64.9175 29.8438 66.6749 32.7295Z" fill="#FFA858"/>
<path fill-rule="evenodd" clip-rule="evenodd" d="M22.9082 75.5033C30.3878 74.0345 47.6648 65.1232 58.1736 54.6144C69.9108 42.8772 72.8838 36.9226 67.8892 30.5223C68.5158 31.0114 69.1467 31.5768 69.7878 32.2178C76.976 39.4061 74.6541 45.3221 61.7677 58.2085C48.8813 71.0949 25.8175 81.5793 23.1219 78.8837C22.6245 78.3864 22.5759 77.1956 22.9082 75.5033Z" fill="#EA6E1B"/>
<path fill-rule="evenodd" clip-rule="evenodd" d="M51.653 31.4837C52.0898 31.0469 52.8462 31.095 53.3425 31.5913L58.2844 36.5332C58.7806 37.0294 58.8288 37.7858 58.392 38.2227C57.9552 38.6595 57.1987 38.6113 56.7025 38.1151L51.7606 33.1732C51.2643 32.6769 51.2162 31.9205 51.653 31.4837Z" fill="#CE5F14"/>
<path fill-rule="evenodd" clip-rule="evenodd" d="M57.0253 43.1835C57.4621 42.7467 58.2185 42.7948 58.7147 43.2911L63.6566 48.233C64.1529 48.7292 64.2011 49.4857 63.7642 49.9225C63.3274 50.3593 62.571 50.3111 62.0748 49.8149L57.1328 44.873C56.6366 44.3767 56.5884 43.6203 57.0253 43.1835Z" fill="#CE5F14"/>
<path fill-rule="evenodd" clip-rule="evenodd" d="M66.8394 38.7606C67.2762 38.3237 68.0326 38.3719 68.5288 38.8682L73.4708 43.8101C73.967 44.3063 74.0152 45.0627 73.5783 45.4995C73.1415 45.9364 72.3851 45.8882 71.8889 45.392L66.947 40.4501C66.4507 39.9538 66.4025 39.1974 66.8394 38.7606Z" fill="#CE5F14"/>
<path fill-rule="evenodd" clip-rule="evenodd" d="M60.2269 27.4024C60.6637 26.9656 61.4201 27.0138 61.9164 27.51L66.8583 32.4519C67.3545 32.9482 67.4027 33.7046 66.9659 34.1414C66.5291 34.5782 65.7727 34.5301 65.2764 34.0338L60.3345 29.0919C59.8382 28.5957 59.7901 27.8393 60.2269 27.4024Z" fill="#CE5F14"/>
<path fill-rule="evenodd" clip-rule="evenodd" d="M54.8676 48.9353C55.3044 48.4985 56.0608 48.5466 56.5571 49.0429L61.499 53.9848C61.9952 54.481 62.0434 55.2375 61.6066 55.6743C61.1697 56.1111 60.4133 56.0629 59.9171 55.5667L54.9752 50.6248C54.4789 50.1285 54.4308 49.3721 54.8676 48.9353Z" fill="#CE5F14"/>
<path fill-rule="evenodd" clip-rule="evenodd" d="M44.8762 37.362C45.313 36.9252 46.0694 36.9733 46.5656 37.4696L51.5076 42.4115C52.0038 42.9077 52.052 43.6641 51.6151 44.101C51.1783 44.5378 50.4219 44.4896 49.9257 43.9934L44.9837 39.0515C44.4875 38.5552 44.4393 37.7988 44.8762 37.362Z" fill="#CE5F14"/>
<path fill-rule="evenodd" clip-rule="evenodd" d="M46.5278 50.0869C46.9646 49.65 47.721 49.6982 48.2173 50.1944L53.1592 55.1364C53.6554 55.6326 53.7036 56.389 53.2668 56.8258C52.8299 57.2627 52.0735 57.2145 51.5773 56.7183L46.6354 51.7763C46.1391 51.2801 46.0909 50.5237 46.5278 50.0869Z" fill="#CE5F14"/>
<path fill-rule="evenodd" clip-rule="evenodd" d="M43.9019 61.698C44.3387 61.2612 45.0951 61.3094 45.5914 61.8056L50.5333 66.7475C51.0295 67.2438 51.0777 68.0002 50.6409 68.437C50.204 68.8738 49.4476 68.8257 48.9514 68.3294L44.0095 63.3875C43.5132 62.8913 43.4651 62.1349 43.9019 61.698Z" fill="#CE5F14"/>
<path fill-rule="evenodd" clip-rule="evenodd" d="M35.4924 48.5428C35.9292 48.106 36.6856 48.1542 37.1819 48.6504L42.1238 53.5923C42.62 54.0886 42.6682 54.845 42.2314 55.2818C41.7945 55.7186 41.0381 55.6705 40.5419 55.1742L35.6 50.2323C35.1037 49.7361 35.0556 48.9797 35.4924 48.5428Z" fill="#CE5F14"/>
<path fill-rule="evenodd" clip-rule="evenodd" d="M30.0633 55.7689C30.5002 55.3321 31.2566 55.3803 31.7528 55.8765L36.6947 60.8184C37.191 61.3147 37.2391 62.0711 36.8023 62.5079C36.3655 62.9447 35.6091 62.8966 35.1128 62.4003L30.1709 57.4584C29.6747 56.9622 29.6265 56.2058 30.0633 55.7689Z" fill="#CE5F14"/>
<path fill-rule="evenodd" clip-rule="evenodd" d="M34.1954 67.8105C34.6322 67.3736 35.3886 67.4218 35.8848 67.918L40.8268 72.8599C41.323 73.3562 41.3712 74.1126 40.9343 74.5494C40.4975 74.9863 39.7411 74.9381 39.2449 74.4418L34.303 69.4999C33.8067 69.0037 33.7585 68.2473 34.1954 67.8105Z" fill="#CE5F14"/>
<path fill-rule="evenodd" clip-rule="evenodd" d="M24.8495 66.374C25.2863 65.9372 26.0427 65.9853 26.5389 66.4816L31.4808 71.4235C31.9771 71.9197 32.0253 72.6762 31.5884 73.113C31.1516 73.5498 30.3952 73.5016 29.899 73.0054L24.957 68.0635C24.4608 67.5672 24.4126 66.8108 24.8495 66.374Z" fill="#CE5F14"/>
<path fill-rule="evenodd" clip-rule="evenodd" d="M21.9008 72.9167C22.3377 72.4799 23.0941 72.5281 23.5903 73.0243L28.5322 77.9662C29.0285 78.4625 29.0766 79.2189 28.6398 79.6557C28.203 80.0926 27.4466 80.0444 26.9503 79.5481L22.0084 74.6062C21.5122 74.11 21.464 73.3536 21.9008 72.9167Z" fill="#CE5F14"/>
<path fill-rule="evenodd" clip-rule="evenodd" d="M62.1198 36.5867L62.1016 36.5893L62.0404 36.598C61.9863 36.6057 61.907 36.6172 61.8093 36.6319C61.613 36.6614 61.3462 36.7029 61.061 36.7516C60.7734 36.8008 60.481 36.8548 60.2297 36.9087C60.1043 36.9356 59.9991 36.9604 59.9157 36.9822C59.8353 37.0032 59.7984 37.0155 59.7935 37.0171C59.793 37.0173 59.7933 37.0172 59.7935 37.0171C58.6103 37.4524 57.1722 36.7932 56.5822 35.5446C55.9921 34.2961 56.4729 32.9311 57.6562 32.4959C58.2207 32.2882 59.1236 32.1238 59.6849 32.0279C60.0075 31.9728 60.3052 31.9265 60.5215 31.894C60.6301 31.8777 60.7191 31.8648 60.7817 31.8558L60.8552 31.8453L60.8832 31.8414C60.8833 31.8414 60.8842 31.8413 61.502 34.214L60.8832 31.8414C62.1606 31.665 63.4739 32.5842 63.815 33.8946C64.1562 35.2049 63.3971 36.4102 62.1198 36.5867Z" fill="white"/>
</svg>
