<svg width="120" height="120" viewBox="0 0 120 120" fill="none" xmlns="http://www.w3.org/2000/svg">
<path fill-rule="evenodd" clip-rule="evenodd" d="M72.0578 16.3572C73.0341 17.3335 73.0341 18.9165 72.0578 19.8928C70.0072 21.9434 67.4706 25.4497 65.0747 29.1421C62.7069 32.7911 60.5829 36.4546 59.3598 38.6971C58.6986 39.9093 57.18 40.3559 55.9679 39.6947C54.7558 39.0336 54.3091 37.515 54.9703 36.3029C56.2471 33.962 58.4356 30.188 60.8803 26.4204C63.2969 22.6962 66.0729 18.8066 68.5223 16.3572C69.4986 15.3809 71.0815 15.3809 72.0578 16.3572Z" fill="#77A90D"/>
<path fill-rule="evenodd" clip-rule="evenodd" d="M45.9898 19.3936C46.3247 18.0542 47.682 17.2398 49.0215 17.5746C53.4326 18.6774 61.7412 24.678 66.4202 39.235C66.8427 40.5494 66.1196 41.9575 64.8052 42.3801C63.4907 42.8026 62.0826 42.0795 61.6601 40.765C57.3391 27.3219 50.0643 22.9892 47.8088 22.4253C46.4693 22.0905 45.6549 20.7331 45.9898 19.3936Z" fill="#C1EA1D"/>
<path fill-rule="evenodd" clip-rule="evenodd" d="M60.29 11.25C61.6708 11.25 62.79 12.3693 62.79 13.75V35C62.79 36.3807 61.6708 37.5 60.29 37.5C58.9093 37.5 57.79 36.3807 57.79 35V13.75C57.79 12.3693 58.9093 11.25 60.29 11.25Z" fill="#9AD51C"/>
<path d="M72.79 55C72.79 75.3655 64.04 101.875 60.29 101.875C56.54 101.875 47.79 75.3655 47.79 55C47.79 34.6345 50.29 28.125 60.29 28.125C70.29 28.125 72.79 34.6345 72.79 55Z" fill="#FF8718"/>
<path fill-rule="evenodd" clip-rule="evenodd" d="M62.532 103.585C62.0303 103.954 61.2608 104.375 60.29 104.375C59.3192 104.375 58.5498 103.954 58.0481 103.585C57.5299 103.202 57.0847 102.719 56.7072 102.236C55.9496 101.268 55.2097 99.9706 54.5017 98.4978C53.0732 95.5262 51.583 91.4339 50.2324 86.7699C47.5329 77.4472 45.29 65.4861 45.29 55C45.29 44.8797 45.8836 37.6327 48.0096 32.9008C49.1208 30.4278 50.6965 28.5242 52.8868 27.2846C55.0344 26.0692 57.5399 25.625 60.29 25.625C63.0402 25.625 65.5457 26.0692 67.6932 27.2846C69.8836 28.5242 71.4593 30.4278 72.5704 32.9008C74.6965 37.6327 75.29 44.8797 75.29 55C75.29 65.4861 73.0472 77.4472 70.3476 86.7699C68.9971 91.4339 67.5069 95.5262 66.0784 98.4978C65.3704 99.9706 64.6305 101.268 63.8729 102.236C63.4953 102.719 63.0502 103.202 62.532 103.585ZM60.29 101.875C64.04 101.875 72.79 75.3655 72.79 55C72.79 34.6345 70.29 28.125 60.29 28.125C50.29 28.125 47.79 34.6345 47.79 55C47.79 75.3655 56.54 101.875 60.29 101.875Z" fill="#A44703"/>
<path d="M58.4806 30.9892C61.7103 31.8807 63.2443 36.5307 61.907 41.3752C60.5697 46.2197 55.3946 69.6415 52.1649 68.75C48.9353 67.8584 48.8741 42.9912 50.2114 38.1467C51.5487 33.3022 55.2509 30.0977 58.4806 30.9892Z" fill="#FFA858"/>
<path fill-rule="evenodd" clip-rule="evenodd" d="M57.79 99.3727C61.9711 92.3017 67.79 71.6079 67.79 55C67.79 36.4507 65.7161 29.3962 57.79 28.2855C58.5661 28.1768 59.3982 28.125 60.29 28.125C70.29 28.125 72.79 34.6345 72.79 55C72.79 75.3655 64.04 101.875 60.29 101.875C59.5981 101.875 58.736 100.973 57.79 99.3727Z" fill="#EA6E1B"/>
<path fill-rule="evenodd" clip-rule="evenodd" d="M47.165 41.875C47.165 41.1846 47.7247 40.625 48.415 40.625H55.29C55.9804 40.625 56.54 41.1846 56.54 41.875C56.54 42.5654 55.9804 43.125 55.29 43.125H48.415C47.7247 43.125 47.165 42.5654 47.165 41.875Z" fill="#CE5F14"/>
<path fill-rule="evenodd" clip-rule="evenodd" d="M59.04 46.875C59.04 46.1846 59.5997 45.625 60.29 45.625H67.165C67.8554 45.625 68.415 46.1846 68.415 46.875C68.415 47.5654 67.8554 48.125 67.165 48.125H60.29C59.5997 48.125 59.04 47.5654 59.04 46.875Z" fill="#CE5F14"/>
<path fill-rule="evenodd" clip-rule="evenodd" d="M62.79 35.625C62.79 34.9346 63.3497 34.375 64.04 34.375H70.915C71.6054 34.375 72.165 34.9346 72.165 35.625C72.165 36.3154 71.6054 36.875 70.915 36.875H64.04C63.3497 36.875 62.79 36.3154 62.79 35.625Z" fill="#CE5F14"/>
<path fill-rule="evenodd" clip-rule="evenodd" d="M50.29 31.875C50.29 31.1846 50.8497 30.625 51.54 30.625H58.415C59.1054 30.625 59.665 31.1846 59.665 31.875C59.665 32.5654 59.1054 33.125 58.415 33.125H51.54C50.8497 33.125 50.29 32.5654 50.29 31.875Z" fill="#CE5F14"/>
<path fill-rule="evenodd" clip-rule="evenodd" d="M61.54 53.125C61.54 52.4346 62.0997 51.875 62.79 51.875H69.665C70.3554 51.875 70.915 52.4346 70.915 53.125C70.915 53.8154 70.3554 54.375 69.665 54.375H62.79C62.0997 54.375 61.54 53.8154 61.54 53.125Z" fill="#CE5F14"/>
<path fill-rule="evenodd" clip-rule="evenodd" d="M46.54 51.875C46.54 51.1846 47.0997 50.625 47.79 50.625H54.665C55.3554 50.625 55.915 51.1846 55.915 51.875C55.915 52.5654 55.3554 53.125 54.665 53.125H47.79C47.0997 53.125 46.54 52.5654 46.54 51.875Z" fill="#CE5F14"/>
<path fill-rule="evenodd" clip-rule="evenodd" d="M56.54 60.625C56.54 59.9346 57.0997 59.375 57.79 59.375H64.665C65.3554 59.375 65.915 59.9346 65.915 60.625C65.915 61.3154 65.3554 61.875 64.665 61.875H57.79C57.0997 61.875 56.54 61.3154 56.54 60.625Z" fill="#CE5F14"/>
<path fill-rule="evenodd" clip-rule="evenodd" d="M62.79 71.875C62.79 71.1846 63.3497 70.625 64.04 70.625H70.915C71.6054 70.625 72.165 71.1846 72.165 71.875C72.165 72.5654 71.6054 73.125 70.915 73.125H64.04C63.3497 73.125 62.79 72.5654 62.79 71.875Z" fill="#CE5F14"/>
<path fill-rule="evenodd" clip-rule="evenodd" d="M47.79 68.125C47.79 67.4346 48.3497 66.875 49.04 66.875H55.915C56.6054 66.875 57.165 67.4346 57.165 68.125C57.165 68.8154 56.6054 69.375 55.915 69.375H49.04C48.3497 69.375 47.79 68.8154 47.79 68.125Z" fill="#CE5F14"/>
<path fill-rule="evenodd" clip-rule="evenodd" d="M49.04 78.125C49.04 77.4346 49.5997 76.875 50.29 76.875H57.165C57.8554 76.875 58.415 77.4346 58.415 78.125C58.415 78.8154 57.8554 79.375 57.165 79.375H50.29C49.5997 79.375 49.04 78.8154 49.04 78.125Z" fill="#CE5F14"/>
<path fill-rule="evenodd" clip-rule="evenodd" d="M60.29 84.375C60.29 83.6846 60.8497 83.125 61.54 83.125H68.415C69.1054 83.125 69.665 83.6846 69.665 84.375C69.665 85.0654 69.1054 85.625 68.415 85.625H61.54C60.8497 85.625 60.29 85.0654 60.29 84.375Z" fill="#CE5F14"/>
<path fill-rule="evenodd" clip-rule="evenodd" d="M52.79 90.625C52.79 89.9346 53.3497 89.375 54.04 89.375H60.915C61.6054 89.375 62.165 89.9346 62.165 90.625C62.165 91.3154 61.6054 91.875 60.915 91.875H54.04C53.3497 91.875 52.79 91.3154 52.79 90.625Z" fill="#CE5F14"/>
<path fill-rule="evenodd" clip-rule="evenodd" d="M55.29 98.125C55.29 97.4346 55.8497 96.875 56.54 96.875H63.415C64.1054 96.875 64.665 97.4346 64.665 98.125C64.665 98.8154 64.1054 99.375 63.415 99.375H56.54C55.8497 99.375 55.29 98.8154 55.29 98.125Z" fill="#CE5F14"/>
<path fill-rule="evenodd" clip-rule="evenodd" d="M57.9951 37.6367L57.9843 37.653L57.9478 37.7083C57.9155 37.7572 57.8684 37.8289 57.8106 37.9178C57.6946 38.0961 57.5379 38.3398 57.3734 38.6036C57.2075 38.8698 57.0418 39.1435 56.9044 39.3847C56.8359 39.505 56.7799 39.6077 56.7371 39.6908C56.6958 39.771 56.6787 39.8099 56.6765 39.815C56.6762 39.8155 56.6764 39.8152 56.6765 39.815C56.1561 41.0939 54.6974 41.7093 53.4184 41.189C52.1395 40.6687 51.5245 39.2101 52.0449 37.9312C52.2931 37.3211 52.8067 36.4777 53.1305 35.9584C53.3166 35.6599 53.4914 35.3881 53.6193 35.1915C53.6835 35.0928 53.7364 35.0122 53.7737 34.9557L53.8175 34.8894L53.8343 34.8641C53.8343 34.864 53.8349 34.8632 55.915 36.25L53.8343 34.8641C54.6002 33.7153 56.1529 33.4039 57.3018 34.1698C58.4505 34.9357 58.7608 36.4879 57.9951 37.6367Z" fill="white"/>
</svg>
