<svg width="100" height="100" viewBox="0 0 100 100" fill="none" xmlns="http://www.w3.org/2000/svg">
<path d="M50.0001 80.4283C71.8709 80.4283 89.6007 72.3 89.6007 62.2731V57.2413H10.3994V62.2731C10.3994 72.3 28.1292 80.4283 50.0001 80.4283Z" fill="#93481C"/>
<path fill-rule="evenodd" clip-rule="evenodd" d="M8.3335 57.2413C8.3335 56.0971 9.25848 55.1696 10.3995 55.1696H89.6008C90.7418 55.1696 91.6668 56.0971 91.6668 57.2413V62.2731C91.6668 68.5921 86.1715 73.6434 78.8611 76.9949C71.3684 80.4299 61.1625 82.5 50.0002 82.5C38.8378 82.5 28.6319 80.4299 21.1392 76.9949C13.8288 73.6434 8.3335 68.5921 8.3335 62.2731V57.2413ZM89.6008 62.2731C89.6008 72.2999 71.871 80.4283 50.0002 80.4283C28.1293 80.4283 10.3995 72.2999 10.3995 62.2731V57.2413H89.6008V62.2731Z" fill="#663213"/>
<path fill-rule="evenodd" clip-rule="evenodd" d="M15.9553 70.5957C16.2718 70.1196 16.9132 69.991 17.3879 70.3084C18.4688 71.031 21.1614 72.7059 23.3012 73.654C23.8231 73.8853 24.0592 74.4969 23.8286 75.0202C23.598 75.5435 22.9881 75.7802 22.4662 75.549C20.1642 74.529 17.356 72.777 16.2418 72.0321C15.7671 71.7148 15.6389 71.0717 15.9553 70.5957Z" fill="#B66131"/>
<path d="M89.6007 57.9213C89.6007 67.9482 71.8709 76.0765 50.0001 76.0765C28.1292 76.0765 10.3994 67.9482 10.3994 57.9213C10.3994 47.8945 28.1292 39.7661 50.0001 39.7661C71.8709 39.7661 89.6007 47.8945 89.6007 57.9213Z" fill="#A75729"/>
<path fill-rule="evenodd" clip-rule="evenodd" d="M78.8611 72.6431C71.3684 76.0782 61.1625 78.1482 50.0002 78.1482C38.8378 78.1482 28.6319 76.0782 21.1392 72.6431C13.8288 69.2916 8.3335 64.2403 8.3335 57.9213C8.3335 51.6023 13.8288 46.551 21.1392 43.1995C28.6319 39.7644 38.8378 37.6943 50.0002 37.6943C61.1625 37.6943 71.3684 39.7644 78.8611 43.1995C86.1715 46.551 91.6668 51.6023 91.6668 57.9213C91.6668 64.2403 86.1715 69.2916 78.8611 72.6431ZM50.0002 76.0765C71.871 76.0765 89.6008 67.9481 89.6008 57.9213C89.6008 47.8944 71.871 39.7661 50.0002 39.7661C28.1293 39.7661 10.3995 47.8944 10.3995 57.9213C10.3995 67.9481 28.1293 76.0765 50.0002 76.0765Z" fill="#663213"/>
<path d="M86.0261 55.2319C86.0261 63.2836 70.8506 69.8108 52.1307 69.8108C33.4108 69.8108 18.2354 63.2836 18.2354 55.2319C18.2354 47.1803 33.4108 40.6531 52.1307 40.6531C70.8506 40.6531 86.0261 47.1803 86.0261 55.2319Z" fill="#8E471F"/>
<path fill-rule="evenodd" clip-rule="evenodd" d="M15.0132 63.1178C15.4093 62.7061 16.0632 62.6943 16.4738 63.0915C18.2534 64.813 24.0424 68.8265 32.3541 70.3661C32.9152 70.47 33.2859 71.0103 33.1823 71.5728C33.0787 72.1354 32.5399 72.5072 31.9789 72.4033C23.2569 70.7878 17.1024 66.5782 15.0394 64.5825C14.6288 64.1853 14.6171 63.5295 15.0132 63.1178Z" fill="#E97D3F"/>
<path d="M22.7749 33.7377L54.3917 32.8994V53.0957H23.1549L22.7749 33.7377Z" fill="#FBA423"/>
<path fill-rule="evenodd" clip-rule="evenodd" d="M55.8332 31.4152C56.2326 31.8052 56.4578 32.3404 56.4578 32.8994V53.0956C56.4578 54.2398 55.5328 55.1673 54.3918 55.1673H23.155C22.0298 55.1673 21.1115 54.2645 21.0894 53.1364L20.7094 33.7785C20.687 32.64 21.5852 31.6968 22.7204 31.6667L54.3372 30.8284C54.8944 30.8136 55.4339 31.0252 55.8332 31.4152ZM23.155 53.0956L22.775 33.7377L54.3918 32.8994V53.0956H23.155Z" fill="#C88607"/>
<path d="M27.5971 38.6654C27.5971 39.2733 26.9033 39.766 26.0475 39.766C25.1918 39.766 24.498 39.2733 24.498 38.6654C24.498 38.0576 25.1918 37.5648 26.0475 37.5648C26.9033 37.5648 27.5971 38.0576 27.5971 38.6654Z" fill="#C87903"/>
<path d="M38.5834 38.0828C38.5834 38.6906 37.8896 39.1834 37.0339 39.1834C36.1781 39.1834 35.4844 38.6906 35.4844 38.0828C35.4844 37.4749 36.1781 36.9822 37.0339 36.9822C37.8896 36.9822 38.5834 37.4749 38.5834 38.0828Z" fill="#C87903"/>
<path d="M42.1342 48.8945C42.1342 49.5024 41.4404 49.9952 40.5847 49.9952C39.7289 49.9952 39.0352 49.5024 39.0352 48.8945C39.0352 48.2867 39.7289 47.7939 40.5847 47.7939C41.4404 47.7939 42.1342 48.2867 42.1342 48.8945Z" fill="#C87903"/>
<path d="M33.3065 41.7941C33.3065 42.6256 32.3576 43.2996 31.187 43.2996C30.0163 43.2996 29.0674 42.6256 29.0674 41.7941C29.0674 40.9626 30.0163 40.2886 31.187 40.2886C32.3576 40.2886 33.3065 40.9626 33.3065 41.7941Z" fill="#C87903"/>
<path d="M41.764 43.4888C41.764 44.3203 40.8151 44.9943 39.6445 44.9943C38.4739 44.9943 37.5249 44.3203 37.5249 43.4888C37.5249 42.6573 38.4739 41.9833 39.6445 41.9833C40.8151 41.9833 41.764 42.6573 41.764 43.4888Z" fill="#C87903"/>
<path d="M30.2865 46.8794C30.2865 47.7109 29.3375 48.3849 28.1669 48.3849C26.9963 48.3849 26.0474 47.7109 26.0474 46.8794C26.0474 46.0479 26.9963 45.3739 28.1669 45.3739C29.3375 45.3739 30.2865 46.0479 30.2865 46.8794Z" fill="#C87903"/>
<path d="M34.8994 46.1673C34.8994 46.6054 34.3994 46.9606 33.7825 46.9606C33.1656 46.9606 32.6655 46.6054 32.6655 46.1673C32.6655 45.7291 33.1656 45.3739 33.7825 45.3739C34.3994 45.3739 34.8994 45.7291 34.8994 46.1673Z" fill="#C87903"/>
<path d="M37.7183 50.4402C37.7183 50.8784 37.2182 51.2336 36.6013 51.2336C35.9845 51.2336 35.4844 50.8784 35.4844 50.4402C35.4844 50.0021 35.9845 49.6469 36.6013 49.6469C37.2182 49.6469 37.7183 50.0021 37.7183 50.4402Z" fill="#C87903"/>
<path d="M32.1665 49.9953C32.1665 50.4334 31.6664 50.7886 31.0496 50.7886C30.4327 50.7886 29.9326 50.4334 29.9326 49.9953C29.9326 49.5571 30.4327 49.2019 31.0496 49.2019C31.6664 49.2019 32.1665 49.5571 32.1665 49.9953Z" fill="#C87903"/>
<path d="M44.3682 37.7755C44.3682 38.2137 43.8681 38.5689 43.2512 38.5689C42.6344 38.5689 42.1343 38.2137 42.1343 37.7755C42.1343 37.3374 42.6344 36.9822 43.2512 36.9822C43.8681 36.9822 44.3682 37.3374 44.3682 37.7755Z" fill="#C87903"/>
<path d="M67.975 62.8968C59.283 66.2733 47.3869 64.958 42.5254 63.8783V43.1678L80.1853 31.709L79.2316 53.9648C79.1011 55.5352 76.6671 59.5203 67.975 62.8968Z" fill="#FBA423"/>
<path fill-rule="evenodd" clip-rule="evenodd" d="M42.0787 65.9011C41.1328 65.691 40.4595 64.85 40.4595 63.8784V43.1679C40.4595 42.2554 41.0548 41.4504 41.9256 41.1854L79.5855 29.7266C80.2265 29.5316 80.922 29.6603 81.4514 30.0719C81.9807 30.4835 82.2782 31.1269 82.2495 31.798L81.2958 54.0538C81.2946 54.0815 81.2928 54.1092 81.2906 54.1369C81.1644 55.6554 80.1092 57.4892 78.2297 59.2624C76.2814 61.1006 73.2538 63.068 68.7214 64.8287C64.0319 66.6504 58.5912 67.1732 53.7954 67.1304C48.9812 67.0873 44.6483 66.4718 42.0787 65.9011ZM79.2317 53.9648C79.1012 55.5353 76.6671 59.5204 67.9751 62.8969C59.2831 66.2734 47.387 64.9581 42.5255 63.8784V43.1679L80.1854 31.7091L79.2317 53.9648Z" fill="#C88607"/>
<path d="M79.2317 53.9648C79.1012 55.5352 76.6671 59.5203 67.9751 62.8968V37.699L80.1853 31.709L79.2317 53.9648Z" fill="#EA9517"/>
<path d="M42.5254 63.8784V43.1678L53.0233 39.9736V65.0463C48.6754 64.9491 44.8181 64.3875 42.5254 63.8784Z" fill="#FFB547"/>
<path fill-rule="evenodd" clip-rule="evenodd" d="M44.8997 46.489C45.4702 46.489 45.9327 46.9528 45.9327 47.5249V57.495C45.9327 58.0671 45.4702 58.5309 44.8997 58.5309C44.3292 58.5309 43.8667 58.0671 43.8667 57.495V47.5249C43.8667 46.9528 44.3292 46.489 44.8997 46.489Z" fill="#FFD595"/>
<path d="M48.5929 19.6108C31.3654 20.4746 24.2526 29.1317 22.8496 33.3524L53.2913 32.0764L42.6101 42.7307C46.917 43.2215 62.2965 44.2475 71.2039 41.2047C80.1113 38.1619 85.0055 30.1133 73.3574 24.5185C64.0389 20.0427 52.965 19.3818 48.5929 19.6108Z" fill="#FBC12D"/>
<path fill-rule="evenodd" clip-rule="evenodd" d="M21.1993 34.5986C20.7906 34.0544 20.6749 33.3436 20.8897 32.6973C22.6151 27.5069 30.5927 18.4398 48.4875 17.5418C53.0719 17.3021 64.5196 17.9764 74.2499 22.6501C77.3583 24.1431 79.5957 25.9061 80.9148 27.9214C82.2762 30.0013 82.5852 32.248 81.9755 34.3878C80.8188 38.4475 76.5763 41.5582 71.8702 43.1658C67.0921 44.798 60.7472 45.3014 55.2053 45.3644C49.6156 45.428 44.608 45.0435 42.3769 44.7892C41.5878 44.6993 40.9199 44.1637 40.6589 43.4115C40.3979 42.6593 40.5901 41.8236 41.1532 41.262L48.0634 34.3691L22.936 35.4223C22.2572 35.4508 21.6079 35.1428 21.1993 34.5986ZM53.2914 32.0764L42.6102 42.7308C43.2675 42.8057 44.1827 42.893 45.2934 42.9765C51.4606 43.4399 63.656 43.7832 71.204 41.2048C80.1114 38.162 85.0055 30.1133 73.3574 24.5186C64.039 20.0427 52.9651 19.3818 48.593 19.6108C33.9042 20.3473 26.5686 26.7496 23.856 31.2367C23.3872 32.0122 23.0565 32.7305 22.8497 33.3524L53.2914 32.0764Z" fill="#C88607"/>
<path fill-rule="evenodd" clip-rule="evenodd" d="M52.0661 30.1638C52.08 30.7357 51.6289 31.2107 51.0586 31.2246L27.235 31.8073C26.6646 31.8212 26.191 31.3689 26.1771 30.797C26.1632 30.2251 26.6142 29.7501 27.1846 29.7362L51.0082 29.1535C51.5785 29.1396 52.0521 29.5919 52.0661 30.1638Z" fill="#FFDA7B"/>
<path fill-rule="evenodd" clip-rule="evenodd" d="M74.0416 37.8643C74.2001 38.4139 73.8844 38.9883 73.3364 39.1473C64.9709 41.5742 52.8642 41.9603 47.849 41.543C47.2805 41.4957 46.8578 40.9952 46.905 40.4251C46.9521 39.8549 47.4513 39.4311 48.0198 39.4784C52.8612 39.8812 64.7029 39.4952 72.7622 37.1572C73.3102 36.9982 73.883 37.3148 74.0416 37.8643Z" fill="#FFDA7B"/>
<path d="M75.5676 53.237C75.5676 54.0952 75.0184 54.7908 74.3409 54.7908C73.6635 54.7908 73.1143 54.0952 73.1143 53.237C73.1143 52.3789 73.6635 51.6832 74.3409 51.6832C75.0184 51.6832 75.5676 52.3789 75.5676 53.237Z" fill="#D08006"/>
<path d="M78.1497 49.4467C78.1497 50.1015 77.7305 50.6324 77.2135 50.6324C76.6965 50.6324 76.2773 50.1015 76.2773 49.4467C76.2773 48.7918 76.6965 48.2609 77.2135 48.2609C77.7305 48.2609 78.1497 48.7918 78.1497 49.4467Z" fill="#D08006"/>
<path d="M72.0642 55.2319C72.0642 55.8868 71.6451 56.4177 71.1281 56.4177C70.611 56.4177 70.1919 55.8868 70.1919 55.2319C70.1919 54.577 70.611 54.0461 71.1281 54.0461C71.6451 54.0461 72.0642 54.577 72.0642 55.2319Z" fill="#D08006"/>
<path d="M69.0945 59.4846C69.0945 60.1395 68.6754 60.6704 68.1583 60.6704C67.6413 60.6704 67.2222 60.1395 67.2222 59.4846C67.2222 58.8297 67.6413 58.2988 68.1583 58.2988C68.6754 58.2988 69.0945 58.8297 69.0945 59.4846Z" fill="#D08006"/>
<path d="M77.8106 53.8522C77.8106 54.2699 77.5432 54.6086 77.2134 54.6086C76.8836 54.6086 76.6162 54.2699 76.6162 53.8522C76.6162 53.4344 76.8836 53.0957 77.2134 53.0957C77.5432 53.0957 77.8106 53.4344 77.8106 53.8522Z" fill="#D08006"/>
<path d="M73.711 57.5423C73.711 57.9601 73.4436 58.2988 73.1138 58.2988C72.784 58.2988 72.5166 57.9601 72.5166 57.5423C72.5166 57.1246 72.784 56.7859 73.1138 56.7859C73.4436 56.7859 73.711 57.1246 73.711 57.5423Z" fill="#D08006"/>
<path d="M69.0943 56.485C69.0943 56.9027 68.8269 57.2414 68.4971 57.2414C68.1673 57.2414 67.8999 56.9027 67.8999 56.485C67.8999 56.0672 68.1673 55.7285 68.4971 55.7285C68.8269 55.7285 69.0943 56.0672 69.0943 56.485Z" fill="#D08006"/>
<path d="M72.0645 52.0825C72.0645 52.5003 71.7972 52.839 71.4673 52.839C71.1375 52.839 70.8701 52.5003 70.8701 52.0825C70.8701 51.6647 71.1375 51.326 71.4673 51.326C71.7972 51.326 72.0645 51.6647 72.0645 52.0825Z" fill="#D08006"/>
<path d="M75.5347 49.8761C75.5347 50.2939 75.2674 50.6325 74.9375 50.6325C74.6077 50.6325 74.3403 50.2939 74.3403 49.8761C74.3403 49.4583 74.6077 49.1196 74.9375 49.1196C75.2674 49.1196 75.5347 49.4583 75.5347 49.8761Z" fill="#D08006"/>
<path d="M78.1495 45.4736C78.1495 45.8914 77.8821 46.2301 77.5523 46.2301C77.2225 46.2301 76.9551 45.8914 76.9551 45.4736C76.9551 45.0558 77.2225 44.7172 77.5523 44.7172C77.8821 44.7172 78.1495 45.0558 78.1495 45.4736Z" fill="#D08006"/>
<path d="M65.8184 61.1734C65.8184 61.5912 65.5511 61.9299 65.2212 61.9299C64.8914 61.9299 64.624 61.5912 64.624 61.1734C64.624 60.7557 64.8914 60.417 65.2212 60.417C65.5511 60.417 65.8184 60.7557 65.8184 61.1734Z" fill="#D08006"/>
<path d="M71.0871 58.4882C71.0871 58.8013 70.8867 59.0551 70.6395 59.0551C70.3923 59.0551 70.1919 58.8013 70.1919 58.4882C70.1919 58.1751 70.3923 57.9213 70.6395 57.9213C70.8867 57.9213 71.0871 58.1751 71.0871 58.4882Z" fill="#D08006"/>
<path d="M69.9894 53.4792C69.9894 53.7923 69.789 54.0461 69.5418 54.0461C69.2946 54.0461 69.0942 53.7923 69.0942 53.4792C69.0942 53.1661 69.2946 52.9122 69.5418 52.9122C69.789 52.9122 69.9894 53.1661 69.9894 53.4792Z" fill="#D08006"/>
<path d="M75.567 55.7285C75.567 56.0417 75.3666 56.2955 75.1195 56.2955C74.8723 56.2955 74.6719 56.0417 74.6719 55.7285C74.6719 55.4154 74.8723 55.1616 75.1195 55.1616C75.3666 55.1616 75.567 55.4154 75.567 55.7285Z" fill="#D08006"/>
<path d="M75.8327 47.2798C75.8327 47.5929 75.6323 47.8467 75.3851 47.8467C75.1379 47.8467 74.9375 47.5929 74.9375 47.2798C74.9375 46.9667 75.1379 46.7129 75.3851 46.7129C75.6323 46.7129 75.8327 46.9667 75.8327 47.2798Z" fill="#D08006"/>
</svg>
