<svg width="120" height="120" viewBox="0 0 120 120" fill="none" xmlns="http://www.w3.org/2000/svg">
<path d="M60 101.719C86.4651 101.719 107.919 91.91 107.919 79.8104V73.7384H12.0806V79.8104C12.0806 91.91 33.5348 101.719 60 101.719Z" fill="#93481C"/>
<path fill-rule="evenodd" clip-rule="evenodd" d="M9.58057 73.7384C9.58057 72.3577 10.6999 71.2384 12.0806 71.2384H107.919C109.3 71.2384 110.419 72.3577 110.419 73.7384V79.8104C110.419 87.4357 103.77 93.5312 94.9236 97.5756C85.857 101.721 73.5072 104.219 60 104.219C46.4928 104.219 34.143 101.721 25.0763 97.5756C16.2303 93.5312 9.58057 87.4357 9.58057 79.8104V73.7384ZM107.919 79.8104C107.919 91.91 86.4651 101.719 60 101.719C33.5348 101.719 12.0806 91.91 12.0806 79.8104V73.7384H107.919V79.8104Z" fill="#663213"/>
<path fill-rule="evenodd" clip-rule="evenodd" d="M18.8038 89.8535C19.1868 89.2791 19.9628 89.1239 20.5373 89.5068C21.8453 90.3789 25.1035 92.4 27.6928 93.5442C28.3243 93.8232 28.61 94.5613 28.331 95.1927C28.052 95.8242 27.3139 96.1099 26.6824 95.8309C23.8968 94.6 20.4987 92.4857 19.1505 91.5869C18.5761 91.204 18.4209 90.4279 18.8038 89.8535Z" fill="#B66131"/>
<path d="M107.919 74.559C107.919 86.6587 86.4651 96.4674 60 96.4674C33.5348 96.4674 12.0806 86.6587 12.0806 74.559C12.0806 62.4593 33.5348 52.6506 60 52.6506C86.4651 52.6506 107.919 62.4593 107.919 74.559Z" fill="#A75729"/>
<path fill-rule="evenodd" clip-rule="evenodd" d="M94.9236 92.3242C85.857 96.4694 73.5072 98.9674 60 98.9674C46.4928 98.9674 34.143 96.4694 25.0763 92.3242C16.2303 88.2799 9.58057 82.1843 9.58057 74.559C9.58057 66.9337 16.2303 60.8381 25.0763 56.7938C34.143 52.6486 46.4928 50.1506 60 50.1506C73.5072 50.1506 85.857 52.6486 94.9236 56.7938C103.77 60.8381 110.419 66.9337 110.419 74.559C110.419 82.1843 103.77 88.2799 94.9236 92.3242ZM60 96.4674C86.4651 96.4674 107.919 86.6587 107.919 74.559C107.919 62.4593 86.4651 52.6506 60 52.6506C33.5348 52.6506 12.0806 62.4593 12.0806 74.559C12.0806 86.6587 33.5348 96.4674 60 96.4674Z" fill="#663213"/>
<path d="M103.594 71.3136C103.594 81.0298 85.2304 88.9063 62.5781 88.9063C39.9258 88.9063 21.5625 81.0298 21.5625 71.3136C21.5625 61.5975 39.9258 53.7209 62.5781 53.7209C85.2304 53.7209 103.594 61.5975 103.594 71.3136Z" fill="#8E471F"/>
<path fill-rule="evenodd" clip-rule="evenodd" d="M17.6634 80.8298C18.1427 80.3329 18.934 80.3187 19.4309 80.798C21.5842 82.8754 28.5894 87.7186 38.6471 89.5764C39.3259 89.7018 39.7746 90.3538 39.6492 91.0327C39.5238 91.7115 38.8718 92.1602 38.193 92.0348C27.6387 90.0853 20.1915 85.0055 17.6951 82.5972C17.1983 82.1179 17.1841 81.3266 17.6634 80.8298Z" fill="#E97D3F"/>
<path d="M27.0557 45.376L65.3141 44.3644V68.7357H27.5155L27.0557 45.376Z" fill="#FBA423"/>
<path fill-rule="evenodd" clip-rule="evenodd" d="M67.0583 42.5734C67.5415 43.044 67.8141 43.6899 67.8141 44.3644V68.7357C67.8141 70.1164 66.6948 71.2357 65.3141 71.2357H27.5155C26.154 71.2357 25.0428 70.1462 25.016 68.7849L24.5562 45.4252C24.5291 44.0514 25.6159 42.9132 26.9896 42.8769L65.248 41.8653C65.9223 41.8474 66.5751 42.1028 67.0583 42.5734ZM27.5155 68.7357L27.0557 45.376L65.3141 44.3644V68.7357H27.5155Z" fill="#C88607"/>
<path d="M32.8906 51.3225C32.8906 52.056 32.0512 52.6506 31.0156 52.6506C29.9801 52.6506 29.1406 52.056 29.1406 51.3225C29.1406 50.589 29.9801 49.9944 31.0156 49.9944C32.0512 49.9944 32.8906 50.589 32.8906 51.3225Z" fill="#C87903"/>
<path d="M46.1851 50.6194C46.1851 51.3529 45.3456 51.9475 44.3101 51.9475C43.2745 51.9475 42.4351 51.3529 42.4351 50.6194C42.4351 49.8859 43.2745 49.2913 44.3101 49.2913C45.3456 49.2913 46.1851 49.8859 46.1851 50.6194Z" fill="#C87903"/>
<path d="M50.4819 63.6663C50.4819 64.3998 49.6425 64.9944 48.6069 64.9944C47.5714 64.9944 46.7319 64.3998 46.7319 63.6663C46.7319 62.9328 47.5714 62.3381 48.6069 62.3381C49.6425 62.3381 50.4819 62.9328 50.4819 63.6663Z" fill="#C87903"/>
<path d="M39.7996 55.098C39.7996 56.1014 38.6513 56.9147 37.2347 56.9147C35.8182 56.9147 34.6699 56.1014 34.6699 55.098C34.6699 54.0946 35.8182 53.2812 37.2347 53.2812C38.6513 53.2812 39.7996 54.0946 39.7996 55.098Z" fill="#C87903"/>
<path d="M50.0339 57.1429C50.0339 58.1463 48.8856 58.9597 47.4691 58.9597C46.0526 58.9597 44.9043 58.1463 44.9043 57.1429C44.9043 56.1396 46.0526 55.3262 47.4691 55.3262C48.8856 55.3262 50.0339 56.1396 50.0339 57.1429Z" fill="#C87903"/>
<path d="M36.1453 61.2346C36.1453 62.238 34.997 63.0513 33.5804 63.0513C32.1639 63.0513 31.0156 62.238 31.0156 61.2346C31.0156 60.2312 32.1639 59.4178 33.5804 59.4178C34.997 59.4178 36.1453 60.2312 36.1453 61.2346Z" fill="#C87903"/>
<path d="M41.7271 60.3752C41.7271 60.904 41.122 61.3326 40.3755 61.3326C39.6291 61.3326 39.0239 60.904 39.0239 60.3752C39.0239 59.8465 39.6291 59.4178 40.3755 59.4178C41.122 59.4178 41.7271 59.8465 41.7271 60.3752Z" fill="#C87903"/>
<path d="M45.1382 65.5315C45.1382 66.0602 44.5331 66.4888 43.7866 66.4888C43.0402 66.4888 42.4351 66.0602 42.4351 65.5315C42.4351 65.0027 43.0402 64.5741 43.7866 64.5741C44.5331 64.5741 45.1382 65.0027 45.1382 65.5315Z" fill="#C87903"/>
<path d="M38.42 64.9945C38.42 65.5232 37.8148 65.9519 37.0684 65.9519C36.3219 65.9519 35.7168 65.5232 35.7168 64.9945C35.7168 64.4657 36.3219 64.0371 37.0684 64.0371C37.8148 64.0371 38.42 64.4657 38.42 64.9945Z" fill="#C87903"/>
<path d="M53.1851 50.2486C53.1851 50.7774 52.58 51.206 51.8335 51.206C51.0871 51.206 50.4819 50.7774 50.4819 50.2486C50.4819 49.7199 51.0871 49.2913 51.8335 49.2913C52.58 49.2913 53.1851 49.7199 53.1851 50.2486Z" fill="#C87903"/>
<path d="M81.7508 80.5631C71.2329 84.6376 56.8379 83.0504 50.9551 81.7476V56.7556L96.526 42.928L95.372 69.7846C95.2141 71.6797 92.2687 76.4886 81.7508 80.5631Z" fill="#FBA423"/>
<path fill-rule="evenodd" clip-rule="evenodd" d="M50.4145 84.1884C49.2698 83.9349 48.4551 82.92 48.4551 81.7476V56.7557C48.4551 55.6546 49.1755 54.6831 50.2292 54.3634L95.8001 40.5357C96.5758 40.3004 97.4174 40.4557 98.058 40.9524C98.6985 41.4491 99.0585 42.2255 99.0237 43.0353L97.8697 69.8919C97.8683 69.9254 97.8662 69.9588 97.8634 69.9922C97.7107 71.8247 96.4338 74.0375 94.1596 76.1774C91.802 78.3955 88.1384 80.7697 82.6539 82.8943C76.9793 85.0926 70.3957 85.7235 64.5925 85.6718C58.767 85.6199 53.5238 84.8771 50.4145 84.1884ZM95.372 69.7846C95.2141 71.6797 92.2687 76.4886 81.7508 80.5631C71.2329 84.6376 56.8379 83.0505 50.9551 81.7476V56.7557L96.526 42.928L95.372 69.7846Z" fill="#C88607"/>
<path d="M95.3722 69.7846C95.2142 71.6797 92.2689 76.4886 81.751 80.5631V50.1563L96.5262 42.928L95.3722 69.7846Z" fill="#EA9517"/>
<path d="M50.9551 81.7476V56.7557L63.6582 52.9011V83.1569C58.397 83.0397 53.7294 82.362 50.9551 81.7476Z" fill="#FFB547"/>
<path fill-rule="evenodd" clip-rule="evenodd" d="M53.8281 60.7634C54.5185 60.7634 55.0781 61.3231 55.0781 62.0134V74.0447C55.0781 74.735 54.5185 75.2947 53.8281 75.2947C53.1378 75.2947 52.5781 74.735 52.5781 74.0447V62.0134C52.5781 61.3231 53.1378 60.7634 53.8281 60.7634Z" fill="#FFD595"/>
<path d="M58.2971 28.3288C37.4507 29.3711 28.8437 39.818 27.146 44.9111L63.9824 43.3713L51.0575 56.2282C56.2691 56.8204 74.8794 58.0585 85.6579 54.3867C96.4364 50.7149 102.359 41.0024 88.2637 34.251C76.9877 28.8499 63.5876 28.0524 58.2971 28.3288Z" fill="#FBC12D"/>
<path fill-rule="evenodd" clip-rule="evenodd" d="M25.1489 46.415C24.6544 45.7583 24.5144 44.9004 24.7743 44.1206C26.8621 37.8572 36.5155 26.9157 58.1694 25.8321C63.7169 25.5428 77.5693 26.3566 89.3437 31.9964C93.105 33.798 95.8124 35.9255 97.4086 38.3574C99.056 40.8672 99.43 43.5784 98.6922 46.1606C97.2925 51.0596 92.1588 54.8133 86.4641 56.7532C80.6823 58.7228 73.0044 59.3303 66.2985 59.4063C59.5345 59.483 53.475 59.019 50.7753 58.7122C49.8203 58.6037 49.0121 57.9574 48.6963 57.0497C48.3805 56.142 48.6131 55.1336 49.2944 54.4558L57.6563 46.138L27.2504 47.409C26.4291 47.4433 25.6434 47.0717 25.1489 46.415ZM63.9825 43.3714L51.0575 56.2282C51.8529 56.3186 52.9603 56.424 54.3043 56.5248C61.7671 57.084 76.5244 57.4982 85.6579 54.3868C96.4364 50.715 102.359 41.0025 88.2637 34.2511C76.9877 28.85 63.5876 28.0525 58.2971 28.3288C40.5226 29.2175 31.6461 36.9434 28.3637 42.3581C27.7964 43.2939 27.3962 44.1606 27.146 44.9111L63.9825 43.3714Z" fill="#C88607"/>
<path fill-rule="evenodd" clip-rule="evenodd" d="M62.4996 41.0633C62.5165 41.7534 61.9706 42.3266 61.2805 42.3434L32.4524 43.0465C31.7622 43.0633 31.1891 42.5175 31.1723 41.8274C31.1554 41.1372 31.7013 40.5641 32.3914 40.5473L61.2195 39.8441C61.9097 39.8273 62.4828 40.3731 62.4996 41.0633Z" fill="#FFDA7B"/>
<path fill-rule="evenodd" clip-rule="evenodd" d="M89.0915 50.3558C89.2833 51.019 88.9012 51.7121 88.2381 51.904C78.1153 54.8326 63.4654 55.2985 57.3967 54.795C56.7087 54.7379 56.1973 54.1339 56.2543 53.4459C56.3114 52.7579 56.9154 52.2465 57.6034 52.3036C63.4618 52.7896 77.7911 52.3239 87.5433 49.5024C88.2065 49.3106 88.8996 49.6927 89.0915 50.3558Z" fill="#FFDA7B"/>
<path d="M90.9375 68.9062C90.9375 69.9418 90.2729 70.7812 89.4531 70.7812C88.6333 70.7812 87.9688 69.9418 87.9688 68.9062C87.9688 67.8707 88.6333 67.0312 89.4531 67.0312C90.2729 67.0312 90.9375 67.8707 90.9375 68.9062Z" fill="#D08006"/>
<path d="M94.0625 64.3324C94.0625 65.1227 93.5553 65.7633 92.9297 65.7633C92.3041 65.7633 91.7969 65.1227 91.7969 64.3324C91.7969 63.5421 92.3041 62.9015 92.9297 62.9015C93.5553 62.9015 94.0625 63.5421 94.0625 64.3324Z" fill="#D08006"/>
<path d="M86.6987 71.3136C86.6987 72.1039 86.1916 72.7445 85.5659 72.7445C84.9403 72.7445 84.4331 72.1039 84.4331 71.3136C84.4331 70.5233 84.9403 69.8827 85.5659 69.8827C86.1916 69.8827 86.6987 70.5233 86.6987 71.3136Z" fill="#D08006"/>
<path d="M83.105 76.4454C83.105 77.2357 82.5978 77.8764 81.9722 77.8764C81.3465 77.8764 80.8394 77.2357 80.8394 76.4454C80.8394 75.6552 81.3465 75.0145 81.9722 75.0145C82.5978 75.0145 83.105 75.6552 83.105 76.4454Z" fill="#D08006"/>
<path d="M93.6523 69.6485C93.6523 70.1527 93.3288 70.5614 92.9297 70.5614C92.5306 70.5614 92.207 70.1527 92.207 69.6485C92.207 69.1444 92.5306 68.7357 92.9297 68.7357C93.3288 68.7357 93.6523 69.1444 93.6523 69.6485Z" fill="#D08006"/>
<path d="M88.6914 74.1017C88.6914 74.6058 88.3679 75.0145 87.9688 75.0145C87.5696 75.0145 87.2461 74.6058 87.2461 74.1017C87.2461 73.5975 87.5696 73.1888 87.9688 73.1888C88.3679 73.1888 88.6914 73.5975 88.6914 74.1017Z" fill="#D08006"/>
<path d="M83.105 72.8257C83.105 73.3298 82.7814 73.7385 82.3823 73.7385C81.9832 73.7385 81.6597 73.3298 81.6597 72.8257C81.6597 72.3215 81.9832 71.9128 82.3823 71.9128C82.7814 71.9128 83.105 72.3215 83.105 72.8257Z" fill="#D08006"/>
<path d="M86.6987 67.5132C86.6987 68.0173 86.3752 68.426 85.9761 68.426C85.577 68.426 85.2534 68.0173 85.2534 67.5132C85.2534 67.009 85.577 66.6003 85.9761 66.6003C86.3752 66.6003 86.6987 67.009 86.6987 67.5132Z" fill="#D08006"/>
<path d="M90.8984 64.8506C90.8984 65.3547 90.5749 65.7634 90.1758 65.7634C89.7767 65.7634 89.4531 65.3547 89.4531 64.8506C89.4531 64.3464 89.7767 63.9377 90.1758 63.9377C90.5749 63.9377 90.8984 64.3464 90.8984 64.8506Z" fill="#D08006"/>
<path d="M94.0625 59.5381C94.0625 60.0422 93.739 60.4509 93.3398 60.4509C92.9407 60.4509 92.6172 60.0422 92.6172 59.5381C92.6172 59.0339 92.9407 58.6252 93.3398 58.6252C93.739 58.6252 94.0625 59.0339 94.0625 59.5381Z" fill="#D08006"/>
<path d="M79.1406 78.4834C79.1406 78.9875 78.8171 79.3962 78.418 79.3962C78.0189 79.3962 77.6953 78.9875 77.6953 78.4834C77.6953 77.9792 78.0189 77.5706 78.418 77.5706C78.8171 77.5706 79.1406 77.9792 79.1406 78.4834Z" fill="#D08006"/>
<path d="M85.5163 75.2431C85.5163 75.6209 85.2738 75.9272 84.9747 75.9272C84.6756 75.9272 84.4331 75.6209 84.4331 75.2431C84.4331 74.8653 84.6756 74.559 84.9747 74.559C85.2738 74.559 85.5163 74.8653 85.5163 75.2431Z" fill="#D08006"/>
<path d="M84.1882 69.1985C84.1882 69.5764 83.9457 69.8827 83.6466 69.8827C83.3475 69.8827 83.105 69.5764 83.105 69.1985C83.105 68.8207 83.3475 68.5144 83.6466 68.5144C83.9457 68.5144 84.1882 68.8207 84.1882 69.1985Z" fill="#D08006"/>
<path d="M90.9377 71.9129C90.9377 72.2907 90.6952 72.597 90.3961 72.597C90.097 72.597 89.8545 72.2907 89.8545 71.9129C89.8545 71.5351 90.097 71.2288 90.3961 71.2288C90.6952 71.2288 90.9377 71.5351 90.9377 71.9129Z" fill="#D08006"/>
<path d="M91.259 61.7176C91.259 62.0954 91.0165 62.4017 90.7174 62.4017C90.4183 62.4017 90.1758 62.0954 90.1758 61.7176C90.1758 61.3397 90.4183 61.0334 90.7174 61.0334C91.0165 61.0334 91.259 61.3397 91.259 61.7176Z" fill="#D08006"/>
</svg>
