<svg width="120" height="120" viewBox="0 0 120 120" fill="none" xmlns="http://www.w3.org/2000/svg">
<g clip-path="url(#clip0_2388_5297)">
<path d="M46.0333 22.9193C58.3626 22.6853 68.7498 43.159 69.1008 61.6466C69.4518 80.1342 59.6876 92.4729 47.3583 92.707C35.029 92.9411 24.8035 80.9819 24.4525 62.4943C24.1015 44.0067 34.4819 23.1386 46.0333 22.9193Z" fill="#EDE6CF"/>
<path fill-rule="evenodd" clip-rule="evenodd" d="M64.2359 34.0325C68.628 41.8048 71.4176 51.9533 71.6008 61.5993C71.9648 80.7717 61.7214 94.9349 47.4062 95.2067C33.091 95.4785 22.3174 81.7143 21.9534 62.5419C21.7696 52.8614 24.3832 42.6054 28.5699 34.6877C30.6656 30.7244 33.2077 27.2478 36.0896 24.7172C38.9687 22.1891 42.3281 20.4893 45.9863 20.4199C53.5962 20.2754 59.9404 26.4313 64.2359 34.0325ZM69.1012 61.6467C68.7502 43.1591 58.363 22.6854 46.0338 22.9194C34.4824 23.1388 24.1019 44.0068 24.453 62.4944C24.804 80.982 35.0295 92.9412 47.3587 92.7071C59.688 92.473 69.4522 80.1343 69.1012 61.6467Z" fill="#968960"/>
<path fill-rule="evenodd" clip-rule="evenodd" d="M53.5955 25.3868C58.3171 32.685 61.412 42.9866 61.5968 52.7167C61.9344 70.5016 52.4731 82.3727 40.5283 82.5995C35.552 82.694 30.9298 80.7526 27.2059 77.1694C31.1036 87.0411 38.714 92.8712 47.3586 92.7071C59.6879 92.473 69.4521 80.1343 69.1011 61.6467C68.8251 47.1114 62.3454 31.3483 53.5955 25.3868Z" fill="#DBD2B2"/>
<path d="M41.2524 34.3596C46.325 35.3973 40.3336 42.3323 42.6562 49.6875C46.4062 61.5625 39.8487 67.0558 34.7761 66.0181C29.7035 64.9804 27.0411 57.0522 28.8295 48.3099C30.6178 39.5677 36.1798 33.3219 41.2524 34.3596Z" fill="#FEF8E3"/>
<path fill-rule="evenodd" clip-rule="evenodd" d="M35.013 49.4913C34.8444 51.4251 34.844 53.1736 34.844 53.7501C34.844 54.7856 34.0045 55.6251 32.969 55.6251C31.9335 55.6251 31.094 54.7856 31.094 53.75L31.094 53.7464C31.094 53.1469 31.094 51.266 31.2772 49.1655C31.4533 47.1467 31.8208 44.5968 32.7037 42.8455C33.1698 41.9208 34.2973 41.5491 35.222 42.0153C36.1467 42.4814 36.5184 43.6089 36.0522 44.5336C35.5261 45.5772 35.1892 47.4716 35.013 49.4913Z" fill="white"/>
<path d="M63.2713 50.3969C64.2625 51.1879 64.5112 52.5245 63.8267 53.3824C63.1422 54.2402 61.7837 54.2944 60.7924 53.5034C59.8011 52.7124 59.5525 51.3758 60.237 50.5179C60.9215 49.6601 62.28 49.6059 63.2713 50.3969Z" fill="#CFC59E"/>
<path d="M62.1757 45.2608C62.7398 45.711 62.8813 46.4716 62.4918 46.9598C62.1023 47.448 61.3292 47.4788 60.7651 47.0287C60.201 46.5785 60.0594 45.8179 60.449 45.3297C60.8385 44.8415 61.6116 44.8107 62.1757 45.2608Z" fill="#CFC59E"/>
<path d="M58.2392 47.7101C58.8033 48.1602 58.9448 48.9208 58.5553 49.409C58.1657 49.8972 57.3926 49.928 56.8285 49.4779C56.2644 49.0277 56.1229 48.2671 56.5124 47.7789C56.902 47.2908 57.6751 47.2599 58.2392 47.7101Z" fill="#CFC59E"/>
<path d="M56.2014 38.4343C56.4808 38.6572 56.5509 39.0339 56.358 39.2756C56.1651 39.5174 55.7822 39.5326 55.5029 39.3097C55.2235 39.0868 55.1534 38.7102 55.3463 38.4684C55.5393 38.2267 55.9221 38.2114 56.2014 38.4343Z" fill="#CFC59E"/>
<path d="M57.0696 32.3939C57.349 32.6168 57.419 32.9935 57.2261 33.2352C57.0332 33.477 56.6504 33.4922 56.371 33.2693C56.0917 33.0464 56.0216 32.6697 56.2145 32.428C56.4074 32.1863 56.7903 32.171 57.0696 32.3939Z" fill="#CFC59E"/>
<path d="M64.7327 48.2933C65.012 48.5162 65.0821 48.8929 64.8892 49.1346C64.6963 49.3764 64.3135 49.3917 64.0341 49.1687C63.7548 48.9458 63.6847 48.5692 63.8776 48.3274C64.0705 48.0857 64.4533 48.0704 64.7327 48.2933Z" fill="#CFC59E"/>
<path d="M65.554 53.3434C65.8333 53.5663 65.9034 53.9429 65.7105 54.1847C65.5176 54.4264 65.1348 54.4417 64.8554 54.2188C64.5761 53.9959 64.506 53.6192 64.6989 53.3775C64.8918 53.1357 65.2746 53.1204 65.554 53.3434Z" fill="#CFC59E"/>
<path d="M57.8527 53.231C58.2748 53.5678 58.3806 54.1369 58.0892 54.5021C57.7978 54.8673 57.2194 54.8904 56.7974 54.5536C56.3753 54.2168 56.2695 53.6478 56.5609 53.2826C56.8523 52.9173 57.4307 52.8943 57.8527 53.231Z" fill="#CFC59E"/>
<path d="M66.7048 61.076C67.1268 61.4128 67.2327 61.9818 66.9413 62.3471C66.6498 62.7123 66.0715 62.7354 65.6494 62.3986C65.2274 62.0618 65.1215 61.4927 65.4129 61.1275C65.7044 60.7623 66.2828 60.7392 66.7048 61.076Z" fill="#CFC59E"/>
<path d="M62.4777 59.9298C62.8998 60.2665 63.0056 60.8356 62.7142 61.2008C62.4228 61.566 61.8444 61.5891 61.4224 61.2523C61.0003 60.9156 60.8945 60.3465 61.1859 59.9813C61.4773 59.6161 62.0557 59.593 62.4777 59.9298Z" fill="#CFC59E"/>
<path d="M61.704 56.2751C62.2681 56.7252 62.4096 57.4859 62.0201 57.9741C61.6306 58.4622 60.8575 58.4931 60.2934 58.0429C59.7293 57.5928 59.5878 56.8322 59.9773 56.344C60.3668 55.8558 61.1399 55.825 61.704 56.2751Z" fill="#CFC59E"/>
<path d="M61.3778 40.6473C61.942 41.0974 62.0835 41.8581 61.6939 42.3463C61.3044 42.8344 60.5313 42.8653 59.9672 42.4151C59.4031 41.965 59.2616 41.2044 59.6511 40.7162C60.0407 40.228 60.8137 40.1972 61.3778 40.6473Z" fill="#CFC59E"/>
<path d="M57.8255 41.9633C58.5589 42.5485 58.7429 43.5374 58.2364 44.1721C57.73 44.8068 56.7249 44.8469 55.9915 44.2617C55.2581 43.6764 55.0741 42.6875 55.5806 42.0528C56.087 41.4182 57.0921 41.3781 57.8255 41.9633Z" fill="#CFC59E"/>
<path d="M59.0799 35.6393C59.8133 36.2245 59.9973 37.2135 59.4908 37.8481C58.9844 38.4828 57.9793 38.5229 57.2459 37.9377C56.5125 37.3525 56.3285 36.3635 56.835 35.7289C57.3414 35.0942 58.3465 35.0541 59.0799 35.6393Z" fill="#CFC59E"/>
<path d="M65.7073 56.3506C66.4407 56.9358 66.6247 57.9248 66.1183 58.5594C65.6118 59.1941 64.6067 59.2342 63.8733 58.649C63.1399 58.0638 62.956 57.0749 63.4624 56.4402C63.9688 55.8055 64.9739 55.7654 65.7073 56.3506Z" fill="#CFC59E"/>
<path d="M66.1795 65.1989C66.9129 65.7841 67.0969 66.773 66.5904 67.4077C66.084 68.0424 65.0789 68.0825 64.3455 67.4973C63.6121 66.912 63.4281 65.9231 63.9346 65.2884C64.441 64.6538 65.4461 64.6137 66.1795 65.1989Z" fill="#CFC59E"/>
<path d="M81.7188 105.156C100.313 99.0625 109.141 78.75 107.027 65.2761L43.7501 87.6562C43.1251 89.9687 43.8816 95.5975 45.7032 98.2031C51.8751 107.031 66.5215 110.137 81.7188 105.156Z" fill="white"/>
<path fill-rule="evenodd" clip-rule="evenodd" d="M108.308 63.1288C108.946 63.5095 109.382 64.1545 109.497 64.8888C110.656 72.2762 108.809 81.2897 104.313 89.217C99.7961 97.1817 92.4872 104.258 82.4976 107.532C66.7908 112.68 50.7313 109.758 43.6544 99.6356C42.4298 97.8839 41.7059 95.3953 41.3437 93.2328C40.9853 91.0936 40.8833 88.6822 41.3368 87.004C41.5512 86.2107 42.1419 85.5734 42.9166 85.2993L106.194 62.9192C106.895 62.6714 107.669 62.7482 108.308 63.1288ZM107.027 65.2762L43.7502 87.6563C43.1252 89.9688 43.8817 95.5975 45.7034 98.2031C51.8752 107.031 66.5217 110.137 81.719 105.156C99.1696 99.4371 108.018 81.1938 107.293 67.8338C107.246 66.9587 107.157 66.1045 107.027 65.2762Z" fill="#968960"/>
<path fill-rule="evenodd" clip-rule="evenodd" d="M43.5342 89.7623L45.8704 86.9063L43.7501 87.6562C43.6027 88.2016 43.5321 88.9313 43.5342 89.7623ZM107.027 65.2761C109.113 78.5745 100.541 98.5345 82.4404 104.911C91.308 95.0072 93.9211 80.96 91.4845 70.7733L107.027 65.2761Z" fill="#F4F3DB"/>
<path fill-rule="evenodd" clip-rule="evenodd" d="M89.8731 101.236C102.853 92.7507 108.803 76.5988 107.027 65.2761L99.2086 68.0414C101.248 78.1565 98.5018 91.6534 89.8731 101.236ZM44.1455 94.4338L52.1073 84.7004L43.7501 87.6562C43.354 89.1215 43.5127 91.9183 44.1455 94.4338Z" fill="#DEDCB1"/>
<path d="M106.531 63.8906C109.103 69.9386 97.1728 80.8025 79.8838 88.1558C62.5948 95.5091 46.4941 96.5672 43.9218 90.5192C41.3494 84.4712 53.2797 73.6073 70.5686 66.254C87.8576 58.9007 103.958 57.8426 106.531 63.8906Z" fill="#FDFCE4"/>
<path fill-rule="evenodd" clip-rule="evenodd" d="M102.339 77.3821C97.2587 82.008 89.6951 86.6997 80.8625 90.4563C72.03 94.2129 63.4041 96.407 56.5482 96.8576C53.1325 97.082 50.0131 96.8839 47.4828 96.1319C44.9724 95.3858 42.6727 93.9693 41.6214 91.4977C40.5702 89.026 41.145 86.3869 42.3489 84.0611C43.5623 81.7168 45.5833 79.3324 48.1142 77.0276C53.1942 72.4017 60.7579 67.71 69.5904 63.9534C78.4229 60.1968 87.0488 58.0027 93.9047 57.5521C97.3204 57.3276 100.44 57.5258 102.97 58.2778C105.481 59.0239 107.78 60.4404 108.832 62.912C109.883 65.3837 109.308 68.0228 108.104 70.3486C106.891 72.6929 104.87 75.0773 102.339 77.3821ZM79.8841 88.1557C97.173 80.8024 109.103 69.9385 106.531 63.8905C103.959 57.8425 87.8579 58.9007 70.5689 66.254C53.2799 73.6073 41.3497 84.4712 43.922 90.5192C46.4943 96.5672 62.5951 95.509 79.8841 88.1557Z" fill="#968960"/>
<path d="M85.5409 71.6168C87.5246 75.9861 80.4579 83.4665 69.757 88.3248C59.0561 93.1831 48.7732 93.5796 46.7895 89.2103C44.8059 84.8411 51.8725 77.3606 62.5734 72.5023C73.2743 67.644 83.5572 67.2476 85.5409 71.6168Z" fill="white"/>
<path fill-rule="evenodd" clip-rule="evenodd" d="M89.6548 61.3426C97.6126 60.1232 102.86 61.8107 104.678 63.0225C105.253 63.4054 105.408 64.1815 105.025 64.7559C104.642 65.3303 103.866 65.4855 103.291 65.1026C102.14 64.3352 97.5756 62.6581 90.0334 63.8137C83.3527 64.8374 80.0603 66.0047 77.9531 66.7518C77.654 66.8579 77.3787 66.9555 77.1211 67.043C76.4674 67.265 75.7575 66.9151 75.5355 66.2614C75.3135 65.6077 75.6634 64.8978 76.3171 64.6758C76.5696 64.5901 76.8419 64.4935 77.1397 64.388C79.2816 63.6288 82.7448 62.4013 89.6548 61.3426Z" fill="#E6E4BC"/>
<path d="M76.5324 85.427C76.4016 84.7181 75.384 84.3116 74.2596 84.5191C73.1352 84.7265 72.3297 85.4694 72.4605 86.1782C72.5912 86.8871 73.6088 87.2936 74.7332 87.0862C75.8576 86.8787 76.6631 86.1359 76.5324 85.427Z" fill="#E9E8CB"/>
<path d="M84.0651 81.626C83.9343 80.9171 82.9167 80.5106 81.7923 80.7181C80.6679 80.9255 79.8624 81.6683 79.9932 82.3772C80.124 83.0861 81.1415 83.4926 82.2659 83.2851C83.3904 83.0777 84.1959 82.3348 84.0651 81.626Z" fill="#E9E8CB"/>
<path d="M65.7623 83.5347C65.6316 82.8258 64.614 82.4193 63.4896 82.6267C62.3651 82.8342 61.5596 83.577 61.6904 84.2859C61.8212 84.9948 62.8388 85.4013 63.9632 85.1938C65.0876 84.9864 65.8931 84.2435 65.7623 83.5347Z" fill="#E9E8CB"/>
<path d="M57.9533 89.9264C57.8225 89.2175 56.8049 88.811 55.6805 89.0185C54.5561 89.2259 53.7506 89.9688 53.8814 90.6776C54.0121 91.3865 55.0297 91.793 56.1541 91.5856C57.2785 91.3781 58.084 90.6353 57.9533 89.9264Z" fill="#E9E8CB"/>
<path d="M70.4146 87.689C70.3241 87.1987 69.6202 86.9175 68.8424 87.061C68.0646 87.2045 67.5074 87.7183 67.5979 88.2087C67.6884 88.699 68.3922 88.9802 69.17 88.8367C69.9478 88.6932 70.505 88.1794 70.4146 87.689Z" fill="#E9E8CB"/>
<path d="M60.2578 85.9542C60.1674 85.4638 59.4635 85.1826 58.6857 85.3261C57.9079 85.4696 57.3507 85.9835 57.4412 86.4738C57.5316 86.9642 58.2355 87.2454 59.0133 87.1019C59.7911 86.9584 60.3483 86.4445 60.2578 85.9542Z" fill="#E9E8CB"/>
<path d="M49.7329 90.118C49.6425 89.6276 48.9386 89.3464 48.1608 89.4899C47.383 89.6334 46.8258 90.1473 46.9163 90.6376C47.0067 91.128 47.7106 91.4092 48.4884 91.2657C49.2662 91.1222 49.8234 90.6083 49.7329 90.118Z" fill="#E9E8CB"/>
<path d="M70.6089 83.9614C70.5184 83.471 69.8146 83.1898 69.0368 83.3333C68.259 83.4768 67.7018 83.9907 67.7922 84.481C67.8827 84.9714 68.5866 85.2526 69.3644 85.1091C70.1422 84.9656 70.6994 84.4517 70.6089 83.9614Z" fill="#E9E8CB"/>
<path d="M78.2905 81.4542C78.2001 80.9638 77.4962 80.6826 76.7184 80.8261C75.9406 80.9696 75.3834 81.4835 75.4739 81.9738C75.5644 82.4642 76.2682 82.7454 77.046 82.6019C77.8238 82.4584 78.381 81.9445 78.2905 81.4542Z" fill="#E9E8CB"/>
<path d="M65.6655 87.546C65.5751 87.0556 64.8712 86.7744 64.0934 86.9179C63.3156 87.0614 62.7584 87.5753 62.8489 88.0656C62.9394 88.556 63.6432 88.8372 64.421 88.6937C65.1988 88.5502 65.756 88.0363 65.6655 87.546Z" fill="#E9E8CB"/>
<path d="M61.4611 89.1344C61.3977 88.7912 60.905 88.5943 60.3605 88.6948C59.816 88.7952 59.426 89.155 59.4893 89.4982C59.5527 89.8415 60.0454 90.0383 60.5899 89.9379C61.1344 89.8374 61.5244 89.4777 61.4611 89.1344Z" fill="#E9E8CB"/>
<path d="M53.109 88.4054C53.0457 88.0622 52.553 87.8653 52.0085 87.9658C51.464 88.0662 51.0739 88.426 51.1373 88.7692C51.2006 89.1125 51.6933 89.3093 52.2378 89.2089C52.7823 89.1084 53.1724 88.7487 53.109 88.4054Z" fill="#E9E8CB"/>
<path d="M73.3112 81.3898C73.2478 81.0465 72.7551 80.8497 72.2106 80.9502C71.6661 81.0506 71.2761 81.4103 71.3394 81.7536C71.4028 82.0969 71.8955 82.2937 72.44 82.1932C72.9845 82.0928 73.3745 81.7331 73.3112 81.3898Z" fill="#E9E8CB"/>
<path d="M86.3009 78.6396C86.2376 78.2963 85.7449 78.0995 85.2004 78.1999C84.6559 78.3004 84.2658 78.6601 84.3292 79.0033C84.3925 79.3466 84.8852 79.5434 85.4297 79.443C85.9742 79.3425 86.3643 78.9828 86.3009 78.6396Z" fill="#E9E8CB"/>
<path d="M80.2132 79.0687C80.1669 78.8181 79.8071 78.6743 79.4094 78.7477C79.0118 78.821 78.7269 79.0837 78.7732 79.3344C78.8194 79.5851 79.1793 79.7289 79.5769 79.6555C79.9746 79.5821 80.2594 79.3194 80.2132 79.0687Z" fill="#E9E8CB"/>
<path d="M80.8516 73.9151C81.7581 76.0463 77.6498 79.8338 71.6755 82.3748C65.7012 84.9157 60.1233 85.2479 59.2169 83.1168C58.3105 80.9856 62.4188 77.1981 68.3931 74.6571C74.3673 72.1162 79.9452 71.784 80.8516 73.9151Z" fill="#FFB72B"/>
<path fill-rule="evenodd" clip-rule="evenodd" d="M80.5386 79.8294C78.6173 81.6007 75.8334 83.3232 72.6542 84.6754C69.475 86.0276 66.3032 86.8381 63.6946 86.9935C62.4019 87.0704 61.105 86.9957 59.9708 86.6467C58.8515 86.3023 57.5434 85.569 56.9166 84.0953C56.2898 82.6216 56.6689 81.1707 57.1972 80.1255C57.7325 79.0664 58.5783 78.0804 59.5304 77.2026C61.4517 75.4313 64.2356 73.7088 67.4148 72.3566C70.594 71.0045 73.7658 70.1939 76.3744 70.0386C77.6671 69.9616 78.964 70.0363 80.0982 70.3853C81.2175 70.7297 82.5256 71.463 83.1524 72.9367C83.7792 74.4104 83.4001 75.8614 82.8718 76.9066C82.3365 77.9656 81.4907 78.9516 80.5386 79.8294ZM71.6757 82.3748C77.65 79.8339 81.7583 76.0464 80.8519 73.9152C79.9454 71.784 74.3675 72.1162 68.3933 74.6572C62.419 77.1982 58.3107 80.9857 59.2171 83.1168C60.1236 85.248 65.7015 84.9158 71.6757 82.3748Z" fill="#D89A24"/>
<path fill-rule="evenodd" clip-rule="evenodd" d="M79.4785 74.8992C79.4214 75.5872 78.8175 76.0987 78.1295 76.0417C76.3031 75.8903 73.9855 76.5078 73.0566 76.8474C72.4082 77.0844 71.6904 76.751 71.4534 76.1026C71.2163 75.4542 71.5498 74.7364 72.1982 74.4994C73.2642 74.1097 75.9817 73.3551 78.336 73.5503C79.024 73.6073 79.5355 74.2112 79.4785 74.8992Z" fill="#FFE58A"/>
</g>
<defs>
<clipPath id="clip0_2388_5297">
<rect width="120" height="120" fill="white"/>
</clipPath>
</defs>
</svg>
