<svg width="100" height="100" viewBox="0 0 100 100" fill="none" xmlns="http://www.w3.org/2000/svg">
<path d="M56.2503 32.0502C37.5003 32.0502 22.917 47.7537 22.917 47.7537L16.667 52.2471L22.917 57.0659C31.3045 63.5043 41.7045 72.4306 56.2503 72.4306C70.8337 72.4306 91.667 56.7271 91.667 49.997C91.667 43.267 70.8337 32.0502 56.2503 32.0502Z" fill="#00BCD4"/>
<path d="M65.775 33.3335C63.6729 38.3766 62.5 44.1083 62.5 49.9972C62.5 57.214 64.4208 64.1774 67.5 70.0416C78.2229 66.0506 91.6667 56.3526 91.6667 49.9972C91.6667 43.6417 77.0833 35.9403 65.775 33.3335Z" fill="#4DD0E1"/>
<path d="M72.9167 49.997C75.2179 49.997 77.0833 47.9882 77.0833 45.5103C77.0833 43.0323 75.2179 41.0236 72.9167 41.0236C70.6155 41.0236 68.75 43.0323 68.75 45.5103C68.75 47.9882 70.6155 49.997 72.9167 49.997Z" fill="white"/>
<path d="M72.9168 47.7537C74.0674 47.7537 75.0002 46.7493 75.0002 45.5103C75.0002 44.2714 74.0674 43.267 72.9168 43.267C71.7662 43.267 70.8335 44.2714 70.8335 45.5103C70.8335 46.7493 71.7662 47.7537 72.9168 47.7537Z" fill="#0277BD"/>
<path d="M56.25 32.0502C59.2417 32.0502 62.4937 32.528 65.775 33.3334C65.5833 32.2319 64.1771 24.7974 60.4167 20.8334C55.3375 21.1138 36.5604 28.573 31.25 34.2935C32.4667 36.2587 33.2979 37.8021 33.9083 39.0584C39.7729 35.4332 47.55 32.0502 56.25 32.0502Z" fill="#006064"/>
<path d="M8.3335 34.2936C10.4168 36.5369 12.5002 47.0224 12.5002 52.2405C12.5002 57.4293 10.4168 67.944 8.3335 70.1873C14.5835 67.944 21.2502 60.6127 22.8522 57.0166C22.8731 57.0345 22.896 57.0525 22.9168 57.0659L18.7502 52.2472L22.9168 47.7537C22.9168 47.7537 18.7502 38.7803 8.3335 34.2936Z" fill="#006064"/>
<path d="M60.8527 79.0754C52.2673 79.4276 50.7277 78.6918 47.5923 78.0345C49.559 73.9493 61.036 62.4701 63.134 63.6366L62.9485 64.6932C65.0444 65.862 62.8173 74.988 60.8527 79.0754Z" fill="#006064"/>
<path d="M62.5002 49.997C62.5002 44.1082 63.6731 38.3764 65.7752 33.3334C64.2502 32.9094 61.6814 32.5325 61.6814 32.5325C59.4835 38.1072 58.3335 43.9691 58.3335 49.997C58.3335 57.4136 60.0293 64.8256 63.3127 71.3605C64.6585 70.959 66.1877 70.6157 67.5022 70.0392C64.421 64.1773 62.5002 57.2139 62.5002 49.997Z" fill="#0097A7"/>
</svg>
