<svg width="100" height="100" viewBox="0 0 100 100" fill="none" xmlns="http://www.w3.org/2000/svg">
<path fill-rule="evenodd" clip-rule="evenodd" d="M21.345 23.5552C22.3689 25.1032 23.1368 26.9092 23.6487 28.7151C23.9047 28.9731 23.9047 29.4891 24.1607 29.7471C24.1607 30.2631 24.4167 30.7791 24.4167 31.2951C24.9286 32.3271 25.1846 33.1011 25.4406 33.8751C25.9525 34.6491 26.4645 35.4231 26.7204 36.1971C27.4884 36.9711 28.0003 37.7451 28.7683 38.5191C29.5362 39.0351 30.3041 39.5511 31.328 40.3251C31.584 40.3251 31.84 40.583 32.0959 40.583C32.6079 40.841 32.8639 40.841 33.3758 41.099C34.1437 41.357 35.1676 41.615 36.1915 41.873C36.7035 41.873 37.4714 42.131 37.9834 42.131C38.2394 42.131 38.4953 41.873 38.7513 41.873C39.2633 41.873 39.5192 41.873 39.7752 41.615C40.2872 41.357 40.5431 41.099 40.7991 40.841C41.3111 40.0671 41.567 39.0351 41.567 37.7451C41.3111 36.9711 41.0551 35.9391 40.7991 34.9071C40.5431 33.8751 40.2872 32.8431 39.7752 32.0691C39.2633 31.2951 38.7513 30.5211 38.2394 29.7471C37.7274 28.9731 37.2154 28.4571 36.4475 27.9411C35.4236 27.1672 33.8878 26.3932 32.0959 25.6192C31.584 25.3612 30.8161 25.1032 30.3041 25.1032C30.0481 24.8452 30.0481 24.8452 29.7922 24.8452C29.0242 24.5872 28.0003 24.5872 27.2324 24.3292C26.2085 24.3292 25.4406 24.0712 24.4167 23.8132C23.6487 23.5552 22.6248 23.2972 21.8569 23.0392C21.6009 22.7812 21.089 22.7812 20.833 22.5232C21.089 22.7812 21.345 23.0392 21.345 23.5552Z" fill="#6B983A"/>
<path fill-rule="evenodd" clip-rule="evenodd" d="M25.6964 25.6193C25.6964 25.6193 25.6964 25.6193 25.4404 25.6193L25.6964 25.8773C25.9524 25.8773 26.2084 26.1353 26.4643 26.1353C26.7203 26.1353 26.7203 26.1353 26.7203 26.1353C26.7203 25.8773 26.7203 25.8773 26.7203 25.8773C26.4643 25.6193 25.9524 25.6193 25.6964 25.6193Z" fill="#93C64C"/>
<path fill-rule="evenodd" clip-rule="evenodd" d="M27.2324 25.6192C27.4884 25.6192 27.4884 25.6192 27.4884 25.6192C27.7444 25.8772 28.2563 25.8772 28.5123 26.1352L28.7683 25.8772C28.7683 25.6192 28.7683 25.6192 28.7683 25.6192C28.2563 25.6192 28.0003 25.3612 27.4884 25.3612C27.4884 25.3612 27.2324 25.3612 27.2324 25.6192Z" fill="#93C64C"/>
<path fill-rule="evenodd" clip-rule="evenodd" d="M29.5362 25.8772H29.2803C29.2803 26.1352 29.2803 26.1352 29.2803 26.1352L29.5362 26.3932C29.7922 26.3932 29.7922 26.3932 30.0482 26.6512C30.3042 26.6512 30.5602 26.6512 30.5602 26.3932C30.5602 26.3932 30.5602 26.1352 30.3042 26.1352C30.0482 25.8772 30.0482 25.8772 29.7922 25.8772H29.5362Z" fill="#93C64C"/>
<path fill-rule="evenodd" clip-rule="evenodd" d="M29.0244 27.1673V27.4253C29.2804 27.4253 29.5364 27.6833 29.7923 27.6833H30.0483C30.0483 27.6833 30.0483 27.6833 30.0483 27.4253C30.3043 27.4253 30.0483 27.1673 30.0483 27.1673C29.7923 27.1673 29.5364 27.1673 29.2804 26.9093C29.0244 26.9093 29.0244 26.9093 29.0244 27.1673Z" fill="#93C64C"/>
<path fill-rule="evenodd" clip-rule="evenodd" d="M31.584 27.6832V27.9412C31.584 27.9412 31.584 27.9412 31.84 27.9412C32.0959 28.1992 32.3519 28.1992 32.6079 28.4572C32.6079 28.4572 32.8639 28.4572 32.8639 28.1992C32.8639 27.9412 32.6079 27.9412 32.6079 27.9412C32.3519 27.9412 32.0959 27.6832 31.84 27.6832H31.584Z" fill="#93C64C"/>
<path fill-rule="evenodd" clip-rule="evenodd" d="M32.3516 26.6511C32.3516 26.9091 32.3516 26.9091 32.3516 26.9091C32.6075 27.1671 32.8635 27.1671 33.1195 27.4251C33.3755 27.4251 33.3755 27.6831 33.6314 27.6831H33.8874C33.8874 27.4251 33.8874 27.4251 33.8874 27.4251C33.3755 27.1671 32.8635 26.9091 32.6075 26.6511H32.3516Z" fill="#93C64C"/>
<path fill-rule="evenodd" clip-rule="evenodd" d="M34.1436 28.4573C34.1436 28.7153 34.1436 28.7153 34.1436 28.9733C34.3995 28.9733 34.3995 29.2313 34.6555 29.2313H34.9115C35.1675 28.9733 35.1675 28.9733 34.9115 28.7153C34.9115 28.7153 34.6555 28.7153 34.6555 28.4573C34.3995 28.4573 34.3995 28.4573 34.3995 28.4573H34.1436Z" fill="#93C64C"/>
<path fill-rule="evenodd" clip-rule="evenodd" d="M32.8633 30.5212C32.8633 30.5212 32.8633 30.7792 33.1193 30.7792C33.3752 31.0372 33.6312 31.2952 33.8872 31.5532C33.8872 31.5532 33.8872 31.5532 34.1432 31.2952C34.1432 31.2952 34.1432 31.2952 33.8872 31.0372C33.6312 31.0372 33.3752 30.7792 33.1193 30.5212C33.1193 30.5212 33.1193 30.5212 32.8633 30.5212Z" fill="#93C64C"/>
<path fill-rule="evenodd" clip-rule="evenodd" d="M34.3994 30.5212C34.3994 30.7792 34.3994 30.7792 34.3994 30.7792C34.6554 31.0372 34.6554 31.0372 34.9114 31.2952H35.1673C35.1673 31.2952 35.1673 31.2952 35.1673 31.0372C34.9114 30.7792 34.9114 30.7792 34.6554 30.5212C34.6554 30.5212 34.6554 30.5212 34.3994 30.5212Z" fill="#93C64C"/>
<path fill-rule="evenodd" clip-rule="evenodd" d="M23.3926 24.5872C23.3926 24.5872 23.3926 24.8452 23.6486 24.8452C23.6486 24.8452 23.6486 24.8452 23.9045 24.8452C23.9045 25.1032 24.1605 24.8452 24.1605 24.8452C24.1605 24.8452 24.1605 24.5872 23.9045 24.5872C23.9045 24.5872 23.9045 24.5872 23.6486 24.3292L23.3926 24.5872Z" fill="#93C64C"/>
<path fill-rule="evenodd" clip-rule="evenodd" d="M34.6553 33.6172C34.6553 33.8752 34.6553 33.8752 34.9112 34.1332C34.9112 34.3912 35.1672 34.3912 35.4232 34.6492H35.6792C35.9352 34.3912 35.9352 34.3912 35.6792 34.1332C35.4232 34.1332 35.4232 33.8752 35.1672 33.6172H34.9112C34.9112 33.6172 34.9112 33.6172 34.6553 33.6172Z" fill="#93C64C"/>
<path fill-rule="evenodd" clip-rule="evenodd" d="M51.8059 8.33337C51.5499 8.84937 51.294 9.36537 50.782 9.88136C49.2462 12.2033 47.1984 13.7513 45.1506 15.2993C43.8707 16.3313 42.5908 17.3633 41.3109 18.6533C40.543 19.4273 39.7751 20.2013 39.2631 20.9753C38.4952 21.7493 37.9832 22.7813 37.4713 23.8132C37.2153 24.3292 36.9593 24.8452 36.7034 25.3612C36.7034 25.8772 36.4474 26.3932 36.4474 26.9092C36.1914 27.9412 36.1914 29.2312 36.1914 30.2632C36.1914 32.0692 36.4474 33.8752 37.2153 35.6812C37.4713 36.4551 37.7273 37.4871 38.2392 38.2611V38.5191C37.9832 38.7771 38.2392 39.0351 38.2392 39.0351C38.2392 39.2931 38.4952 39.2931 38.4952 39.5511H38.7512C39.0071 39.5511 39.0071 39.5511 39.0071 39.2931C39.5191 39.8091 39.7751 40.3251 40.031 40.5831C40.031 40.5831 40.287 40.8411 40.543 40.8411L40.799 40.5831C40.799 40.5831 41.0549 40.3251 41.0549 40.0671L40.799 39.8091L40.543 39.5511L40.287 39.2931C40.287 39.0351 40.031 39.0351 40.031 39.0351C40.543 38.7771 41.3109 38.5191 41.8229 38.2611C42.3348 38.2611 42.5908 38.0031 43.1028 37.7451C44.3826 37.4871 45.4065 36.9711 46.4304 36.4551C48.4782 35.4232 50.0141 34.1332 51.294 32.8432C52.0619 32.0692 52.5739 31.2952 53.0858 30.5212C53.5978 29.7472 54.1097 28.9732 54.3657 27.9412C54.8776 27.1672 55.1336 26.1352 55.1336 24.8452C55.3896 23.8132 55.3896 22.5233 55.1336 21.4913C55.1336 19.6853 54.3657 17.8793 53.8537 15.8153C53.0858 14.0093 52.5739 12.4613 52.3179 10.6554C52.3179 9.88136 52.0619 9.10737 52.0619 8.33337H51.8059Z" fill="#86B943"/>
<path fill-rule="evenodd" clip-rule="evenodd" d="M51.5505 10.1394C51.2945 10.3974 51.2945 10.9134 51.0386 11.1714C50.7826 12.4614 50.2706 13.4934 49.5027 14.5254C48.9907 15.8154 48.2228 16.8474 47.4549 17.8793C46.175 19.6853 44.8951 21.4913 43.6153 23.2973C42.3354 25.3613 41.3115 27.1673 40.5436 29.2313C39.7756 31.5532 39.2637 33.8752 39.2637 36.1972C39.2637 37.2292 39.5196 38.5192 39.7756 39.5512C40.0316 40.8412 40.5436 41.8731 41.0555 43.1631C41.0555 43.1631 41.0555 43.1631 41.3115 43.1631H41.5675C41.8234 43.1631 41.8234 42.9051 41.8234 42.9051V42.6471C41.8234 42.3891 41.5675 42.3891 41.5675 42.3891C41.3115 41.8731 41.0555 41.0992 41.0555 40.5832C40.7995 40.0672 40.5436 39.2932 40.5436 38.7772C40.2876 37.4872 40.0316 35.9392 40.2876 34.6492C40.2876 32.8432 40.7995 31.0372 41.3115 29.4892C41.5675 28.4573 42.0794 27.4253 42.5914 26.3933C43.1033 25.3613 43.6153 24.5873 44.3832 23.5553C45.4071 21.7493 46.687 19.6853 47.9668 17.8793C48.7348 16.5894 49.5027 15.5574 50.0146 14.2674C50.7826 12.9774 51.2945 11.4294 51.5505 10.1394Z" fill="#6B983A"/>
<path fill-rule="evenodd" clip-rule="evenodd" d="M51.5502 14.2672C51.5502 14.2672 51.5502 14.2672 51.2942 14.5252C51.0383 14.7832 50.5263 15.2992 50.0144 15.5572C49.5024 15.8152 48.9905 16.3312 48.4785 16.5892C48.4785 16.8472 48.4785 16.8472 48.7345 16.8472C49.2464 16.3312 49.7584 16.0732 50.2703 15.5572C50.7823 15.2992 51.2942 14.7832 51.8062 14.5252V14.2672H51.5502Z" fill="#6B983A"/>
<path fill-rule="evenodd" clip-rule="evenodd" d="M52.0628 18.1372C50.7829 18.9112 49.2471 19.9432 47.9672 20.4592C47.4553 20.7172 46.9433 20.9752 46.4314 21.2332C45.9194 21.2332 45.4075 21.4912 44.8955 21.7492C44.8955 22.0072 44.8955 22.0072 45.1515 22.0072C46.4314 21.4912 47.4553 20.9752 48.7351 20.4592C49.759 19.6852 51.0389 19.1692 52.0628 18.3952C52.0628 18.1372 52.0628 18.1372 52.0628 18.1372Z" fill="#6B983A"/>
<path fill-rule="evenodd" clip-rule="evenodd" d="M52.8295 23.8132C51.8056 24.3292 50.7816 25.1032 49.7577 25.6192C49.2458 25.8772 48.7338 26.1352 48.2219 26.3932C47.7099 26.3932 46.942 26.6512 46.4301 26.9092C45.9181 27.1672 45.4062 27.1672 44.8942 27.4252C44.1263 27.4252 43.6143 27.6832 43.1024 27.6832C42.5904 27.9412 42.0785 27.9412 41.5665 27.9412C41.5665 27.9412 41.5665 27.9412 41.5665 28.1992H41.3105C41.5665 28.4572 41.5665 28.4572 41.8225 28.4572C42.3344 28.4572 42.5904 28.4572 43.1024 28.1992C43.6143 28.1992 44.1263 27.9412 44.6382 27.9412C45.1502 27.6832 45.6621 27.6832 46.1741 27.4252C46.686 27.1672 47.198 27.1672 47.7099 26.9092C49.5018 26.1352 51.2936 25.1032 53.0854 23.8132H52.8295Z" fill="#6B983A"/>
<path fill-rule="evenodd" clip-rule="evenodd" d="M50.5267 30.7792C50.0148 31.0372 49.5028 31.2952 48.9909 31.5532C48.4789 32.0692 47.711 32.3272 46.9431 32.3272C46.4311 32.5852 46.1752 32.5852 45.6632 32.8432C45.4072 32.8432 44.8953 33.1012 44.6393 33.1012C43.8714 33.3592 43.1034 33.3592 42.3355 33.6172C41.8236 33.8751 41.5676 33.8751 41.0556 34.1331C40.7997 34.3911 40.2877 34.3911 40.0317 34.6491C40.0317 34.6491 39.7758 34.9071 40.0317 34.9071V35.1651H40.2877C40.5437 34.9071 41.0556 34.6491 41.5676 34.6491C42.0795 34.3911 42.3355 34.3911 42.8475 34.1331C43.6154 33.8751 44.6393 33.6172 45.6632 33.3592C46.4311 32.8432 47.455 32.5852 48.223 32.3272C48.9909 31.8112 50.0148 31.5532 50.7827 30.7792H50.5267Z" fill="#6B983A"/>
<path fill-rule="evenodd" clip-rule="evenodd" d="M47.7109 14.2672C47.7109 14.5252 47.9669 14.7832 47.9669 14.7832C48.2229 15.2992 48.2229 15.8152 48.4789 16.3312C48.4789 16.5892 48.7348 16.5892 48.7348 16.5892V16.3312C48.7348 16.0732 48.7348 16.0732 48.4789 15.8152C48.4789 15.2992 48.2229 14.7832 47.9669 14.2672H47.7109Z" fill="#6B983A"/>
<path fill-rule="evenodd" clip-rule="evenodd" d="M43.6152 17.3633V17.6213C43.6152 17.6213 43.6152 17.8793 43.8712 17.8793C43.8712 18.1373 43.8712 18.3953 44.1272 18.6533C44.1272 19.1693 44.1272 19.4273 44.3832 19.6853C44.3832 19.9433 44.3832 20.4593 44.6391 20.7173C44.6391 20.9753 44.8951 21.2333 44.8951 21.4912C45.1511 21.7492 45.1511 21.7492 45.1511 21.7492C45.1511 21.4912 45.1511 21.4912 45.1511 21.4912C45.1511 21.2333 44.8951 20.9753 44.8951 20.7173C44.6391 20.2013 44.6391 19.6853 44.3832 19.1693C44.1272 18.6533 44.1272 18.1373 43.8712 17.6213V17.3633H43.6152Z" fill="#6B983A"/>
<path fill-rule="evenodd" clip-rule="evenodd" d="M39.5195 22.2653C39.5195 22.7813 39.7755 23.2973 39.7755 23.8132C40.0315 24.3292 40.0315 24.8452 40.0315 25.3612C40.2875 25.8772 40.2875 26.3932 40.5434 26.6512C40.5434 27.1672 40.7994 27.6832 41.0554 28.1992H41.3114C41.3114 28.1992 41.5673 27.9412 41.3114 27.9412C41.3114 27.6832 41.0554 27.4252 41.0554 27.1672C40.5434 25.6192 40.2875 23.8132 39.7755 22.2653H39.5195Z" fill="#6B983A"/>
<path fill-rule="evenodd" clip-rule="evenodd" d="M36.96 29.2312C37.2159 29.4892 37.2159 29.4892 37.2159 29.7472C37.4719 30.2632 37.4719 30.5212 37.7279 31.0372C37.7279 31.5532 37.9839 32.0692 37.9839 32.5852C38.2398 33.3592 38.7518 34.3912 39.5197 34.9072C39.5197 35.1652 39.5197 35.1652 39.7757 34.9072C39.7757 34.9072 39.7757 34.9072 39.7757 34.6492C39.5197 34.6492 39.5197 34.3912 39.2637 34.1332C39.0078 33.6172 38.7518 33.1012 38.4958 32.5852C37.9839 31.5532 37.7279 30.2632 37.2159 29.2312H36.96Z" fill="#6B983A"/>
<path fill-rule="evenodd" clip-rule="evenodd" d="M53.3418 19.4274V19.6854C53.5978 19.9434 53.5978 20.2014 53.5978 20.4594V20.7174C53.5978 20.4594 53.8537 20.4594 53.8537 20.4594C53.8537 20.2014 53.8537 20.2014 53.5978 19.9434C53.5978 19.6854 53.5978 19.6854 53.5978 19.4274H53.3418Z" fill="#93C64C"/>
<path fill-rule="evenodd" clip-rule="evenodd" d="M54.1094 20.2013C54.1094 20.2013 54.1094 20.2013 54.1094 20.4593C54.1094 20.7173 54.1094 20.9753 54.1094 21.2333C54.3653 21.2333 54.3653 21.2333 54.3653 21.2333C54.3653 20.9753 54.3653 20.7173 54.3653 20.4593C54.3653 20.2013 54.3653 20.2013 54.1094 20.2013Z" fill="#93C64C"/>
<path fill-rule="evenodd" clip-rule="evenodd" d="M54.3654 21.7493L54.1094 22.0073C54.1094 22.2653 54.1094 22.5233 54.1094 22.5233C54.1094 22.7813 54.3654 22.7813 54.3654 22.7813C54.6213 22.7813 54.6213 22.7813 54.6213 22.7813V22.5233C54.6213 22.2653 54.6213 22.2653 54.6213 22.0073C54.6213 22.0073 54.6213 21.7493 54.3654 21.7493Z" fill="#93C64C"/>
<path fill-rule="evenodd" clip-rule="evenodd" d="M53.5978 21.7493H53.3418V22.0073C53.3418 22.2653 53.5978 22.2653 53.5978 22.2653C53.8537 22.2653 53.8537 22.2653 53.8537 22.0073V21.7493H53.5978Z" fill="#93C64C"/>
<path fill-rule="evenodd" clip-rule="evenodd" d="M52.5734 16.0732C52.3174 16.0732 52.3174 16.0732 52.3174 16.3312V16.5892C52.3174 16.8472 52.5734 16.8472 52.5734 16.8472C52.8293 16.8472 52.8293 16.8472 52.8293 16.5892C52.8293 16.5892 52.8293 16.3312 52.8293 16.0732H52.5734Z" fill="#93C64C"/>
<path fill-rule="evenodd" clip-rule="evenodd" d="M53.3415 16.5894C53.0855 16.5894 52.8295 16.5894 53.0855 16.8474C53.0855 17.1054 53.0855 17.1054 53.0855 17.3633V17.6213C53.3415 17.6213 53.3415 17.6213 53.3415 17.6213C53.5975 17.6213 53.5975 17.6213 53.5975 17.3633C53.5975 17.1054 53.5975 17.1054 53.5975 16.8474V16.5894C53.3415 16.5894 53.3415 16.5894 53.3415 16.5894Z" fill="#93C64C"/>
<path fill-rule="evenodd" clip-rule="evenodd" d="M53.5978 24.8453C53.5978 25.3613 53.5978 25.6193 53.3418 25.8773C53.3418 26.1353 53.5978 26.1353 53.5978 26.1353C53.8537 26.1353 53.8537 26.1353 53.8537 25.8773C53.8537 25.6193 53.8537 25.3613 53.8537 25.1033V24.8453H53.5978Z" fill="#93C64C"/>
<path fill-rule="evenodd" clip-rule="evenodd" d="M52.0626 25.8773C52.0626 26.1353 52.0626 26.1353 52.0626 26.3933L51.8066 26.6513C51.8066 26.6513 51.8066 26.6513 51.8066 26.9093H52.0626C52.0626 26.9093 52.0626 26.9093 52.3186 26.9093C52.5746 26.6513 52.5746 26.1353 52.5746 25.8773C52.5746 25.8773 52.5746 25.6193 52.3186 25.6193C52.3186 25.6193 52.0626 25.6193 52.0626 25.8773Z" fill="#93C64C"/>
<path fill-rule="evenodd" clip-rule="evenodd" d="M52.5745 27.6832C52.3185 27.9412 52.3185 28.1992 52.0625 28.4572C52.0625 28.7152 52.0625 28.9732 52.3185 28.9732C52.3185 28.9732 52.5745 28.9732 52.5745 28.7152C52.8304 28.4572 52.8304 28.1992 53.0864 27.9412C53.0864 27.9412 53.0864 27.6832 52.8304 27.6832C52.5745 27.6832 52.5745 27.6832 52.5745 27.6832Z" fill="#93C64C"/>
<path fill-rule="evenodd" clip-rule="evenodd" d="M53.3419 27.9412C53.3419 28.1992 53.3419 28.4572 53.0859 28.4572C53.0859 28.7152 53.0859 28.7152 53.0859 28.7152C53.3419 28.7152 53.3419 28.7152 53.3419 28.7152C53.5979 28.4572 53.5979 28.1992 53.5979 28.1992V27.9412C53.3419 27.9412 53.3419 27.9412 53.3419 27.9412Z" fill="#93C64C"/>
<path fill-rule="evenodd" clip-rule="evenodd" d="M51.2941 28.1992C51.0381 28.4572 51.0381 28.4572 51.0381 28.7152V28.9732C51.0381 28.9732 51.2941 28.9732 51.2941 28.7152C51.2941 28.7152 51.2941 28.4572 51.55 28.1992H51.2941Z" fill="#93C64C"/>
<path fill-rule="evenodd" clip-rule="evenodd" d="M50.0138 32.3271C50.0138 32.5851 50.0138 32.5851 49.7578 32.5851C49.7578 32.5851 49.7578 32.8431 50.0138 32.8431C50.0138 32.8431 50.0138 32.8431 50.2698 32.8431C50.2698 32.8431 50.2698 32.8431 50.2698 32.5851C50.5257 32.5851 50.5257 32.5851 50.2698 32.3271C50.0138 32.3271 50.0138 32.3271 50.0138 32.3271Z" fill="#93C64C"/>
<path fill-rule="evenodd" clip-rule="evenodd" d="M47.9661 29.4891C47.9661 29.4891 47.9661 29.4891 47.9661 29.7471C47.7101 30.0051 47.7101 30.2631 47.4541 30.5211C47.4541 30.5211 47.4541 30.7791 47.7101 30.7791H47.9661C47.9661 30.5211 48.222 30.5211 48.222 30.2631C48.222 30.0051 48.222 30.0051 48.478 29.7471C48.478 29.7471 48.478 29.7471 48.478 29.4891C48.222 29.4891 48.222 29.4891 48.222 29.4891H47.9661Z" fill="#93C64C"/>
<path fill-rule="evenodd" clip-rule="evenodd" d="M49.5021 27.9412C49.5021 28.1992 49.2461 28.1992 49.2461 28.4572V28.7152C49.2461 28.7152 49.2461 28.7152 49.2461 28.9732C49.5021 29.2312 49.758 28.9732 49.758 28.9732C49.758 28.7152 50.014 28.4572 50.014 28.1992C50.014 27.9412 50.014 27.9412 49.758 27.9412C49.5021 27.9412 49.5021 27.9412 49.5021 27.9412Z" fill="#93C64C"/>
<path fill-rule="evenodd" clip-rule="evenodd" d="M50.0139 29.4892C49.7579 29.7472 49.502 30.0052 49.502 30.2632C49.502 30.2632 49.502 30.2632 49.502 30.5212H49.7579C49.7579 30.5212 49.7579 30.5212 50.0139 30.5212C50.0139 30.2632 50.2699 30.0052 50.5259 29.4892C50.5259 29.4892 50.5259 29.2312 50.2699 29.2312C50.0139 29.2312 50.0139 29.2312 50.0139 29.4892Z" fill="#93C64C"/>
<path fill-rule="evenodd" clip-rule="evenodd" d="M46.4308 31.0372C46.4308 31.2952 46.1748 31.2952 46.1748 31.5532H46.4308C46.4308 31.5532 46.4308 31.2952 46.6868 31.2952C46.6868 31.2952 46.6868 31.2952 46.6868 31.0372H46.4308Z" fill="#93C64C"/>
<path fill-rule="evenodd" clip-rule="evenodd" d="M46.4309 34.1332C46.4309 34.3912 46.1749 34.6492 45.9189 34.9072C45.9189 34.9072 45.9189 34.9072 46.1749 34.9072C46.1749 34.6492 46.4309 34.3912 46.6869 34.1332C46.6869 34.1332 46.6869 34.1332 46.6869 33.8752L46.4309 34.1332Z" fill="#93C64C"/>
<path fill-rule="evenodd" clip-rule="evenodd" d="M51.8066 21.2333C51.8066 21.4913 51.8066 21.7493 51.8066 21.7493C51.8066 22.0073 51.8066 22.0073 52.0626 22.0073C52.0626 22.0073 52.0626 22.0073 52.0626 21.7493C52.3186 21.7493 52.3186 21.4913 52.3186 21.2333C52.3186 21.2333 52.3186 21.2333 52.0626 20.9753L51.8066 21.2333Z" fill="#93C64C"/>
<path fill-rule="evenodd" clip-rule="evenodd" d="M51.8062 12.2034C51.8062 12.4614 51.8062 12.4614 51.8062 12.7194C51.8062 12.9774 51.8061 12.9774 52.0621 12.9774V12.7194C52.0621 12.4614 52.0621 12.4614 52.0621 12.2034C52.0621 12.2034 52.0621 12.2034 51.8062 12.2034Z" fill="#93C64C"/>
<path fill-rule="evenodd" clip-rule="evenodd" d="M40.5434 37.2291C40.2874 37.2291 40.2874 37.2291 40.2874 37.2291C39.2635 37.4871 38.2396 37.7451 37.4717 38.5191C36.7037 39.2931 36.4478 40.0671 36.4478 40.5831C36.1918 41.3571 36.1918 42.1311 36.1918 43.1631C36.4478 43.6791 36.4478 44.4531 36.7037 45.2271C36.1918 46.5171 35.4239 47.807 35.1679 48.839C34.6559 50.129 34.144 51.419 33.888 52.709C33.3761 53.999 33.1201 55.289 32.8641 56.579C32.6081 57.869 32.6081 59.1589 32.6081 60.7069C32.3521 63.2869 32.8641 65.8669 33.3761 68.4469C34.144 71.2848 35.1679 73.8648 36.7037 76.4448C37.7276 78.5088 39.2635 80.3148 40.7993 82.1208C42.3352 83.6687 44.127 84.9587 45.9189 86.2487C50.0145 88.5707 54.622 89.8607 59.2296 90.1187C59.4856 90.1187 59.7415 90.1187 59.9975 90.1187C61.5334 90.1187 63.0692 89.8607 64.8611 89.6027C65.373 89.8607 65.629 90.1187 65.885 90.3767C66.3969 90.6347 66.9089 90.8927 67.4208 91.1507C68.1887 91.4087 68.9567 91.6667 69.7246 91.6667C69.9806 91.6667 70.2365 91.6667 70.4925 91.6667C70.7485 91.6667 71.0045 91.4087 71.0045 91.4087C71.2605 91.4087 71.5164 91.4087 71.7724 91.1507C72.0284 91.1507 72.5403 90.8927 72.7963 90.3767C73.3083 89.8607 73.8202 88.8287 73.8202 87.7967C73.8202 87.2807 73.8202 86.7647 73.5642 86.2487C73.5642 85.7327 73.3083 85.4747 73.0523 84.7007C74.5881 82.3788 76.124 79.2828 76.6359 76.1868C77.4039 73.3488 77.6598 69.9949 77.4039 66.8989C77.1479 63.8029 76.38 60.7069 75.1001 57.611C74.0762 54.773 72.7963 52.193 71.0045 49.871C70.2365 48.839 69.2126 47.549 68.1887 46.5171C67.1648 45.7431 65.885 44.7111 64.8611 43.6791C63.5812 42.9051 62.0453 42.1311 60.7654 41.6151C59.2296 40.8411 57.6937 40.3251 55.9019 40.0671C52.5742 39.5511 48.9906 39.2931 45.1509 39.2931H44.383C44.127 39.0351 43.6151 38.5191 43.3591 38.2611C43.1031 38.0031 42.8472 38.0031 42.5912 37.7451C42.3352 37.7451 42.0792 37.4871 41.8232 37.4871C41.3113 37.2291 41.0553 37.2291 40.5434 37.2291Z" fill="#FCCE08"/>
<path fill-rule="evenodd" clip-rule="evenodd" d="M56.9253 42.905C56.4133 42.905 56.1573 42.905 55.9014 43.421C55.9014 43.421 55.9014 43.679 55.9014 43.937C55.9014 43.937 55.9014 43.937 55.9014 44.195C55.9014 44.453 56.1573 44.969 56.4133 45.227C56.6693 45.743 57.1812 46.001 57.4372 46.259C57.9492 46.775 58.2051 47.033 58.7171 47.033C58.9731 47.291 59.2291 47.291 59.485 47.291C59.741 47.291 59.997 47.291 60.253 47.291C60.253 47.291 60.5089 47.033 60.7649 47.033C61.0209 46.775 61.0209 46.775 61.2769 46.517C61.2769 46.259 61.2769 46.001 61.2769 46.001C61.2769 45.743 61.2769 45.485 61.2769 45.227C61.0209 45.227 61.0209 44.969 60.7649 44.711C60.7649 44.711 60.5089 44.453 60.253 44.453C59.997 43.937 59.485 43.679 59.2291 43.679C58.7171 43.421 58.4611 43.163 58.2051 43.163C57.6932 42.905 57.4372 42.905 56.9253 42.905Z" fill="#FEDB47"/>
<path fill-rule="evenodd" clip-rule="evenodd" d="M52.0625 41.6151C52.0625 41.8731 52.0625 42.1311 52.0625 42.1311C52.3185 42.389 52.5745 42.647 53.0864 42.905C53.3424 43.163 53.8543 43.163 54.1103 43.163C54.3663 43.163 54.3663 43.163 54.6223 42.905V42.647C54.6223 42.389 54.6223 42.389 54.6223 42.1311H54.3663C54.3663 41.8731 54.1103 41.8731 53.8543 41.6151C53.3424 41.6151 52.8304 41.3571 52.5745 41.3571C52.3185 41.3571 52.0625 41.6151 52.0625 41.6151Z" fill="#FEDB47"/>
<path fill-rule="evenodd" clip-rule="evenodd" d="M62.0446 49.613C61.7887 49.613 61.7887 49.871 61.7887 49.871V50.129C61.5327 50.129 61.5327 50.387 61.7887 50.645C61.7887 50.645 61.7887 50.645 61.7887 50.903L62.0446 51.161C62.3006 51.677 62.3006 51.935 62.5566 52.193H62.8126C62.8126 52.193 62.8126 52.451 63.0685 52.451C63.3245 52.967 64.0924 53.741 64.8604 53.741C64.8604 53.741 64.8604 53.741 65.1163 53.741C65.3723 53.741 65.3723 53.741 65.6283 53.483C65.8843 53.225 65.8843 53.225 65.8843 52.967C65.8843 52.967 65.8843 52.967 65.6283 52.709H65.8843C65.8843 52.451 65.6283 51.935 65.3723 51.677C65.1163 51.419 64.8604 50.903 64.6044 50.645C64.3484 50.387 64.0924 50.129 63.5805 49.871H63.3245C63.0685 49.613 62.8126 49.613 62.8126 49.613C62.5566 49.613 62.5566 49.613 62.3006 49.613H62.0446Z" fill="#FEDB47"/>
<path fill-rule="evenodd" clip-rule="evenodd" d="M62.8126 45.743C62.8126 46.001 62.5566 46.259 62.5566 46.259C62.5566 46.517 62.5566 46.517 62.5566 46.775C62.8126 46.775 62.8126 47.033 62.8126 47.033C63.0686 47.291 63.3246 47.549 63.5805 47.807C63.5805 48.065 63.8365 48.065 64.0925 48.323C64.3485 48.323 64.6044 48.581 64.8604 48.581H65.1164C65.3724 48.581 65.3724 48.581 65.6284 48.581C65.6284 48.323 65.8843 48.065 65.8843 47.807C65.6284 47.549 65.3724 47.033 65.1164 46.775H64.8604C64.3485 46.259 63.8365 46.001 63.3246 45.743H63.0686H62.8126Z" fill="#FEDB47"/>
<path fill-rule="evenodd" clip-rule="evenodd" d="M68.4446 52.1929H68.1886C68.1886 52.1929 67.9326 52.4509 67.9326 52.7089V52.9669C67.9326 53.2249 67.9326 53.4829 67.9326 53.4829C67.9326 53.7409 68.1886 53.9989 68.1886 54.2569C68.4446 54.5149 68.7005 54.7729 68.9565 55.0308C68.9565 55.2888 69.2125 55.5468 69.4685 55.5468C69.7244 55.5468 69.7244 55.5468 69.9804 55.5468C69.9804 55.5468 69.9804 55.5468 70.2364 55.5468L70.4924 55.2888V55.0308C70.4924 54.5149 70.2364 53.9989 69.9804 53.4829C69.9804 53.2249 69.7244 52.9669 69.7244 52.9669C69.4685 52.7089 69.2125 52.4509 68.9565 52.4509C68.9565 52.1929 68.9565 52.1929 68.7005 52.1929C68.4446 52.1929 68.4446 52.1929 68.4446 52.1929Z" fill="#FEDB47"/>
<path fill-rule="evenodd" clip-rule="evenodd" d="M34.3995 50.9031C34.1436 51.6771 33.8876 52.1931 33.6316 52.7091C33.3756 53.9991 33.1197 55.289 32.8637 56.579C32.6077 57.869 32.6077 59.159 32.6077 60.707C32.3517 63.287 32.6077 65.867 33.3756 68.4469C34.1436 71.2849 35.1675 73.8649 36.7033 76.4449C37.7272 78.5089 39.2631 80.3148 40.7989 82.1208C42.3348 83.6688 44.1266 84.9588 45.9184 86.2488C50.0141 88.5708 54.3656 89.8608 59.2292 90.1188C59.4852 90.1188 59.7411 90.1188 59.9971 90.1188C61.533 90.1188 63.0688 89.8608 64.8606 89.6028C65.3726 89.8608 65.6286 90.1188 65.8845 90.3768C66.3965 90.6348 66.9085 90.8928 67.4204 91.1508C68.1883 91.4088 68.9563 91.6667 69.7242 91.6667C69.9802 91.6667 70.2361 91.6667 70.4921 91.6667C70.7481 91.6667 71.0041 91.4088 71.0041 91.4088C71.26 91.4088 71.516 91.4088 71.772 91.1508C72.028 91.1508 72.5399 90.8928 72.7959 90.3768C73.5638 89.8608 73.8198 88.8288 73.8198 87.7968C73.8198 87.2808 73.8198 86.7648 73.5638 86.2488C73.5638 85.7328 73.3078 85.2168 73.0519 84.7008C74.8437 82.3788 76.1236 79.2828 76.8915 76.1869C76.8915 75.4129 77.1475 74.3809 77.4035 73.3489C76.8915 74.1229 76.6355 75.1549 76.3796 75.9289C75.8676 76.9609 75.3557 77.7349 74.5877 78.7669C74.0758 79.5408 73.3078 80.3148 72.5399 81.0888C71.772 81.8628 71.0041 82.6368 69.9802 83.1528C69.2122 83.6688 68.1883 84.1848 67.1644 84.7008C66.1405 84.9588 65.1166 85.2168 64.0927 85.4748C63.5808 85.4748 63.0688 85.4748 62.3009 85.7328C61.7889 85.7328 61.277 85.7328 61.021 85.7328H60.765C59.7411 85.7328 58.7172 85.4748 57.6933 85.4748C55.6455 85.2168 53.5977 84.4428 51.8059 83.6688C49.7581 82.8948 47.9663 81.8628 46.4304 80.5728C44.6386 79.2828 43.1027 77.7349 41.8228 75.9289C40.287 74.3809 39.2631 72.5749 37.9832 70.7689C36.9593 68.7049 36.1914 66.8989 35.4234 64.835C34.9115 62.771 34.3995 60.707 34.1436 58.643C33.8876 56.321 33.8876 54.257 34.1436 52.1931C34.1436 51.9351 34.1436 51.4191 34.3995 50.9031Z" fill="#F9BF0E"/>
<path fill-rule="evenodd" clip-rule="evenodd" d="M54.1093 78.7668C53.5974 79.0248 53.3414 79.0248 53.0854 79.5408C53.0854 79.7988 52.8295 79.7988 53.0854 80.0568C53.0854 80.3148 53.0854 80.5728 53.0854 80.5728C53.0854 80.8308 53.3414 81.0888 53.3414 81.3468C53.5974 81.8628 53.8534 82.1208 54.3653 82.3788C54.8773 82.6368 55.3892 82.8948 56.1572 82.8948C56.6691 83.1528 57.1811 83.1528 57.693 83.1528C57.949 83.1528 58.205 83.1528 58.4609 83.1528C58.7169 83.1528 58.7169 82.8948 58.9729 82.8948C59.2289 82.6368 59.2289 82.6368 59.2289 82.3788C59.4848 82.1208 59.2289 81.8628 59.2289 81.6048C58.9729 81.3468 58.9729 81.0888 58.7169 81.0888C58.4609 80.5728 57.949 80.5728 57.693 80.3148C56.9251 79.7988 56.1572 79.2828 55.3892 79.0248C54.8773 79.0248 54.6213 78.7668 54.1093 78.7668Z" fill="#F9BF0E"/>
<path fill-rule="evenodd" clip-rule="evenodd" d="M51.0383 74.1228H50.7823L50.5264 74.3808V74.6388V74.8968C50.7823 75.4128 51.2943 75.9288 51.5503 76.1868C51.8062 76.1868 51.8062 76.1868 52.0622 76.1868C52.3182 76.1868 52.3182 76.1868 52.3182 76.1868C52.5742 76.1868 52.5742 75.9288 52.5742 75.9288V75.6708V75.4128C52.5742 75.1548 52.3182 75.1548 52.3182 74.8968C52.0622 74.6388 51.8062 74.3808 51.2943 74.1228H51.0383Z" fill="#F9BF0E"/>
<path fill-rule="evenodd" clip-rule="evenodd" d="M41.8227 67.157H41.5668C41.5668 67.157 41.3108 67.157 41.3108 67.415C41.0548 67.673 41.0548 67.931 40.7988 68.189C40.7988 68.705 40.7988 68.963 40.7988 69.221C41.0548 69.737 41.0548 70.253 41.3108 70.511C41.5668 70.7689 41.5668 71.0269 42.0787 71.2849C42.0787 71.5429 42.3347 71.8009 42.5907 71.8009C42.8466 71.8009 42.8466 72.0589 43.1026 72.0589C43.1026 72.0589 43.1026 72.0589 43.3586 72.0589C43.3586 72.0589 43.3586 72.0589 43.6146 72.0589C43.6146 72.0589 43.6146 72.0589 43.8705 71.8009C44.1265 71.8009 44.1265 71.5429 44.3825 71.5429C44.3825 71.2849 44.3825 70.7689 44.3825 70.511C44.3825 69.995 44.1265 69.479 43.8705 69.221C43.6146 68.705 43.3586 68.189 43.1026 67.931C42.8466 67.673 42.5907 67.415 42.0787 67.157C41.8227 67.157 41.8227 67.157 41.8227 67.157Z" fill="#F9BF0E"/>
<path fill-rule="evenodd" clip-rule="evenodd" d="M44.1272 64.319C43.8712 64.319 43.8712 64.319 43.8712 64.319C43.6152 64.577 43.6152 64.577 43.6152 64.835C43.6152 64.835 43.6152 65.093 43.8712 65.093V65.351C44.1272 65.351 44.1272 65.609 44.1272 65.609L44.3832 65.867C44.3832 66.125 44.6391 66.125 44.6391 66.125C44.8951 66.125 44.8951 65.867 44.8951 65.867V65.609C44.8951 65.609 44.8951 65.609 44.8951 65.351V65.093C44.6391 64.835 44.6391 64.835 44.6391 64.577C44.6391 64.577 44.6391 64.577 44.3832 64.577C44.3832 64.319 44.1272 64.319 44.1272 64.319Z" fill="#F9BF0E"/>
<path fill-rule="evenodd" clip-rule="evenodd" d="M40.2875 59.4169C40.0315 59.4169 40.0315 59.4169 39.7755 59.6749V59.9329L39.5195 60.1909V60.4489V60.7069C39.5195 60.9649 39.5195 61.2229 39.5195 61.2229C39.5195 61.4809 39.5195 61.7389 39.5195 61.9969C39.7755 62.2548 39.7755 62.5128 40.0315 62.7708C40.0315 63.0288 40.2875 63.2868 40.2875 63.2868C40.2875 63.5448 40.5434 63.5448 40.5434 63.8028C40.7994 63.8028 40.7994 64.0608 41.0554 64.0608H41.3114C41.3114 64.3188 41.3114 64.3188 41.3114 64.3188C41.5673 64.3188 41.8233 64.0608 41.8233 64.0608C42.0793 63.5448 42.0793 63.2868 42.0793 62.7708C42.0793 62.5128 42.0793 61.9969 41.8233 61.4809C41.8233 61.2229 41.5673 60.7069 41.5673 60.4489C41.3114 59.9329 41.0554 59.6749 40.7994 59.4169C40.5434 59.4169 40.5434 59.4169 40.2875 59.4169Z" fill="#F9BF0E"/>
<path fill-rule="evenodd" clip-rule="evenodd" d="M37.9836 61.2229C37.9836 61.2229 37.9836 61.2229 37.7277 61.2229C37.7277 61.2229 37.4717 61.2229 37.4717 61.4809V61.7389C37.4717 61.9969 37.4717 61.9969 37.4717 62.2549V62.5129V62.7709L37.7277 63.0289V63.2869L37.9836 63.5449C37.9836 63.5449 37.9836 63.5449 38.2396 63.5449V63.8029L38.4956 63.5449C38.7516 63.0289 38.7516 62.7709 38.7516 62.5129C38.7516 62.2549 38.7516 62.2549 38.7516 61.9969C38.4956 61.7389 38.4956 61.7389 38.4956 61.4809C38.4956 61.2229 38.2396 61.2229 37.9836 61.2229Z" fill="#F9BF0E"/>
<path fill-rule="evenodd" clip-rule="evenodd" d="M36.7038 51.6771C36.4478 51.6771 36.4478 51.6771 36.4478 51.6771L36.1919 51.9351C35.9359 51.9351 35.9359 52.1931 35.6799 52.4511C35.6799 52.7091 35.6799 52.9671 35.4239 52.9671C35.4239 53.4831 35.168 53.9991 35.168 54.5151C35.168 55.0311 35.4239 55.5471 35.4239 56.0631C35.6799 56.3211 35.6799 56.3211 35.6799 56.5791C35.9359 56.8371 35.9359 57.0951 36.1919 57.3531C36.1919 57.3531 36.1919 57.3531 36.4478 57.3531C36.4478 57.6111 36.4478 57.6111 36.4478 57.6111C36.7038 57.6111 36.7038 57.6111 36.9598 57.6111H37.2158C37.4717 57.3531 37.7277 57.0951 37.7277 56.8371C37.7277 56.8371 37.7277 56.5791 37.9837 56.3211C37.9837 56.0631 37.9837 55.8051 37.9837 55.5471C37.9837 55.2891 37.7277 54.7731 37.7277 54.2571C37.7277 53.7411 37.4717 53.2251 37.4717 52.9671C37.4717 52.7091 37.4717 52.4511 37.2158 52.4511C37.2158 52.1931 37.2158 52.1931 36.9598 51.9351C36.9598 51.6771 36.9598 51.6771 36.7038 51.6771Z" fill="#F9BF0E"/>
</svg>
