<svg width="36" height="31" viewBox="0 0 36 31" fill="none" xmlns="http://www.w3.org/2000/svg">
<path d="M10.4905 22.4989C-0.0720215 22.4989 -0.523293 9.46922 7.7124 8.99099C8.52018 9.01669 9.42168 9.16199 10.42 9.44876C10.42 -0.173461 25.5094 -0.794659 25.5094 9.46921C26.5359 9.16887 27.4609 9.01728 28.2876 8.99099C36.5233 9.46922 36.072 22.4989 25.5094 22.4989V25.3081L10.5258 25.3081L10.4905 22.4989Z" fill="#FFD850"/>
<path d="M10.42 19.6478L10.4905 22.4989M25.5094 19.6478V25.3081M10.4905 22.4989C-0.0720215 22.4989 -0.523293 9.46922 7.7124 8.99099C8.52018 9.01669 9.42168 9.16199 10.42 9.44876C10.42 -0.173461 25.5094 -0.794659 25.5094 9.46921C26.5359 9.16887 27.4609 9.01728 28.2876 8.99099C36.5233 9.46922 36.072 22.4989 25.5094 22.4989V25.3081M10.4905 22.4989L10.5258 25.3081L25.5094 25.3081M19.2762 29.1719C20.254 28.7389 22.8695 28.1328 25.5094 29.1719M16.6532 29.1719C15.6755 28.7389 13.06 28.1328 10.42 29.1719" stroke="#323232" stroke-width="2.4" stroke-linecap="round" stroke-linejoin="round"/>
</svg>
