<svg width="120" height="120" viewBox="0 0 120 120" fill="none" xmlns="http://www.w3.org/2000/svg">
<path d="M62.626 32.376C62.5481 31.7364 62.0079 31.25 61.3635 31.25H58.659C58.0052 31.25 57.4598 31.7515 57.3896 32.4015C57.1489 34.6297 56.4758 39.62 55 43.125C53.66 46.3075 49.7759 50.3433 45.0234 53.1666C35.625 58.75 30 64.9515 30 73.75C30 86.8668 43.4315 97.5 60 97.5C76.5685 97.5 90 86.8668 90 73.75C90 64.8853 83.2036 58.5046 74.7734 53.0746C70 50 66.3297 46.445 65 43.125C63.634 39.7144 62.8992 34.6174 62.626 32.376Z" fill="#E289B0"/>
<path fill-rule="evenodd" clip-rule="evenodd" d="M58.659 28.75H61.3635C63.2938 28.75 64.8795 30.2016 65.1077 32.0736C65.3831 34.3333 66.0913 39.1257 67.3208 42.1955C68.3541 44.7754 71.4755 47.9767 76.1272 50.9728C84.5894 56.4234 92.5 63.4585 92.5 73.75C92.5 88.7604 77.3732 100 60 100C42.6268 100 27.5 88.7604 27.5 73.75C27.5 63.602 34.1041 56.7457 43.7466 51.0173C48.2404 48.3476 51.6387 44.6657 52.6959 42.1549C54.0147 39.0228 54.663 34.3645 54.904 32.133C55.1079 30.2457 56.6965 28.75 58.659 28.75ZM61.3635 31.25C62.0079 31.25 62.5481 31.7364 62.626 32.376C62.8992 34.6174 63.634 39.7144 65 43.125C66.3297 46.445 70 50 74.7734 53.0746C83.2036 58.5046 90 64.8853 90 73.75C90 86.8668 76.5685 97.5 60 97.5C43.4315 97.5 30 86.8668 30 73.75C30 64.9515 35.625 58.75 45.0234 53.1666C49.7759 50.3433 53.66 46.3075 55 43.125C56.4758 39.62 57.1489 34.6297 57.3896 32.4015C57.4598 31.7515 58.0052 31.25 58.659 31.25H61.3635Z" fill="#9D225D"/>
<path d="M51.4723 58.2716C54.368 61.2333 52.8565 67.4072 48.0962 72.0613C43.3359 76.7153 37.1296 78.0871 34.2339 75.1254C31.3382 72.1636 32.8497 65.9897 37.6099 61.3357C42.3702 56.6816 48.5766 55.3098 51.4723 58.2716Z" fill="#FFA7CF"/>
<path fill-rule="evenodd" clip-rule="evenodd" d="M58.4218 31.2725C57.8775 31.3766 57.4512 31.8321 57.3897 32.4015C57.3077 33.1607 57.1755 34.2403 56.9785 35.4727C57.5762 33.9495 58.0641 32.4589 58.4218 31.2725ZM37.9805 89.8803C41.7296 92.1408 46.1174 93.7854 50.9199 94.5684C67.2725 97.2345 82.24 88.9011 84.3506 75.9553C85.7771 67.2061 80.096 59.8149 72.6494 53.0992C69.2853 50.0652 66.6635 46.8425 65.3457 43.8906C66.8977 46.986 70.3652 50.2352 74.7735 53.0746C83.2037 58.5046 90.0001 64.8853 90.0001 73.75C90.0001 86.8668 76.5687 97.5 60.0001 97.5C51.2975 97.5 43.4604 94.5665 37.9805 89.8803Z" fill="#C7638F"/>
<path d="M62.5 72.5C62.5 84.9264 61.9404 95 61.25 95C60.5596 95 60 84.9264 60 72.5C60 60.0736 60.5596 50 61.25 50C61.9404 50 62.5 60.0736 62.5 72.5Z" fill="#C54C82"/>
<path d="M82.5 71.875C82.5 82.5755 71.9741 91.25 71.286 91.25C70.5978 91.25 80.008 82.5755 80.008 71.875C80.008 61.1745 70.5978 52.5 71.286 52.5C71.9741 52.5 82.5 61.1745 82.5 71.875Z" fill="#C54C82"/>
<path d="M37.5 71.875C37.5 82.5755 48.0259 91.25 48.714 91.25C49.4022 91.25 39.992 82.5755 39.992 71.875C39.992 61.1745 49.4022 52.5 48.714 52.5C48.0259 52.5 37.5 61.1745 37.5 71.875Z" fill="#C54C82"/>
<path d="M72.5 73.125C72.5 85.2062 66.5718 95 66.266 95C65.9601 95 68.8924 85.2062 68.8924 73.125C68.8924 61.0438 65.9601 51.25 66.266 51.25C66.5718 51.25 72.5 61.0438 72.5 73.125Z" fill="#C54C82"/>
<path d="M48.75 73.125C48.75 85.2062 54.6782 95 54.984 95C55.2899 95 52.3576 85.2062 52.3576 73.125C52.3576 61.0438 55.2899 51.25 54.984 51.25C54.6782 51.25 48.75 61.0438 48.75 73.125Z" fill="#C54C82"/>
<path d="M82.2248 76.2606C81.7279 77.2196 80.5477 77.5943 79.5887 77.0974C78.6296 76.6006 78.255 75.4203 78.7518 74.4613C79.2487 73.5023 80.4289 73.1276 81.3879 73.6245C82.347 74.1213 82.7216 75.3015 82.2248 76.2606Z" fill="#A3446E"/>
<path d="M86.2987 82.1454C85.8019 83.1044 84.6216 83.4791 83.6626 82.9822C82.7036 82.4854 82.3289 81.3052 82.8258 80.3461C83.3226 79.3871 84.5029 79.0124 85.4619 79.5093C86.4209 80.0061 86.7956 81.1864 86.2987 82.1454Z" fill="#A3446E"/>
<path d="M87.566 75.2469C87.1934 75.9662 86.3082 76.2472 85.5889 75.8745C84.8697 75.5019 84.5887 74.6167 84.9613 73.8974C85.3339 73.1782 86.2191 72.8972 86.9384 73.2698C87.6577 73.6425 87.9387 74.5276 87.566 75.2469Z" fill="#A3446E"/>
<path d="M82.2187 87.9219C81.7219 88.8809 80.5416 89.2556 79.5826 88.7587C78.6236 88.2619 78.2489 87.0816 78.7458 86.1226C79.2426 85.1636 80.4228 84.7889 81.3819 85.2858C82.3409 85.7826 82.7156 86.9629 82.2187 87.9219Z" fill="#A3446E"/>
<path d="M79.3707 81.94C78.8738 82.899 77.6936 83.2737 76.7345 82.7769C75.7755 82.28 75.4008 81.0998 75.8977 80.1407C76.3946 79.1817 77.5748 78.807 78.5338 79.3039C79.4928 79.8008 79.8675 80.981 79.3707 81.94Z" fill="#A3446E"/>
<path d="M75.4743 91.937C74.9774 92.8961 73.7972 93.2707 72.8382 92.7739C71.8791 92.277 71.5045 91.0968 72.0013 90.1378C72.4982 89.1787 73.6784 88.8041 74.6374 89.3009C75.5965 89.7978 75.9711 90.978 75.4743 91.937Z" fill="#A3446E"/>
<path d="M73.7584 85.9725C73.2616 86.9316 72.0814 87.3062 71.1223 86.8094C70.1633 86.3125 69.7886 85.1323 70.2855 84.1732C70.7823 83.2142 71.9626 82.8395 72.9216 83.3364C73.8806 83.8333 74.2553 85.0135 73.7584 85.9725Z" fill="#A3446E"/>
<path d="M68.0902 94.1628C67.7176 94.8821 66.8324 95.1631 66.1131 94.7904C65.3939 94.4178 65.1129 93.5326 65.4855 92.8134C65.8582 92.0941 66.7433 91.8131 67.4626 92.1857C68.1819 92.5584 68.4629 93.4435 68.0902 94.1628Z" fill="#A3446E"/>
<path fill-rule="evenodd" clip-rule="evenodd" d="M42.0847 63.8457C43.0845 64.7979 43.1231 66.3803 42.1709 67.3802C41.4444 68.143 40.9435 68.9709 40.6352 69.8748C40.1897 71.1816 38.769 71.8798 37.4622 71.4342C36.1554 70.9886 35.4572 69.568 35.9028 68.2611C36.4556 66.6398 37.349 65.1931 38.5502 63.9319C39.5024 62.932 41.0848 62.8935 42.0847 63.8457Z" fill="white"/>
</svg>
