<svg width="100" height="100" viewBox="0 0 100 100" fill="none" xmlns="http://www.w3.org/2000/svg">
<path d="M53.0972 12.5743C53.0053 11.8262 52.3682 11.2573 51.6081 11.2573H48.4182C47.6471 11.2573 47.0037 11.8439 46.9209 12.6041C46.637 15.2102 45.8431 21.0468 44.1024 25.1462C42.5219 28.8685 37.9407 33.5886 32.3352 36.8908C21.2499 43.4211 14.6152 50.6743 14.6152 60.9649C14.6152 76.3062 30.4575 88.7427 49.9999 88.7427C69.5422 88.7427 85.3845 76.3062 85.3845 60.9649C85.3845 50.5969 77.3682 43.134 67.4249 36.7832C61.7947 33.1871 57.4657 29.0293 55.8973 25.1462C54.2861 21.1572 53.4195 15.1958 53.0972 12.5743Z" fill="#E289B0"/>
<path fill-rule="evenodd" clip-rule="evenodd" d="M48.4182 8.33337H51.6081C53.8849 8.33337 55.7552 10.0312 56.0243 12.2206C56.3491 14.8636 57.1844 20.4687 58.6346 24.0591C59.8533 27.0765 63.535 30.8207 69.0216 34.325C79.0027 40.7 88.3332 48.9281 88.3332 60.9649C88.3332 78.521 70.4913 91.6667 49.9998 91.6667C29.5083 91.6667 11.6665 78.521 11.6665 60.9649C11.6665 49.0959 19.4559 41.0769 30.8291 34.377C36.1295 31.2546 40.1378 26.9482 41.3848 24.0116C42.9402 20.3483 43.7049 14.9 43.9892 12.2901C44.2297 10.0827 46.1034 8.33337 48.4182 8.33337ZM51.6081 11.2574C52.3682 11.2574 53.0053 11.8262 53.0972 12.5744C53.4194 15.1958 54.2861 21.1573 55.8973 25.1462C57.4656 29.0293 61.7947 33.1872 67.4249 36.7832C77.3682 43.134 85.3845 50.5969 85.3845 60.9649C85.3845 76.3062 69.5422 88.7427 49.9998 88.7427C30.4575 88.7427 14.6152 76.3062 14.6152 60.9649C14.6152 50.6743 21.2498 43.4211 32.3352 36.8908C37.9407 33.5886 42.5219 28.8685 44.1024 25.1462C45.8431 21.0468 46.637 15.2103 46.9209 12.6042C47.0037 11.8439 47.6471 11.2574 48.4182 11.2574H51.6081Z" fill="#9D225D"/>
<path d="M39.9415 42.8615C43.357 46.3256 41.5741 53.5465 35.9595 58.9898C30.3448 64.4331 23.0245 66.0376 19.609 62.5735C16.1936 59.1095 17.9764 51.8886 23.5911 46.4452C29.2057 41.0019 36.5261 39.3974 39.9415 42.8615Z" fill="#FFA7CF"/>
<path fill-rule="evenodd" clip-rule="evenodd" d="M48.1386 11.2836C47.4966 11.4054 46.9938 11.9381 46.9213 12.6041C46.8245 13.492 46.6686 14.7548 46.4362 16.1961C47.1413 14.4146 47.7167 12.6712 48.1386 11.2836ZM24.0283 79.8307C28.4503 82.4746 33.6257 84.3981 39.2902 85.3139C58.5779 88.4322 76.2318 78.6855 78.7213 63.5442C80.4038 53.3113 73.703 44.6666 64.9199 36.8119C60.952 33.2634 57.8596 29.4941 56.3053 26.0417C58.1358 29.662 62.2257 33.4622 67.4252 36.7832C77.3685 43.134 85.3848 50.5969 85.3848 60.9649C85.3848 76.3062 69.5426 88.7427 50.0002 88.7427C39.7356 88.7427 30.4918 85.3116 24.0283 79.8307Z" fill="#C7638F"/>
<path d="M52.9486 59.5029C52.9486 74.0367 52.2885 85.8187 51.4742 85.8187C50.66 85.8187 49.9999 74.0367 49.9999 59.5029C49.9999 44.9691 50.66 33.1871 51.4742 33.1871C52.2885 33.1871 52.9486 44.9691 52.9486 59.5029Z" fill="#C54C82"/>
<path d="M76.5384 58.7719C76.5384 71.2872 64.1232 81.4327 63.3116 81.4327C62.4999 81.4327 73.5991 71.2872 73.5991 58.7719C73.5991 46.2567 62.4999 36.1111 63.3116 36.1111C64.1232 36.1111 76.5384 46.2567 76.5384 58.7719Z" fill="#C54C82"/>
<path d="M23.4614 58.7719C23.4614 71.2872 35.8766 81.4327 36.6882 81.4327C37.4999 81.4327 26.4007 71.2872 26.4007 58.7719C26.4007 46.2567 37.4999 36.1111 36.6882 36.1111C35.8766 36.1111 23.4614 46.2567 23.4614 58.7719Z" fill="#C54C82"/>
<path d="M64.7434 60.2339C64.7434 74.364 57.7512 85.8187 57.3905 85.8187C57.0298 85.8187 60.4884 74.364 60.4884 60.2339C60.4884 46.1038 57.0298 34.6491 57.3905 34.6491C57.7512 34.6491 64.7434 46.1038 64.7434 60.2339Z" fill="#C54C82"/>
<path d="M36.7307 60.2339C36.7307 74.364 43.7229 85.8187 44.0836 85.8187C44.4444 85.8187 40.9858 74.364 40.9858 60.2339C40.9858 46.1038 44.4444 34.6491 44.0836 34.6491C43.7229 34.6491 36.7307 46.1038 36.7307 60.2339Z" fill="#C54C82"/>
<path d="M76.2139 63.9013C75.6279 65.023 74.2358 65.4612 73.1046 64.8801C71.9735 64.2989 71.5316 62.9186 72.1176 61.7969C72.7036 60.6752 74.0957 60.237 75.2269 60.8181C76.358 61.3992 76.7999 62.7796 76.2139 63.9013Z" fill="#A3446E"/>
<path d="M81.0191 70.7841C80.4331 71.9058 79.041 72.344 77.9098 71.7629C76.7786 71.1818 76.3367 69.8014 76.9228 68.6797C77.5088 67.558 78.9009 67.1198 80.032 67.701C81.1632 68.2821 81.6051 69.6625 81.0191 70.7841Z" fill="#A3446E"/>
<path d="M82.5138 62.7157C82.0743 63.557 81.0303 63.8856 80.1819 63.4498C79.3335 63.014 79.0021 61.9787 79.4416 61.1374C79.8811 60.2962 80.9252 59.9675 81.7735 60.4033C82.6219 60.8392 82.9534 61.8745 82.5138 62.7157Z" fill="#A3446E"/>
<path d="M76.2068 77.5403C75.6207 78.6619 74.2287 79.1001 73.0975 78.519C71.9663 77.9379 71.5244 76.5575 72.1104 75.4358C72.6965 74.3142 74.0885 73.876 75.2197 74.4571C76.3509 75.0382 76.7928 76.4186 76.2068 77.5403Z" fill="#A3446E"/>
<path d="M72.8475 70.5439C72.2615 71.6656 70.8694 72.1038 69.7382 71.5227C68.6071 70.9416 68.1652 69.5612 68.7512 68.4395C69.3372 67.3178 70.7293 66.8796 71.8605 67.4607C72.9916 68.0419 73.4335 69.4223 72.8475 70.5439Z" fill="#A3446E"/>
<path d="M68.2518 82.2363C67.6657 83.358 66.2737 83.7962 65.1425 83.2151C64.0113 82.634 63.5694 81.2536 64.1555 80.1319C64.7415 79.0103 66.1336 78.572 67.2647 79.1532C68.3959 79.7343 68.8378 81.1147 68.2518 82.2363Z" fill="#A3446E"/>
<path d="M66.228 75.2603C65.6419 76.382 64.2499 76.8202 63.1187 76.2391C61.9875 75.6579 61.5456 74.2776 62.1317 73.1559C62.7177 72.0342 64.1098 71.596 65.2409 72.1771C66.3721 72.7582 66.814 74.1386 66.228 75.2603Z" fill="#A3446E"/>
<path d="M59.5424 84.8396C59.1029 85.6808 58.0588 86.0095 57.2104 85.5737C56.3621 85.1378 56.0306 84.1025 56.4702 83.2613C56.9097 82.42 57.9537 82.0914 58.8021 82.5272C59.6505 82.963 59.9819 83.9983 59.5424 84.8396Z" fill="#A3446E"/>
<path fill-rule="evenodd" clip-rule="evenodd" d="M28.8692 49.3809C30.0485 50.4946 30.094 52.3454 28.9709 53.5148C28.114 54.407 27.5231 55.3753 27.1596 56.4325C26.6341 57.9609 24.9585 58.7775 23.4171 58.2563C21.8757 57.7352 21.0522 56.0736 21.5777 54.5452C22.2298 52.6489 23.2836 50.9568 24.7003 49.4817C25.8234 48.3123 27.6899 48.2672 28.8692 49.3809Z" fill="white"/>
</svg>
