<svg width="100" height="100" viewBox="0 0 100 100" fill="none" xmlns="http://www.w3.org/2000/svg">
<path fill-rule="evenodd" clip-rule="evenodd" d="M46.8468 71.7613C45.346 71.7613 45.1115 69.52 46.5654 69.2339C48.3008 68.8524 49.4733 68.2325 49.9892 67.3742C50.4113 66.6112 50.2237 65.8482 50.2237 65.8482C49.7078 64.3223 52.1466 63.4639 52.6157 65.1329C52.6626 65.276 53.1316 66.945 52.1466 68.6617C51.2555 70.1876 49.5671 71.189 47.0813 71.7136C46.9875 71.7136 46.8937 71.7613 46.8468 71.7613ZM31.8854 89.1666C10.5924 89.1666 1.82191 67.5649 19.3629 48.729C91.778 -28.856 101.627 35.52 79.6306 60.6981C58.0093 85.4471 40.4214 89.1666 31.8854 89.1666ZM73.8149 14.2043C65.2789 14.2043 49.1919 20.4989 21.192 50.4933C5.29258 67.5172 12.6091 86.5916 31.8854 86.5916C39.9993 86.5916 56.7898 83.0151 77.8015 58.9814C90.5116 44.3895 92.3877 14.2043 73.8149 14.2043ZM24.2875 78.1512C22.2707 78.1512 21.3796 72.9057 23.2087 69.9969C24.0999 68.5663 26.2104 69.9015 25.3193 71.3321C25.2724 71.4275 23.9123 73.7164 25.3662 76.2437C25.8352 77.1021 25.2255 78.1512 24.2875 78.1512ZM62.5118 24.4568C61.3861 24.4568 60.8233 23.0739 61.6206 22.311C64.7161 19.116 68.6089 20.3081 68.7965 20.3558C70.3442 20.8804 69.6407 23.2647 68.0461 22.7878C67.9054 22.7401 65.4196 22.0248 63.356 24.0753C63.1215 24.3138 62.7932 24.4568 62.5118 24.4568ZM34.8402 49.6827C33.7146 49.6827 33.1518 48.2998 33.9491 47.5368C37.0914 44.3419 40.9842 45.534 41.1249 45.5817C42.6727 46.1062 41.9691 48.4905 40.3745 48.0137C40.2807 47.966 37.7481 47.2507 35.7313 49.3012C35.4968 49.5396 35.1685 49.6827 34.8402 49.6827ZM73.8149 47.6799C72.8769 47.6799 72.2672 46.5831 72.7831 45.7247C72.83 45.6294 74.1901 43.3404 72.7362 40.8131C71.9389 39.3825 74.0963 38.095 74.9405 39.5256C77.1449 43.4358 74.9874 46.9646 74.8936 47.1076C74.6591 47.4891 74.237 47.6799 73.8149 47.6799Z" fill="#975A2E"/>
<path fill-rule="evenodd" clip-rule="evenodd" d="M46.8471 71.7613C45.3463 71.7613 45.1118 69.52 46.5657 69.2339C48.301 68.8524 49.4735 68.2325 49.9895 67.3742C50.4116 66.6112 50.224 65.8482 50.224 65.8482C49.708 64.3223 52.1469 63.4639 52.6159 65.1329C52.6628 65.276 53.1318 66.945 52.1469 68.6617C51.2558 70.1876 49.5673 71.189 47.0816 71.7136C46.9878 71.7136 46.894 71.7613 46.8471 71.7613ZM23.209 69.9969C24.1001 68.5663 26.2107 69.9015 25.3195 71.3321C25.2726 71.4275 23.9125 73.7164 25.3664 76.2437C25.8355 77.1021 25.2257 78.1512 24.2877 78.1512C22.271 78.1512 21.3799 72.9057 23.209 69.9969ZM77.8017 58.9814C90.5119 44.3895 92.3879 14.2043 73.8151 14.2043C65.2792 14.2043 49.1921 20.4989 21.1923 50.4933C5.29283 67.5172 12.6094 86.5916 31.8857 86.5916C39.9996 86.5916 56.7901 83.0151 77.8017 58.9814ZM62.512 24.4568C61.3864 24.4568 60.8236 23.0739 61.6209 22.311C64.7164 19.116 68.6091 20.3081 68.7967 20.3558C70.3445 20.8804 69.641 23.2647 68.0463 22.7878C67.9056 22.7401 65.4199 22.0248 63.3562 24.0753C63.1217 24.3138 62.7934 24.4568 62.512 24.4568ZM40.3748 48.0137C40.281 47.966 37.7483 47.2507 35.7316 49.3012C35.4971 49.5396 35.1688 49.6827 34.8404 49.6827C33.7148 49.6827 33.152 48.2998 33.9493 47.5368C37.0917 44.3419 40.9845 45.534 41.1252 45.5817C42.6729 46.1062 41.9694 48.4905 40.3748 48.0137ZM73.8151 47.6799C72.8771 47.6799 72.2674 46.5831 72.7833 45.7247C72.8302 45.6294 74.1904 43.3405 72.7364 40.8131C71.9391 39.3825 74.0966 38.095 74.9408 39.5256C77.1451 43.4358 74.9877 46.9646 74.8939 47.1076C74.6594 47.4891 74.2373 47.6799 73.8151 47.6799Z" fill="#FBB303"/>
</svg>
