<svg width="100" height="100" viewBox="0 0 100 100" fill="none" xmlns="http://www.w3.org/2000/svg">
<path fill-rule="evenodd" clip-rule="evenodd" d="M73.893 29.065C73.5657 29.065 38.872 42.2357 25.2891 28.7398C24.7982 28.252 24.7982 27.6015 25.2891 27.1137L40.0176 12.4796C45.5816 6.95114 54.4187 6.95114 59.9828 12.4796L74.7112 27.1137C75.2022 27.6015 75.2022 28.252 74.7112 28.7398C74.5476 28.9024 74.2203 29.065 73.893 29.065Z" fill="#F0F1F1"/>
<path fill-rule="evenodd" clip-rule="evenodd" d="M49.9998 91.6666C41.981 91.6666 34.2895 91.504 28.7254 91.1788C25.6161 91.0162 23.1613 90.8536 21.3612 90.5284C18.5792 90.2032 17.7609 89.7154 17.4336 89.2276C16.6154 87.9268 16.4517 86.3008 16.9427 84.8374C17.7609 82.2357 20.052 79.9593 22.1794 78.6585C20.2157 66.4634 20.2157 52.9674 22.5067 40.4471C19.5611 39.9593 17.4336 37.3577 17.4336 34.2682V33.13C17.4336 29.5528 20.2157 26.7886 23.8159 26.7886H76.1837C79.784 26.7886 82.5661 29.5528 82.5661 33.13V34.2682C82.5661 37.3577 80.4386 39.9593 77.4929 40.4471C79.784 52.9674 79.784 66.4634 77.8202 78.6585C79.9477 79.9593 82.2388 82.2357 83.057 84.8374C83.548 86.3008 83.3843 87.9268 82.5661 89.065C82.2388 89.7154 81.4205 90.2032 78.6385 90.5284C76.8383 90.8536 74.3836 91.0162 71.4379 91.1788C65.7102 91.504 58.0187 91.6666 49.9998 91.6666Z" fill="#BA8E79"/>
<path fill-rule="evenodd" clip-rule="evenodd" d="M44.4361 16.8699H44.2724C44.1088 16.8699 44.1088 16.8699 43.9451 16.8699C43.9451 16.7073 43.9451 16.7073 43.7815 16.7073L43.6178 16.5447L43.4542 16.3821V16.2195C43.2905 16.0569 43.2905 16.0569 43.2905 15.8943C43.2905 15.8943 43.2905 15.8943 43.2905 15.7317V15.5691C43.2905 15.4065 43.2905 15.4065 43.4542 15.2439C43.4542 15.2439 43.4542 15.2439 43.4542 15.0813C43.4542 15.0813 43.6178 15.0813 43.6178 14.9187C43.6178 14.9187 43.7815 14.9187 43.7815 14.7561C43.9451 14.7561 43.9451 14.7561 43.9451 14.7561C44.1088 14.5935 44.1088 14.5935 44.2724 14.5935C44.5997 14.5935 44.927 14.7561 45.2543 14.9187L45.418 15.0813C45.418 15.2439 45.418 15.2439 45.418 15.2439C45.5816 15.4065 45.5816 15.4065 45.5816 15.5691V15.7317C45.5816 15.8943 45.5816 15.8943 45.5816 16.0569C45.5816 16.0569 45.5816 16.0569 45.5816 16.2195C45.418 16.2195 45.418 16.3821 45.418 16.3821L45.2543 16.5447C45.0907 16.7073 44.7634 16.8699 44.4361 16.8699Z" fill="#D8D9D9"/>
<path fill-rule="evenodd" clip-rule="evenodd" d="M39.0352 24.3494H38.8715C38.7079 24.3494 38.7079 24.3494 38.5442 24.3494C38.5442 24.1868 38.5442 24.1868 38.3806 24.1868L38.2169 24.0242C38.0533 23.8616 37.8896 23.5364 37.8896 23.2112V23.0486C37.8896 22.886 37.8896 22.886 38.0533 22.7234C38.0533 22.7234 38.0533 22.7234 38.0533 22.5608L38.2169 22.3982C38.2169 22.3982 38.3806 22.3982 38.3806 22.2356C38.5442 22.2356 38.5442 22.2356 38.5442 22.2356C38.7079 22.073 38.7079 22.073 38.8715 22.073C39.0352 22.073 39.0352 22.073 39.1988 22.073C39.3625 22.073 39.3625 22.073 39.5261 22.2356C39.5261 22.2356 39.5261 22.2356 39.6898 22.2356C39.6898 22.3982 39.8534 22.3982 39.8534 22.3982L40.0171 22.5608C40.0171 22.7234 40.0171 22.7234 40.0171 22.7234C40.1807 22.886 40.1807 22.886 40.1807 23.0486V23.2112C40.1807 23.3738 40.1807 23.3738 40.1807 23.5364C40.1807 23.5364 40.1807 23.5364 40.0171 23.699V23.8616L39.8534 24.0242L39.6898 24.1868C39.5261 24.1868 39.5261 24.3494 39.5261 24.3494C39.3625 24.3494 39.3625 24.3494 39.1988 24.3494C39.1988 24.3494 39.1988 24.3494 39.0352 24.3494Z" fill="#D8D9D9"/>
<path fill-rule="evenodd" clip-rule="evenodd" d="M47.8727 23.3738H47.709C47.0544 23.3738 46.5635 22.886 46.5635 22.2356C46.5635 21.5852 47.0544 21.0974 47.709 21.0974H47.8727C48.5273 21.0974 49.0182 21.5852 49.0182 22.2356C49.0182 22.886 48.5273 23.3738 47.8727 23.3738Z" fill="#D8D9D9"/>
<path fill-rule="evenodd" clip-rule="evenodd" d="M57.855 25.0001C57.5277 25.0001 57.2004 24.8375 57.0368 24.6749L56.8731 24.5123V24.3496C56.7095 24.187 56.7095 24.187 56.7095 24.0244C56.7095 24.0244 56.7095 24.0244 56.7095 23.8618C56.7095 23.5366 56.8731 23.2114 57.0368 23.0488L57.2004 22.8862C57.3641 22.8862 57.3641 22.8862 57.3641 22.8862C57.5277 22.7236 57.5277 22.7236 57.6914 22.7236C57.855 22.7236 57.855 22.7236 58.0187 22.7236C58.1823 22.7236 58.1823 22.7236 58.346 22.8862C58.346 22.8862 58.346 22.8862 58.5096 22.8862L58.6733 23.0488C58.8369 23.2114 59.0006 23.5366 59.0006 23.8618C59.0006 24.0244 59.0006 24.0244 59.0006 24.0244C59.0006 24.187 59.0006 24.187 59.0006 24.3496C58.8369 24.3496 58.8369 24.5123 58.8369 24.5123L58.6733 24.6749L58.5096 24.8375C58.5096 24.8375 58.346 24.8375 58.346 25.0001C58.1823 25.0001 58.1823 25.0001 58.0187 25.0001C58.0187 25.0001 58.0187 25.0001 57.855 25.0001Z" fill="#D8D9D9"/>
<path fill-rule="evenodd" clip-rule="evenodd" d="M53.2725 15.0811H53.1088C52.9452 15.0811 52.9452 15.0811 52.7816 15.0811C52.7816 14.9185 52.7816 14.9185 52.6179 14.9185L52.4543 14.7559L52.2906 14.5933V14.4307C52.127 14.2681 52.127 14.2681 52.127 14.1055C52.127 14.1055 52.127 14.1055 52.127 13.9429V13.7803C52.127 13.6177 52.127 13.6177 52.2906 13.4551C52.2906 13.4551 52.2906 13.4551 52.2906 13.2925L52.4543 13.1299C52.7816 12.8047 53.1088 12.8047 53.4361 12.8047C53.5998 12.8047 53.5998 12.8047 53.7634 12.9673C53.7634 12.9673 53.7634 12.9673 53.9271 12.9673C53.9271 13.1299 54.0907 13.1299 54.0907 13.1299C54.2544 13.2925 54.418 13.6177 54.418 13.9429C54.418 14.1055 54.418 14.1055 54.418 14.1055C54.418 14.2681 54.418 14.2681 54.418 14.4307C54.2544 14.4307 54.2544 14.5933 54.2544 14.5933L54.0907 14.7559L53.9271 14.9185C53.9271 14.9185 53.7634 14.9185 53.7634 15.0811C53.5998 15.0811 53.5998 15.0811 53.4361 15.0811C53.4361 15.0811 53.4361 15.0811 53.2725 15.0811Z" fill="#D8D9D9"/>
<path fill-rule="evenodd" clip-rule="evenodd" d="M52.7823 21.0975H52.6186C52.455 21.0975 52.455 21.0975 52.2913 21.0975C52.2913 20.9349 52.2913 20.9349 52.1277 20.9349C52.1277 20.9349 51.964 20.9349 51.964 20.7723L51.8004 20.6097V20.4471C51.6367 20.2845 51.6367 20.2845 51.6367 20.1219C51.6367 20.1219 51.6367 20.1219 51.6367 19.9593V19.7967C51.6367 19.6341 51.6367 19.6341 51.8004 19.4715C51.8004 19.4715 51.8004 19.4715 51.8004 19.3088L51.964 19.1462C51.964 19.1462 52.1277 19.1462 52.1277 18.9836C52.2913 18.9836 52.2913 18.9836 52.2913 18.9836C52.455 18.821 52.455 18.821 52.6186 18.821C52.7823 18.821 52.7823 18.821 52.9459 18.821C53.1096 18.821 53.1096 18.821 53.2732 18.9836C53.2732 18.9836 53.2732 18.9836 53.4369 18.9836C53.4369 19.1462 53.6005 19.1462 53.6005 19.1462L53.7642 19.3088C53.7642 19.4715 53.7642 19.4715 53.7642 19.4715C53.9278 19.6341 53.9278 19.6341 53.9278 19.7967V19.9593C53.9278 20.1219 53.9278 20.1219 53.9278 20.1219C53.9278 20.2845 53.9278 20.2845 53.7642 20.4471V20.6097L53.6005 20.7723L53.4369 20.9349C53.2732 20.9349 53.2732 20.9349 53.2732 21.0975C53.1096 21.0975 53.1096 21.0975 52.9459 21.0975C52.9459 21.0975 52.9459 21.0975 52.7823 21.0975Z" fill="#D8D9D9"/>
<path fill-rule="evenodd" clip-rule="evenodd" d="M56.7095 20.2845H56.5459C56.3822 20.2845 56.3822 20.2845 56.2186 20.2845C56.2186 20.1219 56.2186 20.1219 56.0549 20.1219C56.0549 20.1219 55.8913 20.1219 55.8913 19.9593L55.7276 19.7967V19.6341C55.564 19.4715 55.564 19.4715 55.564 19.4715C55.564 19.3089 55.564 19.3089 55.564 19.1463V18.9837C55.564 18.8211 55.564 18.8211 55.7276 18.6585C55.7276 18.6585 55.7276 18.6585 55.7276 18.4959L55.8913 18.3333C55.8913 18.3333 56.0549 18.3333 56.0549 18.1707C56.2186 18.1707 56.2186 18.1707 56.2186 18.1707C56.3822 18.0081 56.3822 18.0081 56.5459 18.0081C56.7095 18.0081 56.7095 18.0081 56.8732 18.0081C57.0368 18.0081 57.0368 18.0081 57.2005 18.1707C57.2005 18.1707 57.2005 18.1707 57.3641 18.1707C57.3641 18.3333 57.5278 18.3333 57.5278 18.3333L57.6914 18.4959C57.6914 18.6585 57.6914 18.6585 57.6914 18.6585C57.8551 18.8211 57.8551 18.8211 57.8551 18.9837V19.1463C57.8551 19.3089 57.8551 19.3089 57.8551 19.4715C57.8551 19.4715 57.8551 19.4715 57.6914 19.6341V19.7967L57.5278 19.9593L57.3641 20.1219C57.2005 20.1219 57.2005 20.1219 57.2005 20.2845C57.0368 20.2845 57.0368 20.2845 56.8732 20.2845C56.8732 20.2845 56.8732 20.2845 56.7095 20.2845Z" fill="#D8D9D9"/>
<path fill-rule="evenodd" clip-rule="evenodd" d="M43.7818 21.0975H43.6181C43.4545 21.0975 43.4545 21.0975 43.2908 21.0975C43.2908 20.9349 43.2908 20.9349 43.1272 20.9349C43.1272 20.9349 42.9635 20.9349 42.9635 20.7723C42.7999 20.6097 42.6362 20.2845 42.6362 19.9593V19.7967C42.6362 19.6341 42.6362 19.6341 42.7999 19.4715C42.7999 19.4715 42.7999 19.4715 42.7999 19.3088C42.7999 19.3088 42.9635 19.3088 42.9635 19.1462C42.9635 19.1462 43.1272 19.1462 43.1272 18.9836C43.2908 18.9836 43.2908 18.9836 43.2908 18.9836C43.4545 18.9836 43.4545 18.821 43.6181 18.821C43.7818 18.821 43.7818 18.821 43.9454 18.821C44.1091 18.821 44.1091 18.821 44.2727 18.9836C44.2727 18.9836 44.2727 18.9836 44.4364 18.9836C44.4364 19.1462 44.6 19.1462 44.6 19.1462L44.7637 19.3088C44.7637 19.4715 44.7637 19.4715 44.7637 19.4715C44.9273 19.6341 44.9273 19.6341 44.9273 19.7967V19.9593C44.9273 20.2845 44.7637 20.6097 44.6 20.7723L44.4364 20.9349C44.2727 20.9349 44.2727 20.9349 44.2727 21.0975C44.1091 21.0975 44.1091 21.0975 43.9454 21.0975C43.9454 21.0975 43.9454 21.0975 43.7818 21.0975Z" fill="#D8D9D9"/>
<path fill-rule="evenodd" clip-rule="evenodd" d="M62.437 23.8616C62.1098 23.8616 61.7825 23.699 61.6188 23.5364C61.4552 23.3738 61.2915 23.0486 61.2915 22.7234C61.2915 22.3982 61.4552 22.073 61.6188 21.9104C61.9461 21.5852 62.2734 21.5852 62.6007 21.5852C62.7643 21.5852 62.7643 21.5852 62.928 21.7478C62.928 21.7478 62.928 21.7478 63.0916 21.7478C63.0916 21.9104 63.2553 21.9104 63.2553 21.9104C63.4189 22.073 63.5826 22.3982 63.5826 22.7234C63.5826 22.886 63.5826 22.886 63.5826 22.886C63.5826 23.0486 63.5826 23.0486 63.5826 23.2112C63.4189 23.2112 63.4189 23.3738 63.4189 23.3738L63.2553 23.5364L63.0916 23.699C63.0916 23.699 62.928 23.699 62.928 23.8616C62.7643 23.8616 62.7643 23.8616 62.6007 23.8616C62.6007 23.8616 62.6007 23.8616 62.437 23.8616Z" fill="#D8D9D9"/>
<path fill-rule="evenodd" clip-rule="evenodd" d="M51.9639 25.4876H51.8003C51.6366 25.4876 51.6366 25.4876 51.473 25.4876C51.473 25.325 51.473 25.325 51.3093 25.325C51.3093 25.325 51.1457 25.325 51.1457 25.1624L50.982 24.9998V24.8372C50.8184 24.6746 50.8184 24.6746 50.8184 24.512C50.8184 24.512 50.8184 24.512 50.8184 24.3494C50.8184 24.0242 50.982 23.699 51.1457 23.5364C51.1457 23.5364 51.3093 23.5364 51.3093 23.3738C51.473 23.3738 51.473 23.3738 51.473 23.3738C51.6366 23.2112 51.6366 23.2112 51.8003 23.2112C52.1276 23.2112 52.4549 23.3738 52.7822 23.5364C52.9458 23.699 53.1095 24.0242 53.1095 24.3494C53.1095 24.512 53.1095 24.512 53.1095 24.512C53.1095 24.6746 53.1095 24.6746 53.1095 24.8372C52.9458 24.8372 52.9458 24.9998 52.9458 24.9998L52.7822 25.1624C52.6185 25.325 52.2912 25.4876 51.9639 25.4876Z" fill="#D8D9D9"/>
<path fill-rule="evenodd" clip-rule="evenodd" d="M43.4541 25.6504C43.1268 25.6504 42.7995 25.4878 42.6359 25.3252L42.4722 25.1626V25C42.3086 24.8374 42.3086 24.8374 42.3086 24.6748C42.3086 24.6748 42.3086 24.6748 42.3086 24.5122C42.3086 24.187 42.4722 23.8618 42.6359 23.6992C42.6359 23.6992 42.7995 23.6992 42.7995 23.5366C42.9632 23.5366 42.9632 23.5366 42.9632 23.5366C43.1268 23.374 43.1268 23.374 43.2905 23.374C43.4541 23.374 43.4541 23.374 43.6178 23.374C43.7814 23.374 43.7814 23.374 43.9451 23.5366C43.9451 23.5366 43.9451 23.5366 44.1087 23.5366C44.1087 23.6992 44.2724 23.6992 44.2724 23.6992C44.436 23.8618 44.5997 24.187 44.5997 24.5122C44.5997 24.6748 44.5997 24.6748 44.5997 24.8374C44.5997 24.8374 44.5997 24.8374 44.5997 25C44.436 25 44.436 25.1626 44.436 25.1626L44.2724 25.3252L44.1087 25.4878C44.1087 25.4878 43.9451 25.4878 43.9451 25.6504C43.7814 25.6504 43.7814 25.6504 43.6178 25.6504C43.6178 25.6504 43.6178 25.6504 43.4541 25.6504Z" fill="#D8D9D9"/>
<path fill-rule="evenodd" clip-rule="evenodd" d="M48.691 18.1707H48.5273C48.3637 18.1707 48.3637 18.1707 48.2 18.1707C48.2 18.0081 48.2 18.0081 48.0364 18.0081C48.0364 18.0081 47.8727 18.0081 47.8727 17.8455L47.7091 17.6829V17.5203C47.5454 17.3577 47.5454 17.3577 47.5454 17.1951C47.5454 17.1951 47.5454 17.1951 47.5454 17.0325V16.8699C47.5454 16.7073 47.5454 16.7073 47.7091 16.5447C47.7091 16.5447 47.7091 16.5447 47.7091 16.3821C47.7091 16.3821 47.8727 16.3821 47.8727 16.2195C47.8727 16.2195 48.0364 16.2195 48.0364 16.0569C48.2 16.0569 48.2 16.0569 48.2 16.0569C48.3637 15.8943 48.3637 15.8943 48.5273 15.8943C48.691 15.8943 48.691 15.8943 48.8546 15.8943C49.0183 15.8943 49.0183 15.8943 49.1819 16.0569C49.1819 16.0569 49.1819 16.0569 49.3456 16.0569C49.3456 16.2195 49.5092 16.2195 49.5092 16.2195L49.6729 16.3821C49.6729 16.5447 49.6729 16.5447 49.6729 16.5447C49.8365 16.7073 49.8365 16.7073 49.8365 16.8699V17.0325C49.8365 17.1951 49.8365 17.1951 49.8365 17.1951C49.8365 17.3577 49.8365 17.3577 49.8365 17.5203C49.6729 17.5203 49.6729 17.6829 49.6729 17.6829L49.5092 17.8455L49.3456 18.0081C49.3456 18.0081 49.1819 18.0081 49.1819 18.1707C49.0183 18.1707 49.0183 18.1707 48.8546 18.1707C48.8546 18.1707 48.8546 18.1707 48.691 18.1707Z" fill="#D8D9D9"/>
<path fill-rule="evenodd" clip-rule="evenodd" d="M65.3823 35.8941H34.6162C33.9617 35.8941 33.4707 35.4063 33.4707 34.7559C33.4707 34.1055 33.9617 33.6177 34.6162 33.6177H65.3823C66.0369 33.6177 66.5279 34.1055 66.5279 34.7559C66.5279 35.4063 66.0369 35.8941 65.3823 35.8941Z" fill="#A7806D"/>
<path fill-rule="evenodd" clip-rule="evenodd" d="M65.3823 84.8372H34.6162C33.9617 84.8372 33.4707 84.3494 33.4707 83.699C33.4707 83.0486 33.9617 82.5608 34.6162 82.5608H65.3823C66.0369 82.5608 66.5279 83.0486 66.5279 83.699C66.5279 84.3494 66.0369 84.8372 65.3823 84.8372Z" fill="#A7806D"/>
<path fill-rule="evenodd" clip-rule="evenodd" d="M50.8181 77.0326C50.1635 77.0326 49.6725 76.5447 49.6725 75.8943C49.1816 68.7399 49.3452 59.1464 52.6182 53.9431C52.9455 53.4553 53.7637 53.2927 54.2547 53.6179C54.7456 53.9431 54.9093 54.7561 54.582 55.2439C52.2909 58.8212 51.309 66.1382 51.9636 75.7317V75.8943C51.9636 76.3821 51.4727 77.0326 50.8181 77.0326Z" fill="#FFE8C8"/>
<path fill-rule="evenodd" clip-rule="evenodd" d="M53.6001 55.7317H53.4364C53.2728 55.7317 53.1092 55.5691 52.9455 55.5691C52.7819 55.4065 52.7819 55.4065 52.6182 55.2439C52.6182 55.2439 52.6182 55.2439 52.6182 55.0813C50.4908 51.3414 49.9998 48.0894 51.1454 45.4878C52.2909 42.7235 54.7456 41.7479 55.2366 41.5853C55.5639 41.4227 56.0548 41.4227 56.3821 41.5853C56.3821 41.5853 56.3821 41.7479 56.5458 41.7479C56.7094 41.9105 58.8369 43.6992 59.0005 46.7886C59.1642 49.5528 57.6913 52.4796 54.4183 55.4065L54.2547 55.5691C54.091 55.5691 54.091 55.7317 53.9274 55.7317C53.7637 55.7317 53.7637 55.7317 53.6001 55.7317Z" fill="#FFE8C8"/>
<path fill-rule="evenodd" clip-rule="evenodd" d="M51.4733 61.4226C51.3096 61.4226 51.3096 61.4226 51.3096 61.4226C47.0547 60.6096 44.2727 58.9836 42.7998 56.5446C41.327 53.9429 42.3089 51.1787 42.3089 50.8535C42.4725 50.8535 42.4725 50.6909 42.4725 50.6909C42.4725 50.5283 42.6362 50.3657 42.6362 50.3657C42.7998 50.2031 42.9635 50.2031 43.1271 50.0405C43.1271 50.0405 43.1271 50.0405 43.2908 50.0405C43.6181 50.0405 46.4001 49.5527 48.8549 51.3413C51.146 52.9673 52.2915 55.8942 52.6188 60.1218C52.6188 60.2844 52.6188 60.2844 52.6188 60.2844C52.6188 60.447 52.6188 60.6096 52.4552 60.7722C52.4552 60.9348 52.2915 61.0974 52.2915 61.0974C52.1279 61.26 51.9642 61.26 51.8006 61.4226C51.6369 61.4226 51.6369 61.4226 51.4733 61.4226Z" fill="#FFE8C8"/>
<path fill-rule="evenodd" clip-rule="evenodd" d="M53.2726 66.4634C52.4544 66.4634 51.6362 66.4634 50.6543 66.3008C50.6543 66.3008 50.6543 66.3008 50.4906 66.3008C50.4906 66.3008 50.327 66.1381 50.1633 66.1381C49.9997 65.9755 49.9997 65.9755 49.836 65.8129C49.836 65.6503 49.6724 65.4877 49.6724 65.3251C49.6724 65.1625 49.6724 64.9999 49.6724 64.8373C49.6724 64.8373 49.6724 64.8373 49.836 64.6747C51.3089 60.7723 53.4363 58.1707 56.0547 57.3577C59.0004 56.382 61.4551 57.6829 61.7824 57.8455C61.9461 57.8455 61.9461 57.8455 61.9461 57.8455C62.1097 58.0081 62.1097 58.1707 62.2734 58.1707C62.2734 58.3333 62.437 58.4959 62.437 58.6585V58.8211C62.437 59.1463 62.437 62.0731 60.1459 64.1869C58.6731 65.6503 56.2183 66.4634 53.2726 66.4634Z" fill="#FFE8C8"/>
<path fill-rule="evenodd" clip-rule="evenodd" d="M44.7636 71.8291C43.4544 71.8291 42.3088 71.5039 41.3269 71.0161C38.5449 69.7152 37.7266 66.951 37.563 66.6258V66.4632C37.563 66.3006 37.563 66.138 37.563 65.9754C37.563 65.8128 37.7266 65.8128 37.7266 65.6502C37.8903 65.6502 37.8903 65.4876 37.8903 65.4876C38.0539 65.325 40.1814 63.2112 43.2907 63.2112C46.0728 63.2112 48.8548 64.9998 51.4732 68.4144C51.6368 68.4144 51.6368 68.4144 51.6368 68.4144C51.6368 68.577 51.8005 68.7396 51.8005 68.9022C51.8005 69.0648 51.8005 69.2274 51.8005 69.39C51.8005 69.5526 51.6368 69.7152 51.6368 69.8779C51.4732 69.8779 51.4732 70.0405 51.3095 70.0405C51.3095 70.0405 51.1459 70.0405 51.1459 70.2031C48.6911 71.1787 46.5637 71.8291 44.7636 71.8291Z" fill="#FFE8C8"/>
<path fill-rule="evenodd" clip-rule="evenodd" d="M32.653 33.13C32.8167 32.1544 32.9803 31.0162 32.9803 30.0406C31.5075 29.5528 30.1983 28.4146 29.38 26.7886H25.6161H23.8159C20.2157 26.7886 17.4336 29.5528 17.4336 33.13V34.2682C17.4336 37.3577 19.5611 39.9593 22.5067 40.4471C20.2157 52.9674 20.2157 66.4634 22.1794 78.6585C20.052 79.9593 17.7609 82.2357 16.9427 84.8374C16.4517 86.3008 16.6154 87.9268 17.4336 89.2276C17.7609 89.7154 18.5792 90.2032 21.3612 90.5284C22.9977 90.8536 25.1251 91.0162 27.9072 91.1788C29.0527 88.252 31.0165 85.6504 32.8167 84.0243C30.8529 67.7642 30.8529 49.878 32.653 33.13Z" fill="#A7806D"/>
<path fill-rule="evenodd" clip-rule="evenodd" d="M31.3439 26.3006L46.0724 11.6665C47.5452 10.2031 49.3454 9.06487 51.1455 8.41447C47.2179 8.08926 43.1267 9.55268 40.0174 12.4795L25.6162 26.7884H29.3801H31.1803C31.1803 26.6258 31.3439 26.4632 31.3439 26.3006Z" fill="#D8D9D9"/>
<path fill-rule="evenodd" clip-rule="evenodd" d="M50.0002 34.5934C40.8358 35.4064 31.1805 34.5934 25.2891 28.7398C24.7982 28.2519 24.7982 27.6015 25.2891 27.1137L40.0176 12.4796C42.7996 9.71536 46.3999 8.41455 50.0002 8.41455V34.5934Z" fill="#F2F2F2"/>
<path fill-rule="evenodd" clip-rule="evenodd" d="M49.9998 91.6666C41.981 91.6666 34.2895 91.504 28.7254 91.1788C25.6161 91.0162 23.1613 90.8536 21.3612 90.5284C18.5792 90.2032 17.7609 89.7154 17.4336 89.2276C16.6154 87.9268 16.4517 86.3008 16.9427 84.8374C17.7609 82.2357 20.052 79.9593 22.1794 78.6585C20.2157 66.4634 20.2157 52.9674 22.5067 40.4471C19.5611 39.9593 17.4336 37.3577 17.4336 34.2682V33.13C17.4336 29.5528 20.2157 26.7886 23.8159 26.7886H49.9998V91.6666Z" fill="#C19986"/>
<path fill-rule="evenodd" clip-rule="evenodd" d="M44.4361 16.8699H44.2724C44.1088 16.8699 44.1088 16.8699 43.9451 16.8699C43.9451 16.7073 43.9451 16.7073 43.7815 16.7073L43.6178 16.5447L43.4542 16.3821V16.2195C43.2905 16.0569 43.2905 16.0569 43.2905 15.8943C43.2905 15.8943 43.2905 15.8943 43.2905 15.7317V15.5691C43.2905 15.4065 43.2905 15.4065 43.4542 15.2439C43.4542 15.2439 43.4542 15.2439 43.4542 15.0813C43.4542 15.0813 43.6178 15.0813 43.6178 14.9187C43.6178 14.9187 43.7815 14.9187 43.7815 14.7561C43.9451 14.7561 43.9451 14.7561 43.9451 14.7561C44.1088 14.5935 44.1088 14.5935 44.2724 14.5935C44.5997 14.5935 44.927 14.7561 45.2543 14.9187L45.418 15.0813C45.418 15.2439 45.418 15.2439 45.418 15.2439C45.5816 15.4065 45.5816 15.4065 45.5816 15.5691V15.7317C45.5816 15.8943 45.5816 15.8943 45.5816 16.0569C45.5816 16.0569 45.5816 16.0569 45.5816 16.2195C45.418 16.2195 45.418 16.3821 45.418 16.3821L45.2543 16.5447C45.0907 16.7073 44.7634 16.8699 44.4361 16.8699Z" fill="#DCDDDD"/>
<path fill-rule="evenodd" clip-rule="evenodd" d="M39.0352 24.3494H38.8715C38.7079 24.3494 38.7079 24.3494 38.5442 24.3494C38.5442 24.1868 38.5442 24.1868 38.3806 24.1868L38.2169 24.0242C38.0533 23.8616 37.8896 23.5364 37.8896 23.2112V23.0486C37.8896 22.886 37.8896 22.886 38.0533 22.7234C38.0533 22.7234 38.0533 22.7234 38.0533 22.5608L38.2169 22.3982C38.2169 22.3982 38.3806 22.3982 38.3806 22.2356C38.5442 22.2356 38.5442 22.2356 38.5442 22.2356C38.7079 22.073 38.7079 22.073 38.8715 22.073C39.0352 22.073 39.0352 22.073 39.1988 22.073C39.3625 22.073 39.3625 22.073 39.5261 22.2356C39.5261 22.2356 39.5261 22.2356 39.6898 22.2356C39.6898 22.3982 39.8534 22.3982 39.8534 22.3982L40.0171 22.5608C40.0171 22.7234 40.0171 22.7234 40.0171 22.7234C40.1807 22.886 40.1807 22.886 40.1807 23.0486V23.2112C40.1807 23.3738 40.1807 23.3738 40.1807 23.5364C40.1807 23.5364 40.1807 23.5364 40.0171 23.699V23.8616L39.8534 24.0242L39.6898 24.1868C39.5261 24.1868 39.5261 24.3494 39.5261 24.3494C39.3625 24.3494 39.3625 24.3494 39.1988 24.3494C39.1988 24.3494 39.1988 24.3494 39.0352 24.3494Z" fill="#DCDDDD"/>
<path fill-rule="evenodd" clip-rule="evenodd" d="M47.8727 23.3738H47.709C47.0544 23.3738 46.5635 22.886 46.5635 22.2356C46.5635 21.5852 47.0544 21.0974 47.709 21.0974H47.8727C48.5273 21.0974 49.0182 21.5852 49.0182 22.2356C49.0182 22.886 48.5273 23.3738 47.8727 23.3738Z" fill="#DCDDDD"/>
<path fill-rule="evenodd" clip-rule="evenodd" d="M43.7818 21.0975H43.6181C43.4545 21.0975 43.4545 21.0975 43.2908 21.0975C43.2908 20.9349 43.2908 20.9349 43.1272 20.9349C43.1272 20.9349 42.9635 20.9349 42.9635 20.7723C42.7999 20.6097 42.6362 20.2845 42.6362 19.9593V19.7967C42.6362 19.6341 42.6362 19.6341 42.7999 19.4715C42.7999 19.4715 42.7999 19.4715 42.7999 19.3088C42.7999 19.3088 42.9635 19.3088 42.9635 19.1462C42.9635 19.1462 43.1272 19.1462 43.1272 18.9836C43.2908 18.9836 43.2908 18.9836 43.2908 18.9836C43.4545 18.9836 43.4545 18.821 43.6181 18.821C43.7818 18.821 43.7818 18.821 43.9454 18.821C44.1091 18.821 44.1091 18.821 44.2727 18.9836C44.2727 18.9836 44.2727 18.9836 44.4364 18.9836C44.4364 19.1462 44.6 19.1462 44.6 19.1462L44.7637 19.3088C44.7637 19.4715 44.7637 19.4715 44.7637 19.4715C44.9273 19.6341 44.9273 19.6341 44.9273 19.7967V19.9593C44.9273 20.2845 44.7637 20.6097 44.6 20.7723L44.4364 20.9349C44.2727 20.9349 44.2727 20.9349 44.2727 21.0975C44.1091 21.0975 44.1091 21.0975 43.9454 21.0975C43.9454 21.0975 43.9454 21.0975 43.7818 21.0975Z" fill="#DCDDDD"/>
<path fill-rule="evenodd" clip-rule="evenodd" d="M43.4541 25.6504C43.1268 25.6504 42.7995 25.4878 42.6359 25.3252L42.4722 25.1626V25C42.3086 24.8374 42.3086 24.8374 42.3086 24.6748C42.3086 24.6748 42.3086 24.6748 42.3086 24.5122C42.3086 24.187 42.4722 23.8618 42.6359 23.6992C42.6359 23.6992 42.7995 23.6992 42.7995 23.5366C42.9632 23.5366 42.9632 23.5366 42.9632 23.5366C43.1268 23.374 43.1268 23.374 43.2905 23.374C43.4541 23.374 43.4541 23.374 43.6178 23.374C43.7814 23.374 43.7814 23.374 43.9451 23.5366C43.9451 23.5366 43.9451 23.5366 44.1087 23.5366C44.1087 23.6992 44.2724 23.6992 44.2724 23.6992C44.436 23.8618 44.5997 24.187 44.5997 24.5122C44.5997 24.6748 44.5997 24.6748 44.5997 24.8374C44.5997 24.8374 44.5997 24.8374 44.5997 25C44.436 25 44.436 25.1626 44.436 25.1626L44.2724 25.3252L44.1087 25.4878C44.1087 25.4878 43.9451 25.4878 43.9451 25.6504C43.7814 25.6504 43.7814 25.6504 43.6178 25.6504C43.6178 25.6504 43.6178 25.6504 43.4541 25.6504Z" fill="#DCDDDD"/>
<path fill-rule="evenodd" clip-rule="evenodd" d="M48.691 18.1707H48.5273C48.3637 18.1707 48.3637 18.1707 48.2 18.1707C48.2 18.0081 48.2 18.0081 48.0364 18.0081C48.0364 18.0081 47.8727 18.0081 47.8727 17.8455L47.7091 17.6829V17.5203C47.5454 17.3577 47.5454 17.3577 47.5454 17.1951C47.5454 17.1951 47.5454 17.1951 47.5454 17.0325V16.8699C47.5454 16.7073 47.5454 16.7073 47.7091 16.5447C47.7091 16.5447 47.7091 16.5447 47.7091 16.3821C47.7091 16.3821 47.8727 16.3821 47.8727 16.2195C47.8727 16.2195 48.0364 16.2195 48.0364 16.0569C48.2 16.0569 48.2 16.0569 48.2 16.0569C48.3637 15.8943 48.3637 15.8943 48.5273 15.8943C48.691 15.8943 48.691 15.8943 48.8546 15.8943C49.0183 15.8943 49.0183 15.8943 49.1819 16.0569C49.1819 16.0569 49.1819 16.0569 49.3456 16.0569C49.3456 16.2195 49.5092 16.2195 49.5092 16.2195L49.6729 16.3821C49.6729 16.5447 49.6729 16.5447 49.6729 16.5447C49.8365 16.7073 49.8365 16.7073 49.8365 16.8699V17.0325C49.8365 17.1951 49.8365 17.1951 49.8365 17.1951C49.8365 17.3577 49.8365 17.3577 49.8365 17.5203C49.6729 17.5203 49.6729 17.6829 49.6729 17.6829L49.5092 17.8455L49.3456 18.0081C49.3456 18.0081 49.1819 18.0081 49.1819 18.1707C49.0183 18.1707 49.0183 18.1707 48.8546 18.1707C48.8546 18.1707 48.8546 18.1707 48.691 18.1707Z" fill="#DCDDDD"/>
<path fill-rule="evenodd" clip-rule="evenodd" d="M49.9993 35.8941H34.6162C33.9617 35.8941 33.4707 35.4063 33.4707 34.7559C33.4707 34.1055 33.9617 33.6177 34.6162 33.6177H49.9993V35.8941Z" fill="#B08D7C"/>
<path fill-rule="evenodd" clip-rule="evenodd" d="M49.9993 84.8372H34.6162C33.9617 84.8372 33.4707 84.3494 33.4707 83.699C33.4707 83.0486 33.9617 82.5608 34.6162 82.5608H49.9993V84.8372Z" fill="#B08D7C"/>
<path fill-rule="evenodd" clip-rule="evenodd" d="M50.0003 76.7074C49.8366 76.5448 49.673 76.2196 49.673 75.8944C49.3457 71.8293 49.3457 66.7887 50.0003 62.2358V76.7074Z" fill="#FFEACE"/>
<path fill-rule="evenodd" clip-rule="evenodd" d="M50.0004 61.0974C46.5638 60.2844 44.109 58.821 42.7998 56.5446C41.327 53.9429 42.3089 51.1787 42.3089 50.8535C42.4725 50.8535 42.4725 50.6909 42.4725 50.6909C42.4725 50.5283 42.6362 50.3657 42.6362 50.3657C42.7998 50.2031 42.9635 50.2031 43.1271 50.0405C43.1271 50.0405 43.1271 50.0405 43.2908 50.0405C43.6181 50.0405 46.4001 49.5527 48.8549 51.3413C49.1822 51.6665 49.6731 51.9917 50.0004 52.3169V61.0974Z" fill="#FFEACE"/>
<path fill-rule="evenodd" clip-rule="evenodd" d="M49.9997 65.9756L49.836 65.813C49.836 65.6504 49.6724 65.4878 49.6724 65.3252C49.6724 65.1626 49.6724 65 49.6724 64.8374C49.6724 64.8374 49.6724 64.8374 49.836 64.6748C49.836 64.5122 49.9997 64.3496 49.9997 64.187V65.9756Z" fill="#FFEACE"/>
<path fill-rule="evenodd" clip-rule="evenodd" d="M44.7636 71.8293C43.4544 71.8293 42.3088 71.5041 41.3269 71.0163C38.5449 69.7155 37.7266 66.9513 37.563 66.6261V66.4635C37.563 66.3009 37.563 66.1383 37.563 65.9757C37.563 65.8131 37.7266 65.8131 37.7266 65.6504C37.8903 65.6504 37.8903 65.4878 37.8903 65.4878C38.0539 65.3252 40.1814 63.2114 43.2907 63.2114C45.5818 63.2114 47.8729 64.3496 50.0003 66.6261V70.6911C48.0366 71.3415 46.2364 71.8293 44.7636 71.8293Z" fill="#FFEACE"/>
<path fill-rule="evenodd" clip-rule="evenodd" d="M32.653 33.13C32.8167 32.1544 32.9803 31.0162 32.9803 30.0406C31.5075 29.5528 30.1983 28.4146 29.38 26.7886H25.6161H23.8159C20.2157 26.7886 17.4336 29.5528 17.4336 33.13V34.2682C17.4336 37.3577 19.5611 39.9593 22.5067 40.4471C20.2157 52.9674 20.2157 66.4634 22.1794 78.6585C20.052 79.9593 17.7609 82.2357 16.9427 84.8374C16.4517 86.3008 16.6154 87.9268 17.4336 89.2276C17.7609 89.7154 18.5792 90.2032 21.3612 90.5284C22.9977 90.8536 25.1251 91.0162 27.9072 91.1788C29.0527 88.252 31.0165 85.6504 32.8167 84.0243C30.8529 67.7642 30.8529 49.878 32.653 33.13Z" fill="#B08D7C"/>
<path fill-rule="evenodd" clip-rule="evenodd" d="M31.3439 26.3007L46.0724 11.6666C47.3816 10.5284 48.5271 9.55276 50 8.90236V8.41455C46.3997 8.41455 42.7994 9.71536 40.0174 12.4796L25.6162 26.7885H29.3801H31.1803C31.1803 26.6259 31.3439 26.4633 31.3439 26.3007Z" fill="#DCDDDD"/>
</svg>
