<svg width="100" height="100" viewBox="0 0 100 100" fill="none" xmlns="http://www.w3.org/2000/svg">
<path d="M87.2611 38.3125C85.6775 26.7664 77.1612 17.2352 66.4631 11.5596C65.9236 11.2739 65.3782 11.0075 64.8252 10.759C61.7062 9.36314 50.5093 8.52683 45.6213 8.36462C45.4465 8.36016 45.2687 8.33337 45.094 8.33337C45.0081 8.33337 44.9207 8.34081 44.8348 8.3423C44.5771 8.33635 44.3391 8.33337 44.1432 8.33337L44.1522 8.36611C43.4546 8.39587 42.7569 8.44647 42.0623 8.54022C40.325 8.77534 38.6133 9.20391 36.9453 9.8051C23.645 14.5953 13.197 25.8691 12.5295 39.9718C12.2613 45.6444 13.8374 51.2441 16.6309 56.2084C20.095 62.3646 26.3738 74.3706 25.9564 79.8423C25.869 80.9777 25.9142 82.0566 26.199 83.0283C27.6952 88.1325 31.2663 91.6667 36.0533 91.6667C36.2401 91.6667 36.4119 91.6161 36.5927 91.5923L36.6093 91.6667H42.7539C44.3541 91.6667 45.65 90.3855 45.65 88.8066V77.006C45.65 75.5759 45.9543 74.1384 46.6851 72.9033C48.9182 69.134 46.7574 66.1444 47.223 59.9033C47.4611 56.7143 52.221 56.5134 52.5646 59.6935C52.6067 60.0789 52.6278 60.4703 52.6278 60.8691L49.1442 84.3483C48.5776 87.7575 50.4807 90.9346 53.2064 91.5402L63.7313 91.6667C68.5168 91.6667 71.5334 88.1325 73.0296 83.0283C73.2526 82.2694 73.3114 81.4509 73.2722 80.5983C73.019 75.2366 79.7423 62.8855 83.3375 56.6935C86.5695 51.1236 88.1335 44.6756 87.2611 38.3125Z" fill="#445A66"/>
<path d="M42.0623 8.54022C40.325 8.77534 38.6133 9.20391 36.9453 9.8051C23.645 14.5953 13.197 25.8691 12.5295 39.9718C12.2613 45.6444 13.8374 51.2441 16.6309 56.2084C20.095 62.3646 26.3738 74.3706 25.9564 79.8423C25.869 80.9777 25.9142 82.0566 26.199 83.0283C27.6952 88.1325 31.2663 91.6667 36.0533 91.6667C39.2642 91.6667 41.6736 88.134 41.0437 84.3483L37.5601 60.8691C37.5601 55.8661 40.9337 51.811 45.094 51.811C49.2542 51.811 52.6278 55.8661 52.6278 60.8691L49.1442 84.3483C48.5143 88.134 50.9222 91.6667 54.1346 91.6667C58.9201 91.6667 62.4927 88.1325 63.9889 83.0283C64.2119 82.2694 64.2707 81.4524 64.2315 80.5983C63.9784 75.2381 70.7016 62.8855 74.2968 56.6935C77.5303 51.1236 79.0944 44.6741 78.2219 38.3125C76.6383 26.7664 68.122 17.2352 57.4239 11.5596C56.8845 11.2739 56.339 11.0075 55.786 10.759C52.2918 9.19796 48.6349 8.33337 45.094 8.33337C44.0829 8.33337 43.0704 8.40331 42.0623 8.54022Z" fill="#FFD3B9"/>
<path d="M43.586 32.2069V26.3497C34.9145 26.5849 25.1355 28.5968 14.5715 33.631C14.2325 33.7932 13.8648 33.8021 13.5258 33.7113C12.9894 35.7262 12.6323 37.811 12.5298 39.9718C12.5283 40.0194 12.5313 40.067 12.5283 40.1146C23.8382 34.5982 34.3314 32.4375 43.586 32.2069Z" fill="#FFA89C"/>
<path d="M43.5864 15.823V8.3855C43.0771 8.41972 42.5693 8.47181 42.0615 8.54026C40.3242 8.77538 38.6125 9.20395 36.9445 9.80514C30.8722 11.9926 25.4071 15.5447 21.1821 20.0894C29.2117 17.2322 36.7275 15.9986 43.5864 15.823Z" fill="#FFA89C"/>
<path d="M17.6494 58.0476C18.5083 59.6161 19.456 61.4018 20.4023 63.2961C20.8393 63.0878 21.3576 63.067 21.8096 63.3289C25.5073 65.4687 31.4319 68.1667 38.7699 69.0342L37.8854 63.0699L37.5072 63.0312C30.6574 62.3378 23.9899 60.6562 17.6494 58.0476Z" fill="#FFA89C"/>
<path d="M43.5863 18.8051C36.3508 18.9985 28.3588 20.4033 19.7717 23.7842C19.2699 23.9851 18.7305 23.872 18.3222 23.5684C16.8214 25.6726 15.5753 27.9405 14.623 30.3437C25.1343 25.5521 34.8937 23.5878 43.5863 23.3631V18.8051Z" fill="#FFA89C"/>
<path d="M77.369 34.3095C77.2213 34.3556 77.0691 34.3869 76.9139 34.3869C76.6683 34.3869 76.4182 34.3273 76.1877 34.2008C69.8411 30.7425 59.5815 26.6056 46.6006 26.3467V32.1949C61.2555 32.4791 72.475 37.4389 78.4358 40.805C78.4026 39.9747 78.3348 39.1428 78.2218 38.3139C78.0335 36.9479 77.7411 35.6145 77.369 34.3095Z" fill="#FFA89C"/>
<path d="M46.5996 23.3602C59.2174 23.6013 69.3866 27.3528 76.1098 30.7903C75.031 28.2561 73.6146 25.8647 71.9255 23.637C71.6633 23.8364 71.3454 23.9569 71.0124 23.9569C70.815 23.9569 70.6146 23.9197 70.4217 23.8379C64.3057 21.2694 56.1933 18.9808 46.5996 18.7903V23.3602Z" fill="#FFA89C"/>
<path d="M46.5996 15.8066C55.2636 15.9717 62.7703 17.7798 68.7884 19.997C65.5338 16.6592 61.6538 13.8036 57.4213 11.558C56.8819 11.2723 56.3364 11.006 55.7834 10.7575C52.7834 9.41519 49.6644 8.62799 46.5996 8.42114V15.8066Z" fill="#FFA89C"/>
<path d="M49.5786 88.2605C50.4028 90.253 52.1055 91.6667 54.1351 91.6667C58.5575 91.6667 61.9191 88.631 63.5886 84.1459C58.9432 86.2486 54.2391 87.634 49.5786 88.2605Z" fill="#FFA89C"/>
<path d="M51.521 71.6012C51.4291 71.6176 51.3402 71.625 51.2513 71.625C51.1775 71.625 51.1097 71.5982 51.0374 71.5878L50.1514 77.561C55.1373 76.7723 60.1473 75.0923 65.0504 72.5461C65.4497 72.3393 65.8957 72.3408 66.2859 72.4896C67.3482 69.8527 68.7043 67.0253 70.0815 64.3586C63.97 68.0551 57.7365 70.4926 51.521 71.6012Z" fill="#FFA89C"/>
<path d="M49.9205 80.5998C49.8466 80.5998 49.7788 80.5715 49.7065 80.5611L49.1445 84.3483C49.0902 84.6786 49.0857 85.0015 49.0767 85.3245C53.8516 84.692 58.6944 83.2129 63.4724 80.9182C63.7165 80.8007 63.9742 80.7783 64.2273 80.7947C64.2258 80.7277 64.2348 80.6652 64.2303 80.5983C64.1715 79.3483 64.503 77.7069 65.0756 75.8632C60.162 78.253 55.146 79.8468 50.145 80.5819C50.0681 80.5938 49.9928 80.5998 49.9205 80.5998Z" fill="#FFA89C"/>
<path d="M40.5337 80.9167C40.4614 80.9272 40.3951 80.9569 40.3197 80.9569C40.2821 80.9569 40.2414 80.9554 40.2022 80.9524C35.3006 80.5774 30.4609 79.3766 25.7959 77.4019C25.9466 78.3066 26.0099 79.131 25.9556 79.8423C25.8923 80.6816 25.9014 81.4867 26.0234 82.2441C26.3429 82.1563 26.6864 82.1489 27.0149 82.2858C31.5578 84.2054 36.2846 85.3275 41.0671 85.6206C41.0897 85.6221 41.1093 85.6355 41.1319 85.637C41.1364 85.2129 41.1138 84.7828 41.0415 84.3468L40.5337 80.9167Z" fill="#FFA89C"/>
<path d="M52.7144 62.9256C52.6556 62.9331 52.5983 62.9361 52.5411 62.9361C52.4657 62.9361 52.3994 62.9078 52.3271 62.8974L51.4863 68.5685C57.8856 67.3512 64.3286 64.6399 70.642 60.4852C71.1211 60.1712 71.7088 60.1801 72.1834 60.4301C72.8072 59.2977 73.3994 58.253 73.9388 57.317C66.9202 60.2277 59.7902 62.1221 52.7144 62.9256Z" fill="#FFA89C"/>
<path d="M26.029 74.2605C30.575 76.3082 35.3047 77.5373 40.0918 77.9436L39.2133 72.018C39.141 72.0284 39.0747 72.0567 38.9993 72.0567C38.9451 72.0567 38.8894 72.0537 38.8351 72.0477C33.1305 71.4317 27.3987 69.6549 22.1265 66.8989C23.2716 69.4034 24.2947 71.9213 24.9999 74.198C25.3314 74.1073 25.6915 74.1073 26.029 74.2605Z" fill="#FFA89C"/>
<path d="M52.589 59.9405C59.8788 59.0893 67.2379 57.0476 74.4659 53.8616C74.8878 53.6741 75.3383 53.7113 75.7241 53.8944C77.1615 50.7515 78.0731 47.4063 78.3474 43.9956C78.1138 43.9836 77.8787 43.9241 77.6648 43.7991C72.1967 40.6042 61.1822 35.4717 46.6011 35.1786V42.8839C46.6011 43.7069 45.9276 44.372 45.0943 44.372C44.2611 44.372 43.5875 43.7069 43.5875 42.8839V35.1935C34.5514 35.4301 24.2827 37.567 13.1958 43.0923C13.003 43.1875 12.7996 43.2351 12.5977 43.247C12.8945 47.2024 14.0306 51.067 15.8146 54.6473C16.2079 54.4464 16.6765 54.3988 17.112 54.5908C23.2506 57.311 29.7342 59.0997 36.4077 59.9137C36.6368 59.6444 36.9622 59.4539 37.3419 59.3988C37.455 59.381 37.5589 59.4063 37.6674 59.4137C38.2475 55.1057 41.347 51.8125 45.0943 51.8125C48.9938 51.811 52.2018 55.3735 52.589 59.9405Z" fill="#FFA89C"/>
<path d="M27.1943 85.5342C29.007 89.2395 32.1064 91.6666 36.0542 91.6666C37.9813 91.6666 39.6026 90.3824 40.469 88.5491C35.9593 88.2291 31.5052 87.2023 27.1943 85.5342Z" fill="#FFA89C"/>
<path d="M44.9343 43.0878C39.5115 43.0878 35.0996 47.0089 35.0996 51.8288C35.0996 53.2276 35.4763 54.5878 36.1845 55.8095C38.3949 52.9628 41.5607 51.2797 44.9343 51.2797C48.308 51.2797 51.4753 52.9628 53.6842 55.8095C54.3924 54.5863 54.7691 53.2276 54.7691 51.8288C54.7691 47.0089 50.3572 43.0878 44.9343 43.0878Z" fill="#FFD3B9"/>
</svg>
