<svg width="100" height="100" viewBox="0 0 100 100" fill="none" xmlns="http://www.w3.org/2000/svg">
<path d="M35.3752 91.6667C35.6579 91.6672 35.9376 91.6095 36.1971 91.4974C36.4566 91.3852 36.6903 91.2209 36.8838 91.0146C37.0772 90.8083 37.2263 90.5645 37.3217 90.2981C37.4172 90.0318 37.457 89.7487 37.4386 89.4664C37.2093 86.1205 37.3696 79.5345 41.1792 73.7958C42.5563 71.7326 44.4138 70.0355 46.5919 68.8508C48.7699 67.666 51.2031 67.0291 53.6817 66.995C59.6588 66.9061 69.8669 65.3514 73.7941 56.2919C74.9877 53.5467 76.9236 51.1897 79.3836 49.4867C83.1419 46.8779 88.0428 42.0009 88.3681 34.1942C88.4095 33.248 88.5274 32.3068 88.7207 31.3797C89.5832 27.2056 90.7758 15.5549 75.4614 21.2313L33.5826 72.1626C33.5826 72.1626 31.9182 82.28 33.3436 89.9881C33.4333 90.4613 33.6856 90.888 34.0566 91.1946C34.4277 91.5011 34.8941 91.6681 35.3752 91.6667Z" fill="#3E6A51"/>
<path d="M66.4972 41.3777C66.3189 41.3777 66.1446 41.3252 65.9958 41.2268C65.847 41.1284 65.7304 40.9885 65.6604 40.8243C65.5905 40.6602 65.5702 40.4791 65.6021 40.3035C65.6341 40.1279 65.7168 39.9656 65.8401 39.8367C71.8232 33.5885 76.7179 29.5862 81.2435 27.2403C81.457 27.1358 81.703 27.119 81.9288 27.1937C82.1546 27.2683 82.3422 27.4284 82.4515 27.6398C82.5609 27.8511 82.5832 28.0969 82.5139 28.3245C82.4445 28.5521 82.2889 28.7436 82.0804 28.8578C77.7372 31.1085 72.9942 34.9975 67.1537 41.0968C67.069 41.1856 66.9671 41.2563 66.8542 41.3046C66.7414 41.3529 66.6199 41.3778 66.4972 41.3777Z" fill="#224730"/>
<path d="M58.2203 58.647C57.1765 58.6445 56.1355 58.5413 55.1115 58.3389C54.9942 58.316 54.8825 58.2702 54.7829 58.2042C54.6833 58.1381 54.5976 58.0531 54.5309 57.9539C54.4641 57.8547 54.4175 57.7433 54.3937 57.6261C54.3699 57.5088 54.3694 57.3881 54.3923 57.2707C54.4151 57.1533 54.4608 57.0415 54.5268 56.9418C54.5928 56.8421 54.6778 56.7563 54.7769 56.6895C54.876 56.6226 54.9873 56.576 55.1044 56.5522C55.2215 56.5284 55.3421 56.5279 55.4594 56.5508C62.0607 57.8372 65.812 54.1203 65.8492 54.0828C65.9327 53.9959 66.0326 53.9264 66.143 53.8784C66.2535 53.8304 66.3724 53.8048 66.4929 53.8032C66.6133 53.8015 66.7329 53.8238 66.8446 53.8688C66.9564 53.9138 67.0581 53.9805 67.1439 54.0651C67.2297 54.1497 67.2978 54.2505 67.3444 54.3617C67.3909 54.4729 67.415 54.5922 67.4151 54.7128C67.4153 54.8334 67.3915 54.9527 67.3452 55.064C67.2989 55.1753 67.231 55.2763 67.1454 55.3611C66.9924 55.5171 63.8346 58.647 58.2203 58.647Z" fill="#224730"/>
<path d="M40.8101 28.7083C40.8101 28.7083 38.1634 9.41581 26.4887 8.38532C14.814 7.35482 10.7166 21.9208 11.8469 28.7083C12.3161 31.5295 13.7136 34.1308 15.1862 36.2077C17.3926 39.3295 18.3345 43.1726 17.8219 46.9622C17.2728 51.032 17.6794 56.5367 21.9998 61.3064C23.9253 63.39 25.2479 65.9588 25.8259 68.7375C26.919 74.0443 26.0819 79.5675 23.4656 84.311C23.2136 84.7723 23.0762 85.2875 23.0651 85.8131C23.054 86.3387 23.1695 86.8592 23.4019 87.3307C23.6343 87.8022 23.9767 88.2107 24.4002 88.5216C24.8237 88.8326 25.3157 89.0369 25.8348 89.1173C26.2596 89.1794 26.9711 89.2217 27.489 89.2368L36.2903 59.6798L40.8101 28.7083Z" fill="#3E6A51"/>
<path d="M29.3054 27.3287C29.0638 26.6875 28.9618 26.002 29.006 25.3182C29.0503 24.6343 29.2399 23.9678 29.5622 23.3632C29.5815 23.332 29.5989 23.2997 29.6143 23.2664C30.594 21.2135 30.6719 19.7369 30.5325 18.8053C30.5113 18.6623 30.4549 18.5269 30.3682 18.4114C30.2816 18.2958 30.1675 18.2036 30.0363 18.1433C29.9052 18.083 29.761 18.0563 29.617 18.0658C29.4729 18.0753 29.3335 18.1206 29.2114 18.1977L29.1313 18.248C28.9892 18.3393 28.8763 18.4697 28.8062 18.6235C28.736 18.7774 28.7117 18.9481 28.736 19.1155C28.8142 19.7038 28.7704 20.7932 27.9913 22.4418C27.7539 22.8631 27.5685 23.3118 27.4393 23.778C26.5612 22.248 25.5564 20.7946 24.4353 19.433C24.2773 19.2504 24.0533 19.1381 23.8125 19.1208C23.5718 19.1035 23.3341 19.1827 23.1517 19.3409C22.9693 19.499 22.8571 19.7233 22.8398 19.9642C22.8226 20.2052 22.9017 20.4431 23.0597 20.6257C23.1264 20.704 28.0638 26.5113 30.2776 35.6501C28.9984 34.7741 27.4018 34.3838 25.7593 34.1425C24.832 34.0295 23.9536 33.6637 23.22 33.0849C22.4864 32.5061 21.9259 31.7366 21.5996 30.8605C21.5263 30.633 21.3666 30.4434 21.155 30.3326C20.9433 30.2219 20.6966 30.1989 20.4681 30.2685C20.2397 30.3382 20.0477 30.495 19.9337 30.7051C19.8196 30.9151 19.7927 31.1616 19.8586 31.3914C20.2848 32.5984 21.0375 33.6633 22.0327 34.4673C23.0279 35.2713 24.2266 35.783 25.4953 35.9452C28.8269 36.4343 30.747 37.3751 31.1554 40.8055C31.3299 42.5637 31.375 44.3324 31.2904 46.0973C31.2789 46.3386 31.3635 46.5746 31.5258 46.7535C31.6881 46.9323 31.9146 47.0394 32.1557 47.0511C32.1706 47.0511 32.1854 47.0511 32.2003 47.0511C32.4339 47.0509 32.6585 46.9608 32.8276 46.7994C32.9967 46.638 33.0973 46.4177 33.1086 46.1842C33.392 39.6829 32.0865 33.2106 29.3054 27.3287Z" fill="#224730"/>
<path d="M28.9118 91.1504C29.1922 91.2155 29.4829 91.2227 29.7661 91.1714C30.0493 91.1202 30.3191 91.0116 30.559 90.8524C30.7989 90.6932 31.0037 90.4866 31.1611 90.2454C31.3184 90.0041 31.4249 89.7333 31.4741 89.4494C32.1111 85.7783 33.7841 78.1628 37.5299 71.3289C39.7108 67.3943 43.227 64.3713 47.4419 62.8073C53.2733 60.613 62.3013 55.813 64.7351 46.6063C65.3991 44.0999 66.6922 41.805 68.4916 39.9397C72.7511 35.519 79.558 26.7451 77.4453 17.5048C76.9102 15.2099 75.5247 13.2038 73.5689 11.892C71.6131 10.5801 69.2327 10.0603 66.9088 10.4374C56.2724 12.1413 36.1558 17.8301 36.1542 36.4871C36.1495 37.0554 36.016 37.6152 35.7639 38.1245C35.5118 38.6337 35.1475 39.079 34.6986 39.427C31.6943 41.7956 25.7248 48.5137 30.8358 62.0458C31.6442 64.2108 31.8387 66.5574 31.3977 68.8262C30.5655 73.1963 29.0724 80.798 27.3246 88.6232C27.2026 89.1689 27.3009 89.7407 27.5982 90.214C27.8955 90.6874 28.3677 91.024 28.9118 91.1504Z" fill="#80B297"/>
<path d="M68.3615 27.5252C68.1388 27.4355 67.8898 27.437 67.6682 27.5294C67.4466 27.6218 67.2702 27.7976 67.177 28.0191C67.1248 28.1446 65.8141 31.1051 59.9757 32.3127C57.9591 32.7417 56.0071 33.4326 54.1694 34.368C63.5521 24.2378 66.0195 18.3235 66.1214 18.0726C66.1665 17.9618 66.1894 17.8432 66.1887 17.7236C66.1881 17.604 66.1639 17.4857 66.1175 17.3754C66.0712 17.2652 66.0036 17.1652 65.9186 17.0811C65.8336 16.9969 65.733 16.9304 65.6223 16.8853C65.5116 16.8401 65.3932 16.8172 65.2737 16.8179C65.1542 16.8186 65.036 16.8428 64.9259 16.8892C64.8157 16.9356 64.7158 17.0032 64.6318 17.0883C64.5477 17.1733 64.4813 17.2741 64.4362 17.3849C64.4205 17.4227 63.3918 19.8633 60.2202 24.2334C60.2377 23.5458 60.2174 22.8577 60.1592 22.1724C60.0213 20.457 60.2635 19.6123 60.4219 19.2611C60.4709 19.152 60.4978 19.0343 60.5013 18.9147C60.5048 18.7951 60.4847 18.676 60.4422 18.5642C60.3997 18.4524 60.3356 18.35 60.2535 18.263C60.1715 18.176 60.0732 18.106 59.9641 18.057C59.8551 18.0081 59.7375 17.9811 59.618 17.9776C59.4985 17.9741 59.3795 17.9942 59.2678 18.0368C59.1561 18.0793 59.0539 18.1435 58.967 18.2256C58.88 18.3077 58.8101 18.4061 58.7612 18.5153C58.3549 19.4219 58.2139 20.7018 58.3442 22.3187C58.5787 25.2166 58.1909 26.9082 56.9279 28.4649C55.6042 30.0652 54.0672 31.8204 52.2863 33.7192C50.9878 35.1037 49.6988 36.6434 48.429 38.2953C48.4204 38.3071 48.4105 38.3183 48.4029 38.3306C46.885 40.3076 45.3965 42.4497 43.9555 44.7011C44.0333 43.3967 43.9042 42.0881 43.5731 40.8241C42.5152 36.9187 43.0034 35.2933 43.0243 35.2273C43.1086 35.0018 43.1002 34.7521 43.0011 34.5327C42.9019 34.3133 42.72 34.1422 42.4952 34.0567C42.2703 33.9712 42.0207 33.9783 41.8011 34.0765C41.5815 34.1747 41.4096 34.3559 41.3231 34.5806C41.2428 34.7857 40.5751 36.718 41.8167 41.301C42.9114 45.339 40.9754 49.5998 40.9567 49.6413C40.9512 49.653 40.9491 49.6653 40.9441 49.677C38.8482 53.3341 36.9002 57.1461 35.1704 60.9042C35.0891 61.0516 35.0401 61.1489 35.027 61.1766C34.9989 61.2349 34.977 61.2962 34.9619 61.3592C32.7285 66.256 28.0304 76.3622 26.7105 80.5658C26.6724 80.6805 26.6575 80.8017 26.6667 80.9223C26.6758 81.0428 26.7089 81.1604 26.7639 81.268C26.8189 81.3757 26.8947 81.4713 26.987 81.5493C27.0793 81.6273 27.1862 81.6861 27.3014 81.7223C27.4166 81.7586 27.5379 81.7715 27.6582 81.7603C27.7785 81.7492 27.8953 81.7142 28.0019 81.6573C28.1085 81.6005 28.2028 81.523 28.2792 81.4294C28.3556 81.3357 28.4126 81.2278 28.4469 81.1119C29.7761 76.8753 34.4995 66.7204 36.7636 61.7855C37.2987 60.8272 40.0585 56.4034 45.7955 55.5503C52.96 54.4859 53.9145 49.7161 53.9515 49.5134C53.9961 49.276 53.9448 49.0306 53.8086 48.8311C53.6725 48.6317 53.4628 48.4945 53.2256 48.4498C52.9885 48.4051 52.7433 48.4565 52.544 48.5928C52.3447 48.729 52.2077 48.939 52.163 49.1763C52.1323 49.3274 51.3439 52.8843 45.5284 53.7481C43.3568 54.0629 41.2901 54.8867 39.4969 56.1524C42.57 50.1552 46.1135 44.2941 49.8299 39.4558C50.3146 39.0156 54.5496 35.2936 60.3443 34.0951C67.2249 32.6717 68.8023 28.8581 68.8669 28.6963C68.9538 28.4739 68.9495 28.226 68.8548 28.0067C68.7602 27.7874 68.5829 27.6144 68.3615 27.5252Z" fill="#3E6A51"/>
<path d="M44.542 31.6471C44.6786 31.525 44.7759 31.3651 44.8217 31.1876C44.8675 31.0101 44.8596 30.823 44.7992 30.6499C44.7387 30.4769 44.6284 30.3256 44.4821 30.2154C44.3357 30.1051 44.1601 30.0407 43.9772 30.0304C43.7943 30.0201 43.6125 30.0643 43.4548 30.1574C43.297 30.2505 43.1703 30.3883 43.0908 30.5534C43.0113 30.7186 42.9825 30.9036 43.0081 31.0852C43.0336 31.2667 43.1124 31.4366 43.2344 31.5733C43.3154 31.6641 43.4135 31.738 43.523 31.7909C43.6326 31.8437 43.7515 31.8745 43.8729 31.8813C43.9943 31.8882 44.1159 31.871 44.2307 31.8308C44.3455 31.7907 44.4513 31.7282 44.542 31.6471Z" fill="#3E6A51"/>
</svg>
