<svg width="120" height="120" viewBox="0 0 120 120" fill="none" xmlns="http://www.w3.org/2000/svg">
<path d="M61.6307 39.0949C60.0966 27.7972 51.0085 29.6148 45.5557 23.556C47.0912 27.2985 56.5219 37.5935 61.6307 39.0949Z" fill="#73B40D"/>
<path fill-rule="evenodd" clip-rule="evenodd" d="M63.2604 40.9909C63.9031 40.4385 64.2222 39.5982 64.1081 38.7585C63.677 35.5837 62.6863 33.1523 61.2272 31.2375C59.7792 29.3373 57.9949 28.1122 56.2597 27.166C55.3994 26.6969 54.5196 26.2801 53.6968 25.8936C53.634 25.8641 53.5715 25.8347 53.5093 25.8055C52.7379 25.4434 52.017 25.1049 51.3097 24.7354C49.7991 23.9464 48.4981 23.0882 47.414 21.8837C46.6007 20.9799 45.255 20.7924 44.2255 21.4394C43.1961 22.0863 42.7814 23.3802 43.2429 24.505C43.7633 25.7735 44.8206 27.3422 46.0245 28.8879C47.2706 30.4877 48.8188 32.2455 50.4743 33.9223C52.1275 35.5968 53.9229 37.2262 55.6682 38.5511C57.3639 39.8384 59.204 40.9874 60.926 41.4935C61.739 41.7324 62.6177 41.5432 63.2604 40.9909ZM60.9561 36.0809C61.249 36.9687 61.4776 37.9664 61.6309 39.0949C60.7948 38.8492 59.843 38.368 58.8289 37.7185C55.9352 35.8651 52.5349 32.6415 49.8724 29.6109C47.7669 27.2142 46.1229 24.9382 45.5558 23.5561C47.2684 25.4591 49.3397 26.585 51.4229 27.5844C51.7616 27.7469 52.1005 27.906 52.4383 28.0646C55.9775 29.7259 59.3878 31.3268 60.9561 36.0809Z" fill="#436C02"/>
<path d="M62.5231 42.7302C64.0573 31.4325 73.4258 25.9796 79.4845 27.1915C70.3964 28.4031 72.8199 39.9148 62.5231 42.7302Z" fill="#73B40D"/>
<path fill-rule="evenodd" clip-rule="evenodd" d="M60.8757 44.6106C60.2446 44.0578 59.9329 43.2252 60.0458 42.3938C61.7378 29.9334 72.2515 23.1952 79.9748 24.74C81.1733 24.9797 82.0228 26.0509 81.9831 27.2725C81.9435 28.4941 81.0264 29.508 79.8148 29.6695C76.6866 30.0865 75.5493 32.0258 73.6591 35.5429L73.6363 35.5852C71.82 38.9651 69.4167 43.437 63.1824 45.1417C62.3731 45.363 61.5068 45.1635 60.8757 44.6106ZM63.097 39.9038C62.8509 40.801 62.6571 41.7433 62.5231 42.7302C63.5483 42.4498 64.4475 42.0833 65.2445 41.6492C68.4897 39.8819 70.0404 36.9958 71.5119 34.2573C72.2479 32.8873 72.9642 31.5543 73.8628 30.4167C75.157 28.7783 76.8295 27.5454 79.4844 27.1914C77.344 26.7633 74.7904 27.167 72.3152 28.3664C68.396 30.2654 64.6732 34.159 63.097 39.9038Z" fill="#436C02"/>
<path fill-rule="evenodd" clip-rule="evenodd" d="M62.52 22.2678C63.9007 22.2678 65.02 23.3871 65.02 24.7678V42.9441C65.02 44.3248 63.9007 45.4441 62.52 45.4441C61.1393 45.4441 60.02 44.3248 60.02 42.9441V24.7678C60.02 23.3871 61.1393 22.2678 62.52 22.2678Z" fill="#457003"/>
<path d="M51.6146 41.1268C37.5957 39.9313 24.0504 51.3212 24.9561 65.3618C26.4103 91.0509 47.9792 100.153 60.7027 100.153C72.8201 100.153 94.026 91.5356 96.4494 65.3618C97.3553 51.3212 83.8098 39.9313 69.7909 41.1268C66.0936 41.4421 61.9955 43.6697 60.7027 43.8998C59.41 43.6697 55.3119 41.4421 51.6146 41.1268Z" fill="#FF3A1A"/>
<path fill-rule="evenodd" clip-rule="evenodd" d="M98.9417 65.5576L98.9385 65.5923C96.3612 93.4277 73.6958 102.653 60.7025 102.653C53.8288 102.653 44.7128 100.219 37.0832 94.3758C29.3735 88.4715 23.2332 79.118 22.4604 65.5128C21.4471 49.7018 36.5475 37.333 51.8268 38.6359C54.0376 38.8244 56.2554 39.5664 57.9466 40.2077C58.5218 40.4259 59.0874 40.653 59.5695 40.8466C59.7913 40.9356 59.9954 41.0176 60.1746 41.0883C60.378 41.1686 60.5526 41.2358 60.7025 41.291C60.8524 41.2358 61.027 41.1686 61.2304 41.0883C61.4096 41.0176 61.6137 40.9356 61.8355 40.8466C62.3176 40.653 62.8832 40.4259 63.4584 40.2077C65.1496 39.5664 67.3674 38.8244 69.5782 38.6359C84.8607 37.3327 99.9644 49.707 98.9439 65.5228L98.9417 65.5576ZM60.7025 43.8998C60.2732 43.8234 59.5345 43.5267 58.6039 43.1529C56.7321 42.4011 54.0838 41.3374 51.6144 41.1269C37.5955 39.9314 24.0501 51.3213 24.9559 65.3619C26.4101 91.051 47.979 100.153 60.7025 100.153C72.8199 100.153 94.0257 91.5357 96.4491 65.3619C97.3551 51.3213 83.8095 39.9314 69.7906 41.1269C67.3212 41.3374 64.6729 42.4011 62.8011 43.1529C61.8705 43.5267 61.1318 43.8234 60.7025 43.8998Z" fill="#A20505"/>
<path fill-rule="evenodd" clip-rule="evenodd" d="M30.6943 49.5075C35.7889 43.8521 43.6248 40.4456 51.6145 41.1269C54.0839 41.3375 56.7322 42.4012 58.604 43.153C59.5346 43.5268 60.2733 43.8235 60.7026 43.8999C61.1319 43.8235 61.8706 43.5268 62.8012 43.153C64.673 42.4012 67.3213 41.3375 69.7907 41.1269C78.2458 40.4059 86.5287 44.2629 91.5728 50.5182C84.9969 47.1499 77.086 45.3518 69.7908 45.9739C67.3213 46.1844 64.6731 47.2481 62.8013 47.9999C61.8706 48.3737 61.132 48.6704 60.7027 48.7468C60.2734 48.6704 59.5347 48.3737 58.604 47.9999C56.7323 47.2481 54.084 46.1844 51.6145 45.9739C44.0729 45.3308 36.7609 46.7305 30.6943 49.5075Z" fill="#E83214"/>
<path fill-rule="evenodd" clip-rule="evenodd" d="M36.5581 90.6999C43.0711 94.7857 50.3049 96.5179 55.8555 96.5179C67.9729 96.5179 89.1787 87.9004 91.6021 61.7266C92.034 55.0323 89.1808 48.9405 84.5575 44.5281C91.9051 48.7989 97.0171 56.5595 96.4491 65.3618C94.0257 91.5357 72.8199 100.153 60.7025 100.153C53.7226 100.153 44.0808 97.4139 36.5581 90.6999Z" fill="#E83214"/>
<path d="M62.52 38.3932C71.0023 30.8266 73.4258 39.3089 81.3022 40.5206C77.3228 41.2478 66.5412 41.8838 62.52 38.3932Z" fill="#8ED918"/>
<path fill-rule="evenodd" clip-rule="evenodd" d="M60.0201 38.4102C60.0152 37.6917 60.3197 37.0059 60.8558 36.5277C63.1697 34.4635 65.3362 33.2499 67.5259 32.8952C69.7733 32.5313 71.6655 33.1331 73.2569 33.9293C74.0349 34.3185 74.7797 34.7741 75.4615 35.2011C75.6073 35.2924 75.7499 35.3822 75.8903 35.4706C76.4336 35.8127 76.9451 36.1348 77.4876 36.4481C78.8191 37.217 80.1414 37.8127 81.6823 38.0497C82.8887 38.2353 83.7847 39.265 83.8019 40.4855C83.8191 41.706 82.9523 42.7605 81.7516 42.9799C79.5737 43.3779 75.6904 43.7316 71.8008 43.5354C69.8493 43.437 67.8229 43.1968 65.971 42.7222C64.1513 42.2559 62.3013 41.5139 60.8812 40.2812C60.3387 39.8102 60.0249 39.1286 60.0201 38.4102ZM64.552 36.8017C63.9135 37.2265 63.2385 37.7523 62.52 38.3933C63.1386 38.9302 63.9172 39.3695 64.8064 39.7259C67.7561 40.908 71.9231 41.1771 75.5049 41.0696C77.862 40.9988 79.9657 40.7649 81.3021 40.5206C79.2804 40.2096 77.618 39.4196 76.1201 38.5449C75.5745 38.2262 75.0507 37.8964 74.5394 37.5744C71.4488 35.628 68.8122 33.9676 64.552 36.8017Z" fill="#436C02"/>
<path d="M60.7023 39.309C55.8555 33.2502 50.4025 36.8854 40.1026 37.4913C44.3436 39.9148 55.9813 41.772 60.7023 39.309Z" fill="#8ED918"/>
<path fill-rule="evenodd" clip-rule="evenodd" d="M63.1483 39.8242C63.3024 39.0928 63.1211 38.3309 62.6542 37.7472C61.2096 35.9414 59.6049 34.7248 57.7558 34.0394C55.9401 33.3665 54.0865 33.2803 52.2731 33.4068C50.7468 33.5133 49.0886 33.7871 47.4071 34.0646C47.1328 34.1099 46.858 34.1553 46.583 34.2001C44.5692 34.5279 42.399 34.8518 39.9555 34.9955C38.851 35.0605 37.9207 35.8436 37.6682 36.9208C37.4158 37.9979 37.9014 39.1129 38.8619 39.6618C41.4114 41.1187 45.7709 42.2413 49.939 42.7164C52.0679 42.9591 54.2587 43.0466 56.272 42.898C58.2437 42.7525 60.2443 42.3675 61.8584 41.5254C62.5211 41.1796 62.9943 40.5556 63.1483 39.8242ZM58.7716 37.4094C59.4315 37.8974 60.0719 38.5212 60.702 39.3089C59.9827 39.6842 59.1028 39.9592 58.1129 40.1472C54.5604 40.8218 49.5917 40.3755 45.5474 39.4222C43.3228 38.8979 41.378 38.2202 40.1023 37.4912C42.1328 37.3717 43.975 37.1346 45.6613 36.8771C46.4147 36.7621 47.1369 36.6431 47.8309 36.5287C52.439 35.7691 55.8032 35.2146 58.7716 37.4094Z" fill="#436C02"/>
<path d="M52.166 48.5661C54.6564 52.2719 52.1691 58.3042 46.6106 62.0398C41.052 65.7754 34.527 65.7996 32.0366 62.0939C29.5462 58.3881 32.0335 52.3557 37.5921 48.6202C43.1507 44.8846 49.6756 44.8604 52.166 48.5661Z" fill="#FE7B7B"/>
<path fill-rule="evenodd" clip-rule="evenodd" d="M41.8441 51.5089C42.6546 52.6267 42.4055 54.1899 41.2877 55.0004C40.4695 55.5937 39.854 56.2866 39.4069 57.084C38.7317 58.2883 37.208 58.7172 36.0036 58.042C34.7993 57.3667 34.3704 55.843 35.0457 54.6387C35.8635 53.1801 36.9772 51.9498 38.3526 50.9525C39.4704 50.142 41.0336 50.3911 41.8441 51.5089Z" fill="white"/>
<path d="M82.6535 75.3679C81.8535 76.4538 80.3246 76.6856 79.2386 75.8855C78.1527 75.0855 77.9209 73.5565 78.721 72.4706C79.5211 71.3847 81.05 71.1529 82.1359 71.953C83.2218 72.753 83.4536 74.2819 82.6535 75.3679Z" fill="#BD1106"/>
<path d="M86.5299 83.4218C85.7298 84.5077 84.2009 84.7395 83.115 83.9394C82.0291 83.1393 81.7973 81.6104 82.5974 80.5245C83.3974 79.4386 84.9263 79.2068 86.0123 80.0069C87.0982 80.8069 87.3299 82.3358 86.5299 83.4218Z" fill="#BD1106"/>
<path d="M89.4397 75.1602C88.8397 75.9747 87.693 76.1485 86.8786 75.5484C86.0641 74.9484 85.8903 73.8017 86.4903 72.9873C87.0904 72.1728 88.2371 71.999 89.0515 72.599C89.866 73.1991 90.0398 74.3458 89.4397 75.1602Z" fill="#BD1106"/>
<path d="M80.37 89.7505C79.5699 90.8364 78.041 91.0682 76.9551 90.2681C75.8691 89.468 75.6374 87.9391 76.4374 86.8532C77.2375 85.7673 78.7664 85.5355 79.8523 86.3356C80.9383 87.1356 81.17 88.6645 80.37 89.7505Z" fill="#BD1106"/>
<path d="M78.0246 81.816C77.2245 82.9019 75.6956 83.1336 74.6097 82.3336C73.5237 81.5335 73.292 80.0046 74.092 78.9187C74.8921 77.8327 76.421 77.601 77.5069 78.4011C78.5929 79.2011 78.8246 80.73 78.0246 81.816Z" fill="#BD1106"/>
<path d="M71.267 93.3865C70.467 94.4724 68.9381 94.7041 67.8521 93.9041C66.7662 93.104 66.5345 91.5751 67.3345 90.4892C68.1346 89.4032 69.6635 89.1715 70.7494 89.9716C71.8354 90.7716 72.0671 92.3005 71.267 93.3865Z" fill="#BD1106"/>
<path d="M70.315 85.6944C69.515 86.7803 67.9861 87.0121 66.9001 86.212C65.8142 85.412 65.5825 83.8831 66.3825 82.7971C67.1826 81.7112 68.7115 81.4794 69.7974 82.2795C70.8833 83.0795 71.1151 84.6085 70.315 85.6944Z" fill="#BD1106"/>
<path d="M61.7245 94.6902C61.1245 95.5047 59.9778 95.6785 59.1633 95.0784C58.3489 94.4784 58.1751 93.3317 58.7751 92.5173C59.3751 91.7028 60.5218 91.529 61.3363 92.1291C62.1507 92.7291 62.3245 93.8758 61.7245 94.6902Z" fill="#BD1106"/>
</svg>
