<svg width="100" height="100" viewBox="0 0 100 100" fill="none" xmlns="http://www.w3.org/2000/svg">
<path d="M50.9092 30.1559C49.4068 19.2221 40.5062 20.9812 35.166 15.1175C36.6698 18.7394 45.9059 28.7029 50.9092 30.1559Z" fill="#73B40D"/>
<path fill-rule="evenodd" clip-rule="evenodd" d="M52.5053 31.9908C53.1347 31.4563 53.4472 30.643 53.3355 29.8304C52.9133 26.7578 51.943 24.4048 50.514 22.5517C49.0959 20.7126 47.3485 19.527 45.649 18.6113C44.8065 18.1573 43.9448 17.7539 43.1391 17.3799C43.0775 17.3513 43.0163 17.3229 42.9554 17.2946C42.2 16.9442 41.4939 16.6166 40.8012 16.259C39.3219 15.4954 38.0477 14.6648 36.986 13.4991C36.1894 12.6245 34.8715 12.443 33.8633 13.0691C32.8551 13.6952 32.449 14.9474 32.901 16.036C33.4107 17.2636 34.4461 18.7818 35.6252 20.2777C36.8455 21.826 38.3618 23.5272 39.9831 25.15C41.6022 26.7705 43.3605 28.3475 45.0698 29.6297C46.7305 30.8754 48.5326 31.9875 50.219 32.4773C51.0153 32.7085 51.8759 32.5254 52.5053 31.9908ZM50.2486 27.2391C50.5354 28.0982 50.7593 29.0637 50.9094 30.156C50.0906 29.9182 49.1584 29.4524 48.1652 28.8239C45.3312 27.0302 42.0011 23.9104 39.3937 20.9774C37.3316 18.658 35.7215 16.4553 35.1661 15.1176C36.8434 16.9593 38.8719 18.049 40.9121 19.0162C41.2438 19.1734 41.5758 19.3274 41.9066 19.4809C45.3727 21.0887 48.7126 22.638 50.2486 27.2391Z" fill="#436C02"/>
<path d="M51.7829 33.6742C53.2854 22.7404 62.4605 17.4631 68.3941 18.6359C59.4936 19.8086 61.8671 30.9494 51.7829 33.6742Z" fill="#73B40D"/>
<path fill-rule="evenodd" clip-rule="evenodd" d="M50.1696 35.4939C49.5515 34.9589 49.2463 34.1531 49.3568 33.3485C51.0139 21.2895 61.3106 14.7684 68.8744 16.2634C70.0482 16.4954 70.8801 17.532 70.8413 18.7143C70.8025 19.8966 69.9043 20.8778 68.7178 21.0341C65.6542 21.4377 64.5403 23.3145 62.6891 26.7183L62.6668 26.7593C60.888 30.0302 58.5343 34.3581 52.4287 36.0079C51.6361 36.222 50.7876 36.029 50.1696 35.4939ZM52.3451 30.9388C52.104 31.807 51.9142 32.719 51.783 33.6741C52.7871 33.4028 53.6677 33.048 54.4482 32.6279C57.6264 30.9175 59.1451 28.1244 60.5862 25.4741C61.3071 24.1483 62.0085 22.8582 62.8886 21.7572C64.1561 20.1716 65.7941 18.9784 68.3942 18.6358C66.2979 18.2215 63.7971 18.6122 61.3729 19.773C57.5347 21.6108 53.8887 25.379 52.3451 30.9388Z" fill="#436C02"/>
<path fill-rule="evenodd" clip-rule="evenodd" d="M51.7799 13.8708C53.1322 13.8708 54.2283 14.9541 54.2283 16.2903V33.8811C54.2283 35.2173 53.1322 36.3005 51.7799 36.3005C50.4277 36.3005 49.3315 35.2173 49.3315 33.8811V16.2903C49.3315 14.9541 50.4277 13.8708 51.7799 13.8708Z" fill="#457003"/>
<path d="M41.1001 32.1223C27.3705 30.9653 14.1048 41.9883 14.9918 55.5766C16.416 80.4382 37.5397 89.2472 50.0006 89.2472C61.8678 89.2472 82.636 80.9073 85.0093 55.5766C85.8966 41.9883 72.6306 30.9653 58.9011 32.1223C55.2802 32.4274 51.2666 34.5833 50.0006 34.806C48.7345 34.5833 44.721 32.4274 41.1001 32.1223Z" fill="#FF3A1A"/>
<path fill-rule="evenodd" clip-rule="evenodd" d="M87.4499 55.7661L87.4467 55.7997C84.9227 82.7384 62.7251 91.6667 50 91.6667C43.2681 91.6667 34.3403 89.3106 26.8682 83.6559C19.3177 77.9419 13.3042 68.8897 12.5473 55.7228C11.5549 40.4211 26.3436 28.4506 41.3075 29.7116C43.4726 29.894 45.6447 30.6121 47.301 31.2328C47.8643 31.4439 48.4182 31.6637 48.8904 31.8511C49.1076 31.9372 49.3075 32.0166 49.483 32.085C49.6822 32.1627 49.8531 32.2277 50 32.2811C50.1468 32.2277 50.3178 32.1627 50.517 32.085C50.6925 32.0166 50.8924 31.9372 51.1096 31.851C51.5818 31.6637 52.1357 31.4439 52.699 31.2328C54.3553 30.6121 56.5273 29.894 58.6925 29.7116C73.6595 28.4504 88.4515 40.4261 87.4521 55.7324L87.4499 55.7661ZM50 34.806C49.5796 34.732 48.8561 34.4449 47.9447 34.0831C46.1115 33.3555 43.5179 32.3261 41.0995 32.1223C27.3699 30.9654 14.1042 41.9883 14.9912 55.5766C16.4154 80.4383 37.5391 89.2472 50 89.2472C61.8672 89.2472 82.6354 80.9073 85.0087 55.5766C85.896 41.9883 72.63 30.9654 58.9005 32.1223C56.4821 32.3261 53.8884 33.3555 52.0553 34.0831C51.1439 34.4449 50.4204 34.732 50 34.806Z" fill="#A20505"/>
<path fill-rule="evenodd" clip-rule="evenodd" d="M20.6113 40.233C25.6007 34.7599 33.2749 31.4631 41.0996 32.1224C43.5181 32.3262 46.1117 33.3557 47.9449 34.0832C48.8563 34.445 49.5797 34.7321 50.0002 34.8061C50.4206 34.7321 51.144 34.445 52.0555 34.0832C53.8886 33.3557 56.4822 32.3262 58.9007 32.1224C67.1812 31.4246 75.2932 35.1573 80.2331 41.2112C73.7929 37.9514 66.0454 36.2112 58.9007 36.8132C56.4823 37.017 53.8887 38.0465 52.0555 38.774C51.1441 39.1358 50.4207 39.4229 50.0002 39.4969C49.5798 39.4229 48.8564 39.1358 47.9449 38.774C46.1118 38.0465 43.5182 37.017 41.0997 36.8132C33.7138 36.1909 26.5527 37.5455 20.6113 40.233Z" fill="#E83214"/>
<path fill-rule="evenodd" clip-rule="evenodd" d="M26.354 80.0985C32.7325 84.0527 39.8171 85.7291 45.253 85.7291C57.1203 85.7291 77.8884 77.3893 80.2618 52.0586C80.6848 45.5799 77.8905 39.6844 73.3626 35.4141C80.5585 39.5473 85.565 47.0579 85.0087 55.5767C82.6353 80.9074 61.8672 89.2473 50 89.2473C43.1642 89.2473 33.7214 86.5963 26.354 80.0985Z" fill="#E83214"/>
<path d="M51.7803 29.4769C60.0874 22.154 62.4609 30.3631 70.1747 31.5357C66.2775 32.2395 55.7185 32.855 51.7803 29.4769Z" fill="#8ED918"/>
<path fill-rule="evenodd" clip-rule="evenodd" d="M49.3316 29.4932C49.3268 28.7979 49.625 28.1342 50.1501 27.6713C52.4162 25.6736 54.538 24.4991 56.6825 24.1559C58.8835 23.8036 60.7366 24.386 62.2952 25.1566C63.0571 25.5333 63.7866 25.9743 64.4543 26.3875C64.5971 26.4759 64.7367 26.5627 64.8742 26.6483C65.4063 26.9794 65.9073 27.2911 66.4386 27.5943C67.7426 28.3384 69.0376 28.9149 70.5466 29.1443C71.7282 29.3239 72.6057 30.3205 72.6225 31.5017C72.6393 32.6829 71.7905 33.7034 70.6145 33.9157C68.4816 34.3009 64.6785 34.6432 60.8692 34.4533C58.9579 34.358 56.9733 34.1256 55.1597 33.6663C53.3776 33.215 51.5657 32.4969 50.175 31.3039C49.6436 30.8482 49.3364 30.1885 49.3316 29.4932ZM53.77 27.9366C53.1447 28.3477 52.4836 28.8565 51.7799 29.4768C52.3858 29.9965 53.1483 30.4216 54.0191 30.7665C56.908 31.9105 60.989 32.171 64.4968 32.0669C66.8053 31.9984 68.8655 31.772 70.1744 31.5357C68.1944 31.2347 66.5662 30.4701 65.0993 29.6235C64.565 29.3152 64.052 28.996 63.5512 28.6843C60.5244 26.8006 57.9422 25.1937 53.77 27.9366Z" fill="#436C02"/>
<path d="M50 30.363C45.2533 24.4993 39.9128 28.0175 29.8255 28.6038C33.9791 30.9492 45.3765 32.7467 50 30.363Z" fill="#8ED918"/>
<path fill-rule="evenodd" clip-rule="evenodd" d="M52.3957 30.8617C52.5466 30.1539 52.3691 29.4165 51.9118 28.8517C50.497 27.104 48.9255 25.9266 47.1145 25.2633C45.3363 24.612 43.521 24.5287 41.7449 24.6511C40.2502 24.7542 38.6262 25.0191 36.9794 25.2877C36.7108 25.3315 36.4416 25.3754 36.1723 25.4188C34.2001 25.736 32.0747 26.0495 29.6816 26.1886C28.6 26.2515 27.6888 27.0094 27.4416 28.0518C27.1944 29.0943 27.6699 30.1733 28.6106 30.7046C31.1075 32.1145 35.377 33.2009 39.4591 33.6608C41.544 33.8956 43.6896 33.9803 45.6613 33.8365C47.5923 33.6957 49.5516 33.3231 51.1324 32.5081C51.7814 32.1735 52.2448 31.5695 52.3957 30.8617ZM48.1093 28.5247C48.7556 28.997 49.3828 29.6007 49.9999 30.363C49.2954 30.7262 48.4337 30.9924 47.4643 31.1743C43.9851 31.8272 39.1189 31.3953 35.1581 30.4727C32.9795 29.9653 31.0747 29.3094 29.8254 28.6039C31.814 28.4883 33.6182 28.2587 35.2697 28.0096C36.0075 27.8983 36.7148 27.7831 37.3945 27.6724C41.9074 26.9373 45.2022 26.4006 48.1093 28.5247Z" fill="#436C02"/>
<path d="M41.6399 39.322C44.0788 42.9084 41.6429 48.7464 36.1991 52.3617C30.7552 55.9769 24.3649 56.0003 21.9259 52.414C19.4869 48.8276 21.9229 42.9896 27.3667 39.3743C32.8106 35.7591 39.2009 35.7356 41.6399 39.322Z" fill="#FE7B7B"/>
<path fill-rule="evenodd" clip-rule="evenodd" d="M31.5309 42.1699C32.3246 43.2517 32.0807 44.7645 30.986 45.5489C30.1847 46.1231 29.5819 46.7937 29.144 47.5654C28.4827 48.7309 26.9905 49.146 25.811 48.4925C24.6315 47.839 24.2115 46.3644 24.8728 45.1989C25.6737 43.7873 26.7645 42.5966 28.1115 41.6315C29.2062 40.8471 30.7371 41.0882 31.5309 42.1699Z" fill="white"/>
<path d="M71.498 65.2604C70.7144 66.3113 69.2171 66.5356 68.1536 65.7613C67.0901 64.987 66.8631 63.5074 67.6466 62.4564C68.4302 61.4055 69.9275 61.1812 70.991 61.9555C72.0546 62.7298 72.2815 64.2094 71.498 65.2604Z" fill="#BD1106"/>
<path d="M75.2943 73.0548C74.5108 74.1058 73.0134 74.33 71.9499 73.5558C70.8864 72.7815 70.6594 71.3018 71.443 70.2509C72.2265 69.1999 73.7239 68.9756 74.7874 69.7499C75.8509 70.5242 76.0779 72.0039 75.2943 73.0548Z" fill="#BD1106"/>
<path d="M78.1441 65.0594C77.5564 65.8476 76.4334 66.0158 75.6358 65.4351C74.8382 64.8544 74.6679 63.7446 75.2556 62.9564C75.8433 62.1682 76.9663 62 77.7639 62.5807C78.5615 63.1614 78.7318 64.2712 78.1441 65.0594Z" fill="#BD1106"/>
<path d="M69.2616 79.1796C68.478 80.2306 66.9807 80.4549 65.9171 79.6806C64.8536 78.9063 64.6267 77.4267 65.4102 76.3757C66.1937 75.3247 67.6911 75.1005 68.7546 75.8748C69.8181 76.649 70.0451 78.1287 69.2616 79.1796Z" fill="#BD1106"/>
<path d="M66.9646 71.5007C66.181 72.5517 64.6837 72.776 63.6202 72.0017C62.5566 71.2274 62.3297 69.7477 63.1132 68.6968C63.8968 67.6458 65.3941 67.4215 66.4576 68.1958C67.5211 68.9701 67.7481 70.4498 66.9646 71.5007Z" fill="#BD1106"/>
<path d="M60.3465 82.6985C59.563 83.7495 58.0656 83.9738 57.0021 83.1995C55.9386 82.4252 55.7116 80.9455 56.4952 79.8946C57.2787 78.8436 58.7761 78.6193 59.8396 79.3936C60.9031 80.1679 61.1301 81.6476 60.3465 82.6985Z" fill="#BD1106"/>
<path d="M59.4142 75.2542C58.6306 76.3052 57.1333 76.5295 56.0698 75.7552C55.0063 74.9809 54.7793 73.5012 55.5628 72.4503C56.3464 71.3993 57.8437 71.175 58.9072 71.9493C59.9708 72.7236 60.1977 74.2033 59.4142 75.2542Z" fill="#BD1106"/>
<path d="M51.001 83.9603C50.4133 84.7485 49.2903 84.9167 48.4927 84.336C47.695 83.7553 47.5248 82.6455 48.1125 81.8573C48.7001 81.0691 49.8231 80.9009 50.6208 81.4816C51.4184 82.0623 51.5886 83.1721 51.001 83.9603Z" fill="#BD1106"/>
</svg>
